%
M48
M72
T01C0.0320
T02C0.0394
T03C0.1260
%
T01
X6451Y7145
X6451Y8145
X16201Y7645
X16201Y8645
X16201Y9645
X16201Y10645
X16201Y11645
X16201Y12645
X16201Y13645
X16201Y14645
X16201Y15645
X16201Y16645
X16201Y17645
X19201Y17645
X19201Y16645
X19201Y15645
X19201Y14645
X19201Y13645
X19201Y12645
X19201Y11645
X19201Y10645
X19201Y9645
X19201Y8645
X19201Y7645
X19201Y6645
X20201Y6645
X20201Y5645
X19201Y5645
X19201Y4645
X16201Y4645
X16201Y5645
X16201Y6645
T02
X14201Y6145
X13201Y6145
X12201Y6145
X10201Y6145
X9201Y6145
X8201Y6145
X5201Y7645
X4201Y7645
X8201Y9645
X9201Y9645
X10201Y9645
X12201Y9645
X13201Y9645
X14201Y9645
X14201Y13145
X13201Y13145
X12201Y13145
X10201Y13145
X9201Y13145
X8201Y13145
X6201Y11145
X5201Y11145
X4201Y11145
X3201Y11145
X8201Y16645
X9201Y16645
X10201Y16645
X12201Y16645
X13201Y16645
X14201Y16645
X14101Y20645
X13101Y20645
X12101Y20645
X15101Y20645
X16101Y20645
X17101Y20645
X18101Y20645
X19101Y20645
X20701Y20645
X21701Y20645
X22701Y20645
X23701Y20645
X24701Y20645
X25701Y20645
X26701Y20645
X27701Y20645
X27201Y16645
X26201Y16645
X25201Y16645
X23201Y16645
X22201Y16645
X21201Y16645
X21201Y13145
X22201Y13145
X23201Y13145
X25201Y13145
X26201Y13145
X27201Y13145
X27201Y9645
X26201Y9645
X25201Y9645
X23201Y9645
X22201Y9645
X21201Y9645
X21201Y6145
X22201Y6145
X23201Y6145
X25201Y6145
X26201Y6145
X27201Y6145
X26701Y1645
X25701Y1645
X24701Y1645
X23701Y1645
X22701Y1645
X20701Y1645
X19701Y1645
X18701Y1645
X17701Y1645
X16701Y1645
X15701Y1645
X27701Y1645
T03
X8201Y1645
X28701Y14645
X8701Y20645
M30
