G75*
G70*
%OFA0B0*%
%FSLAX24Y24*%
%IPPOS*%
%LPD*%
%AMOC8*
5,1,8,0,0,1.08239X$1,22.5*
%
%ADD10C,0.0000*%
%ADD11C,0.0100*%
D10*
X000151Y000151D02*
X000151Y019151D01*
X019151Y019151D01*
X019151Y000151D01*
X000151Y000151D01*
X001100Y001651D02*
X001102Y001698D01*
X001108Y001744D01*
X001118Y001790D01*
X001131Y001835D01*
X001149Y001878D01*
X001170Y001920D01*
X001194Y001960D01*
X001222Y001997D01*
X001253Y002032D01*
X001287Y002065D01*
X001323Y002094D01*
X001362Y002120D01*
X001403Y002143D01*
X001446Y002162D01*
X001490Y002178D01*
X001535Y002190D01*
X001581Y002198D01*
X001628Y002202D01*
X001674Y002202D01*
X001721Y002198D01*
X001767Y002190D01*
X001812Y002178D01*
X001856Y002162D01*
X001899Y002143D01*
X001940Y002120D01*
X001979Y002094D01*
X002015Y002065D01*
X002049Y002032D01*
X002080Y001997D01*
X002108Y001960D01*
X002132Y001920D01*
X002153Y001878D01*
X002171Y001835D01*
X002184Y001790D01*
X002194Y001744D01*
X002200Y001698D01*
X002202Y001651D01*
X002200Y001604D01*
X002194Y001558D01*
X002184Y001512D01*
X002171Y001467D01*
X002153Y001424D01*
X002132Y001382D01*
X002108Y001342D01*
X002080Y001305D01*
X002049Y001270D01*
X002015Y001237D01*
X001979Y001208D01*
X001940Y001182D01*
X001899Y001159D01*
X001856Y001140D01*
X001812Y001124D01*
X001767Y001112D01*
X001721Y001104D01*
X001674Y001100D01*
X001628Y001100D01*
X001581Y001104D01*
X001535Y001112D01*
X001490Y001124D01*
X001446Y001140D01*
X001403Y001159D01*
X001362Y001182D01*
X001323Y001208D01*
X001287Y001237D01*
X001253Y001270D01*
X001222Y001305D01*
X001194Y001342D01*
X001170Y001382D01*
X001149Y001424D01*
X001131Y001467D01*
X001118Y001512D01*
X001108Y001558D01*
X001102Y001604D01*
X001100Y001651D01*
X004356Y004651D02*
X004358Y004685D01*
X004364Y004719D01*
X004374Y004752D01*
X004387Y004783D01*
X004405Y004813D01*
X004425Y004841D01*
X004449Y004866D01*
X004475Y004888D01*
X004503Y004906D01*
X004534Y004922D01*
X004566Y004934D01*
X004600Y004942D01*
X004634Y004946D01*
X004668Y004946D01*
X004702Y004942D01*
X004736Y004934D01*
X004768Y004922D01*
X004798Y004906D01*
X004827Y004888D01*
X004853Y004866D01*
X004877Y004841D01*
X004897Y004813D01*
X004915Y004783D01*
X004928Y004752D01*
X004938Y004719D01*
X004944Y004685D01*
X004946Y004651D01*
X004944Y004617D01*
X004938Y004583D01*
X004928Y004550D01*
X004915Y004519D01*
X004897Y004489D01*
X004877Y004461D01*
X004853Y004436D01*
X004827Y004414D01*
X004799Y004396D01*
X004768Y004380D01*
X004736Y004368D01*
X004702Y004360D01*
X004668Y004356D01*
X004634Y004356D01*
X004600Y004360D01*
X004566Y004368D01*
X004534Y004380D01*
X004503Y004396D01*
X004475Y004414D01*
X004449Y004436D01*
X004425Y004461D01*
X004405Y004489D01*
X004387Y004519D01*
X004374Y004550D01*
X004364Y004583D01*
X004358Y004617D01*
X004356Y004651D01*
X001100Y007651D02*
X001102Y007698D01*
X001108Y007744D01*
X001118Y007790D01*
X001131Y007835D01*
X001149Y007878D01*
X001170Y007920D01*
X001194Y007960D01*
X001222Y007997D01*
X001253Y008032D01*
X001287Y008065D01*
X001323Y008094D01*
X001362Y008120D01*
X001403Y008143D01*
X001446Y008162D01*
X001490Y008178D01*
X001535Y008190D01*
X001581Y008198D01*
X001628Y008202D01*
X001674Y008202D01*
X001721Y008198D01*
X001767Y008190D01*
X001812Y008178D01*
X001856Y008162D01*
X001899Y008143D01*
X001940Y008120D01*
X001979Y008094D01*
X002015Y008065D01*
X002049Y008032D01*
X002080Y007997D01*
X002108Y007960D01*
X002132Y007920D01*
X002153Y007878D01*
X002171Y007835D01*
X002184Y007790D01*
X002194Y007744D01*
X002200Y007698D01*
X002202Y007651D01*
X002200Y007604D01*
X002194Y007558D01*
X002184Y007512D01*
X002171Y007467D01*
X002153Y007424D01*
X002132Y007382D01*
X002108Y007342D01*
X002080Y007305D01*
X002049Y007270D01*
X002015Y007237D01*
X001979Y007208D01*
X001940Y007182D01*
X001899Y007159D01*
X001856Y007140D01*
X001812Y007124D01*
X001767Y007112D01*
X001721Y007104D01*
X001674Y007100D01*
X001628Y007100D01*
X001581Y007104D01*
X001535Y007112D01*
X001490Y007124D01*
X001446Y007140D01*
X001403Y007159D01*
X001362Y007182D01*
X001323Y007208D01*
X001287Y007237D01*
X001253Y007270D01*
X001222Y007305D01*
X001194Y007342D01*
X001170Y007382D01*
X001149Y007424D01*
X001131Y007467D01*
X001118Y007512D01*
X001108Y007558D01*
X001102Y007604D01*
X001100Y007651D01*
X000990Y005439D02*
X000992Y005462D01*
X000998Y005485D01*
X001008Y005506D01*
X001021Y005526D01*
X001037Y005543D01*
X001056Y005557D01*
X001077Y005567D01*
X001099Y005574D01*
X001122Y005577D01*
X001146Y005576D01*
X001168Y005571D01*
X001190Y005562D01*
X001210Y005550D01*
X001228Y005534D01*
X001242Y005516D01*
X001254Y005496D01*
X001262Y005474D01*
X001266Y005451D01*
X001266Y005427D01*
X001262Y005404D01*
X001254Y005382D01*
X001242Y005362D01*
X001228Y005344D01*
X001210Y005328D01*
X001190Y005316D01*
X001168Y005307D01*
X001146Y005302D01*
X001122Y005301D01*
X001099Y005304D01*
X001077Y005311D01*
X001056Y005321D01*
X001037Y005335D01*
X001021Y005352D01*
X001008Y005372D01*
X000998Y005393D01*
X000992Y005416D01*
X000990Y005439D01*
X001100Y011651D02*
X001102Y011698D01*
X001108Y011744D01*
X001118Y011790D01*
X001131Y011835D01*
X001149Y011878D01*
X001170Y011920D01*
X001194Y011960D01*
X001222Y011997D01*
X001253Y012032D01*
X001287Y012065D01*
X001323Y012094D01*
X001362Y012120D01*
X001403Y012143D01*
X001446Y012162D01*
X001490Y012178D01*
X001535Y012190D01*
X001581Y012198D01*
X001628Y012202D01*
X001674Y012202D01*
X001721Y012198D01*
X001767Y012190D01*
X001812Y012178D01*
X001856Y012162D01*
X001899Y012143D01*
X001940Y012120D01*
X001979Y012094D01*
X002015Y012065D01*
X002049Y012032D01*
X002080Y011997D01*
X002108Y011960D01*
X002132Y011920D01*
X002153Y011878D01*
X002171Y011835D01*
X002184Y011790D01*
X002194Y011744D01*
X002200Y011698D01*
X002202Y011651D01*
X002200Y011604D01*
X002194Y011558D01*
X002184Y011512D01*
X002171Y011467D01*
X002153Y011424D01*
X002132Y011382D01*
X002108Y011342D01*
X002080Y011305D01*
X002049Y011270D01*
X002015Y011237D01*
X001979Y011208D01*
X001940Y011182D01*
X001899Y011159D01*
X001856Y011140D01*
X001812Y011124D01*
X001767Y011112D01*
X001721Y011104D01*
X001674Y011100D01*
X001628Y011100D01*
X001581Y011104D01*
X001535Y011112D01*
X001490Y011124D01*
X001446Y011140D01*
X001403Y011159D01*
X001362Y011182D01*
X001323Y011208D01*
X001287Y011237D01*
X001253Y011270D01*
X001222Y011305D01*
X001194Y011342D01*
X001170Y011382D01*
X001149Y011424D01*
X001131Y011467D01*
X001118Y011512D01*
X001108Y011558D01*
X001102Y011604D01*
X001100Y011651D01*
X000990Y015439D02*
X000992Y015462D01*
X000998Y015485D01*
X001008Y015506D01*
X001021Y015526D01*
X001037Y015543D01*
X001056Y015557D01*
X001077Y015567D01*
X001099Y015574D01*
X001122Y015577D01*
X001146Y015576D01*
X001168Y015571D01*
X001190Y015562D01*
X001210Y015550D01*
X001228Y015534D01*
X001242Y015516D01*
X001254Y015496D01*
X001262Y015474D01*
X001266Y015451D01*
X001266Y015427D01*
X001262Y015404D01*
X001254Y015382D01*
X001242Y015362D01*
X001228Y015344D01*
X001210Y015328D01*
X001190Y015316D01*
X001168Y015307D01*
X001146Y015302D01*
X001122Y015301D01*
X001099Y015304D01*
X001077Y015311D01*
X001056Y015321D01*
X001037Y015335D01*
X001021Y015352D01*
X001008Y015372D01*
X000998Y015393D01*
X000992Y015416D01*
X000990Y015439D01*
X001100Y017651D02*
X001102Y017698D01*
X001108Y017744D01*
X001118Y017790D01*
X001131Y017835D01*
X001149Y017878D01*
X001170Y017920D01*
X001194Y017960D01*
X001222Y017997D01*
X001253Y018032D01*
X001287Y018065D01*
X001323Y018094D01*
X001362Y018120D01*
X001403Y018143D01*
X001446Y018162D01*
X001490Y018178D01*
X001535Y018190D01*
X001581Y018198D01*
X001628Y018202D01*
X001674Y018202D01*
X001721Y018198D01*
X001767Y018190D01*
X001812Y018178D01*
X001856Y018162D01*
X001899Y018143D01*
X001940Y018120D01*
X001979Y018094D01*
X002015Y018065D01*
X002049Y018032D01*
X002080Y017997D01*
X002108Y017960D01*
X002132Y017920D01*
X002153Y017878D01*
X002171Y017835D01*
X002184Y017790D01*
X002194Y017744D01*
X002200Y017698D01*
X002202Y017651D01*
X002200Y017604D01*
X002194Y017558D01*
X002184Y017512D01*
X002171Y017467D01*
X002153Y017424D01*
X002132Y017382D01*
X002108Y017342D01*
X002080Y017305D01*
X002049Y017270D01*
X002015Y017237D01*
X001979Y017208D01*
X001940Y017182D01*
X001899Y017159D01*
X001856Y017140D01*
X001812Y017124D01*
X001767Y017112D01*
X001721Y017104D01*
X001674Y017100D01*
X001628Y017100D01*
X001581Y017104D01*
X001535Y017112D01*
X001490Y017124D01*
X001446Y017140D01*
X001403Y017159D01*
X001362Y017182D01*
X001323Y017208D01*
X001287Y017237D01*
X001253Y017270D01*
X001222Y017305D01*
X001194Y017342D01*
X001170Y017382D01*
X001149Y017424D01*
X001131Y017467D01*
X001118Y017512D01*
X001108Y017558D01*
X001102Y017604D01*
X001100Y017651D01*
X004356Y014651D02*
X004358Y014685D01*
X004364Y014719D01*
X004374Y014752D01*
X004387Y014783D01*
X004405Y014813D01*
X004425Y014841D01*
X004449Y014866D01*
X004475Y014888D01*
X004503Y014906D01*
X004534Y014922D01*
X004566Y014934D01*
X004600Y014942D01*
X004634Y014946D01*
X004668Y014946D01*
X004702Y014942D01*
X004736Y014934D01*
X004768Y014922D01*
X004798Y014906D01*
X004827Y014888D01*
X004853Y014866D01*
X004877Y014841D01*
X004897Y014813D01*
X004915Y014783D01*
X004928Y014752D01*
X004938Y014719D01*
X004944Y014685D01*
X004946Y014651D01*
X004944Y014617D01*
X004938Y014583D01*
X004928Y014550D01*
X004915Y014519D01*
X004897Y014489D01*
X004877Y014461D01*
X004853Y014436D01*
X004827Y014414D01*
X004799Y014396D01*
X004768Y014380D01*
X004736Y014368D01*
X004702Y014360D01*
X004668Y014356D01*
X004634Y014356D01*
X004600Y014360D01*
X004566Y014368D01*
X004534Y014380D01*
X004503Y014396D01*
X004475Y014414D01*
X004449Y014436D01*
X004425Y014461D01*
X004405Y014489D01*
X004387Y014519D01*
X004374Y014550D01*
X004364Y014583D01*
X004358Y014617D01*
X004356Y014651D01*
X007100Y011651D02*
X007102Y011698D01*
X007108Y011744D01*
X007118Y011790D01*
X007131Y011835D01*
X007149Y011878D01*
X007170Y011920D01*
X007194Y011960D01*
X007222Y011997D01*
X007253Y012032D01*
X007287Y012065D01*
X007323Y012094D01*
X007362Y012120D01*
X007403Y012143D01*
X007446Y012162D01*
X007490Y012178D01*
X007535Y012190D01*
X007581Y012198D01*
X007628Y012202D01*
X007674Y012202D01*
X007721Y012198D01*
X007767Y012190D01*
X007812Y012178D01*
X007856Y012162D01*
X007899Y012143D01*
X007940Y012120D01*
X007979Y012094D01*
X008015Y012065D01*
X008049Y012032D01*
X008080Y011997D01*
X008108Y011960D01*
X008132Y011920D01*
X008153Y011878D01*
X008171Y011835D01*
X008184Y011790D01*
X008194Y011744D01*
X008200Y011698D01*
X008202Y011651D01*
X008200Y011604D01*
X008194Y011558D01*
X008184Y011512D01*
X008171Y011467D01*
X008153Y011424D01*
X008132Y011382D01*
X008108Y011342D01*
X008080Y011305D01*
X008049Y011270D01*
X008015Y011237D01*
X007979Y011208D01*
X007940Y011182D01*
X007899Y011159D01*
X007856Y011140D01*
X007812Y011124D01*
X007767Y011112D01*
X007721Y011104D01*
X007674Y011100D01*
X007628Y011100D01*
X007581Y011104D01*
X007535Y011112D01*
X007490Y011124D01*
X007446Y011140D01*
X007403Y011159D01*
X007362Y011182D01*
X007323Y011208D01*
X007287Y011237D01*
X007253Y011270D01*
X007222Y011305D01*
X007194Y011342D01*
X007170Y011382D01*
X007149Y011424D01*
X007131Y011467D01*
X007118Y011512D01*
X007108Y011558D01*
X007102Y011604D01*
X007100Y011651D01*
X007100Y007651D02*
X007102Y007698D01*
X007108Y007744D01*
X007118Y007790D01*
X007131Y007835D01*
X007149Y007878D01*
X007170Y007920D01*
X007194Y007960D01*
X007222Y007997D01*
X007253Y008032D01*
X007287Y008065D01*
X007323Y008094D01*
X007362Y008120D01*
X007403Y008143D01*
X007446Y008162D01*
X007490Y008178D01*
X007535Y008190D01*
X007581Y008198D01*
X007628Y008202D01*
X007674Y008202D01*
X007721Y008198D01*
X007767Y008190D01*
X007812Y008178D01*
X007856Y008162D01*
X007899Y008143D01*
X007940Y008120D01*
X007979Y008094D01*
X008015Y008065D01*
X008049Y008032D01*
X008080Y007997D01*
X008108Y007960D01*
X008132Y007920D01*
X008153Y007878D01*
X008171Y007835D01*
X008184Y007790D01*
X008194Y007744D01*
X008200Y007698D01*
X008202Y007651D01*
X008200Y007604D01*
X008194Y007558D01*
X008184Y007512D01*
X008171Y007467D01*
X008153Y007424D01*
X008132Y007382D01*
X008108Y007342D01*
X008080Y007305D01*
X008049Y007270D01*
X008015Y007237D01*
X007979Y007208D01*
X007940Y007182D01*
X007899Y007159D01*
X007856Y007140D01*
X007812Y007124D01*
X007767Y007112D01*
X007721Y007104D01*
X007674Y007100D01*
X007628Y007100D01*
X007581Y007104D01*
X007535Y007112D01*
X007490Y007124D01*
X007446Y007140D01*
X007403Y007159D01*
X007362Y007182D01*
X007323Y007208D01*
X007287Y007237D01*
X007253Y007270D01*
X007222Y007305D01*
X007194Y007342D01*
X007170Y007382D01*
X007149Y007424D01*
X007131Y007467D01*
X007118Y007512D01*
X007108Y007558D01*
X007102Y007604D01*
X007100Y007651D01*
X010990Y005439D02*
X010992Y005462D01*
X010998Y005485D01*
X011008Y005506D01*
X011021Y005526D01*
X011037Y005543D01*
X011056Y005557D01*
X011077Y005567D01*
X011099Y005574D01*
X011122Y005577D01*
X011146Y005576D01*
X011168Y005571D01*
X011190Y005562D01*
X011210Y005550D01*
X011228Y005534D01*
X011242Y005516D01*
X011254Y005496D01*
X011262Y005474D01*
X011266Y005451D01*
X011266Y005427D01*
X011262Y005404D01*
X011254Y005382D01*
X011242Y005362D01*
X011228Y005344D01*
X011210Y005328D01*
X011190Y005316D01*
X011168Y005307D01*
X011146Y005302D01*
X011122Y005301D01*
X011099Y005304D01*
X011077Y005311D01*
X011056Y005321D01*
X011037Y005335D01*
X011021Y005352D01*
X011008Y005372D01*
X010998Y005393D01*
X010992Y005416D01*
X010990Y005439D01*
X011100Y007651D02*
X011102Y007698D01*
X011108Y007744D01*
X011118Y007790D01*
X011131Y007835D01*
X011149Y007878D01*
X011170Y007920D01*
X011194Y007960D01*
X011222Y007997D01*
X011253Y008032D01*
X011287Y008065D01*
X011323Y008094D01*
X011362Y008120D01*
X011403Y008143D01*
X011446Y008162D01*
X011490Y008178D01*
X011535Y008190D01*
X011581Y008198D01*
X011628Y008202D01*
X011674Y008202D01*
X011721Y008198D01*
X011767Y008190D01*
X011812Y008178D01*
X011856Y008162D01*
X011899Y008143D01*
X011940Y008120D01*
X011979Y008094D01*
X012015Y008065D01*
X012049Y008032D01*
X012080Y007997D01*
X012108Y007960D01*
X012132Y007920D01*
X012153Y007878D01*
X012171Y007835D01*
X012184Y007790D01*
X012194Y007744D01*
X012200Y007698D01*
X012202Y007651D01*
X012200Y007604D01*
X012194Y007558D01*
X012184Y007512D01*
X012171Y007467D01*
X012153Y007424D01*
X012132Y007382D01*
X012108Y007342D01*
X012080Y007305D01*
X012049Y007270D01*
X012015Y007237D01*
X011979Y007208D01*
X011940Y007182D01*
X011899Y007159D01*
X011856Y007140D01*
X011812Y007124D01*
X011767Y007112D01*
X011721Y007104D01*
X011674Y007100D01*
X011628Y007100D01*
X011581Y007104D01*
X011535Y007112D01*
X011490Y007124D01*
X011446Y007140D01*
X011403Y007159D01*
X011362Y007182D01*
X011323Y007208D01*
X011287Y007237D01*
X011253Y007270D01*
X011222Y007305D01*
X011194Y007342D01*
X011170Y007382D01*
X011149Y007424D01*
X011131Y007467D01*
X011118Y007512D01*
X011108Y007558D01*
X011102Y007604D01*
X011100Y007651D01*
X014356Y004651D02*
X014358Y004685D01*
X014364Y004719D01*
X014374Y004752D01*
X014387Y004783D01*
X014405Y004813D01*
X014425Y004841D01*
X014449Y004866D01*
X014475Y004888D01*
X014503Y004906D01*
X014534Y004922D01*
X014566Y004934D01*
X014600Y004942D01*
X014634Y004946D01*
X014668Y004946D01*
X014702Y004942D01*
X014736Y004934D01*
X014768Y004922D01*
X014798Y004906D01*
X014827Y004888D01*
X014853Y004866D01*
X014877Y004841D01*
X014897Y004813D01*
X014915Y004783D01*
X014928Y004752D01*
X014938Y004719D01*
X014944Y004685D01*
X014946Y004651D01*
X014944Y004617D01*
X014938Y004583D01*
X014928Y004550D01*
X014915Y004519D01*
X014897Y004489D01*
X014877Y004461D01*
X014853Y004436D01*
X014827Y004414D01*
X014799Y004396D01*
X014768Y004380D01*
X014736Y004368D01*
X014702Y004360D01*
X014668Y004356D01*
X014634Y004356D01*
X014600Y004360D01*
X014566Y004368D01*
X014534Y004380D01*
X014503Y004396D01*
X014475Y004414D01*
X014449Y004436D01*
X014425Y004461D01*
X014405Y004489D01*
X014387Y004519D01*
X014374Y004550D01*
X014364Y004583D01*
X014358Y004617D01*
X014356Y004651D01*
X011100Y001651D02*
X011102Y001698D01*
X011108Y001744D01*
X011118Y001790D01*
X011131Y001835D01*
X011149Y001878D01*
X011170Y001920D01*
X011194Y001960D01*
X011222Y001997D01*
X011253Y002032D01*
X011287Y002065D01*
X011323Y002094D01*
X011362Y002120D01*
X011403Y002143D01*
X011446Y002162D01*
X011490Y002178D01*
X011535Y002190D01*
X011581Y002198D01*
X011628Y002202D01*
X011674Y002202D01*
X011721Y002198D01*
X011767Y002190D01*
X011812Y002178D01*
X011856Y002162D01*
X011899Y002143D01*
X011940Y002120D01*
X011979Y002094D01*
X012015Y002065D01*
X012049Y002032D01*
X012080Y001997D01*
X012108Y001960D01*
X012132Y001920D01*
X012153Y001878D01*
X012171Y001835D01*
X012184Y001790D01*
X012194Y001744D01*
X012200Y001698D01*
X012202Y001651D01*
X012200Y001604D01*
X012194Y001558D01*
X012184Y001512D01*
X012171Y001467D01*
X012153Y001424D01*
X012132Y001382D01*
X012108Y001342D01*
X012080Y001305D01*
X012049Y001270D01*
X012015Y001237D01*
X011979Y001208D01*
X011940Y001182D01*
X011899Y001159D01*
X011856Y001140D01*
X011812Y001124D01*
X011767Y001112D01*
X011721Y001104D01*
X011674Y001100D01*
X011628Y001100D01*
X011581Y001104D01*
X011535Y001112D01*
X011490Y001124D01*
X011446Y001140D01*
X011403Y001159D01*
X011362Y001182D01*
X011323Y001208D01*
X011287Y001237D01*
X011253Y001270D01*
X011222Y001305D01*
X011194Y001342D01*
X011170Y001382D01*
X011149Y001424D01*
X011131Y001467D01*
X011118Y001512D01*
X011108Y001558D01*
X011102Y001604D01*
X011100Y001651D01*
X007100Y001651D02*
X007102Y001698D01*
X007108Y001744D01*
X007118Y001790D01*
X007131Y001835D01*
X007149Y001878D01*
X007170Y001920D01*
X007194Y001960D01*
X007222Y001997D01*
X007253Y002032D01*
X007287Y002065D01*
X007323Y002094D01*
X007362Y002120D01*
X007403Y002143D01*
X007446Y002162D01*
X007490Y002178D01*
X007535Y002190D01*
X007581Y002198D01*
X007628Y002202D01*
X007674Y002202D01*
X007721Y002198D01*
X007767Y002190D01*
X007812Y002178D01*
X007856Y002162D01*
X007899Y002143D01*
X007940Y002120D01*
X007979Y002094D01*
X008015Y002065D01*
X008049Y002032D01*
X008080Y001997D01*
X008108Y001960D01*
X008132Y001920D01*
X008153Y001878D01*
X008171Y001835D01*
X008184Y001790D01*
X008194Y001744D01*
X008200Y001698D01*
X008202Y001651D01*
X008200Y001604D01*
X008194Y001558D01*
X008184Y001512D01*
X008171Y001467D01*
X008153Y001424D01*
X008132Y001382D01*
X008108Y001342D01*
X008080Y001305D01*
X008049Y001270D01*
X008015Y001237D01*
X007979Y001208D01*
X007940Y001182D01*
X007899Y001159D01*
X007856Y001140D01*
X007812Y001124D01*
X007767Y001112D01*
X007721Y001104D01*
X007674Y001100D01*
X007628Y001100D01*
X007581Y001104D01*
X007535Y001112D01*
X007490Y001124D01*
X007446Y001140D01*
X007403Y001159D01*
X007362Y001182D01*
X007323Y001208D01*
X007287Y001237D01*
X007253Y001270D01*
X007222Y001305D01*
X007194Y001342D01*
X007170Y001382D01*
X007149Y001424D01*
X007131Y001467D01*
X007118Y001512D01*
X007108Y001558D01*
X007102Y001604D01*
X007100Y001651D01*
X011100Y011651D02*
X011102Y011698D01*
X011108Y011744D01*
X011118Y011790D01*
X011131Y011835D01*
X011149Y011878D01*
X011170Y011920D01*
X011194Y011960D01*
X011222Y011997D01*
X011253Y012032D01*
X011287Y012065D01*
X011323Y012094D01*
X011362Y012120D01*
X011403Y012143D01*
X011446Y012162D01*
X011490Y012178D01*
X011535Y012190D01*
X011581Y012198D01*
X011628Y012202D01*
X011674Y012202D01*
X011721Y012198D01*
X011767Y012190D01*
X011812Y012178D01*
X011856Y012162D01*
X011899Y012143D01*
X011940Y012120D01*
X011979Y012094D01*
X012015Y012065D01*
X012049Y012032D01*
X012080Y011997D01*
X012108Y011960D01*
X012132Y011920D01*
X012153Y011878D01*
X012171Y011835D01*
X012184Y011790D01*
X012194Y011744D01*
X012200Y011698D01*
X012202Y011651D01*
X012200Y011604D01*
X012194Y011558D01*
X012184Y011512D01*
X012171Y011467D01*
X012153Y011424D01*
X012132Y011382D01*
X012108Y011342D01*
X012080Y011305D01*
X012049Y011270D01*
X012015Y011237D01*
X011979Y011208D01*
X011940Y011182D01*
X011899Y011159D01*
X011856Y011140D01*
X011812Y011124D01*
X011767Y011112D01*
X011721Y011104D01*
X011674Y011100D01*
X011628Y011100D01*
X011581Y011104D01*
X011535Y011112D01*
X011490Y011124D01*
X011446Y011140D01*
X011403Y011159D01*
X011362Y011182D01*
X011323Y011208D01*
X011287Y011237D01*
X011253Y011270D01*
X011222Y011305D01*
X011194Y011342D01*
X011170Y011382D01*
X011149Y011424D01*
X011131Y011467D01*
X011118Y011512D01*
X011108Y011558D01*
X011102Y011604D01*
X011100Y011651D01*
X014356Y014651D02*
X014358Y014685D01*
X014364Y014719D01*
X014374Y014752D01*
X014387Y014783D01*
X014405Y014813D01*
X014425Y014841D01*
X014449Y014866D01*
X014475Y014888D01*
X014503Y014906D01*
X014534Y014922D01*
X014566Y014934D01*
X014600Y014942D01*
X014634Y014946D01*
X014668Y014946D01*
X014702Y014942D01*
X014736Y014934D01*
X014768Y014922D01*
X014798Y014906D01*
X014827Y014888D01*
X014853Y014866D01*
X014877Y014841D01*
X014897Y014813D01*
X014915Y014783D01*
X014928Y014752D01*
X014938Y014719D01*
X014944Y014685D01*
X014946Y014651D01*
X014944Y014617D01*
X014938Y014583D01*
X014928Y014550D01*
X014915Y014519D01*
X014897Y014489D01*
X014877Y014461D01*
X014853Y014436D01*
X014827Y014414D01*
X014799Y014396D01*
X014768Y014380D01*
X014736Y014368D01*
X014702Y014360D01*
X014668Y014356D01*
X014634Y014356D01*
X014600Y014360D01*
X014566Y014368D01*
X014534Y014380D01*
X014503Y014396D01*
X014475Y014414D01*
X014449Y014436D01*
X014425Y014461D01*
X014405Y014489D01*
X014387Y014519D01*
X014374Y014550D01*
X014364Y014583D01*
X014358Y014617D01*
X014356Y014651D01*
X011100Y017651D02*
X011102Y017698D01*
X011108Y017744D01*
X011118Y017790D01*
X011131Y017835D01*
X011149Y017878D01*
X011170Y017920D01*
X011194Y017960D01*
X011222Y017997D01*
X011253Y018032D01*
X011287Y018065D01*
X011323Y018094D01*
X011362Y018120D01*
X011403Y018143D01*
X011446Y018162D01*
X011490Y018178D01*
X011535Y018190D01*
X011581Y018198D01*
X011628Y018202D01*
X011674Y018202D01*
X011721Y018198D01*
X011767Y018190D01*
X011812Y018178D01*
X011856Y018162D01*
X011899Y018143D01*
X011940Y018120D01*
X011979Y018094D01*
X012015Y018065D01*
X012049Y018032D01*
X012080Y017997D01*
X012108Y017960D01*
X012132Y017920D01*
X012153Y017878D01*
X012171Y017835D01*
X012184Y017790D01*
X012194Y017744D01*
X012200Y017698D01*
X012202Y017651D01*
X012200Y017604D01*
X012194Y017558D01*
X012184Y017512D01*
X012171Y017467D01*
X012153Y017424D01*
X012132Y017382D01*
X012108Y017342D01*
X012080Y017305D01*
X012049Y017270D01*
X012015Y017237D01*
X011979Y017208D01*
X011940Y017182D01*
X011899Y017159D01*
X011856Y017140D01*
X011812Y017124D01*
X011767Y017112D01*
X011721Y017104D01*
X011674Y017100D01*
X011628Y017100D01*
X011581Y017104D01*
X011535Y017112D01*
X011490Y017124D01*
X011446Y017140D01*
X011403Y017159D01*
X011362Y017182D01*
X011323Y017208D01*
X011287Y017237D01*
X011253Y017270D01*
X011222Y017305D01*
X011194Y017342D01*
X011170Y017382D01*
X011149Y017424D01*
X011131Y017467D01*
X011118Y017512D01*
X011108Y017558D01*
X011102Y017604D01*
X011100Y017651D01*
X010990Y015439D02*
X010992Y015462D01*
X010998Y015485D01*
X011008Y015506D01*
X011021Y015526D01*
X011037Y015543D01*
X011056Y015557D01*
X011077Y015567D01*
X011099Y015574D01*
X011122Y015577D01*
X011146Y015576D01*
X011168Y015571D01*
X011190Y015562D01*
X011210Y015550D01*
X011228Y015534D01*
X011242Y015516D01*
X011254Y015496D01*
X011262Y015474D01*
X011266Y015451D01*
X011266Y015427D01*
X011262Y015404D01*
X011254Y015382D01*
X011242Y015362D01*
X011228Y015344D01*
X011210Y015328D01*
X011190Y015316D01*
X011168Y015307D01*
X011146Y015302D01*
X011122Y015301D01*
X011099Y015304D01*
X011077Y015311D01*
X011056Y015321D01*
X011037Y015335D01*
X011021Y015352D01*
X011008Y015372D01*
X010998Y015393D01*
X010992Y015416D01*
X010990Y015439D01*
X007100Y017651D02*
X007102Y017698D01*
X007108Y017744D01*
X007118Y017790D01*
X007131Y017835D01*
X007149Y017878D01*
X007170Y017920D01*
X007194Y017960D01*
X007222Y017997D01*
X007253Y018032D01*
X007287Y018065D01*
X007323Y018094D01*
X007362Y018120D01*
X007403Y018143D01*
X007446Y018162D01*
X007490Y018178D01*
X007535Y018190D01*
X007581Y018198D01*
X007628Y018202D01*
X007674Y018202D01*
X007721Y018198D01*
X007767Y018190D01*
X007812Y018178D01*
X007856Y018162D01*
X007899Y018143D01*
X007940Y018120D01*
X007979Y018094D01*
X008015Y018065D01*
X008049Y018032D01*
X008080Y017997D01*
X008108Y017960D01*
X008132Y017920D01*
X008153Y017878D01*
X008171Y017835D01*
X008184Y017790D01*
X008194Y017744D01*
X008200Y017698D01*
X008202Y017651D01*
X008200Y017604D01*
X008194Y017558D01*
X008184Y017512D01*
X008171Y017467D01*
X008153Y017424D01*
X008132Y017382D01*
X008108Y017342D01*
X008080Y017305D01*
X008049Y017270D01*
X008015Y017237D01*
X007979Y017208D01*
X007940Y017182D01*
X007899Y017159D01*
X007856Y017140D01*
X007812Y017124D01*
X007767Y017112D01*
X007721Y017104D01*
X007674Y017100D01*
X007628Y017100D01*
X007581Y017104D01*
X007535Y017112D01*
X007490Y017124D01*
X007446Y017140D01*
X007403Y017159D01*
X007362Y017182D01*
X007323Y017208D01*
X007287Y017237D01*
X007253Y017270D01*
X007222Y017305D01*
X007194Y017342D01*
X007170Y017382D01*
X007149Y017424D01*
X007131Y017467D01*
X007118Y017512D01*
X007108Y017558D01*
X007102Y017604D01*
X007100Y017651D01*
X017100Y017651D02*
X017102Y017698D01*
X017108Y017744D01*
X017118Y017790D01*
X017131Y017835D01*
X017149Y017878D01*
X017170Y017920D01*
X017194Y017960D01*
X017222Y017997D01*
X017253Y018032D01*
X017287Y018065D01*
X017323Y018094D01*
X017362Y018120D01*
X017403Y018143D01*
X017446Y018162D01*
X017490Y018178D01*
X017535Y018190D01*
X017581Y018198D01*
X017628Y018202D01*
X017674Y018202D01*
X017721Y018198D01*
X017767Y018190D01*
X017812Y018178D01*
X017856Y018162D01*
X017899Y018143D01*
X017940Y018120D01*
X017979Y018094D01*
X018015Y018065D01*
X018049Y018032D01*
X018080Y017997D01*
X018108Y017960D01*
X018132Y017920D01*
X018153Y017878D01*
X018171Y017835D01*
X018184Y017790D01*
X018194Y017744D01*
X018200Y017698D01*
X018202Y017651D01*
X018200Y017604D01*
X018194Y017558D01*
X018184Y017512D01*
X018171Y017467D01*
X018153Y017424D01*
X018132Y017382D01*
X018108Y017342D01*
X018080Y017305D01*
X018049Y017270D01*
X018015Y017237D01*
X017979Y017208D01*
X017940Y017182D01*
X017899Y017159D01*
X017856Y017140D01*
X017812Y017124D01*
X017767Y017112D01*
X017721Y017104D01*
X017674Y017100D01*
X017628Y017100D01*
X017581Y017104D01*
X017535Y017112D01*
X017490Y017124D01*
X017446Y017140D01*
X017403Y017159D01*
X017362Y017182D01*
X017323Y017208D01*
X017287Y017237D01*
X017253Y017270D01*
X017222Y017305D01*
X017194Y017342D01*
X017170Y017382D01*
X017149Y017424D01*
X017131Y017467D01*
X017118Y017512D01*
X017108Y017558D01*
X017102Y017604D01*
X017100Y017651D01*
X017100Y011651D02*
X017102Y011698D01*
X017108Y011744D01*
X017118Y011790D01*
X017131Y011835D01*
X017149Y011878D01*
X017170Y011920D01*
X017194Y011960D01*
X017222Y011997D01*
X017253Y012032D01*
X017287Y012065D01*
X017323Y012094D01*
X017362Y012120D01*
X017403Y012143D01*
X017446Y012162D01*
X017490Y012178D01*
X017535Y012190D01*
X017581Y012198D01*
X017628Y012202D01*
X017674Y012202D01*
X017721Y012198D01*
X017767Y012190D01*
X017812Y012178D01*
X017856Y012162D01*
X017899Y012143D01*
X017940Y012120D01*
X017979Y012094D01*
X018015Y012065D01*
X018049Y012032D01*
X018080Y011997D01*
X018108Y011960D01*
X018132Y011920D01*
X018153Y011878D01*
X018171Y011835D01*
X018184Y011790D01*
X018194Y011744D01*
X018200Y011698D01*
X018202Y011651D01*
X018200Y011604D01*
X018194Y011558D01*
X018184Y011512D01*
X018171Y011467D01*
X018153Y011424D01*
X018132Y011382D01*
X018108Y011342D01*
X018080Y011305D01*
X018049Y011270D01*
X018015Y011237D01*
X017979Y011208D01*
X017940Y011182D01*
X017899Y011159D01*
X017856Y011140D01*
X017812Y011124D01*
X017767Y011112D01*
X017721Y011104D01*
X017674Y011100D01*
X017628Y011100D01*
X017581Y011104D01*
X017535Y011112D01*
X017490Y011124D01*
X017446Y011140D01*
X017403Y011159D01*
X017362Y011182D01*
X017323Y011208D01*
X017287Y011237D01*
X017253Y011270D01*
X017222Y011305D01*
X017194Y011342D01*
X017170Y011382D01*
X017149Y011424D01*
X017131Y011467D01*
X017118Y011512D01*
X017108Y011558D01*
X017102Y011604D01*
X017100Y011651D01*
X017100Y007651D02*
X017102Y007698D01*
X017108Y007744D01*
X017118Y007790D01*
X017131Y007835D01*
X017149Y007878D01*
X017170Y007920D01*
X017194Y007960D01*
X017222Y007997D01*
X017253Y008032D01*
X017287Y008065D01*
X017323Y008094D01*
X017362Y008120D01*
X017403Y008143D01*
X017446Y008162D01*
X017490Y008178D01*
X017535Y008190D01*
X017581Y008198D01*
X017628Y008202D01*
X017674Y008202D01*
X017721Y008198D01*
X017767Y008190D01*
X017812Y008178D01*
X017856Y008162D01*
X017899Y008143D01*
X017940Y008120D01*
X017979Y008094D01*
X018015Y008065D01*
X018049Y008032D01*
X018080Y007997D01*
X018108Y007960D01*
X018132Y007920D01*
X018153Y007878D01*
X018171Y007835D01*
X018184Y007790D01*
X018194Y007744D01*
X018200Y007698D01*
X018202Y007651D01*
X018200Y007604D01*
X018194Y007558D01*
X018184Y007512D01*
X018171Y007467D01*
X018153Y007424D01*
X018132Y007382D01*
X018108Y007342D01*
X018080Y007305D01*
X018049Y007270D01*
X018015Y007237D01*
X017979Y007208D01*
X017940Y007182D01*
X017899Y007159D01*
X017856Y007140D01*
X017812Y007124D01*
X017767Y007112D01*
X017721Y007104D01*
X017674Y007100D01*
X017628Y007100D01*
X017581Y007104D01*
X017535Y007112D01*
X017490Y007124D01*
X017446Y007140D01*
X017403Y007159D01*
X017362Y007182D01*
X017323Y007208D01*
X017287Y007237D01*
X017253Y007270D01*
X017222Y007305D01*
X017194Y007342D01*
X017170Y007382D01*
X017149Y007424D01*
X017131Y007467D01*
X017118Y007512D01*
X017108Y007558D01*
X017102Y007604D01*
X017100Y007651D01*
X017100Y001651D02*
X017102Y001698D01*
X017108Y001744D01*
X017118Y001790D01*
X017131Y001835D01*
X017149Y001878D01*
X017170Y001920D01*
X017194Y001960D01*
X017222Y001997D01*
X017253Y002032D01*
X017287Y002065D01*
X017323Y002094D01*
X017362Y002120D01*
X017403Y002143D01*
X017446Y002162D01*
X017490Y002178D01*
X017535Y002190D01*
X017581Y002198D01*
X017628Y002202D01*
X017674Y002202D01*
X017721Y002198D01*
X017767Y002190D01*
X017812Y002178D01*
X017856Y002162D01*
X017899Y002143D01*
X017940Y002120D01*
X017979Y002094D01*
X018015Y002065D01*
X018049Y002032D01*
X018080Y001997D01*
X018108Y001960D01*
X018132Y001920D01*
X018153Y001878D01*
X018171Y001835D01*
X018184Y001790D01*
X018194Y001744D01*
X018200Y001698D01*
X018202Y001651D01*
X018200Y001604D01*
X018194Y001558D01*
X018184Y001512D01*
X018171Y001467D01*
X018153Y001424D01*
X018132Y001382D01*
X018108Y001342D01*
X018080Y001305D01*
X018049Y001270D01*
X018015Y001237D01*
X017979Y001208D01*
X017940Y001182D01*
X017899Y001159D01*
X017856Y001140D01*
X017812Y001124D01*
X017767Y001112D01*
X017721Y001104D01*
X017674Y001100D01*
X017628Y001100D01*
X017581Y001104D01*
X017535Y001112D01*
X017490Y001124D01*
X017446Y001140D01*
X017403Y001159D01*
X017362Y001182D01*
X017323Y001208D01*
X017287Y001237D01*
X017253Y001270D01*
X017222Y001305D01*
X017194Y001342D01*
X017170Y001382D01*
X017149Y001424D01*
X017131Y001467D01*
X017118Y001512D01*
X017108Y001558D01*
X017102Y001604D01*
X017100Y001651D01*
D11*
X000151Y000151D02*
X000151Y009151D01*
X009151Y009151D01*
X009151Y000151D01*
X000151Y000151D01*
X000151Y009151D02*
X000151Y010151D01*
X009151Y010151D01*
X009151Y019151D01*
X010151Y019151D01*
X010151Y010151D01*
X019151Y010151D01*
X019151Y009151D01*
X010151Y009151D01*
X010151Y000151D01*
X009151Y000151D01*
X010151Y000151D02*
X019151Y000151D01*
X019151Y009151D01*
X019151Y010151D02*
X019151Y019151D01*
X010151Y019151D01*
X009151Y019151D02*
X000151Y019151D01*
X000151Y010151D01*
M02*
