%
M48
M72
T01C0.0276
T02C0.0320
T03C0.0394
T04C0.0591
T05C0.1102
%
T01
X1651Y4151
X1659Y5139
X1128Y5439
X7072Y4651
X7651Y5151
X7643Y4139
X11128Y5439
X11659Y5139
X11651Y4151
X17072Y4651
X17651Y5151
X17643Y4139
X17643Y14139
X17072Y14651
X17651Y15151
X11659Y15139
X11128Y15439
X11651Y14151
X7643Y14139
X7072Y14651
X7651Y15151
X1659Y15139
X1128Y15439
X1651Y14151
T02
X3651Y17651
X5651Y17651
X13651Y17651
X15651Y17651
X15651Y7651
X13651Y7651
X5651Y7651
X3651Y7651
T03
X3651Y11901
X4651Y11901
X5651Y11901
X13651Y11901
X14651Y11901
X15651Y11901
X15651Y1901
X14651Y1901
X13651Y1901
X5651Y1901
X4651Y1901
X3651Y1901
T04
X4651Y4651
X4651Y14651
X14651Y14651
X14651Y4651
T05
X1651Y1651
X1651Y7651
X1651Y11651
X1651Y17651
X7651Y17651
X11651Y17651
X11651Y11651
X11651Y7651
X7651Y7651
X7651Y11651
X7651Y1651
X11651Y1651
X17651Y1651
X17651Y7651
X17651Y11651
X17651Y17651
M30
