G75*
G70*
%OFA0B0*%
%FSLAX24Y24*%
%IPPOS*%
%LPD*%
%AMOC8*
5,1,8,0,0,1.08239X$1,22.5*
%
%ADD10C,0.0100*%
%ADD11C,0.0000*%
D10*
X000151Y000151D02*
X009151Y000151D01*
X010151Y000151D01*
X019151Y000151D01*
X019151Y009151D01*
X019151Y010151D01*
X010151Y010151D01*
X010151Y019151D01*
X009151Y019151D01*
X009151Y010151D01*
X000151Y010151D01*
X000151Y009151D01*
X000151Y000151D01*
X001060Y001651D02*
X001062Y001699D01*
X001068Y001747D01*
X001078Y001794D01*
X001091Y001840D01*
X001109Y001885D01*
X001129Y001929D01*
X001154Y001971D01*
X001182Y002010D01*
X001212Y002047D01*
X001246Y002081D01*
X001283Y002113D01*
X001321Y002142D01*
X001362Y002167D01*
X001405Y002189D01*
X001450Y002207D01*
X001496Y002221D01*
X001543Y002232D01*
X001591Y002239D01*
X001639Y002242D01*
X001687Y002241D01*
X001735Y002236D01*
X001783Y002227D01*
X001829Y002215D01*
X001874Y002198D01*
X001918Y002178D01*
X001960Y002155D01*
X002000Y002128D01*
X002038Y002098D01*
X002073Y002065D01*
X002105Y002029D01*
X002135Y001991D01*
X002161Y001950D01*
X002183Y001907D01*
X002203Y001863D01*
X002218Y001818D01*
X002230Y001771D01*
X002238Y001723D01*
X002242Y001675D01*
X002242Y001627D01*
X002238Y001579D01*
X002230Y001531D01*
X002218Y001484D01*
X002203Y001439D01*
X002183Y001395D01*
X002161Y001352D01*
X002135Y001311D01*
X002105Y001273D01*
X002073Y001237D01*
X002038Y001204D01*
X002000Y001174D01*
X001960Y001147D01*
X001918Y001124D01*
X001874Y001104D01*
X001829Y001087D01*
X001783Y001075D01*
X001735Y001066D01*
X001687Y001061D01*
X001639Y001060D01*
X001591Y001063D01*
X001543Y001070D01*
X001496Y001081D01*
X001450Y001095D01*
X001405Y001113D01*
X001362Y001135D01*
X001321Y001160D01*
X001283Y001189D01*
X001246Y001221D01*
X001212Y001255D01*
X001182Y001292D01*
X001154Y001331D01*
X001129Y001373D01*
X001109Y001417D01*
X001091Y001462D01*
X001078Y001508D01*
X001068Y001555D01*
X001062Y001603D01*
X001060Y001651D01*
X000501Y001651D02*
X000503Y001718D01*
X000509Y001786D01*
X000519Y001853D01*
X000533Y001919D01*
X000550Y001984D01*
X000572Y002048D01*
X000597Y002111D01*
X000626Y002172D01*
X000658Y002231D01*
X000694Y002288D01*
X000733Y002343D01*
X000775Y002396D01*
X000820Y002446D01*
X000868Y002493D01*
X000919Y002538D01*
X000972Y002579D01*
X001028Y002618D01*
X001086Y002653D01*
X001146Y002684D01*
X001207Y002712D01*
X001270Y002736D01*
X001334Y002757D01*
X001400Y002773D01*
X001466Y002786D01*
X001533Y002795D01*
X001600Y002800D01*
X001668Y002801D01*
X001735Y002798D01*
X001802Y002791D01*
X001869Y002780D01*
X001935Y002765D01*
X002000Y002747D01*
X002064Y002724D01*
X002126Y002698D01*
X002187Y002669D01*
X002245Y002635D01*
X002302Y002599D01*
X002357Y002559D01*
X002409Y002516D01*
X002458Y002470D01*
X002505Y002421D01*
X002549Y002370D01*
X002589Y002316D01*
X002627Y002260D01*
X002661Y002201D01*
X002691Y002141D01*
X002718Y002079D01*
X002742Y002016D01*
X002761Y001951D01*
X002777Y001886D01*
X002789Y001819D01*
X002797Y001752D01*
X002801Y001685D01*
X002801Y001617D01*
X002797Y001550D01*
X002789Y001483D01*
X002777Y001416D01*
X002761Y001351D01*
X002742Y001286D01*
X002718Y001223D01*
X002691Y001161D01*
X002661Y001101D01*
X002627Y001042D01*
X002589Y000986D01*
X002549Y000932D01*
X002505Y000881D01*
X002458Y000832D01*
X002409Y000786D01*
X002357Y000743D01*
X002302Y000703D01*
X002245Y000667D01*
X002187Y000633D01*
X002126Y000604D01*
X002064Y000578D01*
X002000Y000555D01*
X001935Y000537D01*
X001869Y000522D01*
X001802Y000511D01*
X001735Y000504D01*
X001668Y000501D01*
X001600Y000502D01*
X001533Y000507D01*
X001466Y000516D01*
X001400Y000529D01*
X001334Y000545D01*
X001270Y000566D01*
X001207Y000590D01*
X001146Y000618D01*
X001086Y000649D01*
X001028Y000684D01*
X000972Y000723D01*
X000919Y000764D01*
X000868Y000809D01*
X000820Y000856D01*
X000775Y000906D01*
X000733Y000959D01*
X000694Y001014D01*
X000658Y001071D01*
X000626Y001130D01*
X000597Y001191D01*
X000572Y001254D01*
X000550Y001318D01*
X000533Y001383D01*
X000519Y001449D01*
X000509Y001516D01*
X000503Y001584D01*
X000501Y001651D01*
X000911Y003431D02*
X000911Y005872D01*
X008391Y005872D01*
X008391Y003431D01*
X000911Y003431D01*
X003151Y003151D02*
X003151Y001401D01*
X006151Y001401D01*
X006151Y000651D01*
X003151Y000651D01*
X003151Y001401D01*
X004465Y001101D02*
X004665Y000801D01*
X004833Y000801D02*
X005033Y000801D01*
X004933Y000801D02*
X004933Y001101D01*
X004833Y001001D01*
X004665Y001101D02*
X004465Y000801D01*
X006151Y001401D02*
X006151Y003151D01*
X003151Y003151D01*
X004773Y006851D02*
X004773Y007141D01*
X004918Y007141D01*
X004966Y007093D01*
X004966Y006996D01*
X004918Y006948D01*
X004773Y006948D01*
X004870Y006948D02*
X004966Y006851D01*
X005132Y006851D02*
X005326Y006851D01*
X005229Y006851D02*
X005229Y007141D01*
X005132Y007045D01*
X005151Y007301D02*
X005101Y007351D01*
X004201Y007351D01*
X004151Y007301D01*
X004051Y007301D01*
X004034Y007303D01*
X004017Y007307D01*
X004001Y007314D01*
X003987Y007324D01*
X003974Y007337D01*
X003964Y007351D01*
X003957Y007367D01*
X003953Y007384D01*
X003951Y007401D01*
X003951Y007901D02*
X003953Y007918D01*
X003957Y007935D01*
X003964Y007951D01*
X003974Y007965D01*
X003987Y007978D01*
X004001Y007988D01*
X004017Y007995D01*
X004034Y007999D01*
X004051Y008001D01*
X004151Y008001D01*
X004201Y007951D01*
X005101Y007951D01*
X005151Y008001D01*
X005251Y008001D01*
X005268Y007999D01*
X005285Y007995D01*
X005301Y007988D01*
X005315Y007978D01*
X005328Y007965D01*
X005338Y007951D01*
X005345Y007935D01*
X005349Y007918D01*
X005351Y007901D01*
X005327Y008221D02*
X005230Y008221D01*
X005182Y008270D01*
X005376Y008463D01*
X005376Y008270D01*
X005327Y008221D01*
X005182Y008270D02*
X005182Y008463D01*
X005230Y008511D01*
X005327Y008511D01*
X005376Y008463D01*
X005016Y008463D02*
X005016Y008415D01*
X004968Y008366D01*
X005016Y008318D01*
X005016Y008270D01*
X004968Y008221D01*
X004871Y008221D01*
X004823Y008270D01*
X004920Y008366D02*
X004968Y008366D01*
X005016Y008463D02*
X004968Y008511D01*
X004871Y008511D01*
X004823Y008463D01*
X004657Y008463D02*
X004657Y008415D01*
X004609Y008366D01*
X004657Y008318D01*
X004657Y008270D01*
X004609Y008221D01*
X004512Y008221D01*
X004464Y008270D01*
X004561Y008366D02*
X004609Y008366D01*
X004657Y008463D02*
X004609Y008511D01*
X004512Y008511D01*
X004464Y008463D01*
X005351Y007401D02*
X005349Y007384D01*
X005345Y007367D01*
X005338Y007351D01*
X005328Y007337D01*
X005315Y007324D01*
X005301Y007314D01*
X005285Y007307D01*
X005268Y007303D01*
X005251Y007301D01*
X005151Y007301D01*
X007060Y007651D02*
X007062Y007699D01*
X007068Y007747D01*
X007078Y007794D01*
X007091Y007840D01*
X007109Y007885D01*
X007129Y007929D01*
X007154Y007971D01*
X007182Y008010D01*
X007212Y008047D01*
X007246Y008081D01*
X007283Y008113D01*
X007321Y008142D01*
X007362Y008167D01*
X007405Y008189D01*
X007450Y008207D01*
X007496Y008221D01*
X007543Y008232D01*
X007591Y008239D01*
X007639Y008242D01*
X007687Y008241D01*
X007735Y008236D01*
X007783Y008227D01*
X007829Y008215D01*
X007874Y008198D01*
X007918Y008178D01*
X007960Y008155D01*
X008000Y008128D01*
X008038Y008098D01*
X008073Y008065D01*
X008105Y008029D01*
X008135Y007991D01*
X008161Y007950D01*
X008183Y007907D01*
X008203Y007863D01*
X008218Y007818D01*
X008230Y007771D01*
X008238Y007723D01*
X008242Y007675D01*
X008242Y007627D01*
X008238Y007579D01*
X008230Y007531D01*
X008218Y007484D01*
X008203Y007439D01*
X008183Y007395D01*
X008161Y007352D01*
X008135Y007311D01*
X008105Y007273D01*
X008073Y007237D01*
X008038Y007204D01*
X008000Y007174D01*
X007960Y007147D01*
X007918Y007124D01*
X007874Y007104D01*
X007829Y007087D01*
X007783Y007075D01*
X007735Y007066D01*
X007687Y007061D01*
X007639Y007060D01*
X007591Y007063D01*
X007543Y007070D01*
X007496Y007081D01*
X007450Y007095D01*
X007405Y007113D01*
X007362Y007135D01*
X007321Y007160D01*
X007283Y007189D01*
X007246Y007221D01*
X007212Y007255D01*
X007182Y007292D01*
X007154Y007331D01*
X007129Y007373D01*
X007109Y007417D01*
X007091Y007462D01*
X007078Y007508D01*
X007068Y007555D01*
X007062Y007603D01*
X007060Y007651D01*
X006501Y007651D02*
X006503Y007718D01*
X006509Y007786D01*
X006519Y007853D01*
X006533Y007919D01*
X006550Y007984D01*
X006572Y008048D01*
X006597Y008111D01*
X006626Y008172D01*
X006658Y008231D01*
X006694Y008288D01*
X006733Y008343D01*
X006775Y008396D01*
X006820Y008446D01*
X006868Y008493D01*
X006919Y008538D01*
X006972Y008579D01*
X007028Y008618D01*
X007086Y008653D01*
X007146Y008684D01*
X007207Y008712D01*
X007270Y008736D01*
X007334Y008757D01*
X007400Y008773D01*
X007466Y008786D01*
X007533Y008795D01*
X007600Y008800D01*
X007668Y008801D01*
X007735Y008798D01*
X007802Y008791D01*
X007869Y008780D01*
X007935Y008765D01*
X008000Y008747D01*
X008064Y008724D01*
X008126Y008698D01*
X008187Y008669D01*
X008245Y008635D01*
X008302Y008599D01*
X008357Y008559D01*
X008409Y008516D01*
X008458Y008470D01*
X008505Y008421D01*
X008549Y008370D01*
X008589Y008316D01*
X008627Y008260D01*
X008661Y008201D01*
X008691Y008141D01*
X008718Y008079D01*
X008742Y008016D01*
X008761Y007951D01*
X008777Y007886D01*
X008789Y007819D01*
X008797Y007752D01*
X008801Y007685D01*
X008801Y007617D01*
X008797Y007550D01*
X008789Y007483D01*
X008777Y007416D01*
X008761Y007351D01*
X008742Y007286D01*
X008718Y007223D01*
X008691Y007161D01*
X008661Y007101D01*
X008627Y007042D01*
X008589Y006986D01*
X008549Y006932D01*
X008505Y006881D01*
X008458Y006832D01*
X008409Y006786D01*
X008357Y006743D01*
X008302Y006703D01*
X008245Y006667D01*
X008187Y006633D01*
X008126Y006604D01*
X008064Y006578D01*
X008000Y006555D01*
X007935Y006537D01*
X007869Y006522D01*
X007802Y006511D01*
X007735Y006504D01*
X007668Y006501D01*
X007600Y006502D01*
X007533Y006507D01*
X007466Y006516D01*
X007400Y006529D01*
X007334Y006545D01*
X007270Y006566D01*
X007207Y006590D01*
X007146Y006618D01*
X007086Y006649D01*
X007028Y006684D01*
X006972Y006723D01*
X006919Y006764D01*
X006868Y006809D01*
X006820Y006856D01*
X006775Y006906D01*
X006733Y006959D01*
X006694Y007014D01*
X006658Y007071D01*
X006626Y007130D01*
X006597Y007191D01*
X006572Y007254D01*
X006550Y007318D01*
X006533Y007383D01*
X006519Y007449D01*
X006509Y007516D01*
X006503Y007584D01*
X006501Y007651D01*
X009151Y009151D02*
X000151Y009151D01*
X000151Y009651D02*
X019151Y009651D01*
X019151Y009151D02*
X010151Y009151D01*
X010151Y000151D01*
X009651Y000151D02*
X009651Y019151D01*
X009151Y019151D02*
X000151Y019151D01*
X000151Y010151D01*
X001060Y011651D02*
X001062Y011699D01*
X001068Y011747D01*
X001078Y011794D01*
X001091Y011840D01*
X001109Y011885D01*
X001129Y011929D01*
X001154Y011971D01*
X001182Y012010D01*
X001212Y012047D01*
X001246Y012081D01*
X001283Y012113D01*
X001321Y012142D01*
X001362Y012167D01*
X001405Y012189D01*
X001450Y012207D01*
X001496Y012221D01*
X001543Y012232D01*
X001591Y012239D01*
X001639Y012242D01*
X001687Y012241D01*
X001735Y012236D01*
X001783Y012227D01*
X001829Y012215D01*
X001874Y012198D01*
X001918Y012178D01*
X001960Y012155D01*
X002000Y012128D01*
X002038Y012098D01*
X002073Y012065D01*
X002105Y012029D01*
X002135Y011991D01*
X002161Y011950D01*
X002183Y011907D01*
X002203Y011863D01*
X002218Y011818D01*
X002230Y011771D01*
X002238Y011723D01*
X002242Y011675D01*
X002242Y011627D01*
X002238Y011579D01*
X002230Y011531D01*
X002218Y011484D01*
X002203Y011439D01*
X002183Y011395D01*
X002161Y011352D01*
X002135Y011311D01*
X002105Y011273D01*
X002073Y011237D01*
X002038Y011204D01*
X002000Y011174D01*
X001960Y011147D01*
X001918Y011124D01*
X001874Y011104D01*
X001829Y011087D01*
X001783Y011075D01*
X001735Y011066D01*
X001687Y011061D01*
X001639Y011060D01*
X001591Y011063D01*
X001543Y011070D01*
X001496Y011081D01*
X001450Y011095D01*
X001405Y011113D01*
X001362Y011135D01*
X001321Y011160D01*
X001283Y011189D01*
X001246Y011221D01*
X001212Y011255D01*
X001182Y011292D01*
X001154Y011331D01*
X001129Y011373D01*
X001109Y011417D01*
X001091Y011462D01*
X001078Y011508D01*
X001068Y011555D01*
X001062Y011603D01*
X001060Y011651D01*
X000501Y011651D02*
X000503Y011718D01*
X000509Y011786D01*
X000519Y011853D01*
X000533Y011919D01*
X000550Y011984D01*
X000572Y012048D01*
X000597Y012111D01*
X000626Y012172D01*
X000658Y012231D01*
X000694Y012288D01*
X000733Y012343D01*
X000775Y012396D01*
X000820Y012446D01*
X000868Y012493D01*
X000919Y012538D01*
X000972Y012579D01*
X001028Y012618D01*
X001086Y012653D01*
X001146Y012684D01*
X001207Y012712D01*
X001270Y012736D01*
X001334Y012757D01*
X001400Y012773D01*
X001466Y012786D01*
X001533Y012795D01*
X001600Y012800D01*
X001668Y012801D01*
X001735Y012798D01*
X001802Y012791D01*
X001869Y012780D01*
X001935Y012765D01*
X002000Y012747D01*
X002064Y012724D01*
X002126Y012698D01*
X002187Y012669D01*
X002245Y012635D01*
X002302Y012599D01*
X002357Y012559D01*
X002409Y012516D01*
X002458Y012470D01*
X002505Y012421D01*
X002549Y012370D01*
X002589Y012316D01*
X002627Y012260D01*
X002661Y012201D01*
X002691Y012141D01*
X002718Y012079D01*
X002742Y012016D01*
X002761Y011951D01*
X002777Y011886D01*
X002789Y011819D01*
X002797Y011752D01*
X002801Y011685D01*
X002801Y011617D01*
X002797Y011550D01*
X002789Y011483D01*
X002777Y011416D01*
X002761Y011351D01*
X002742Y011286D01*
X002718Y011223D01*
X002691Y011161D01*
X002661Y011101D01*
X002627Y011042D01*
X002589Y010986D01*
X002549Y010932D01*
X002505Y010881D01*
X002458Y010832D01*
X002409Y010786D01*
X002357Y010743D01*
X002302Y010703D01*
X002245Y010667D01*
X002187Y010633D01*
X002126Y010604D01*
X002064Y010578D01*
X002000Y010555D01*
X001935Y010537D01*
X001869Y010522D01*
X001802Y010511D01*
X001735Y010504D01*
X001668Y010501D01*
X001600Y010502D01*
X001533Y010507D01*
X001466Y010516D01*
X001400Y010529D01*
X001334Y010545D01*
X001270Y010566D01*
X001207Y010590D01*
X001146Y010618D01*
X001086Y010649D01*
X001028Y010684D01*
X000972Y010723D01*
X000919Y010764D01*
X000868Y010809D01*
X000820Y010856D01*
X000775Y010906D01*
X000733Y010959D01*
X000694Y011014D01*
X000658Y011071D01*
X000626Y011130D01*
X000597Y011191D01*
X000572Y011254D01*
X000550Y011318D01*
X000533Y011383D01*
X000519Y011449D01*
X000509Y011516D01*
X000503Y011584D01*
X000501Y011651D01*
X000911Y013431D02*
X000911Y015872D01*
X008391Y015872D01*
X008391Y013431D01*
X000911Y013431D01*
X003151Y013151D02*
X003151Y011401D01*
X006151Y011401D01*
X006151Y010651D01*
X003151Y010651D01*
X003151Y011401D01*
X004465Y011101D02*
X004665Y010801D01*
X004833Y010801D02*
X005033Y010801D01*
X004933Y010801D02*
X004933Y011101D01*
X004833Y011001D01*
X004665Y011101D02*
X004465Y010801D01*
X006151Y011401D02*
X006151Y013151D01*
X003151Y013151D01*
X004773Y016851D02*
X004773Y017141D01*
X004918Y017141D01*
X004966Y017093D01*
X004966Y016996D01*
X004918Y016948D01*
X004773Y016948D01*
X004870Y016948D02*
X004966Y016851D01*
X005132Y016851D02*
X005326Y016851D01*
X005229Y016851D02*
X005229Y017141D01*
X005132Y017045D01*
X005151Y017301D02*
X005101Y017351D01*
X004201Y017351D01*
X004151Y017301D01*
X004051Y017301D01*
X004034Y017303D01*
X004017Y017307D01*
X004001Y017314D01*
X003987Y017324D01*
X003974Y017337D01*
X003964Y017351D01*
X003957Y017367D01*
X003953Y017384D01*
X003951Y017401D01*
X003951Y017901D02*
X003953Y017918D01*
X003957Y017935D01*
X003964Y017951D01*
X003974Y017965D01*
X003987Y017978D01*
X004001Y017988D01*
X004017Y017995D01*
X004034Y017999D01*
X004051Y018001D01*
X004151Y018001D01*
X004201Y017951D01*
X005101Y017951D01*
X005151Y018001D01*
X005251Y018001D01*
X005268Y017999D01*
X005285Y017995D01*
X005301Y017988D01*
X005315Y017978D01*
X005328Y017965D01*
X005338Y017951D01*
X005345Y017935D01*
X005349Y017918D01*
X005351Y017901D01*
X005327Y018221D02*
X005230Y018221D01*
X005182Y018270D01*
X005376Y018463D01*
X005376Y018270D01*
X005327Y018221D01*
X005182Y018270D02*
X005182Y018463D01*
X005230Y018511D01*
X005327Y018511D01*
X005376Y018463D01*
X005016Y018463D02*
X005016Y018415D01*
X004968Y018366D01*
X005016Y018318D01*
X005016Y018270D01*
X004968Y018221D01*
X004871Y018221D01*
X004823Y018270D01*
X004920Y018366D02*
X004968Y018366D01*
X005016Y018463D02*
X004968Y018511D01*
X004871Y018511D01*
X004823Y018463D01*
X004657Y018463D02*
X004657Y018415D01*
X004609Y018366D01*
X004657Y018318D01*
X004657Y018270D01*
X004609Y018221D01*
X004512Y018221D01*
X004464Y018270D01*
X004561Y018366D02*
X004609Y018366D01*
X004657Y018463D02*
X004609Y018511D01*
X004512Y018511D01*
X004464Y018463D01*
X005351Y017401D02*
X005349Y017384D01*
X005345Y017367D01*
X005338Y017351D01*
X005328Y017337D01*
X005315Y017324D01*
X005301Y017314D01*
X005285Y017307D01*
X005268Y017303D01*
X005251Y017301D01*
X005151Y017301D01*
X007060Y017651D02*
X007062Y017699D01*
X007068Y017747D01*
X007078Y017794D01*
X007091Y017840D01*
X007109Y017885D01*
X007129Y017929D01*
X007154Y017971D01*
X007182Y018010D01*
X007212Y018047D01*
X007246Y018081D01*
X007283Y018113D01*
X007321Y018142D01*
X007362Y018167D01*
X007405Y018189D01*
X007450Y018207D01*
X007496Y018221D01*
X007543Y018232D01*
X007591Y018239D01*
X007639Y018242D01*
X007687Y018241D01*
X007735Y018236D01*
X007783Y018227D01*
X007829Y018215D01*
X007874Y018198D01*
X007918Y018178D01*
X007960Y018155D01*
X008000Y018128D01*
X008038Y018098D01*
X008073Y018065D01*
X008105Y018029D01*
X008135Y017991D01*
X008161Y017950D01*
X008183Y017907D01*
X008203Y017863D01*
X008218Y017818D01*
X008230Y017771D01*
X008238Y017723D01*
X008242Y017675D01*
X008242Y017627D01*
X008238Y017579D01*
X008230Y017531D01*
X008218Y017484D01*
X008203Y017439D01*
X008183Y017395D01*
X008161Y017352D01*
X008135Y017311D01*
X008105Y017273D01*
X008073Y017237D01*
X008038Y017204D01*
X008000Y017174D01*
X007960Y017147D01*
X007918Y017124D01*
X007874Y017104D01*
X007829Y017087D01*
X007783Y017075D01*
X007735Y017066D01*
X007687Y017061D01*
X007639Y017060D01*
X007591Y017063D01*
X007543Y017070D01*
X007496Y017081D01*
X007450Y017095D01*
X007405Y017113D01*
X007362Y017135D01*
X007321Y017160D01*
X007283Y017189D01*
X007246Y017221D01*
X007212Y017255D01*
X007182Y017292D01*
X007154Y017331D01*
X007129Y017373D01*
X007109Y017417D01*
X007091Y017462D01*
X007078Y017508D01*
X007068Y017555D01*
X007062Y017603D01*
X007060Y017651D01*
X006501Y017651D02*
X006503Y017718D01*
X006509Y017786D01*
X006519Y017853D01*
X006533Y017919D01*
X006550Y017984D01*
X006572Y018048D01*
X006597Y018111D01*
X006626Y018172D01*
X006658Y018231D01*
X006694Y018288D01*
X006733Y018343D01*
X006775Y018396D01*
X006820Y018446D01*
X006868Y018493D01*
X006919Y018538D01*
X006972Y018579D01*
X007028Y018618D01*
X007086Y018653D01*
X007146Y018684D01*
X007207Y018712D01*
X007270Y018736D01*
X007334Y018757D01*
X007400Y018773D01*
X007466Y018786D01*
X007533Y018795D01*
X007600Y018800D01*
X007668Y018801D01*
X007735Y018798D01*
X007802Y018791D01*
X007869Y018780D01*
X007935Y018765D01*
X008000Y018747D01*
X008064Y018724D01*
X008126Y018698D01*
X008187Y018669D01*
X008245Y018635D01*
X008302Y018599D01*
X008357Y018559D01*
X008409Y018516D01*
X008458Y018470D01*
X008505Y018421D01*
X008549Y018370D01*
X008589Y018316D01*
X008627Y018260D01*
X008661Y018201D01*
X008691Y018141D01*
X008718Y018079D01*
X008742Y018016D01*
X008761Y017951D01*
X008777Y017886D01*
X008789Y017819D01*
X008797Y017752D01*
X008801Y017685D01*
X008801Y017617D01*
X008797Y017550D01*
X008789Y017483D01*
X008777Y017416D01*
X008761Y017351D01*
X008742Y017286D01*
X008718Y017223D01*
X008691Y017161D01*
X008661Y017101D01*
X008627Y017042D01*
X008589Y016986D01*
X008549Y016932D01*
X008505Y016881D01*
X008458Y016832D01*
X008409Y016786D01*
X008357Y016743D01*
X008302Y016703D01*
X008245Y016667D01*
X008187Y016633D01*
X008126Y016604D01*
X008064Y016578D01*
X008000Y016555D01*
X007935Y016537D01*
X007869Y016522D01*
X007802Y016511D01*
X007735Y016504D01*
X007668Y016501D01*
X007600Y016502D01*
X007533Y016507D01*
X007466Y016516D01*
X007400Y016529D01*
X007334Y016545D01*
X007270Y016566D01*
X007207Y016590D01*
X007146Y016618D01*
X007086Y016649D01*
X007028Y016684D01*
X006972Y016723D01*
X006919Y016764D01*
X006868Y016809D01*
X006820Y016856D01*
X006775Y016906D01*
X006733Y016959D01*
X006694Y017014D01*
X006658Y017071D01*
X006626Y017130D01*
X006597Y017191D01*
X006572Y017254D01*
X006550Y017318D01*
X006533Y017383D01*
X006519Y017449D01*
X006509Y017516D01*
X006503Y017584D01*
X006501Y017651D01*
X010151Y019151D02*
X019151Y019151D01*
X019151Y010151D01*
X017060Y011651D02*
X017062Y011699D01*
X017068Y011747D01*
X017078Y011794D01*
X017091Y011840D01*
X017109Y011885D01*
X017129Y011929D01*
X017154Y011971D01*
X017182Y012010D01*
X017212Y012047D01*
X017246Y012081D01*
X017283Y012113D01*
X017321Y012142D01*
X017362Y012167D01*
X017405Y012189D01*
X017450Y012207D01*
X017496Y012221D01*
X017543Y012232D01*
X017591Y012239D01*
X017639Y012242D01*
X017687Y012241D01*
X017735Y012236D01*
X017783Y012227D01*
X017829Y012215D01*
X017874Y012198D01*
X017918Y012178D01*
X017960Y012155D01*
X018000Y012128D01*
X018038Y012098D01*
X018073Y012065D01*
X018105Y012029D01*
X018135Y011991D01*
X018161Y011950D01*
X018183Y011907D01*
X018203Y011863D01*
X018218Y011818D01*
X018230Y011771D01*
X018238Y011723D01*
X018242Y011675D01*
X018242Y011627D01*
X018238Y011579D01*
X018230Y011531D01*
X018218Y011484D01*
X018203Y011439D01*
X018183Y011395D01*
X018161Y011352D01*
X018135Y011311D01*
X018105Y011273D01*
X018073Y011237D01*
X018038Y011204D01*
X018000Y011174D01*
X017960Y011147D01*
X017918Y011124D01*
X017874Y011104D01*
X017829Y011087D01*
X017783Y011075D01*
X017735Y011066D01*
X017687Y011061D01*
X017639Y011060D01*
X017591Y011063D01*
X017543Y011070D01*
X017496Y011081D01*
X017450Y011095D01*
X017405Y011113D01*
X017362Y011135D01*
X017321Y011160D01*
X017283Y011189D01*
X017246Y011221D01*
X017212Y011255D01*
X017182Y011292D01*
X017154Y011331D01*
X017129Y011373D01*
X017109Y011417D01*
X017091Y011462D01*
X017078Y011508D01*
X017068Y011555D01*
X017062Y011603D01*
X017060Y011651D01*
X016501Y011651D02*
X016503Y011718D01*
X016509Y011786D01*
X016519Y011853D01*
X016533Y011919D01*
X016550Y011984D01*
X016572Y012048D01*
X016597Y012111D01*
X016626Y012172D01*
X016658Y012231D01*
X016694Y012288D01*
X016733Y012343D01*
X016775Y012396D01*
X016820Y012446D01*
X016868Y012493D01*
X016919Y012538D01*
X016972Y012579D01*
X017028Y012618D01*
X017086Y012653D01*
X017146Y012684D01*
X017207Y012712D01*
X017270Y012736D01*
X017334Y012757D01*
X017400Y012773D01*
X017466Y012786D01*
X017533Y012795D01*
X017600Y012800D01*
X017668Y012801D01*
X017735Y012798D01*
X017802Y012791D01*
X017869Y012780D01*
X017935Y012765D01*
X018000Y012747D01*
X018064Y012724D01*
X018126Y012698D01*
X018187Y012669D01*
X018245Y012635D01*
X018302Y012599D01*
X018357Y012559D01*
X018409Y012516D01*
X018458Y012470D01*
X018505Y012421D01*
X018549Y012370D01*
X018589Y012316D01*
X018627Y012260D01*
X018661Y012201D01*
X018691Y012141D01*
X018718Y012079D01*
X018742Y012016D01*
X018761Y011951D01*
X018777Y011886D01*
X018789Y011819D01*
X018797Y011752D01*
X018801Y011685D01*
X018801Y011617D01*
X018797Y011550D01*
X018789Y011483D01*
X018777Y011416D01*
X018761Y011351D01*
X018742Y011286D01*
X018718Y011223D01*
X018691Y011161D01*
X018661Y011101D01*
X018627Y011042D01*
X018589Y010986D01*
X018549Y010932D01*
X018505Y010881D01*
X018458Y010832D01*
X018409Y010786D01*
X018357Y010743D01*
X018302Y010703D01*
X018245Y010667D01*
X018187Y010633D01*
X018126Y010604D01*
X018064Y010578D01*
X018000Y010555D01*
X017935Y010537D01*
X017869Y010522D01*
X017802Y010511D01*
X017735Y010504D01*
X017668Y010501D01*
X017600Y010502D01*
X017533Y010507D01*
X017466Y010516D01*
X017400Y010529D01*
X017334Y010545D01*
X017270Y010566D01*
X017207Y010590D01*
X017146Y010618D01*
X017086Y010649D01*
X017028Y010684D01*
X016972Y010723D01*
X016919Y010764D01*
X016868Y010809D01*
X016820Y010856D01*
X016775Y010906D01*
X016733Y010959D01*
X016694Y011014D01*
X016658Y011071D01*
X016626Y011130D01*
X016597Y011191D01*
X016572Y011254D01*
X016550Y011318D01*
X016533Y011383D01*
X016519Y011449D01*
X016509Y011516D01*
X016503Y011584D01*
X016501Y011651D01*
X016151Y011401D02*
X013151Y011401D01*
X013151Y013151D01*
X016151Y013151D01*
X016151Y011401D01*
X016151Y010651D01*
X013151Y010651D01*
X013151Y011401D01*
X014465Y011101D02*
X014665Y010801D01*
X014833Y010801D02*
X015033Y010801D01*
X014933Y010801D02*
X014933Y011101D01*
X014833Y011001D01*
X014665Y011101D02*
X014465Y010801D01*
X014512Y008511D02*
X014609Y008511D01*
X014657Y008463D01*
X014657Y008415D01*
X014609Y008366D01*
X014657Y008318D01*
X014657Y008270D01*
X014609Y008221D01*
X014512Y008221D01*
X014464Y008270D01*
X014561Y008366D02*
X014609Y008366D01*
X014464Y008463D02*
X014512Y008511D01*
X014823Y008463D02*
X014871Y008511D01*
X014968Y008511D01*
X015016Y008463D01*
X015016Y008415D01*
X014968Y008366D01*
X015016Y008318D01*
X015016Y008270D01*
X014968Y008221D01*
X014871Y008221D01*
X014823Y008270D01*
X014920Y008366D02*
X014968Y008366D01*
X015182Y008270D02*
X015376Y008463D01*
X015376Y008270D01*
X015327Y008221D01*
X015230Y008221D01*
X015182Y008270D01*
X015182Y008463D01*
X015230Y008511D01*
X015327Y008511D01*
X015376Y008463D01*
X015251Y008001D02*
X015151Y008001D01*
X015101Y007951D01*
X014201Y007951D01*
X014151Y008001D01*
X014051Y008001D01*
X014034Y007999D01*
X014017Y007995D01*
X014001Y007988D01*
X013987Y007978D01*
X013974Y007965D01*
X013964Y007951D01*
X013957Y007935D01*
X013953Y007918D01*
X013951Y007901D01*
X013951Y007401D02*
X013953Y007384D01*
X013957Y007367D01*
X013964Y007351D01*
X013974Y007337D01*
X013987Y007324D01*
X014001Y007314D01*
X014017Y007307D01*
X014034Y007303D01*
X014051Y007301D01*
X014151Y007301D01*
X014201Y007351D01*
X015101Y007351D01*
X015151Y007301D01*
X015251Y007301D01*
X015268Y007303D01*
X015285Y007307D01*
X015301Y007314D01*
X015315Y007324D01*
X015328Y007337D01*
X015338Y007351D01*
X015345Y007367D01*
X015349Y007384D01*
X015351Y007401D01*
X015229Y007141D02*
X015229Y006851D01*
X015132Y006851D02*
X015326Y006851D01*
X015132Y007045D02*
X015229Y007141D01*
X014966Y007093D02*
X014966Y006996D01*
X014918Y006948D01*
X014773Y006948D01*
X014870Y006948D02*
X014966Y006851D01*
X014773Y006851D02*
X014773Y007141D01*
X014918Y007141D01*
X014966Y007093D01*
X015351Y007901D02*
X015349Y007918D01*
X015345Y007935D01*
X015338Y007951D01*
X015328Y007965D01*
X015315Y007978D01*
X015301Y007988D01*
X015285Y007995D01*
X015268Y007999D01*
X015251Y008001D01*
X017060Y007651D02*
X017062Y007699D01*
X017068Y007747D01*
X017078Y007794D01*
X017091Y007840D01*
X017109Y007885D01*
X017129Y007929D01*
X017154Y007971D01*
X017182Y008010D01*
X017212Y008047D01*
X017246Y008081D01*
X017283Y008113D01*
X017321Y008142D01*
X017362Y008167D01*
X017405Y008189D01*
X017450Y008207D01*
X017496Y008221D01*
X017543Y008232D01*
X017591Y008239D01*
X017639Y008242D01*
X017687Y008241D01*
X017735Y008236D01*
X017783Y008227D01*
X017829Y008215D01*
X017874Y008198D01*
X017918Y008178D01*
X017960Y008155D01*
X018000Y008128D01*
X018038Y008098D01*
X018073Y008065D01*
X018105Y008029D01*
X018135Y007991D01*
X018161Y007950D01*
X018183Y007907D01*
X018203Y007863D01*
X018218Y007818D01*
X018230Y007771D01*
X018238Y007723D01*
X018242Y007675D01*
X018242Y007627D01*
X018238Y007579D01*
X018230Y007531D01*
X018218Y007484D01*
X018203Y007439D01*
X018183Y007395D01*
X018161Y007352D01*
X018135Y007311D01*
X018105Y007273D01*
X018073Y007237D01*
X018038Y007204D01*
X018000Y007174D01*
X017960Y007147D01*
X017918Y007124D01*
X017874Y007104D01*
X017829Y007087D01*
X017783Y007075D01*
X017735Y007066D01*
X017687Y007061D01*
X017639Y007060D01*
X017591Y007063D01*
X017543Y007070D01*
X017496Y007081D01*
X017450Y007095D01*
X017405Y007113D01*
X017362Y007135D01*
X017321Y007160D01*
X017283Y007189D01*
X017246Y007221D01*
X017212Y007255D01*
X017182Y007292D01*
X017154Y007331D01*
X017129Y007373D01*
X017109Y007417D01*
X017091Y007462D01*
X017078Y007508D01*
X017068Y007555D01*
X017062Y007603D01*
X017060Y007651D01*
X016501Y007651D02*
X016503Y007718D01*
X016509Y007786D01*
X016519Y007853D01*
X016533Y007919D01*
X016550Y007984D01*
X016572Y008048D01*
X016597Y008111D01*
X016626Y008172D01*
X016658Y008231D01*
X016694Y008288D01*
X016733Y008343D01*
X016775Y008396D01*
X016820Y008446D01*
X016868Y008493D01*
X016919Y008538D01*
X016972Y008579D01*
X017028Y008618D01*
X017086Y008653D01*
X017146Y008684D01*
X017207Y008712D01*
X017270Y008736D01*
X017334Y008757D01*
X017400Y008773D01*
X017466Y008786D01*
X017533Y008795D01*
X017600Y008800D01*
X017668Y008801D01*
X017735Y008798D01*
X017802Y008791D01*
X017869Y008780D01*
X017935Y008765D01*
X018000Y008747D01*
X018064Y008724D01*
X018126Y008698D01*
X018187Y008669D01*
X018245Y008635D01*
X018302Y008599D01*
X018357Y008559D01*
X018409Y008516D01*
X018458Y008470D01*
X018505Y008421D01*
X018549Y008370D01*
X018589Y008316D01*
X018627Y008260D01*
X018661Y008201D01*
X018691Y008141D01*
X018718Y008079D01*
X018742Y008016D01*
X018761Y007951D01*
X018777Y007886D01*
X018789Y007819D01*
X018797Y007752D01*
X018801Y007685D01*
X018801Y007617D01*
X018797Y007550D01*
X018789Y007483D01*
X018777Y007416D01*
X018761Y007351D01*
X018742Y007286D01*
X018718Y007223D01*
X018691Y007161D01*
X018661Y007101D01*
X018627Y007042D01*
X018589Y006986D01*
X018549Y006932D01*
X018505Y006881D01*
X018458Y006832D01*
X018409Y006786D01*
X018357Y006743D01*
X018302Y006703D01*
X018245Y006667D01*
X018187Y006633D01*
X018126Y006604D01*
X018064Y006578D01*
X018000Y006555D01*
X017935Y006537D01*
X017869Y006522D01*
X017802Y006511D01*
X017735Y006504D01*
X017668Y006501D01*
X017600Y006502D01*
X017533Y006507D01*
X017466Y006516D01*
X017400Y006529D01*
X017334Y006545D01*
X017270Y006566D01*
X017207Y006590D01*
X017146Y006618D01*
X017086Y006649D01*
X017028Y006684D01*
X016972Y006723D01*
X016919Y006764D01*
X016868Y006809D01*
X016820Y006856D01*
X016775Y006906D01*
X016733Y006959D01*
X016694Y007014D01*
X016658Y007071D01*
X016626Y007130D01*
X016597Y007191D01*
X016572Y007254D01*
X016550Y007318D01*
X016533Y007383D01*
X016519Y007449D01*
X016509Y007516D01*
X016503Y007584D01*
X016501Y007651D01*
X018391Y005872D02*
X018391Y003431D01*
X010911Y003431D01*
X010911Y005872D01*
X018391Y005872D01*
X016151Y003151D02*
X016151Y001401D01*
X013151Y001401D01*
X013151Y003151D01*
X016151Y003151D01*
X017060Y001651D02*
X017062Y001699D01*
X017068Y001747D01*
X017078Y001794D01*
X017091Y001840D01*
X017109Y001885D01*
X017129Y001929D01*
X017154Y001971D01*
X017182Y002010D01*
X017212Y002047D01*
X017246Y002081D01*
X017283Y002113D01*
X017321Y002142D01*
X017362Y002167D01*
X017405Y002189D01*
X017450Y002207D01*
X017496Y002221D01*
X017543Y002232D01*
X017591Y002239D01*
X017639Y002242D01*
X017687Y002241D01*
X017735Y002236D01*
X017783Y002227D01*
X017829Y002215D01*
X017874Y002198D01*
X017918Y002178D01*
X017960Y002155D01*
X018000Y002128D01*
X018038Y002098D01*
X018073Y002065D01*
X018105Y002029D01*
X018135Y001991D01*
X018161Y001950D01*
X018183Y001907D01*
X018203Y001863D01*
X018218Y001818D01*
X018230Y001771D01*
X018238Y001723D01*
X018242Y001675D01*
X018242Y001627D01*
X018238Y001579D01*
X018230Y001531D01*
X018218Y001484D01*
X018203Y001439D01*
X018183Y001395D01*
X018161Y001352D01*
X018135Y001311D01*
X018105Y001273D01*
X018073Y001237D01*
X018038Y001204D01*
X018000Y001174D01*
X017960Y001147D01*
X017918Y001124D01*
X017874Y001104D01*
X017829Y001087D01*
X017783Y001075D01*
X017735Y001066D01*
X017687Y001061D01*
X017639Y001060D01*
X017591Y001063D01*
X017543Y001070D01*
X017496Y001081D01*
X017450Y001095D01*
X017405Y001113D01*
X017362Y001135D01*
X017321Y001160D01*
X017283Y001189D01*
X017246Y001221D01*
X017212Y001255D01*
X017182Y001292D01*
X017154Y001331D01*
X017129Y001373D01*
X017109Y001417D01*
X017091Y001462D01*
X017078Y001508D01*
X017068Y001555D01*
X017062Y001603D01*
X017060Y001651D01*
X016501Y001651D02*
X016503Y001718D01*
X016509Y001786D01*
X016519Y001853D01*
X016533Y001919D01*
X016550Y001984D01*
X016572Y002048D01*
X016597Y002111D01*
X016626Y002172D01*
X016658Y002231D01*
X016694Y002288D01*
X016733Y002343D01*
X016775Y002396D01*
X016820Y002446D01*
X016868Y002493D01*
X016919Y002538D01*
X016972Y002579D01*
X017028Y002618D01*
X017086Y002653D01*
X017146Y002684D01*
X017207Y002712D01*
X017270Y002736D01*
X017334Y002757D01*
X017400Y002773D01*
X017466Y002786D01*
X017533Y002795D01*
X017600Y002800D01*
X017668Y002801D01*
X017735Y002798D01*
X017802Y002791D01*
X017869Y002780D01*
X017935Y002765D01*
X018000Y002747D01*
X018064Y002724D01*
X018126Y002698D01*
X018187Y002669D01*
X018245Y002635D01*
X018302Y002599D01*
X018357Y002559D01*
X018409Y002516D01*
X018458Y002470D01*
X018505Y002421D01*
X018549Y002370D01*
X018589Y002316D01*
X018627Y002260D01*
X018661Y002201D01*
X018691Y002141D01*
X018718Y002079D01*
X018742Y002016D01*
X018761Y001951D01*
X018777Y001886D01*
X018789Y001819D01*
X018797Y001752D01*
X018801Y001685D01*
X018801Y001617D01*
X018797Y001550D01*
X018789Y001483D01*
X018777Y001416D01*
X018761Y001351D01*
X018742Y001286D01*
X018718Y001223D01*
X018691Y001161D01*
X018661Y001101D01*
X018627Y001042D01*
X018589Y000986D01*
X018549Y000932D01*
X018505Y000881D01*
X018458Y000832D01*
X018409Y000786D01*
X018357Y000743D01*
X018302Y000703D01*
X018245Y000667D01*
X018187Y000633D01*
X018126Y000604D01*
X018064Y000578D01*
X018000Y000555D01*
X017935Y000537D01*
X017869Y000522D01*
X017802Y000511D01*
X017735Y000504D01*
X017668Y000501D01*
X017600Y000502D01*
X017533Y000507D01*
X017466Y000516D01*
X017400Y000529D01*
X017334Y000545D01*
X017270Y000566D01*
X017207Y000590D01*
X017146Y000618D01*
X017086Y000649D01*
X017028Y000684D01*
X016972Y000723D01*
X016919Y000764D01*
X016868Y000809D01*
X016820Y000856D01*
X016775Y000906D01*
X016733Y000959D01*
X016694Y001014D01*
X016658Y001071D01*
X016626Y001130D01*
X016597Y001191D01*
X016572Y001254D01*
X016550Y001318D01*
X016533Y001383D01*
X016519Y001449D01*
X016509Y001516D01*
X016503Y001584D01*
X016501Y001651D01*
X016151Y001401D02*
X016151Y000651D01*
X013151Y000651D01*
X013151Y001401D01*
X014465Y001101D02*
X014665Y000801D01*
X014833Y000801D02*
X015033Y000801D01*
X014933Y000801D02*
X014933Y001101D01*
X014833Y001001D01*
X014665Y001101D02*
X014465Y000801D01*
X011060Y001651D02*
X011062Y001699D01*
X011068Y001747D01*
X011078Y001794D01*
X011091Y001840D01*
X011109Y001885D01*
X011129Y001929D01*
X011154Y001971D01*
X011182Y002010D01*
X011212Y002047D01*
X011246Y002081D01*
X011283Y002113D01*
X011321Y002142D01*
X011362Y002167D01*
X011405Y002189D01*
X011450Y002207D01*
X011496Y002221D01*
X011543Y002232D01*
X011591Y002239D01*
X011639Y002242D01*
X011687Y002241D01*
X011735Y002236D01*
X011783Y002227D01*
X011829Y002215D01*
X011874Y002198D01*
X011918Y002178D01*
X011960Y002155D01*
X012000Y002128D01*
X012038Y002098D01*
X012073Y002065D01*
X012105Y002029D01*
X012135Y001991D01*
X012161Y001950D01*
X012183Y001907D01*
X012203Y001863D01*
X012218Y001818D01*
X012230Y001771D01*
X012238Y001723D01*
X012242Y001675D01*
X012242Y001627D01*
X012238Y001579D01*
X012230Y001531D01*
X012218Y001484D01*
X012203Y001439D01*
X012183Y001395D01*
X012161Y001352D01*
X012135Y001311D01*
X012105Y001273D01*
X012073Y001237D01*
X012038Y001204D01*
X012000Y001174D01*
X011960Y001147D01*
X011918Y001124D01*
X011874Y001104D01*
X011829Y001087D01*
X011783Y001075D01*
X011735Y001066D01*
X011687Y001061D01*
X011639Y001060D01*
X011591Y001063D01*
X011543Y001070D01*
X011496Y001081D01*
X011450Y001095D01*
X011405Y001113D01*
X011362Y001135D01*
X011321Y001160D01*
X011283Y001189D01*
X011246Y001221D01*
X011212Y001255D01*
X011182Y001292D01*
X011154Y001331D01*
X011129Y001373D01*
X011109Y001417D01*
X011091Y001462D01*
X011078Y001508D01*
X011068Y001555D01*
X011062Y001603D01*
X011060Y001651D01*
X010501Y001651D02*
X010503Y001718D01*
X010509Y001786D01*
X010519Y001853D01*
X010533Y001919D01*
X010550Y001984D01*
X010572Y002048D01*
X010597Y002111D01*
X010626Y002172D01*
X010658Y002231D01*
X010694Y002288D01*
X010733Y002343D01*
X010775Y002396D01*
X010820Y002446D01*
X010868Y002493D01*
X010919Y002538D01*
X010972Y002579D01*
X011028Y002618D01*
X011086Y002653D01*
X011146Y002684D01*
X011207Y002712D01*
X011270Y002736D01*
X011334Y002757D01*
X011400Y002773D01*
X011466Y002786D01*
X011533Y002795D01*
X011600Y002800D01*
X011668Y002801D01*
X011735Y002798D01*
X011802Y002791D01*
X011869Y002780D01*
X011935Y002765D01*
X012000Y002747D01*
X012064Y002724D01*
X012126Y002698D01*
X012187Y002669D01*
X012245Y002635D01*
X012302Y002599D01*
X012357Y002559D01*
X012409Y002516D01*
X012458Y002470D01*
X012505Y002421D01*
X012549Y002370D01*
X012589Y002316D01*
X012627Y002260D01*
X012661Y002201D01*
X012691Y002141D01*
X012718Y002079D01*
X012742Y002016D01*
X012761Y001951D01*
X012777Y001886D01*
X012789Y001819D01*
X012797Y001752D01*
X012801Y001685D01*
X012801Y001617D01*
X012797Y001550D01*
X012789Y001483D01*
X012777Y001416D01*
X012761Y001351D01*
X012742Y001286D01*
X012718Y001223D01*
X012691Y001161D01*
X012661Y001101D01*
X012627Y001042D01*
X012589Y000986D01*
X012549Y000932D01*
X012505Y000881D01*
X012458Y000832D01*
X012409Y000786D01*
X012357Y000743D01*
X012302Y000703D01*
X012245Y000667D01*
X012187Y000633D01*
X012126Y000604D01*
X012064Y000578D01*
X012000Y000555D01*
X011935Y000537D01*
X011869Y000522D01*
X011802Y000511D01*
X011735Y000504D01*
X011668Y000501D01*
X011600Y000502D01*
X011533Y000507D01*
X011466Y000516D01*
X011400Y000529D01*
X011334Y000545D01*
X011270Y000566D01*
X011207Y000590D01*
X011146Y000618D01*
X011086Y000649D01*
X011028Y000684D01*
X010972Y000723D01*
X010919Y000764D01*
X010868Y000809D01*
X010820Y000856D01*
X010775Y000906D01*
X010733Y000959D01*
X010694Y001014D01*
X010658Y001071D01*
X010626Y001130D01*
X010597Y001191D01*
X010572Y001254D01*
X010550Y001318D01*
X010533Y001383D01*
X010519Y001449D01*
X010509Y001516D01*
X010503Y001584D01*
X010501Y001651D01*
X009151Y000151D02*
X009151Y009151D01*
X007060Y011651D02*
X007062Y011699D01*
X007068Y011747D01*
X007078Y011794D01*
X007091Y011840D01*
X007109Y011885D01*
X007129Y011929D01*
X007154Y011971D01*
X007182Y012010D01*
X007212Y012047D01*
X007246Y012081D01*
X007283Y012113D01*
X007321Y012142D01*
X007362Y012167D01*
X007405Y012189D01*
X007450Y012207D01*
X007496Y012221D01*
X007543Y012232D01*
X007591Y012239D01*
X007639Y012242D01*
X007687Y012241D01*
X007735Y012236D01*
X007783Y012227D01*
X007829Y012215D01*
X007874Y012198D01*
X007918Y012178D01*
X007960Y012155D01*
X008000Y012128D01*
X008038Y012098D01*
X008073Y012065D01*
X008105Y012029D01*
X008135Y011991D01*
X008161Y011950D01*
X008183Y011907D01*
X008203Y011863D01*
X008218Y011818D01*
X008230Y011771D01*
X008238Y011723D01*
X008242Y011675D01*
X008242Y011627D01*
X008238Y011579D01*
X008230Y011531D01*
X008218Y011484D01*
X008203Y011439D01*
X008183Y011395D01*
X008161Y011352D01*
X008135Y011311D01*
X008105Y011273D01*
X008073Y011237D01*
X008038Y011204D01*
X008000Y011174D01*
X007960Y011147D01*
X007918Y011124D01*
X007874Y011104D01*
X007829Y011087D01*
X007783Y011075D01*
X007735Y011066D01*
X007687Y011061D01*
X007639Y011060D01*
X007591Y011063D01*
X007543Y011070D01*
X007496Y011081D01*
X007450Y011095D01*
X007405Y011113D01*
X007362Y011135D01*
X007321Y011160D01*
X007283Y011189D01*
X007246Y011221D01*
X007212Y011255D01*
X007182Y011292D01*
X007154Y011331D01*
X007129Y011373D01*
X007109Y011417D01*
X007091Y011462D01*
X007078Y011508D01*
X007068Y011555D01*
X007062Y011603D01*
X007060Y011651D01*
X006501Y011651D02*
X006503Y011718D01*
X006509Y011786D01*
X006519Y011853D01*
X006533Y011919D01*
X006550Y011984D01*
X006572Y012048D01*
X006597Y012111D01*
X006626Y012172D01*
X006658Y012231D01*
X006694Y012288D01*
X006733Y012343D01*
X006775Y012396D01*
X006820Y012446D01*
X006868Y012493D01*
X006919Y012538D01*
X006972Y012579D01*
X007028Y012618D01*
X007086Y012653D01*
X007146Y012684D01*
X007207Y012712D01*
X007270Y012736D01*
X007334Y012757D01*
X007400Y012773D01*
X007466Y012786D01*
X007533Y012795D01*
X007600Y012800D01*
X007668Y012801D01*
X007735Y012798D01*
X007802Y012791D01*
X007869Y012780D01*
X007935Y012765D01*
X008000Y012747D01*
X008064Y012724D01*
X008126Y012698D01*
X008187Y012669D01*
X008245Y012635D01*
X008302Y012599D01*
X008357Y012559D01*
X008409Y012516D01*
X008458Y012470D01*
X008505Y012421D01*
X008549Y012370D01*
X008589Y012316D01*
X008627Y012260D01*
X008661Y012201D01*
X008691Y012141D01*
X008718Y012079D01*
X008742Y012016D01*
X008761Y011951D01*
X008777Y011886D01*
X008789Y011819D01*
X008797Y011752D01*
X008801Y011685D01*
X008801Y011617D01*
X008797Y011550D01*
X008789Y011483D01*
X008777Y011416D01*
X008761Y011351D01*
X008742Y011286D01*
X008718Y011223D01*
X008691Y011161D01*
X008661Y011101D01*
X008627Y011042D01*
X008589Y010986D01*
X008549Y010932D01*
X008505Y010881D01*
X008458Y010832D01*
X008409Y010786D01*
X008357Y010743D01*
X008302Y010703D01*
X008245Y010667D01*
X008187Y010633D01*
X008126Y010604D01*
X008064Y010578D01*
X008000Y010555D01*
X007935Y010537D01*
X007869Y010522D01*
X007802Y010511D01*
X007735Y010504D01*
X007668Y010501D01*
X007600Y010502D01*
X007533Y010507D01*
X007466Y010516D01*
X007400Y010529D01*
X007334Y010545D01*
X007270Y010566D01*
X007207Y010590D01*
X007146Y010618D01*
X007086Y010649D01*
X007028Y010684D01*
X006972Y010723D01*
X006919Y010764D01*
X006868Y010809D01*
X006820Y010856D01*
X006775Y010906D01*
X006733Y010959D01*
X006694Y011014D01*
X006658Y011071D01*
X006626Y011130D01*
X006597Y011191D01*
X006572Y011254D01*
X006550Y011318D01*
X006533Y011383D01*
X006519Y011449D01*
X006509Y011516D01*
X006503Y011584D01*
X006501Y011651D01*
X010911Y013431D02*
X010911Y015872D01*
X018391Y015872D01*
X018391Y013431D01*
X010911Y013431D01*
X011060Y011651D02*
X011062Y011699D01*
X011068Y011747D01*
X011078Y011794D01*
X011091Y011840D01*
X011109Y011885D01*
X011129Y011929D01*
X011154Y011971D01*
X011182Y012010D01*
X011212Y012047D01*
X011246Y012081D01*
X011283Y012113D01*
X011321Y012142D01*
X011362Y012167D01*
X011405Y012189D01*
X011450Y012207D01*
X011496Y012221D01*
X011543Y012232D01*
X011591Y012239D01*
X011639Y012242D01*
X011687Y012241D01*
X011735Y012236D01*
X011783Y012227D01*
X011829Y012215D01*
X011874Y012198D01*
X011918Y012178D01*
X011960Y012155D01*
X012000Y012128D01*
X012038Y012098D01*
X012073Y012065D01*
X012105Y012029D01*
X012135Y011991D01*
X012161Y011950D01*
X012183Y011907D01*
X012203Y011863D01*
X012218Y011818D01*
X012230Y011771D01*
X012238Y011723D01*
X012242Y011675D01*
X012242Y011627D01*
X012238Y011579D01*
X012230Y011531D01*
X012218Y011484D01*
X012203Y011439D01*
X012183Y011395D01*
X012161Y011352D01*
X012135Y011311D01*
X012105Y011273D01*
X012073Y011237D01*
X012038Y011204D01*
X012000Y011174D01*
X011960Y011147D01*
X011918Y011124D01*
X011874Y011104D01*
X011829Y011087D01*
X011783Y011075D01*
X011735Y011066D01*
X011687Y011061D01*
X011639Y011060D01*
X011591Y011063D01*
X011543Y011070D01*
X011496Y011081D01*
X011450Y011095D01*
X011405Y011113D01*
X011362Y011135D01*
X011321Y011160D01*
X011283Y011189D01*
X011246Y011221D01*
X011212Y011255D01*
X011182Y011292D01*
X011154Y011331D01*
X011129Y011373D01*
X011109Y011417D01*
X011091Y011462D01*
X011078Y011508D01*
X011068Y011555D01*
X011062Y011603D01*
X011060Y011651D01*
X010501Y011651D02*
X010503Y011718D01*
X010509Y011786D01*
X010519Y011853D01*
X010533Y011919D01*
X010550Y011984D01*
X010572Y012048D01*
X010597Y012111D01*
X010626Y012172D01*
X010658Y012231D01*
X010694Y012288D01*
X010733Y012343D01*
X010775Y012396D01*
X010820Y012446D01*
X010868Y012493D01*
X010919Y012538D01*
X010972Y012579D01*
X011028Y012618D01*
X011086Y012653D01*
X011146Y012684D01*
X011207Y012712D01*
X011270Y012736D01*
X011334Y012757D01*
X011400Y012773D01*
X011466Y012786D01*
X011533Y012795D01*
X011600Y012800D01*
X011668Y012801D01*
X011735Y012798D01*
X011802Y012791D01*
X011869Y012780D01*
X011935Y012765D01*
X012000Y012747D01*
X012064Y012724D01*
X012126Y012698D01*
X012187Y012669D01*
X012245Y012635D01*
X012302Y012599D01*
X012357Y012559D01*
X012409Y012516D01*
X012458Y012470D01*
X012505Y012421D01*
X012549Y012370D01*
X012589Y012316D01*
X012627Y012260D01*
X012661Y012201D01*
X012691Y012141D01*
X012718Y012079D01*
X012742Y012016D01*
X012761Y011951D01*
X012777Y011886D01*
X012789Y011819D01*
X012797Y011752D01*
X012801Y011685D01*
X012801Y011617D01*
X012797Y011550D01*
X012789Y011483D01*
X012777Y011416D01*
X012761Y011351D01*
X012742Y011286D01*
X012718Y011223D01*
X012691Y011161D01*
X012661Y011101D01*
X012627Y011042D01*
X012589Y010986D01*
X012549Y010932D01*
X012505Y010881D01*
X012458Y010832D01*
X012409Y010786D01*
X012357Y010743D01*
X012302Y010703D01*
X012245Y010667D01*
X012187Y010633D01*
X012126Y010604D01*
X012064Y010578D01*
X012000Y010555D01*
X011935Y010537D01*
X011869Y010522D01*
X011802Y010511D01*
X011735Y010504D01*
X011668Y010501D01*
X011600Y010502D01*
X011533Y010507D01*
X011466Y010516D01*
X011400Y010529D01*
X011334Y010545D01*
X011270Y010566D01*
X011207Y010590D01*
X011146Y010618D01*
X011086Y010649D01*
X011028Y010684D01*
X010972Y010723D01*
X010919Y010764D01*
X010868Y010809D01*
X010820Y010856D01*
X010775Y010906D01*
X010733Y010959D01*
X010694Y011014D01*
X010658Y011071D01*
X010626Y011130D01*
X010597Y011191D01*
X010572Y011254D01*
X010550Y011318D01*
X010533Y011383D01*
X010519Y011449D01*
X010509Y011516D01*
X010503Y011584D01*
X010501Y011651D01*
X011060Y007651D02*
X011062Y007699D01*
X011068Y007747D01*
X011078Y007794D01*
X011091Y007840D01*
X011109Y007885D01*
X011129Y007929D01*
X011154Y007971D01*
X011182Y008010D01*
X011212Y008047D01*
X011246Y008081D01*
X011283Y008113D01*
X011321Y008142D01*
X011362Y008167D01*
X011405Y008189D01*
X011450Y008207D01*
X011496Y008221D01*
X011543Y008232D01*
X011591Y008239D01*
X011639Y008242D01*
X011687Y008241D01*
X011735Y008236D01*
X011783Y008227D01*
X011829Y008215D01*
X011874Y008198D01*
X011918Y008178D01*
X011960Y008155D01*
X012000Y008128D01*
X012038Y008098D01*
X012073Y008065D01*
X012105Y008029D01*
X012135Y007991D01*
X012161Y007950D01*
X012183Y007907D01*
X012203Y007863D01*
X012218Y007818D01*
X012230Y007771D01*
X012238Y007723D01*
X012242Y007675D01*
X012242Y007627D01*
X012238Y007579D01*
X012230Y007531D01*
X012218Y007484D01*
X012203Y007439D01*
X012183Y007395D01*
X012161Y007352D01*
X012135Y007311D01*
X012105Y007273D01*
X012073Y007237D01*
X012038Y007204D01*
X012000Y007174D01*
X011960Y007147D01*
X011918Y007124D01*
X011874Y007104D01*
X011829Y007087D01*
X011783Y007075D01*
X011735Y007066D01*
X011687Y007061D01*
X011639Y007060D01*
X011591Y007063D01*
X011543Y007070D01*
X011496Y007081D01*
X011450Y007095D01*
X011405Y007113D01*
X011362Y007135D01*
X011321Y007160D01*
X011283Y007189D01*
X011246Y007221D01*
X011212Y007255D01*
X011182Y007292D01*
X011154Y007331D01*
X011129Y007373D01*
X011109Y007417D01*
X011091Y007462D01*
X011078Y007508D01*
X011068Y007555D01*
X011062Y007603D01*
X011060Y007651D01*
X010501Y007651D02*
X010503Y007718D01*
X010509Y007786D01*
X010519Y007853D01*
X010533Y007919D01*
X010550Y007984D01*
X010572Y008048D01*
X010597Y008111D01*
X010626Y008172D01*
X010658Y008231D01*
X010694Y008288D01*
X010733Y008343D01*
X010775Y008396D01*
X010820Y008446D01*
X010868Y008493D01*
X010919Y008538D01*
X010972Y008579D01*
X011028Y008618D01*
X011086Y008653D01*
X011146Y008684D01*
X011207Y008712D01*
X011270Y008736D01*
X011334Y008757D01*
X011400Y008773D01*
X011466Y008786D01*
X011533Y008795D01*
X011600Y008800D01*
X011668Y008801D01*
X011735Y008798D01*
X011802Y008791D01*
X011869Y008780D01*
X011935Y008765D01*
X012000Y008747D01*
X012064Y008724D01*
X012126Y008698D01*
X012187Y008669D01*
X012245Y008635D01*
X012302Y008599D01*
X012357Y008559D01*
X012409Y008516D01*
X012458Y008470D01*
X012505Y008421D01*
X012549Y008370D01*
X012589Y008316D01*
X012627Y008260D01*
X012661Y008201D01*
X012691Y008141D01*
X012718Y008079D01*
X012742Y008016D01*
X012761Y007951D01*
X012777Y007886D01*
X012789Y007819D01*
X012797Y007752D01*
X012801Y007685D01*
X012801Y007617D01*
X012797Y007550D01*
X012789Y007483D01*
X012777Y007416D01*
X012761Y007351D01*
X012742Y007286D01*
X012718Y007223D01*
X012691Y007161D01*
X012661Y007101D01*
X012627Y007042D01*
X012589Y006986D01*
X012549Y006932D01*
X012505Y006881D01*
X012458Y006832D01*
X012409Y006786D01*
X012357Y006743D01*
X012302Y006703D01*
X012245Y006667D01*
X012187Y006633D01*
X012126Y006604D01*
X012064Y006578D01*
X012000Y006555D01*
X011935Y006537D01*
X011869Y006522D01*
X011802Y006511D01*
X011735Y006504D01*
X011668Y006501D01*
X011600Y006502D01*
X011533Y006507D01*
X011466Y006516D01*
X011400Y006529D01*
X011334Y006545D01*
X011270Y006566D01*
X011207Y006590D01*
X011146Y006618D01*
X011086Y006649D01*
X011028Y006684D01*
X010972Y006723D01*
X010919Y006764D01*
X010868Y006809D01*
X010820Y006856D01*
X010775Y006906D01*
X010733Y006959D01*
X010694Y007014D01*
X010658Y007071D01*
X010626Y007130D01*
X010597Y007191D01*
X010572Y007254D01*
X010550Y007318D01*
X010533Y007383D01*
X010519Y007449D01*
X010509Y007516D01*
X010503Y007584D01*
X010501Y007651D01*
X007060Y001651D02*
X007062Y001699D01*
X007068Y001747D01*
X007078Y001794D01*
X007091Y001840D01*
X007109Y001885D01*
X007129Y001929D01*
X007154Y001971D01*
X007182Y002010D01*
X007212Y002047D01*
X007246Y002081D01*
X007283Y002113D01*
X007321Y002142D01*
X007362Y002167D01*
X007405Y002189D01*
X007450Y002207D01*
X007496Y002221D01*
X007543Y002232D01*
X007591Y002239D01*
X007639Y002242D01*
X007687Y002241D01*
X007735Y002236D01*
X007783Y002227D01*
X007829Y002215D01*
X007874Y002198D01*
X007918Y002178D01*
X007960Y002155D01*
X008000Y002128D01*
X008038Y002098D01*
X008073Y002065D01*
X008105Y002029D01*
X008135Y001991D01*
X008161Y001950D01*
X008183Y001907D01*
X008203Y001863D01*
X008218Y001818D01*
X008230Y001771D01*
X008238Y001723D01*
X008242Y001675D01*
X008242Y001627D01*
X008238Y001579D01*
X008230Y001531D01*
X008218Y001484D01*
X008203Y001439D01*
X008183Y001395D01*
X008161Y001352D01*
X008135Y001311D01*
X008105Y001273D01*
X008073Y001237D01*
X008038Y001204D01*
X008000Y001174D01*
X007960Y001147D01*
X007918Y001124D01*
X007874Y001104D01*
X007829Y001087D01*
X007783Y001075D01*
X007735Y001066D01*
X007687Y001061D01*
X007639Y001060D01*
X007591Y001063D01*
X007543Y001070D01*
X007496Y001081D01*
X007450Y001095D01*
X007405Y001113D01*
X007362Y001135D01*
X007321Y001160D01*
X007283Y001189D01*
X007246Y001221D01*
X007212Y001255D01*
X007182Y001292D01*
X007154Y001331D01*
X007129Y001373D01*
X007109Y001417D01*
X007091Y001462D01*
X007078Y001508D01*
X007068Y001555D01*
X007062Y001603D01*
X007060Y001651D01*
X006501Y001651D02*
X006503Y001718D01*
X006509Y001786D01*
X006519Y001853D01*
X006533Y001919D01*
X006550Y001984D01*
X006572Y002048D01*
X006597Y002111D01*
X006626Y002172D01*
X006658Y002231D01*
X006694Y002288D01*
X006733Y002343D01*
X006775Y002396D01*
X006820Y002446D01*
X006868Y002493D01*
X006919Y002538D01*
X006972Y002579D01*
X007028Y002618D01*
X007086Y002653D01*
X007146Y002684D01*
X007207Y002712D01*
X007270Y002736D01*
X007334Y002757D01*
X007400Y002773D01*
X007466Y002786D01*
X007533Y002795D01*
X007600Y002800D01*
X007668Y002801D01*
X007735Y002798D01*
X007802Y002791D01*
X007869Y002780D01*
X007935Y002765D01*
X008000Y002747D01*
X008064Y002724D01*
X008126Y002698D01*
X008187Y002669D01*
X008245Y002635D01*
X008302Y002599D01*
X008357Y002559D01*
X008409Y002516D01*
X008458Y002470D01*
X008505Y002421D01*
X008549Y002370D01*
X008589Y002316D01*
X008627Y002260D01*
X008661Y002201D01*
X008691Y002141D01*
X008718Y002079D01*
X008742Y002016D01*
X008761Y001951D01*
X008777Y001886D01*
X008789Y001819D01*
X008797Y001752D01*
X008801Y001685D01*
X008801Y001617D01*
X008797Y001550D01*
X008789Y001483D01*
X008777Y001416D01*
X008761Y001351D01*
X008742Y001286D01*
X008718Y001223D01*
X008691Y001161D01*
X008661Y001101D01*
X008627Y001042D01*
X008589Y000986D01*
X008549Y000932D01*
X008505Y000881D01*
X008458Y000832D01*
X008409Y000786D01*
X008357Y000743D01*
X008302Y000703D01*
X008245Y000667D01*
X008187Y000633D01*
X008126Y000604D01*
X008064Y000578D01*
X008000Y000555D01*
X007935Y000537D01*
X007869Y000522D01*
X007802Y000511D01*
X007735Y000504D01*
X007668Y000501D01*
X007600Y000502D01*
X007533Y000507D01*
X007466Y000516D01*
X007400Y000529D01*
X007334Y000545D01*
X007270Y000566D01*
X007207Y000590D01*
X007146Y000618D01*
X007086Y000649D01*
X007028Y000684D01*
X006972Y000723D01*
X006919Y000764D01*
X006868Y000809D01*
X006820Y000856D01*
X006775Y000906D01*
X006733Y000959D01*
X006694Y001014D01*
X006658Y001071D01*
X006626Y001130D01*
X006597Y001191D01*
X006572Y001254D01*
X006550Y001318D01*
X006533Y001383D01*
X006519Y001449D01*
X006509Y001516D01*
X006503Y001584D01*
X006501Y001651D01*
X001060Y007651D02*
X001062Y007699D01*
X001068Y007747D01*
X001078Y007794D01*
X001091Y007840D01*
X001109Y007885D01*
X001129Y007929D01*
X001154Y007971D01*
X001182Y008010D01*
X001212Y008047D01*
X001246Y008081D01*
X001283Y008113D01*
X001321Y008142D01*
X001362Y008167D01*
X001405Y008189D01*
X001450Y008207D01*
X001496Y008221D01*
X001543Y008232D01*
X001591Y008239D01*
X001639Y008242D01*
X001687Y008241D01*
X001735Y008236D01*
X001783Y008227D01*
X001829Y008215D01*
X001874Y008198D01*
X001918Y008178D01*
X001960Y008155D01*
X002000Y008128D01*
X002038Y008098D01*
X002073Y008065D01*
X002105Y008029D01*
X002135Y007991D01*
X002161Y007950D01*
X002183Y007907D01*
X002203Y007863D01*
X002218Y007818D01*
X002230Y007771D01*
X002238Y007723D01*
X002242Y007675D01*
X002242Y007627D01*
X002238Y007579D01*
X002230Y007531D01*
X002218Y007484D01*
X002203Y007439D01*
X002183Y007395D01*
X002161Y007352D01*
X002135Y007311D01*
X002105Y007273D01*
X002073Y007237D01*
X002038Y007204D01*
X002000Y007174D01*
X001960Y007147D01*
X001918Y007124D01*
X001874Y007104D01*
X001829Y007087D01*
X001783Y007075D01*
X001735Y007066D01*
X001687Y007061D01*
X001639Y007060D01*
X001591Y007063D01*
X001543Y007070D01*
X001496Y007081D01*
X001450Y007095D01*
X001405Y007113D01*
X001362Y007135D01*
X001321Y007160D01*
X001283Y007189D01*
X001246Y007221D01*
X001212Y007255D01*
X001182Y007292D01*
X001154Y007331D01*
X001129Y007373D01*
X001109Y007417D01*
X001091Y007462D01*
X001078Y007508D01*
X001068Y007555D01*
X001062Y007603D01*
X001060Y007651D01*
X000501Y007651D02*
X000503Y007718D01*
X000509Y007786D01*
X000519Y007853D01*
X000533Y007919D01*
X000550Y007984D01*
X000572Y008048D01*
X000597Y008111D01*
X000626Y008172D01*
X000658Y008231D01*
X000694Y008288D01*
X000733Y008343D01*
X000775Y008396D01*
X000820Y008446D01*
X000868Y008493D01*
X000919Y008538D01*
X000972Y008579D01*
X001028Y008618D01*
X001086Y008653D01*
X001146Y008684D01*
X001207Y008712D01*
X001270Y008736D01*
X001334Y008757D01*
X001400Y008773D01*
X001466Y008786D01*
X001533Y008795D01*
X001600Y008800D01*
X001668Y008801D01*
X001735Y008798D01*
X001802Y008791D01*
X001869Y008780D01*
X001935Y008765D01*
X002000Y008747D01*
X002064Y008724D01*
X002126Y008698D01*
X002187Y008669D01*
X002245Y008635D01*
X002302Y008599D01*
X002357Y008559D01*
X002409Y008516D01*
X002458Y008470D01*
X002505Y008421D01*
X002549Y008370D01*
X002589Y008316D01*
X002627Y008260D01*
X002661Y008201D01*
X002691Y008141D01*
X002718Y008079D01*
X002742Y008016D01*
X002761Y007951D01*
X002777Y007886D01*
X002789Y007819D01*
X002797Y007752D01*
X002801Y007685D01*
X002801Y007617D01*
X002797Y007550D01*
X002789Y007483D01*
X002777Y007416D01*
X002761Y007351D01*
X002742Y007286D01*
X002718Y007223D01*
X002691Y007161D01*
X002661Y007101D01*
X002627Y007042D01*
X002589Y006986D01*
X002549Y006932D01*
X002505Y006881D01*
X002458Y006832D01*
X002409Y006786D01*
X002357Y006743D01*
X002302Y006703D01*
X002245Y006667D01*
X002187Y006633D01*
X002126Y006604D01*
X002064Y006578D01*
X002000Y006555D01*
X001935Y006537D01*
X001869Y006522D01*
X001802Y006511D01*
X001735Y006504D01*
X001668Y006501D01*
X001600Y006502D01*
X001533Y006507D01*
X001466Y006516D01*
X001400Y006529D01*
X001334Y006545D01*
X001270Y006566D01*
X001207Y006590D01*
X001146Y006618D01*
X001086Y006649D01*
X001028Y006684D01*
X000972Y006723D01*
X000919Y006764D01*
X000868Y006809D01*
X000820Y006856D01*
X000775Y006906D01*
X000733Y006959D01*
X000694Y007014D01*
X000658Y007071D01*
X000626Y007130D01*
X000597Y007191D01*
X000572Y007254D01*
X000550Y007318D01*
X000533Y007383D01*
X000519Y007449D01*
X000509Y007516D01*
X000503Y007584D01*
X000501Y007651D01*
X001060Y017651D02*
X001062Y017699D01*
X001068Y017747D01*
X001078Y017794D01*
X001091Y017840D01*
X001109Y017885D01*
X001129Y017929D01*
X001154Y017971D01*
X001182Y018010D01*
X001212Y018047D01*
X001246Y018081D01*
X001283Y018113D01*
X001321Y018142D01*
X001362Y018167D01*
X001405Y018189D01*
X001450Y018207D01*
X001496Y018221D01*
X001543Y018232D01*
X001591Y018239D01*
X001639Y018242D01*
X001687Y018241D01*
X001735Y018236D01*
X001783Y018227D01*
X001829Y018215D01*
X001874Y018198D01*
X001918Y018178D01*
X001960Y018155D01*
X002000Y018128D01*
X002038Y018098D01*
X002073Y018065D01*
X002105Y018029D01*
X002135Y017991D01*
X002161Y017950D01*
X002183Y017907D01*
X002203Y017863D01*
X002218Y017818D01*
X002230Y017771D01*
X002238Y017723D01*
X002242Y017675D01*
X002242Y017627D01*
X002238Y017579D01*
X002230Y017531D01*
X002218Y017484D01*
X002203Y017439D01*
X002183Y017395D01*
X002161Y017352D01*
X002135Y017311D01*
X002105Y017273D01*
X002073Y017237D01*
X002038Y017204D01*
X002000Y017174D01*
X001960Y017147D01*
X001918Y017124D01*
X001874Y017104D01*
X001829Y017087D01*
X001783Y017075D01*
X001735Y017066D01*
X001687Y017061D01*
X001639Y017060D01*
X001591Y017063D01*
X001543Y017070D01*
X001496Y017081D01*
X001450Y017095D01*
X001405Y017113D01*
X001362Y017135D01*
X001321Y017160D01*
X001283Y017189D01*
X001246Y017221D01*
X001212Y017255D01*
X001182Y017292D01*
X001154Y017331D01*
X001129Y017373D01*
X001109Y017417D01*
X001091Y017462D01*
X001078Y017508D01*
X001068Y017555D01*
X001062Y017603D01*
X001060Y017651D01*
X000501Y017651D02*
X000503Y017718D01*
X000509Y017786D01*
X000519Y017853D01*
X000533Y017919D01*
X000550Y017984D01*
X000572Y018048D01*
X000597Y018111D01*
X000626Y018172D01*
X000658Y018231D01*
X000694Y018288D01*
X000733Y018343D01*
X000775Y018396D01*
X000820Y018446D01*
X000868Y018493D01*
X000919Y018538D01*
X000972Y018579D01*
X001028Y018618D01*
X001086Y018653D01*
X001146Y018684D01*
X001207Y018712D01*
X001270Y018736D01*
X001334Y018757D01*
X001400Y018773D01*
X001466Y018786D01*
X001533Y018795D01*
X001600Y018800D01*
X001668Y018801D01*
X001735Y018798D01*
X001802Y018791D01*
X001869Y018780D01*
X001935Y018765D01*
X002000Y018747D01*
X002064Y018724D01*
X002126Y018698D01*
X002187Y018669D01*
X002245Y018635D01*
X002302Y018599D01*
X002357Y018559D01*
X002409Y018516D01*
X002458Y018470D01*
X002505Y018421D01*
X002549Y018370D01*
X002589Y018316D01*
X002627Y018260D01*
X002661Y018201D01*
X002691Y018141D01*
X002718Y018079D01*
X002742Y018016D01*
X002761Y017951D01*
X002777Y017886D01*
X002789Y017819D01*
X002797Y017752D01*
X002801Y017685D01*
X002801Y017617D01*
X002797Y017550D01*
X002789Y017483D01*
X002777Y017416D01*
X002761Y017351D01*
X002742Y017286D01*
X002718Y017223D01*
X002691Y017161D01*
X002661Y017101D01*
X002627Y017042D01*
X002589Y016986D01*
X002549Y016932D01*
X002505Y016881D01*
X002458Y016832D01*
X002409Y016786D01*
X002357Y016743D01*
X002302Y016703D01*
X002245Y016667D01*
X002187Y016633D01*
X002126Y016604D01*
X002064Y016578D01*
X002000Y016555D01*
X001935Y016537D01*
X001869Y016522D01*
X001802Y016511D01*
X001735Y016504D01*
X001668Y016501D01*
X001600Y016502D01*
X001533Y016507D01*
X001466Y016516D01*
X001400Y016529D01*
X001334Y016545D01*
X001270Y016566D01*
X001207Y016590D01*
X001146Y016618D01*
X001086Y016649D01*
X001028Y016684D01*
X000972Y016723D01*
X000919Y016764D01*
X000868Y016809D01*
X000820Y016856D01*
X000775Y016906D01*
X000733Y016959D01*
X000694Y017014D01*
X000658Y017071D01*
X000626Y017130D01*
X000597Y017191D01*
X000572Y017254D01*
X000550Y017318D01*
X000533Y017383D01*
X000519Y017449D01*
X000509Y017516D01*
X000503Y017584D01*
X000501Y017651D01*
X011060Y017651D02*
X011062Y017699D01*
X011068Y017747D01*
X011078Y017794D01*
X011091Y017840D01*
X011109Y017885D01*
X011129Y017929D01*
X011154Y017971D01*
X011182Y018010D01*
X011212Y018047D01*
X011246Y018081D01*
X011283Y018113D01*
X011321Y018142D01*
X011362Y018167D01*
X011405Y018189D01*
X011450Y018207D01*
X011496Y018221D01*
X011543Y018232D01*
X011591Y018239D01*
X011639Y018242D01*
X011687Y018241D01*
X011735Y018236D01*
X011783Y018227D01*
X011829Y018215D01*
X011874Y018198D01*
X011918Y018178D01*
X011960Y018155D01*
X012000Y018128D01*
X012038Y018098D01*
X012073Y018065D01*
X012105Y018029D01*
X012135Y017991D01*
X012161Y017950D01*
X012183Y017907D01*
X012203Y017863D01*
X012218Y017818D01*
X012230Y017771D01*
X012238Y017723D01*
X012242Y017675D01*
X012242Y017627D01*
X012238Y017579D01*
X012230Y017531D01*
X012218Y017484D01*
X012203Y017439D01*
X012183Y017395D01*
X012161Y017352D01*
X012135Y017311D01*
X012105Y017273D01*
X012073Y017237D01*
X012038Y017204D01*
X012000Y017174D01*
X011960Y017147D01*
X011918Y017124D01*
X011874Y017104D01*
X011829Y017087D01*
X011783Y017075D01*
X011735Y017066D01*
X011687Y017061D01*
X011639Y017060D01*
X011591Y017063D01*
X011543Y017070D01*
X011496Y017081D01*
X011450Y017095D01*
X011405Y017113D01*
X011362Y017135D01*
X011321Y017160D01*
X011283Y017189D01*
X011246Y017221D01*
X011212Y017255D01*
X011182Y017292D01*
X011154Y017331D01*
X011129Y017373D01*
X011109Y017417D01*
X011091Y017462D01*
X011078Y017508D01*
X011068Y017555D01*
X011062Y017603D01*
X011060Y017651D01*
X010501Y017651D02*
X010503Y017718D01*
X010509Y017786D01*
X010519Y017853D01*
X010533Y017919D01*
X010550Y017984D01*
X010572Y018048D01*
X010597Y018111D01*
X010626Y018172D01*
X010658Y018231D01*
X010694Y018288D01*
X010733Y018343D01*
X010775Y018396D01*
X010820Y018446D01*
X010868Y018493D01*
X010919Y018538D01*
X010972Y018579D01*
X011028Y018618D01*
X011086Y018653D01*
X011146Y018684D01*
X011207Y018712D01*
X011270Y018736D01*
X011334Y018757D01*
X011400Y018773D01*
X011466Y018786D01*
X011533Y018795D01*
X011600Y018800D01*
X011668Y018801D01*
X011735Y018798D01*
X011802Y018791D01*
X011869Y018780D01*
X011935Y018765D01*
X012000Y018747D01*
X012064Y018724D01*
X012126Y018698D01*
X012187Y018669D01*
X012245Y018635D01*
X012302Y018599D01*
X012357Y018559D01*
X012409Y018516D01*
X012458Y018470D01*
X012505Y018421D01*
X012549Y018370D01*
X012589Y018316D01*
X012627Y018260D01*
X012661Y018201D01*
X012691Y018141D01*
X012718Y018079D01*
X012742Y018016D01*
X012761Y017951D01*
X012777Y017886D01*
X012789Y017819D01*
X012797Y017752D01*
X012801Y017685D01*
X012801Y017617D01*
X012797Y017550D01*
X012789Y017483D01*
X012777Y017416D01*
X012761Y017351D01*
X012742Y017286D01*
X012718Y017223D01*
X012691Y017161D01*
X012661Y017101D01*
X012627Y017042D01*
X012589Y016986D01*
X012549Y016932D01*
X012505Y016881D01*
X012458Y016832D01*
X012409Y016786D01*
X012357Y016743D01*
X012302Y016703D01*
X012245Y016667D01*
X012187Y016633D01*
X012126Y016604D01*
X012064Y016578D01*
X012000Y016555D01*
X011935Y016537D01*
X011869Y016522D01*
X011802Y016511D01*
X011735Y016504D01*
X011668Y016501D01*
X011600Y016502D01*
X011533Y016507D01*
X011466Y016516D01*
X011400Y016529D01*
X011334Y016545D01*
X011270Y016566D01*
X011207Y016590D01*
X011146Y016618D01*
X011086Y016649D01*
X011028Y016684D01*
X010972Y016723D01*
X010919Y016764D01*
X010868Y016809D01*
X010820Y016856D01*
X010775Y016906D01*
X010733Y016959D01*
X010694Y017014D01*
X010658Y017071D01*
X010626Y017130D01*
X010597Y017191D01*
X010572Y017254D01*
X010550Y017318D01*
X010533Y017383D01*
X010519Y017449D01*
X010509Y017516D01*
X010503Y017584D01*
X010501Y017651D01*
X013951Y017401D02*
X013953Y017384D01*
X013957Y017367D01*
X013964Y017351D01*
X013974Y017337D01*
X013987Y017324D01*
X014001Y017314D01*
X014017Y017307D01*
X014034Y017303D01*
X014051Y017301D01*
X014151Y017301D01*
X014201Y017351D01*
X015101Y017351D01*
X015151Y017301D01*
X015251Y017301D01*
X015268Y017303D01*
X015285Y017307D01*
X015301Y017314D01*
X015315Y017324D01*
X015328Y017337D01*
X015338Y017351D01*
X015345Y017367D01*
X015349Y017384D01*
X015351Y017401D01*
X015229Y017141D02*
X015229Y016851D01*
X015132Y016851D02*
X015326Y016851D01*
X015132Y017045D02*
X015229Y017141D01*
X014966Y017093D02*
X014966Y016996D01*
X014918Y016948D01*
X014773Y016948D01*
X014870Y016948D02*
X014966Y016851D01*
X014773Y016851D02*
X014773Y017141D01*
X014918Y017141D01*
X014966Y017093D01*
X015351Y017901D02*
X015349Y017918D01*
X015345Y017935D01*
X015338Y017951D01*
X015328Y017965D01*
X015315Y017978D01*
X015301Y017988D01*
X015285Y017995D01*
X015268Y017999D01*
X015251Y018001D01*
X015151Y018001D01*
X015101Y017951D01*
X014201Y017951D01*
X014151Y018001D01*
X014051Y018001D01*
X014034Y017999D01*
X014017Y017995D01*
X014001Y017988D01*
X013987Y017978D01*
X013974Y017965D01*
X013964Y017951D01*
X013957Y017935D01*
X013953Y017918D01*
X013951Y017901D01*
X014464Y018270D02*
X014512Y018221D01*
X014609Y018221D01*
X014657Y018270D01*
X014657Y018318D01*
X014609Y018366D01*
X014561Y018366D01*
X014609Y018366D02*
X014657Y018415D01*
X014657Y018463D01*
X014609Y018511D01*
X014512Y018511D01*
X014464Y018463D01*
X014823Y018463D02*
X014871Y018511D01*
X014968Y018511D01*
X015016Y018463D01*
X015016Y018415D01*
X014968Y018366D01*
X015016Y018318D01*
X015016Y018270D01*
X014968Y018221D01*
X014871Y018221D01*
X014823Y018270D01*
X014920Y018366D02*
X014968Y018366D01*
X015182Y018270D02*
X015376Y018463D01*
X015376Y018270D01*
X015327Y018221D01*
X015230Y018221D01*
X015182Y018270D01*
X015182Y018463D01*
X015230Y018511D01*
X015327Y018511D01*
X015376Y018463D01*
X017060Y017651D02*
X017062Y017699D01*
X017068Y017747D01*
X017078Y017794D01*
X017091Y017840D01*
X017109Y017885D01*
X017129Y017929D01*
X017154Y017971D01*
X017182Y018010D01*
X017212Y018047D01*
X017246Y018081D01*
X017283Y018113D01*
X017321Y018142D01*
X017362Y018167D01*
X017405Y018189D01*
X017450Y018207D01*
X017496Y018221D01*
X017543Y018232D01*
X017591Y018239D01*
X017639Y018242D01*
X017687Y018241D01*
X017735Y018236D01*
X017783Y018227D01*
X017829Y018215D01*
X017874Y018198D01*
X017918Y018178D01*
X017960Y018155D01*
X018000Y018128D01*
X018038Y018098D01*
X018073Y018065D01*
X018105Y018029D01*
X018135Y017991D01*
X018161Y017950D01*
X018183Y017907D01*
X018203Y017863D01*
X018218Y017818D01*
X018230Y017771D01*
X018238Y017723D01*
X018242Y017675D01*
X018242Y017627D01*
X018238Y017579D01*
X018230Y017531D01*
X018218Y017484D01*
X018203Y017439D01*
X018183Y017395D01*
X018161Y017352D01*
X018135Y017311D01*
X018105Y017273D01*
X018073Y017237D01*
X018038Y017204D01*
X018000Y017174D01*
X017960Y017147D01*
X017918Y017124D01*
X017874Y017104D01*
X017829Y017087D01*
X017783Y017075D01*
X017735Y017066D01*
X017687Y017061D01*
X017639Y017060D01*
X017591Y017063D01*
X017543Y017070D01*
X017496Y017081D01*
X017450Y017095D01*
X017405Y017113D01*
X017362Y017135D01*
X017321Y017160D01*
X017283Y017189D01*
X017246Y017221D01*
X017212Y017255D01*
X017182Y017292D01*
X017154Y017331D01*
X017129Y017373D01*
X017109Y017417D01*
X017091Y017462D01*
X017078Y017508D01*
X017068Y017555D01*
X017062Y017603D01*
X017060Y017651D01*
X016501Y017651D02*
X016503Y017718D01*
X016509Y017786D01*
X016519Y017853D01*
X016533Y017919D01*
X016550Y017984D01*
X016572Y018048D01*
X016597Y018111D01*
X016626Y018172D01*
X016658Y018231D01*
X016694Y018288D01*
X016733Y018343D01*
X016775Y018396D01*
X016820Y018446D01*
X016868Y018493D01*
X016919Y018538D01*
X016972Y018579D01*
X017028Y018618D01*
X017086Y018653D01*
X017146Y018684D01*
X017207Y018712D01*
X017270Y018736D01*
X017334Y018757D01*
X017400Y018773D01*
X017466Y018786D01*
X017533Y018795D01*
X017600Y018800D01*
X017668Y018801D01*
X017735Y018798D01*
X017802Y018791D01*
X017869Y018780D01*
X017935Y018765D01*
X018000Y018747D01*
X018064Y018724D01*
X018126Y018698D01*
X018187Y018669D01*
X018245Y018635D01*
X018302Y018599D01*
X018357Y018559D01*
X018409Y018516D01*
X018458Y018470D01*
X018505Y018421D01*
X018549Y018370D01*
X018589Y018316D01*
X018627Y018260D01*
X018661Y018201D01*
X018691Y018141D01*
X018718Y018079D01*
X018742Y018016D01*
X018761Y017951D01*
X018777Y017886D01*
X018789Y017819D01*
X018797Y017752D01*
X018801Y017685D01*
X018801Y017617D01*
X018797Y017550D01*
X018789Y017483D01*
X018777Y017416D01*
X018761Y017351D01*
X018742Y017286D01*
X018718Y017223D01*
X018691Y017161D01*
X018661Y017101D01*
X018627Y017042D01*
X018589Y016986D01*
X018549Y016932D01*
X018505Y016881D01*
X018458Y016832D01*
X018409Y016786D01*
X018357Y016743D01*
X018302Y016703D01*
X018245Y016667D01*
X018187Y016633D01*
X018126Y016604D01*
X018064Y016578D01*
X018000Y016555D01*
X017935Y016537D01*
X017869Y016522D01*
X017802Y016511D01*
X017735Y016504D01*
X017668Y016501D01*
X017600Y016502D01*
X017533Y016507D01*
X017466Y016516D01*
X017400Y016529D01*
X017334Y016545D01*
X017270Y016566D01*
X017207Y016590D01*
X017146Y016618D01*
X017086Y016649D01*
X017028Y016684D01*
X016972Y016723D01*
X016919Y016764D01*
X016868Y016809D01*
X016820Y016856D01*
X016775Y016906D01*
X016733Y016959D01*
X016694Y017014D01*
X016658Y017071D01*
X016626Y017130D01*
X016597Y017191D01*
X016572Y017254D01*
X016550Y017318D01*
X016533Y017383D01*
X016519Y017449D01*
X016509Y017516D01*
X016503Y017584D01*
X016501Y017651D01*
D11*
X017100Y017651D02*
X017102Y017698D01*
X017108Y017744D01*
X017118Y017790D01*
X017131Y017835D01*
X017149Y017878D01*
X017170Y017920D01*
X017194Y017960D01*
X017222Y017997D01*
X017253Y018032D01*
X017287Y018065D01*
X017323Y018094D01*
X017362Y018120D01*
X017403Y018143D01*
X017446Y018162D01*
X017490Y018178D01*
X017535Y018190D01*
X017581Y018198D01*
X017628Y018202D01*
X017674Y018202D01*
X017721Y018198D01*
X017767Y018190D01*
X017812Y018178D01*
X017856Y018162D01*
X017899Y018143D01*
X017940Y018120D01*
X017979Y018094D01*
X018015Y018065D01*
X018049Y018032D01*
X018080Y017997D01*
X018108Y017960D01*
X018132Y017920D01*
X018153Y017878D01*
X018171Y017835D01*
X018184Y017790D01*
X018194Y017744D01*
X018200Y017698D01*
X018202Y017651D01*
X018200Y017604D01*
X018194Y017558D01*
X018184Y017512D01*
X018171Y017467D01*
X018153Y017424D01*
X018132Y017382D01*
X018108Y017342D01*
X018080Y017305D01*
X018049Y017270D01*
X018015Y017237D01*
X017979Y017208D01*
X017940Y017182D01*
X017899Y017159D01*
X017856Y017140D01*
X017812Y017124D01*
X017767Y017112D01*
X017721Y017104D01*
X017674Y017100D01*
X017628Y017100D01*
X017581Y017104D01*
X017535Y017112D01*
X017490Y017124D01*
X017446Y017140D01*
X017403Y017159D01*
X017362Y017182D01*
X017323Y017208D01*
X017287Y017237D01*
X017253Y017270D01*
X017222Y017305D01*
X017194Y017342D01*
X017170Y017382D01*
X017149Y017424D01*
X017131Y017467D01*
X017118Y017512D01*
X017108Y017558D01*
X017102Y017604D01*
X017100Y017651D01*
X019151Y019151D02*
X000151Y019151D01*
X000151Y000151D01*
X019151Y000151D01*
X019151Y019151D01*
X014356Y014651D02*
X014358Y014685D01*
X014364Y014719D01*
X014374Y014752D01*
X014387Y014783D01*
X014405Y014813D01*
X014425Y014841D01*
X014449Y014866D01*
X014475Y014888D01*
X014503Y014906D01*
X014534Y014922D01*
X014566Y014934D01*
X014600Y014942D01*
X014634Y014946D01*
X014668Y014946D01*
X014702Y014942D01*
X014736Y014934D01*
X014768Y014922D01*
X014798Y014906D01*
X014827Y014888D01*
X014853Y014866D01*
X014877Y014841D01*
X014897Y014813D01*
X014915Y014783D01*
X014928Y014752D01*
X014938Y014719D01*
X014944Y014685D01*
X014946Y014651D01*
X014944Y014617D01*
X014938Y014583D01*
X014928Y014550D01*
X014915Y014519D01*
X014897Y014489D01*
X014877Y014461D01*
X014853Y014436D01*
X014827Y014414D01*
X014799Y014396D01*
X014768Y014380D01*
X014736Y014368D01*
X014702Y014360D01*
X014668Y014356D01*
X014634Y014356D01*
X014600Y014360D01*
X014566Y014368D01*
X014534Y014380D01*
X014503Y014396D01*
X014475Y014414D01*
X014449Y014436D01*
X014425Y014461D01*
X014405Y014489D01*
X014387Y014519D01*
X014374Y014550D01*
X014364Y014583D01*
X014358Y014617D01*
X014356Y014651D01*
X011100Y011651D02*
X011102Y011698D01*
X011108Y011744D01*
X011118Y011790D01*
X011131Y011835D01*
X011149Y011878D01*
X011170Y011920D01*
X011194Y011960D01*
X011222Y011997D01*
X011253Y012032D01*
X011287Y012065D01*
X011323Y012094D01*
X011362Y012120D01*
X011403Y012143D01*
X011446Y012162D01*
X011490Y012178D01*
X011535Y012190D01*
X011581Y012198D01*
X011628Y012202D01*
X011674Y012202D01*
X011721Y012198D01*
X011767Y012190D01*
X011812Y012178D01*
X011856Y012162D01*
X011899Y012143D01*
X011940Y012120D01*
X011979Y012094D01*
X012015Y012065D01*
X012049Y012032D01*
X012080Y011997D01*
X012108Y011960D01*
X012132Y011920D01*
X012153Y011878D01*
X012171Y011835D01*
X012184Y011790D01*
X012194Y011744D01*
X012200Y011698D01*
X012202Y011651D01*
X012200Y011604D01*
X012194Y011558D01*
X012184Y011512D01*
X012171Y011467D01*
X012153Y011424D01*
X012132Y011382D01*
X012108Y011342D01*
X012080Y011305D01*
X012049Y011270D01*
X012015Y011237D01*
X011979Y011208D01*
X011940Y011182D01*
X011899Y011159D01*
X011856Y011140D01*
X011812Y011124D01*
X011767Y011112D01*
X011721Y011104D01*
X011674Y011100D01*
X011628Y011100D01*
X011581Y011104D01*
X011535Y011112D01*
X011490Y011124D01*
X011446Y011140D01*
X011403Y011159D01*
X011362Y011182D01*
X011323Y011208D01*
X011287Y011237D01*
X011253Y011270D01*
X011222Y011305D01*
X011194Y011342D01*
X011170Y011382D01*
X011149Y011424D01*
X011131Y011467D01*
X011118Y011512D01*
X011108Y011558D01*
X011102Y011604D01*
X011100Y011651D01*
X007100Y011651D02*
X007102Y011698D01*
X007108Y011744D01*
X007118Y011790D01*
X007131Y011835D01*
X007149Y011878D01*
X007170Y011920D01*
X007194Y011960D01*
X007222Y011997D01*
X007253Y012032D01*
X007287Y012065D01*
X007323Y012094D01*
X007362Y012120D01*
X007403Y012143D01*
X007446Y012162D01*
X007490Y012178D01*
X007535Y012190D01*
X007581Y012198D01*
X007628Y012202D01*
X007674Y012202D01*
X007721Y012198D01*
X007767Y012190D01*
X007812Y012178D01*
X007856Y012162D01*
X007899Y012143D01*
X007940Y012120D01*
X007979Y012094D01*
X008015Y012065D01*
X008049Y012032D01*
X008080Y011997D01*
X008108Y011960D01*
X008132Y011920D01*
X008153Y011878D01*
X008171Y011835D01*
X008184Y011790D01*
X008194Y011744D01*
X008200Y011698D01*
X008202Y011651D01*
X008200Y011604D01*
X008194Y011558D01*
X008184Y011512D01*
X008171Y011467D01*
X008153Y011424D01*
X008132Y011382D01*
X008108Y011342D01*
X008080Y011305D01*
X008049Y011270D01*
X008015Y011237D01*
X007979Y011208D01*
X007940Y011182D01*
X007899Y011159D01*
X007856Y011140D01*
X007812Y011124D01*
X007767Y011112D01*
X007721Y011104D01*
X007674Y011100D01*
X007628Y011100D01*
X007581Y011104D01*
X007535Y011112D01*
X007490Y011124D01*
X007446Y011140D01*
X007403Y011159D01*
X007362Y011182D01*
X007323Y011208D01*
X007287Y011237D01*
X007253Y011270D01*
X007222Y011305D01*
X007194Y011342D01*
X007170Y011382D01*
X007149Y011424D01*
X007131Y011467D01*
X007118Y011512D01*
X007108Y011558D01*
X007102Y011604D01*
X007100Y011651D01*
X004356Y014651D02*
X004358Y014685D01*
X004364Y014719D01*
X004374Y014752D01*
X004387Y014783D01*
X004405Y014813D01*
X004425Y014841D01*
X004449Y014866D01*
X004475Y014888D01*
X004503Y014906D01*
X004534Y014922D01*
X004566Y014934D01*
X004600Y014942D01*
X004634Y014946D01*
X004668Y014946D01*
X004702Y014942D01*
X004736Y014934D01*
X004768Y014922D01*
X004798Y014906D01*
X004827Y014888D01*
X004853Y014866D01*
X004877Y014841D01*
X004897Y014813D01*
X004915Y014783D01*
X004928Y014752D01*
X004938Y014719D01*
X004944Y014685D01*
X004946Y014651D01*
X004944Y014617D01*
X004938Y014583D01*
X004928Y014550D01*
X004915Y014519D01*
X004897Y014489D01*
X004877Y014461D01*
X004853Y014436D01*
X004827Y014414D01*
X004799Y014396D01*
X004768Y014380D01*
X004736Y014368D01*
X004702Y014360D01*
X004668Y014356D01*
X004634Y014356D01*
X004600Y014360D01*
X004566Y014368D01*
X004534Y014380D01*
X004503Y014396D01*
X004475Y014414D01*
X004449Y014436D01*
X004425Y014461D01*
X004405Y014489D01*
X004387Y014519D01*
X004374Y014550D01*
X004364Y014583D01*
X004358Y014617D01*
X004356Y014651D01*
X001100Y011651D02*
X001102Y011698D01*
X001108Y011744D01*
X001118Y011790D01*
X001131Y011835D01*
X001149Y011878D01*
X001170Y011920D01*
X001194Y011960D01*
X001222Y011997D01*
X001253Y012032D01*
X001287Y012065D01*
X001323Y012094D01*
X001362Y012120D01*
X001403Y012143D01*
X001446Y012162D01*
X001490Y012178D01*
X001535Y012190D01*
X001581Y012198D01*
X001628Y012202D01*
X001674Y012202D01*
X001721Y012198D01*
X001767Y012190D01*
X001812Y012178D01*
X001856Y012162D01*
X001899Y012143D01*
X001940Y012120D01*
X001979Y012094D01*
X002015Y012065D01*
X002049Y012032D01*
X002080Y011997D01*
X002108Y011960D01*
X002132Y011920D01*
X002153Y011878D01*
X002171Y011835D01*
X002184Y011790D01*
X002194Y011744D01*
X002200Y011698D01*
X002202Y011651D01*
X002200Y011604D01*
X002194Y011558D01*
X002184Y011512D01*
X002171Y011467D01*
X002153Y011424D01*
X002132Y011382D01*
X002108Y011342D01*
X002080Y011305D01*
X002049Y011270D01*
X002015Y011237D01*
X001979Y011208D01*
X001940Y011182D01*
X001899Y011159D01*
X001856Y011140D01*
X001812Y011124D01*
X001767Y011112D01*
X001721Y011104D01*
X001674Y011100D01*
X001628Y011100D01*
X001581Y011104D01*
X001535Y011112D01*
X001490Y011124D01*
X001446Y011140D01*
X001403Y011159D01*
X001362Y011182D01*
X001323Y011208D01*
X001287Y011237D01*
X001253Y011270D01*
X001222Y011305D01*
X001194Y011342D01*
X001170Y011382D01*
X001149Y011424D01*
X001131Y011467D01*
X001118Y011512D01*
X001108Y011558D01*
X001102Y011604D01*
X001100Y011651D01*
X000990Y015439D02*
X000992Y015462D01*
X000998Y015485D01*
X001008Y015506D01*
X001021Y015526D01*
X001037Y015543D01*
X001056Y015557D01*
X001077Y015567D01*
X001099Y015574D01*
X001122Y015577D01*
X001146Y015576D01*
X001168Y015571D01*
X001190Y015562D01*
X001210Y015550D01*
X001228Y015534D01*
X001242Y015516D01*
X001254Y015496D01*
X001262Y015474D01*
X001266Y015451D01*
X001266Y015427D01*
X001262Y015404D01*
X001254Y015382D01*
X001242Y015362D01*
X001228Y015344D01*
X001210Y015328D01*
X001190Y015316D01*
X001168Y015307D01*
X001146Y015302D01*
X001122Y015301D01*
X001099Y015304D01*
X001077Y015311D01*
X001056Y015321D01*
X001037Y015335D01*
X001021Y015352D01*
X001008Y015372D01*
X000998Y015393D01*
X000992Y015416D01*
X000990Y015439D01*
X001100Y017651D02*
X001102Y017698D01*
X001108Y017744D01*
X001118Y017790D01*
X001131Y017835D01*
X001149Y017878D01*
X001170Y017920D01*
X001194Y017960D01*
X001222Y017997D01*
X001253Y018032D01*
X001287Y018065D01*
X001323Y018094D01*
X001362Y018120D01*
X001403Y018143D01*
X001446Y018162D01*
X001490Y018178D01*
X001535Y018190D01*
X001581Y018198D01*
X001628Y018202D01*
X001674Y018202D01*
X001721Y018198D01*
X001767Y018190D01*
X001812Y018178D01*
X001856Y018162D01*
X001899Y018143D01*
X001940Y018120D01*
X001979Y018094D01*
X002015Y018065D01*
X002049Y018032D01*
X002080Y017997D01*
X002108Y017960D01*
X002132Y017920D01*
X002153Y017878D01*
X002171Y017835D01*
X002184Y017790D01*
X002194Y017744D01*
X002200Y017698D01*
X002202Y017651D01*
X002200Y017604D01*
X002194Y017558D01*
X002184Y017512D01*
X002171Y017467D01*
X002153Y017424D01*
X002132Y017382D01*
X002108Y017342D01*
X002080Y017305D01*
X002049Y017270D01*
X002015Y017237D01*
X001979Y017208D01*
X001940Y017182D01*
X001899Y017159D01*
X001856Y017140D01*
X001812Y017124D01*
X001767Y017112D01*
X001721Y017104D01*
X001674Y017100D01*
X001628Y017100D01*
X001581Y017104D01*
X001535Y017112D01*
X001490Y017124D01*
X001446Y017140D01*
X001403Y017159D01*
X001362Y017182D01*
X001323Y017208D01*
X001287Y017237D01*
X001253Y017270D01*
X001222Y017305D01*
X001194Y017342D01*
X001170Y017382D01*
X001149Y017424D01*
X001131Y017467D01*
X001118Y017512D01*
X001108Y017558D01*
X001102Y017604D01*
X001100Y017651D01*
X007100Y017651D02*
X007102Y017698D01*
X007108Y017744D01*
X007118Y017790D01*
X007131Y017835D01*
X007149Y017878D01*
X007170Y017920D01*
X007194Y017960D01*
X007222Y017997D01*
X007253Y018032D01*
X007287Y018065D01*
X007323Y018094D01*
X007362Y018120D01*
X007403Y018143D01*
X007446Y018162D01*
X007490Y018178D01*
X007535Y018190D01*
X007581Y018198D01*
X007628Y018202D01*
X007674Y018202D01*
X007721Y018198D01*
X007767Y018190D01*
X007812Y018178D01*
X007856Y018162D01*
X007899Y018143D01*
X007940Y018120D01*
X007979Y018094D01*
X008015Y018065D01*
X008049Y018032D01*
X008080Y017997D01*
X008108Y017960D01*
X008132Y017920D01*
X008153Y017878D01*
X008171Y017835D01*
X008184Y017790D01*
X008194Y017744D01*
X008200Y017698D01*
X008202Y017651D01*
X008200Y017604D01*
X008194Y017558D01*
X008184Y017512D01*
X008171Y017467D01*
X008153Y017424D01*
X008132Y017382D01*
X008108Y017342D01*
X008080Y017305D01*
X008049Y017270D01*
X008015Y017237D01*
X007979Y017208D01*
X007940Y017182D01*
X007899Y017159D01*
X007856Y017140D01*
X007812Y017124D01*
X007767Y017112D01*
X007721Y017104D01*
X007674Y017100D01*
X007628Y017100D01*
X007581Y017104D01*
X007535Y017112D01*
X007490Y017124D01*
X007446Y017140D01*
X007403Y017159D01*
X007362Y017182D01*
X007323Y017208D01*
X007287Y017237D01*
X007253Y017270D01*
X007222Y017305D01*
X007194Y017342D01*
X007170Y017382D01*
X007149Y017424D01*
X007131Y017467D01*
X007118Y017512D01*
X007108Y017558D01*
X007102Y017604D01*
X007100Y017651D01*
X010990Y015439D02*
X010992Y015462D01*
X010998Y015485D01*
X011008Y015506D01*
X011021Y015526D01*
X011037Y015543D01*
X011056Y015557D01*
X011077Y015567D01*
X011099Y015574D01*
X011122Y015577D01*
X011146Y015576D01*
X011168Y015571D01*
X011190Y015562D01*
X011210Y015550D01*
X011228Y015534D01*
X011242Y015516D01*
X011254Y015496D01*
X011262Y015474D01*
X011266Y015451D01*
X011266Y015427D01*
X011262Y015404D01*
X011254Y015382D01*
X011242Y015362D01*
X011228Y015344D01*
X011210Y015328D01*
X011190Y015316D01*
X011168Y015307D01*
X011146Y015302D01*
X011122Y015301D01*
X011099Y015304D01*
X011077Y015311D01*
X011056Y015321D01*
X011037Y015335D01*
X011021Y015352D01*
X011008Y015372D01*
X010998Y015393D01*
X010992Y015416D01*
X010990Y015439D01*
X011100Y017651D02*
X011102Y017698D01*
X011108Y017744D01*
X011118Y017790D01*
X011131Y017835D01*
X011149Y017878D01*
X011170Y017920D01*
X011194Y017960D01*
X011222Y017997D01*
X011253Y018032D01*
X011287Y018065D01*
X011323Y018094D01*
X011362Y018120D01*
X011403Y018143D01*
X011446Y018162D01*
X011490Y018178D01*
X011535Y018190D01*
X011581Y018198D01*
X011628Y018202D01*
X011674Y018202D01*
X011721Y018198D01*
X011767Y018190D01*
X011812Y018178D01*
X011856Y018162D01*
X011899Y018143D01*
X011940Y018120D01*
X011979Y018094D01*
X012015Y018065D01*
X012049Y018032D01*
X012080Y017997D01*
X012108Y017960D01*
X012132Y017920D01*
X012153Y017878D01*
X012171Y017835D01*
X012184Y017790D01*
X012194Y017744D01*
X012200Y017698D01*
X012202Y017651D01*
X012200Y017604D01*
X012194Y017558D01*
X012184Y017512D01*
X012171Y017467D01*
X012153Y017424D01*
X012132Y017382D01*
X012108Y017342D01*
X012080Y017305D01*
X012049Y017270D01*
X012015Y017237D01*
X011979Y017208D01*
X011940Y017182D01*
X011899Y017159D01*
X011856Y017140D01*
X011812Y017124D01*
X011767Y017112D01*
X011721Y017104D01*
X011674Y017100D01*
X011628Y017100D01*
X011581Y017104D01*
X011535Y017112D01*
X011490Y017124D01*
X011446Y017140D01*
X011403Y017159D01*
X011362Y017182D01*
X011323Y017208D01*
X011287Y017237D01*
X011253Y017270D01*
X011222Y017305D01*
X011194Y017342D01*
X011170Y017382D01*
X011149Y017424D01*
X011131Y017467D01*
X011118Y017512D01*
X011108Y017558D01*
X011102Y017604D01*
X011100Y017651D01*
X017100Y011651D02*
X017102Y011698D01*
X017108Y011744D01*
X017118Y011790D01*
X017131Y011835D01*
X017149Y011878D01*
X017170Y011920D01*
X017194Y011960D01*
X017222Y011997D01*
X017253Y012032D01*
X017287Y012065D01*
X017323Y012094D01*
X017362Y012120D01*
X017403Y012143D01*
X017446Y012162D01*
X017490Y012178D01*
X017535Y012190D01*
X017581Y012198D01*
X017628Y012202D01*
X017674Y012202D01*
X017721Y012198D01*
X017767Y012190D01*
X017812Y012178D01*
X017856Y012162D01*
X017899Y012143D01*
X017940Y012120D01*
X017979Y012094D01*
X018015Y012065D01*
X018049Y012032D01*
X018080Y011997D01*
X018108Y011960D01*
X018132Y011920D01*
X018153Y011878D01*
X018171Y011835D01*
X018184Y011790D01*
X018194Y011744D01*
X018200Y011698D01*
X018202Y011651D01*
X018200Y011604D01*
X018194Y011558D01*
X018184Y011512D01*
X018171Y011467D01*
X018153Y011424D01*
X018132Y011382D01*
X018108Y011342D01*
X018080Y011305D01*
X018049Y011270D01*
X018015Y011237D01*
X017979Y011208D01*
X017940Y011182D01*
X017899Y011159D01*
X017856Y011140D01*
X017812Y011124D01*
X017767Y011112D01*
X017721Y011104D01*
X017674Y011100D01*
X017628Y011100D01*
X017581Y011104D01*
X017535Y011112D01*
X017490Y011124D01*
X017446Y011140D01*
X017403Y011159D01*
X017362Y011182D01*
X017323Y011208D01*
X017287Y011237D01*
X017253Y011270D01*
X017222Y011305D01*
X017194Y011342D01*
X017170Y011382D01*
X017149Y011424D01*
X017131Y011467D01*
X017118Y011512D01*
X017108Y011558D01*
X017102Y011604D01*
X017100Y011651D01*
X017100Y007651D02*
X017102Y007698D01*
X017108Y007744D01*
X017118Y007790D01*
X017131Y007835D01*
X017149Y007878D01*
X017170Y007920D01*
X017194Y007960D01*
X017222Y007997D01*
X017253Y008032D01*
X017287Y008065D01*
X017323Y008094D01*
X017362Y008120D01*
X017403Y008143D01*
X017446Y008162D01*
X017490Y008178D01*
X017535Y008190D01*
X017581Y008198D01*
X017628Y008202D01*
X017674Y008202D01*
X017721Y008198D01*
X017767Y008190D01*
X017812Y008178D01*
X017856Y008162D01*
X017899Y008143D01*
X017940Y008120D01*
X017979Y008094D01*
X018015Y008065D01*
X018049Y008032D01*
X018080Y007997D01*
X018108Y007960D01*
X018132Y007920D01*
X018153Y007878D01*
X018171Y007835D01*
X018184Y007790D01*
X018194Y007744D01*
X018200Y007698D01*
X018202Y007651D01*
X018200Y007604D01*
X018194Y007558D01*
X018184Y007512D01*
X018171Y007467D01*
X018153Y007424D01*
X018132Y007382D01*
X018108Y007342D01*
X018080Y007305D01*
X018049Y007270D01*
X018015Y007237D01*
X017979Y007208D01*
X017940Y007182D01*
X017899Y007159D01*
X017856Y007140D01*
X017812Y007124D01*
X017767Y007112D01*
X017721Y007104D01*
X017674Y007100D01*
X017628Y007100D01*
X017581Y007104D01*
X017535Y007112D01*
X017490Y007124D01*
X017446Y007140D01*
X017403Y007159D01*
X017362Y007182D01*
X017323Y007208D01*
X017287Y007237D01*
X017253Y007270D01*
X017222Y007305D01*
X017194Y007342D01*
X017170Y007382D01*
X017149Y007424D01*
X017131Y007467D01*
X017118Y007512D01*
X017108Y007558D01*
X017102Y007604D01*
X017100Y007651D01*
X014356Y004651D02*
X014358Y004685D01*
X014364Y004719D01*
X014374Y004752D01*
X014387Y004783D01*
X014405Y004813D01*
X014425Y004841D01*
X014449Y004866D01*
X014475Y004888D01*
X014503Y004906D01*
X014534Y004922D01*
X014566Y004934D01*
X014600Y004942D01*
X014634Y004946D01*
X014668Y004946D01*
X014702Y004942D01*
X014736Y004934D01*
X014768Y004922D01*
X014798Y004906D01*
X014827Y004888D01*
X014853Y004866D01*
X014877Y004841D01*
X014897Y004813D01*
X014915Y004783D01*
X014928Y004752D01*
X014938Y004719D01*
X014944Y004685D01*
X014946Y004651D01*
X014944Y004617D01*
X014938Y004583D01*
X014928Y004550D01*
X014915Y004519D01*
X014897Y004489D01*
X014877Y004461D01*
X014853Y004436D01*
X014827Y004414D01*
X014799Y004396D01*
X014768Y004380D01*
X014736Y004368D01*
X014702Y004360D01*
X014668Y004356D01*
X014634Y004356D01*
X014600Y004360D01*
X014566Y004368D01*
X014534Y004380D01*
X014503Y004396D01*
X014475Y004414D01*
X014449Y004436D01*
X014425Y004461D01*
X014405Y004489D01*
X014387Y004519D01*
X014374Y004550D01*
X014364Y004583D01*
X014358Y004617D01*
X014356Y004651D01*
X011100Y007651D02*
X011102Y007698D01*
X011108Y007744D01*
X011118Y007790D01*
X011131Y007835D01*
X011149Y007878D01*
X011170Y007920D01*
X011194Y007960D01*
X011222Y007997D01*
X011253Y008032D01*
X011287Y008065D01*
X011323Y008094D01*
X011362Y008120D01*
X011403Y008143D01*
X011446Y008162D01*
X011490Y008178D01*
X011535Y008190D01*
X011581Y008198D01*
X011628Y008202D01*
X011674Y008202D01*
X011721Y008198D01*
X011767Y008190D01*
X011812Y008178D01*
X011856Y008162D01*
X011899Y008143D01*
X011940Y008120D01*
X011979Y008094D01*
X012015Y008065D01*
X012049Y008032D01*
X012080Y007997D01*
X012108Y007960D01*
X012132Y007920D01*
X012153Y007878D01*
X012171Y007835D01*
X012184Y007790D01*
X012194Y007744D01*
X012200Y007698D01*
X012202Y007651D01*
X012200Y007604D01*
X012194Y007558D01*
X012184Y007512D01*
X012171Y007467D01*
X012153Y007424D01*
X012132Y007382D01*
X012108Y007342D01*
X012080Y007305D01*
X012049Y007270D01*
X012015Y007237D01*
X011979Y007208D01*
X011940Y007182D01*
X011899Y007159D01*
X011856Y007140D01*
X011812Y007124D01*
X011767Y007112D01*
X011721Y007104D01*
X011674Y007100D01*
X011628Y007100D01*
X011581Y007104D01*
X011535Y007112D01*
X011490Y007124D01*
X011446Y007140D01*
X011403Y007159D01*
X011362Y007182D01*
X011323Y007208D01*
X011287Y007237D01*
X011253Y007270D01*
X011222Y007305D01*
X011194Y007342D01*
X011170Y007382D01*
X011149Y007424D01*
X011131Y007467D01*
X011118Y007512D01*
X011108Y007558D01*
X011102Y007604D01*
X011100Y007651D01*
X010990Y005439D02*
X010992Y005462D01*
X010998Y005485D01*
X011008Y005506D01*
X011021Y005526D01*
X011037Y005543D01*
X011056Y005557D01*
X011077Y005567D01*
X011099Y005574D01*
X011122Y005577D01*
X011146Y005576D01*
X011168Y005571D01*
X011190Y005562D01*
X011210Y005550D01*
X011228Y005534D01*
X011242Y005516D01*
X011254Y005496D01*
X011262Y005474D01*
X011266Y005451D01*
X011266Y005427D01*
X011262Y005404D01*
X011254Y005382D01*
X011242Y005362D01*
X011228Y005344D01*
X011210Y005328D01*
X011190Y005316D01*
X011168Y005307D01*
X011146Y005302D01*
X011122Y005301D01*
X011099Y005304D01*
X011077Y005311D01*
X011056Y005321D01*
X011037Y005335D01*
X011021Y005352D01*
X011008Y005372D01*
X010998Y005393D01*
X010992Y005416D01*
X010990Y005439D01*
X007100Y007651D02*
X007102Y007698D01*
X007108Y007744D01*
X007118Y007790D01*
X007131Y007835D01*
X007149Y007878D01*
X007170Y007920D01*
X007194Y007960D01*
X007222Y007997D01*
X007253Y008032D01*
X007287Y008065D01*
X007323Y008094D01*
X007362Y008120D01*
X007403Y008143D01*
X007446Y008162D01*
X007490Y008178D01*
X007535Y008190D01*
X007581Y008198D01*
X007628Y008202D01*
X007674Y008202D01*
X007721Y008198D01*
X007767Y008190D01*
X007812Y008178D01*
X007856Y008162D01*
X007899Y008143D01*
X007940Y008120D01*
X007979Y008094D01*
X008015Y008065D01*
X008049Y008032D01*
X008080Y007997D01*
X008108Y007960D01*
X008132Y007920D01*
X008153Y007878D01*
X008171Y007835D01*
X008184Y007790D01*
X008194Y007744D01*
X008200Y007698D01*
X008202Y007651D01*
X008200Y007604D01*
X008194Y007558D01*
X008184Y007512D01*
X008171Y007467D01*
X008153Y007424D01*
X008132Y007382D01*
X008108Y007342D01*
X008080Y007305D01*
X008049Y007270D01*
X008015Y007237D01*
X007979Y007208D01*
X007940Y007182D01*
X007899Y007159D01*
X007856Y007140D01*
X007812Y007124D01*
X007767Y007112D01*
X007721Y007104D01*
X007674Y007100D01*
X007628Y007100D01*
X007581Y007104D01*
X007535Y007112D01*
X007490Y007124D01*
X007446Y007140D01*
X007403Y007159D01*
X007362Y007182D01*
X007323Y007208D01*
X007287Y007237D01*
X007253Y007270D01*
X007222Y007305D01*
X007194Y007342D01*
X007170Y007382D01*
X007149Y007424D01*
X007131Y007467D01*
X007118Y007512D01*
X007108Y007558D01*
X007102Y007604D01*
X007100Y007651D01*
X004356Y004651D02*
X004358Y004685D01*
X004364Y004719D01*
X004374Y004752D01*
X004387Y004783D01*
X004405Y004813D01*
X004425Y004841D01*
X004449Y004866D01*
X004475Y004888D01*
X004503Y004906D01*
X004534Y004922D01*
X004566Y004934D01*
X004600Y004942D01*
X004634Y004946D01*
X004668Y004946D01*
X004702Y004942D01*
X004736Y004934D01*
X004768Y004922D01*
X004798Y004906D01*
X004827Y004888D01*
X004853Y004866D01*
X004877Y004841D01*
X004897Y004813D01*
X004915Y004783D01*
X004928Y004752D01*
X004938Y004719D01*
X004944Y004685D01*
X004946Y004651D01*
X004944Y004617D01*
X004938Y004583D01*
X004928Y004550D01*
X004915Y004519D01*
X004897Y004489D01*
X004877Y004461D01*
X004853Y004436D01*
X004827Y004414D01*
X004799Y004396D01*
X004768Y004380D01*
X004736Y004368D01*
X004702Y004360D01*
X004668Y004356D01*
X004634Y004356D01*
X004600Y004360D01*
X004566Y004368D01*
X004534Y004380D01*
X004503Y004396D01*
X004475Y004414D01*
X004449Y004436D01*
X004425Y004461D01*
X004405Y004489D01*
X004387Y004519D01*
X004374Y004550D01*
X004364Y004583D01*
X004358Y004617D01*
X004356Y004651D01*
X001100Y007651D02*
X001102Y007698D01*
X001108Y007744D01*
X001118Y007790D01*
X001131Y007835D01*
X001149Y007878D01*
X001170Y007920D01*
X001194Y007960D01*
X001222Y007997D01*
X001253Y008032D01*
X001287Y008065D01*
X001323Y008094D01*
X001362Y008120D01*
X001403Y008143D01*
X001446Y008162D01*
X001490Y008178D01*
X001535Y008190D01*
X001581Y008198D01*
X001628Y008202D01*
X001674Y008202D01*
X001721Y008198D01*
X001767Y008190D01*
X001812Y008178D01*
X001856Y008162D01*
X001899Y008143D01*
X001940Y008120D01*
X001979Y008094D01*
X002015Y008065D01*
X002049Y008032D01*
X002080Y007997D01*
X002108Y007960D01*
X002132Y007920D01*
X002153Y007878D01*
X002171Y007835D01*
X002184Y007790D01*
X002194Y007744D01*
X002200Y007698D01*
X002202Y007651D01*
X002200Y007604D01*
X002194Y007558D01*
X002184Y007512D01*
X002171Y007467D01*
X002153Y007424D01*
X002132Y007382D01*
X002108Y007342D01*
X002080Y007305D01*
X002049Y007270D01*
X002015Y007237D01*
X001979Y007208D01*
X001940Y007182D01*
X001899Y007159D01*
X001856Y007140D01*
X001812Y007124D01*
X001767Y007112D01*
X001721Y007104D01*
X001674Y007100D01*
X001628Y007100D01*
X001581Y007104D01*
X001535Y007112D01*
X001490Y007124D01*
X001446Y007140D01*
X001403Y007159D01*
X001362Y007182D01*
X001323Y007208D01*
X001287Y007237D01*
X001253Y007270D01*
X001222Y007305D01*
X001194Y007342D01*
X001170Y007382D01*
X001149Y007424D01*
X001131Y007467D01*
X001118Y007512D01*
X001108Y007558D01*
X001102Y007604D01*
X001100Y007651D01*
X000990Y005439D02*
X000992Y005462D01*
X000998Y005485D01*
X001008Y005506D01*
X001021Y005526D01*
X001037Y005543D01*
X001056Y005557D01*
X001077Y005567D01*
X001099Y005574D01*
X001122Y005577D01*
X001146Y005576D01*
X001168Y005571D01*
X001190Y005562D01*
X001210Y005550D01*
X001228Y005534D01*
X001242Y005516D01*
X001254Y005496D01*
X001262Y005474D01*
X001266Y005451D01*
X001266Y005427D01*
X001262Y005404D01*
X001254Y005382D01*
X001242Y005362D01*
X001228Y005344D01*
X001210Y005328D01*
X001190Y005316D01*
X001168Y005307D01*
X001146Y005302D01*
X001122Y005301D01*
X001099Y005304D01*
X001077Y005311D01*
X001056Y005321D01*
X001037Y005335D01*
X001021Y005352D01*
X001008Y005372D01*
X000998Y005393D01*
X000992Y005416D01*
X000990Y005439D01*
X001100Y001651D02*
X001102Y001698D01*
X001108Y001744D01*
X001118Y001790D01*
X001131Y001835D01*
X001149Y001878D01*
X001170Y001920D01*
X001194Y001960D01*
X001222Y001997D01*
X001253Y002032D01*
X001287Y002065D01*
X001323Y002094D01*
X001362Y002120D01*
X001403Y002143D01*
X001446Y002162D01*
X001490Y002178D01*
X001535Y002190D01*
X001581Y002198D01*
X001628Y002202D01*
X001674Y002202D01*
X001721Y002198D01*
X001767Y002190D01*
X001812Y002178D01*
X001856Y002162D01*
X001899Y002143D01*
X001940Y002120D01*
X001979Y002094D01*
X002015Y002065D01*
X002049Y002032D01*
X002080Y001997D01*
X002108Y001960D01*
X002132Y001920D01*
X002153Y001878D01*
X002171Y001835D01*
X002184Y001790D01*
X002194Y001744D01*
X002200Y001698D01*
X002202Y001651D01*
X002200Y001604D01*
X002194Y001558D01*
X002184Y001512D01*
X002171Y001467D01*
X002153Y001424D01*
X002132Y001382D01*
X002108Y001342D01*
X002080Y001305D01*
X002049Y001270D01*
X002015Y001237D01*
X001979Y001208D01*
X001940Y001182D01*
X001899Y001159D01*
X001856Y001140D01*
X001812Y001124D01*
X001767Y001112D01*
X001721Y001104D01*
X001674Y001100D01*
X001628Y001100D01*
X001581Y001104D01*
X001535Y001112D01*
X001490Y001124D01*
X001446Y001140D01*
X001403Y001159D01*
X001362Y001182D01*
X001323Y001208D01*
X001287Y001237D01*
X001253Y001270D01*
X001222Y001305D01*
X001194Y001342D01*
X001170Y001382D01*
X001149Y001424D01*
X001131Y001467D01*
X001118Y001512D01*
X001108Y001558D01*
X001102Y001604D01*
X001100Y001651D01*
X007100Y001651D02*
X007102Y001698D01*
X007108Y001744D01*
X007118Y001790D01*
X007131Y001835D01*
X007149Y001878D01*
X007170Y001920D01*
X007194Y001960D01*
X007222Y001997D01*
X007253Y002032D01*
X007287Y002065D01*
X007323Y002094D01*
X007362Y002120D01*
X007403Y002143D01*
X007446Y002162D01*
X007490Y002178D01*
X007535Y002190D01*
X007581Y002198D01*
X007628Y002202D01*
X007674Y002202D01*
X007721Y002198D01*
X007767Y002190D01*
X007812Y002178D01*
X007856Y002162D01*
X007899Y002143D01*
X007940Y002120D01*
X007979Y002094D01*
X008015Y002065D01*
X008049Y002032D01*
X008080Y001997D01*
X008108Y001960D01*
X008132Y001920D01*
X008153Y001878D01*
X008171Y001835D01*
X008184Y001790D01*
X008194Y001744D01*
X008200Y001698D01*
X008202Y001651D01*
X008200Y001604D01*
X008194Y001558D01*
X008184Y001512D01*
X008171Y001467D01*
X008153Y001424D01*
X008132Y001382D01*
X008108Y001342D01*
X008080Y001305D01*
X008049Y001270D01*
X008015Y001237D01*
X007979Y001208D01*
X007940Y001182D01*
X007899Y001159D01*
X007856Y001140D01*
X007812Y001124D01*
X007767Y001112D01*
X007721Y001104D01*
X007674Y001100D01*
X007628Y001100D01*
X007581Y001104D01*
X007535Y001112D01*
X007490Y001124D01*
X007446Y001140D01*
X007403Y001159D01*
X007362Y001182D01*
X007323Y001208D01*
X007287Y001237D01*
X007253Y001270D01*
X007222Y001305D01*
X007194Y001342D01*
X007170Y001382D01*
X007149Y001424D01*
X007131Y001467D01*
X007118Y001512D01*
X007108Y001558D01*
X007102Y001604D01*
X007100Y001651D01*
X011100Y001651D02*
X011102Y001698D01*
X011108Y001744D01*
X011118Y001790D01*
X011131Y001835D01*
X011149Y001878D01*
X011170Y001920D01*
X011194Y001960D01*
X011222Y001997D01*
X011253Y002032D01*
X011287Y002065D01*
X011323Y002094D01*
X011362Y002120D01*
X011403Y002143D01*
X011446Y002162D01*
X011490Y002178D01*
X011535Y002190D01*
X011581Y002198D01*
X011628Y002202D01*
X011674Y002202D01*
X011721Y002198D01*
X011767Y002190D01*
X011812Y002178D01*
X011856Y002162D01*
X011899Y002143D01*
X011940Y002120D01*
X011979Y002094D01*
X012015Y002065D01*
X012049Y002032D01*
X012080Y001997D01*
X012108Y001960D01*
X012132Y001920D01*
X012153Y001878D01*
X012171Y001835D01*
X012184Y001790D01*
X012194Y001744D01*
X012200Y001698D01*
X012202Y001651D01*
X012200Y001604D01*
X012194Y001558D01*
X012184Y001512D01*
X012171Y001467D01*
X012153Y001424D01*
X012132Y001382D01*
X012108Y001342D01*
X012080Y001305D01*
X012049Y001270D01*
X012015Y001237D01*
X011979Y001208D01*
X011940Y001182D01*
X011899Y001159D01*
X011856Y001140D01*
X011812Y001124D01*
X011767Y001112D01*
X011721Y001104D01*
X011674Y001100D01*
X011628Y001100D01*
X011581Y001104D01*
X011535Y001112D01*
X011490Y001124D01*
X011446Y001140D01*
X011403Y001159D01*
X011362Y001182D01*
X011323Y001208D01*
X011287Y001237D01*
X011253Y001270D01*
X011222Y001305D01*
X011194Y001342D01*
X011170Y001382D01*
X011149Y001424D01*
X011131Y001467D01*
X011118Y001512D01*
X011108Y001558D01*
X011102Y001604D01*
X011100Y001651D01*
X017100Y001651D02*
X017102Y001698D01*
X017108Y001744D01*
X017118Y001790D01*
X017131Y001835D01*
X017149Y001878D01*
X017170Y001920D01*
X017194Y001960D01*
X017222Y001997D01*
X017253Y002032D01*
X017287Y002065D01*
X017323Y002094D01*
X017362Y002120D01*
X017403Y002143D01*
X017446Y002162D01*
X017490Y002178D01*
X017535Y002190D01*
X017581Y002198D01*
X017628Y002202D01*
X017674Y002202D01*
X017721Y002198D01*
X017767Y002190D01*
X017812Y002178D01*
X017856Y002162D01*
X017899Y002143D01*
X017940Y002120D01*
X017979Y002094D01*
X018015Y002065D01*
X018049Y002032D01*
X018080Y001997D01*
X018108Y001960D01*
X018132Y001920D01*
X018153Y001878D01*
X018171Y001835D01*
X018184Y001790D01*
X018194Y001744D01*
X018200Y001698D01*
X018202Y001651D01*
X018200Y001604D01*
X018194Y001558D01*
X018184Y001512D01*
X018171Y001467D01*
X018153Y001424D01*
X018132Y001382D01*
X018108Y001342D01*
X018080Y001305D01*
X018049Y001270D01*
X018015Y001237D01*
X017979Y001208D01*
X017940Y001182D01*
X017899Y001159D01*
X017856Y001140D01*
X017812Y001124D01*
X017767Y001112D01*
X017721Y001104D01*
X017674Y001100D01*
X017628Y001100D01*
X017581Y001104D01*
X017535Y001112D01*
X017490Y001124D01*
X017446Y001140D01*
X017403Y001159D01*
X017362Y001182D01*
X017323Y001208D01*
X017287Y001237D01*
X017253Y001270D01*
X017222Y001305D01*
X017194Y001342D01*
X017170Y001382D01*
X017149Y001424D01*
X017131Y001467D01*
X017118Y001512D01*
X017108Y001558D01*
X017102Y001604D01*
X017100Y001651D01*
M02*
