G75*
G70*
%OFA0B0*%
%FSLAX24Y24*%
%IPPOS*%
%LPD*%
%AMOC8*
5,1,8,0,0,1.08239X$1,22.5*
%
%ADD10C,0.0110*%
%ADD11OC8,0.0660*%
%ADD12C,0.0594*%
%ADD13OC8,0.0520*%
%ADD14C,0.0520*%
%ADD15C,0.0120*%
%ADD16C,0.0080*%
%ADD17C,0.0320*%
%ADD18C,0.0160*%
D10*
X017663Y019200D02*
X017859Y019397D01*
X017761Y019397D02*
X018056Y019397D01*
X018056Y019200D02*
X018056Y019791D01*
X017761Y019791D01*
X017663Y019692D01*
X017663Y019495D01*
X017761Y019397D01*
X018307Y019200D02*
X018701Y019200D01*
X018701Y019791D01*
X018307Y019791D01*
X018504Y019495D02*
X018701Y019495D01*
X018952Y019692D02*
X018952Y019791D01*
X018952Y019692D02*
X019149Y019495D01*
X019149Y019200D01*
X019149Y019495D02*
X019345Y019692D01*
X019345Y019791D01*
X019596Y019594D02*
X019596Y019200D01*
X019596Y019495D02*
X019990Y019495D01*
X019990Y019594D02*
X019793Y019791D01*
X019596Y019594D01*
X019990Y019594D02*
X019990Y019200D01*
X020241Y019200D02*
X020634Y019200D01*
X020634Y019791D01*
X021530Y019791D02*
X021530Y019200D01*
X021727Y019594D02*
X021530Y019791D01*
X021727Y019594D02*
X021923Y019791D01*
X021923Y019200D01*
X022174Y019298D02*
X022174Y019692D01*
X022273Y019791D01*
X022470Y019791D01*
X022568Y019692D01*
X022568Y019298D01*
X022470Y019200D01*
X022273Y019200D01*
X022174Y019298D01*
X022819Y019791D02*
X023213Y019791D01*
X023016Y019791D02*
X023016Y019200D01*
X023660Y019200D02*
X023660Y019791D01*
X023857Y019791D02*
X023463Y019791D01*
X024108Y019692D02*
X024108Y019298D01*
X024206Y019200D01*
X024403Y019200D01*
X024502Y019298D01*
X024502Y019692D01*
X024403Y019791D01*
X024206Y019791D01*
X024108Y019692D01*
X024752Y019692D02*
X024752Y019594D01*
X024851Y019495D01*
X025146Y019495D01*
X025146Y019200D02*
X024851Y019200D01*
X024752Y019298D01*
X024752Y019397D01*
X024851Y019495D01*
X024752Y019692D02*
X024851Y019791D01*
X025146Y019791D01*
X025146Y019200D01*
D11*
X024701Y020645D03*
X023701Y020645D03*
X022701Y020645D03*
X021701Y020645D03*
X020701Y020645D03*
X019101Y020645D03*
X018101Y020645D03*
X017101Y020645D03*
X016101Y020645D03*
X015101Y020645D03*
X014101Y020645D03*
X013101Y020645D03*
X012101Y020645D03*
X025701Y020645D03*
X026701Y020645D03*
X027701Y020645D03*
X027701Y001645D03*
X026701Y001645D03*
X025701Y001645D03*
X024701Y001645D03*
X023701Y001645D03*
X022701Y001645D03*
X020701Y001645D03*
X019701Y001645D03*
X018701Y001645D03*
X017701Y001645D03*
X016701Y001645D03*
X015701Y001645D03*
D12*
X014201Y005848D02*
X014201Y006442D01*
X013201Y006442D02*
X013201Y005848D01*
X012201Y005848D02*
X012201Y006442D01*
X010201Y006442D02*
X010201Y005848D01*
X009201Y005848D02*
X009201Y006442D01*
X008201Y006442D02*
X008201Y005848D01*
X005201Y007348D02*
X005201Y007942D01*
X004201Y007942D02*
X004201Y007348D01*
X008201Y009348D02*
X008201Y009942D01*
X009201Y009942D02*
X009201Y009348D01*
X010201Y009348D02*
X010201Y009942D01*
X012201Y009942D02*
X012201Y009348D01*
X013201Y009348D02*
X013201Y009942D01*
X014201Y009942D02*
X014201Y009348D01*
X014201Y012848D02*
X014201Y013442D01*
X013201Y013442D02*
X013201Y012848D01*
X012201Y012848D02*
X012201Y013442D01*
X010201Y013442D02*
X010201Y012848D01*
X009201Y012848D02*
X009201Y013442D01*
X008201Y013442D02*
X008201Y012848D01*
X006201Y011442D02*
X006201Y010848D01*
X005201Y010848D02*
X005201Y011442D01*
X004201Y011442D02*
X004201Y010848D01*
X003201Y010848D02*
X003201Y011442D01*
X008201Y016348D02*
X008201Y016942D01*
X009201Y016942D02*
X009201Y016348D01*
X010201Y016348D02*
X010201Y016942D01*
X012201Y016942D02*
X012201Y016348D01*
X013201Y016348D02*
X013201Y016942D01*
X014201Y016942D02*
X014201Y016348D01*
X021201Y016348D02*
X021201Y016942D01*
X022201Y016942D02*
X022201Y016348D01*
X023201Y016348D02*
X023201Y016942D01*
X025201Y016942D02*
X025201Y016348D01*
X026201Y016348D02*
X026201Y016942D01*
X027201Y016942D02*
X027201Y016348D01*
X027201Y013442D02*
X027201Y012848D01*
X026201Y012848D02*
X026201Y013442D01*
X025201Y013442D02*
X025201Y012848D01*
X023201Y012848D02*
X023201Y013442D01*
X022201Y013442D02*
X022201Y012848D01*
X021201Y012848D02*
X021201Y013442D01*
X021201Y009942D02*
X021201Y009348D01*
X022201Y009348D02*
X022201Y009942D01*
X023201Y009942D02*
X023201Y009348D01*
X025201Y009348D02*
X025201Y009942D01*
X026201Y009942D02*
X026201Y009348D01*
X027201Y009348D02*
X027201Y009942D01*
X027201Y006442D02*
X027201Y005848D01*
X026201Y005848D02*
X026201Y006442D01*
X025201Y006442D02*
X025201Y005848D01*
X023201Y005848D02*
X023201Y006442D01*
X022201Y006442D02*
X022201Y005848D01*
X021201Y005848D02*
X021201Y006442D01*
D13*
X020201Y006645D03*
X020201Y005645D03*
X006451Y007145D03*
X006451Y008145D03*
D14*
X015941Y007645D02*
X016461Y007645D01*
X016461Y008645D02*
X015941Y008645D01*
X015941Y009645D02*
X016461Y009645D01*
X016461Y010645D02*
X015941Y010645D01*
X015941Y011645D02*
X016461Y011645D01*
X016461Y012645D02*
X015941Y012645D01*
X015941Y013645D02*
X016461Y013645D01*
X016461Y014645D02*
X015941Y014645D01*
X015941Y015645D02*
X016461Y015645D01*
X016461Y016645D02*
X015941Y016645D01*
X015941Y017645D02*
X016461Y017645D01*
X018941Y017645D02*
X019461Y017645D01*
X019461Y016645D02*
X018941Y016645D01*
X018941Y015645D02*
X019461Y015645D01*
X019461Y014645D02*
X018941Y014645D01*
X018941Y013645D02*
X019461Y013645D01*
X019461Y012645D02*
X018941Y012645D01*
X018941Y011645D02*
X019461Y011645D01*
X019461Y010645D02*
X018941Y010645D01*
X018941Y009645D02*
X019461Y009645D01*
X019461Y008645D02*
X018941Y008645D01*
X018941Y007645D02*
X019461Y007645D01*
X019461Y006645D02*
X018941Y006645D01*
X018941Y005645D02*
X019461Y005645D01*
X019461Y004645D02*
X018941Y004645D01*
X016461Y004645D02*
X015941Y004645D01*
X015941Y005645D02*
X016461Y005645D01*
X016461Y006645D02*
X015941Y006645D01*
D15*
X017531Y011485D02*
X017411Y011605D01*
X017411Y011845D01*
X017541Y011975D01*
X017541Y011485D02*
X017661Y011485D01*
X018141Y011975D01*
X018141Y011968D02*
X018141Y011483D01*
X018141Y012273D02*
X018141Y012758D01*
X018134Y012513D02*
X017429Y012513D01*
X017421Y012513D02*
X017664Y012755D01*
X017541Y013065D02*
X017421Y013185D01*
X017421Y013425D01*
X017541Y013545D01*
X018021Y013545D01*
X018141Y013425D01*
X018141Y013185D01*
X018021Y013065D01*
X017541Y013065D01*
X017541Y013075D02*
X018021Y013545D01*
X018141Y013855D02*
X018141Y014345D01*
X017661Y013855D01*
X017541Y013855D01*
X017531Y013855D02*
X017411Y013975D01*
X017411Y014215D01*
X017541Y014345D01*
X017521Y014725D02*
X017401Y014845D01*
X017401Y015085D01*
X017521Y015205D01*
X017891Y015205D01*
X017891Y015455D01*
X018141Y015695D01*
X017891Y015575D02*
X017891Y015455D01*
X017891Y015575D02*
X017771Y015695D01*
X017521Y015695D01*
X017401Y015575D01*
X017401Y015205D01*
X017891Y015205D01*
X018141Y015205D01*
X018021Y015205D02*
X017891Y015205D01*
X018021Y015205D02*
X018141Y015085D01*
X018141Y014835D01*
X018011Y014715D01*
X017771Y014715D01*
X017771Y014965D01*
D16*
X018150Y014571D02*
X018219Y014635D01*
X018224Y014635D01*
X018280Y014691D01*
X018338Y014744D01*
X018338Y014749D01*
X018341Y014752D01*
X018341Y014831D01*
X018344Y014910D01*
X018341Y014913D01*
X018341Y015002D01*
X018341Y015168D01*
X018341Y015288D01*
X018224Y015405D01*
X018128Y015405D01*
X018339Y015608D01*
X018343Y015774D01*
X018228Y015893D01*
X018062Y015897D01*
X017955Y015794D01*
X017854Y015895D01*
X017688Y015895D01*
X017438Y015895D01*
X017321Y015778D01*
X017201Y015658D01*
X017201Y015492D01*
X017201Y015168D01*
X017201Y015002D01*
X017201Y014928D01*
X017201Y014762D01*
X017438Y014525D01*
X017438Y014525D01*
X017328Y014415D01*
X017211Y014298D01*
X017211Y014058D01*
X017211Y013892D01*
X017408Y013695D01*
X017341Y013628D01*
X017221Y013508D01*
X017221Y013342D01*
X017221Y013102D01*
X017338Y012985D01*
X017458Y012865D01*
X017491Y012865D01*
X017221Y012595D01*
X017221Y012430D01*
X017338Y012313D01*
X017346Y012313D01*
X017941Y012313D01*
X017941Y012190D01*
X018007Y012124D01*
X017611Y011720D01*
X017611Y011762D01*
X017741Y011892D01*
X017741Y012058D01*
X017624Y012175D01*
X017458Y012175D01*
X017328Y012045D01*
X017211Y011928D01*
X017211Y011688D01*
X017211Y011522D01*
X017448Y011285D01*
X017579Y011285D01*
X017580Y011284D01*
X017661Y011285D01*
X017744Y011285D01*
X017745Y011286D01*
X017746Y011286D01*
X017803Y011344D01*
X017861Y011402D01*
X017861Y011403D01*
X017941Y011485D01*
X017941Y011400D01*
X018058Y011283D01*
X018224Y011283D01*
X018341Y011400D01*
X018341Y011893D01*
X018342Y011894D01*
X018341Y011975D01*
X018341Y012050D01*
X018340Y012051D01*
X018340Y012060D01*
X018275Y012124D01*
X018341Y012190D01*
X018341Y012840D01*
X018224Y012958D01*
X018196Y012958D01*
X018221Y012982D01*
X018341Y013102D01*
X018341Y013268D01*
X018341Y013342D01*
X018341Y013508D01*
X018194Y013655D01*
X018224Y013655D01*
X018341Y013772D01*
X018341Y014263D01*
X018342Y014264D01*
X018341Y014345D01*
X018341Y014428D01*
X018340Y014429D01*
X018340Y014430D01*
X018283Y014486D01*
X018224Y014545D01*
X018223Y014545D01*
X018222Y014546D01*
X018141Y014545D01*
X018124Y014545D01*
X018150Y014571D01*
X018126Y014547D02*
X018549Y014547D01*
X018541Y014565D02*
X018602Y014418D01*
X018714Y014306D01*
X018861Y014245D01*
X019541Y014245D01*
X019688Y014306D01*
X019708Y014327D01*
X020110Y013925D01*
X020292Y013925D01*
X021610Y013925D01*
X021838Y013697D01*
X021831Y013689D01*
X021764Y013529D01*
X021764Y012761D01*
X021831Y012601D01*
X021954Y012478D01*
X022033Y012445D01*
X021825Y012445D01*
X021600Y012670D01*
X021638Y012761D01*
X021638Y013529D01*
X021571Y013689D01*
X021449Y013812D01*
X021288Y013879D01*
X021114Y013879D01*
X020954Y013812D01*
X020831Y013689D01*
X020764Y013529D01*
X020764Y012761D01*
X020831Y012601D01*
X020940Y012491D01*
X020947Y012475D01*
X021447Y011975D01*
X021531Y011891D01*
X021641Y011845D01*
X025141Y011845D01*
X025261Y011845D01*
X027901Y011845D01*
X027901Y008945D01*
X027372Y008945D01*
X027430Y008975D01*
X027486Y009015D01*
X027534Y009064D01*
X027575Y009119D01*
X027606Y009180D01*
X027627Y009246D01*
X027638Y009314D01*
X027638Y009605D01*
X027241Y009605D01*
X027241Y009685D01*
X027161Y009685D01*
X027161Y009605D01*
X026764Y009605D01*
X026764Y009314D01*
X026775Y009246D01*
X026796Y009180D01*
X026827Y009119D01*
X026868Y009064D01*
X026916Y009015D01*
X026972Y008975D01*
X027030Y008945D01*
X026369Y008945D01*
X026449Y008978D01*
X026571Y009101D01*
X026638Y009261D01*
X026638Y010029D01*
X026571Y010189D01*
X026449Y010312D01*
X026421Y010324D01*
X026421Y010736D01*
X026292Y010865D01*
X025542Y011615D01*
X025360Y011615D01*
X021542Y011615D01*
X020671Y012486D01*
X020671Y012986D01*
X020542Y013115D01*
X019810Y013847D01*
X019800Y013872D01*
X019688Y013984D01*
X019541Y014045D01*
X018861Y014045D01*
X018714Y013984D01*
X018602Y013872D01*
X018541Y013725D01*
X018541Y013565D01*
X018602Y013418D01*
X018714Y013306D01*
X018861Y013245D01*
X019541Y013245D01*
X019688Y013306D01*
X019708Y013327D01*
X020231Y012804D01*
X020231Y012486D01*
X020231Y012304D01*
X021231Y011304D01*
X021360Y011175D01*
X025360Y011175D01*
X025981Y010554D01*
X025981Y010324D01*
X025954Y010312D01*
X025831Y010189D01*
X025764Y010029D01*
X025764Y009261D01*
X025831Y009101D01*
X025954Y008978D01*
X026033Y008945D01*
X025501Y008945D01*
X025501Y009030D01*
X025571Y009101D01*
X025638Y009261D01*
X025638Y010029D01*
X025571Y010189D01*
X025449Y010312D01*
X025288Y010379D01*
X025114Y010379D01*
X024954Y010312D01*
X024831Y010189D01*
X024764Y010029D01*
X024764Y009261D01*
X024831Y009101D01*
X024901Y009030D01*
X024901Y008945D01*
X023372Y008945D01*
X023430Y008975D01*
X023486Y009015D01*
X023534Y009064D01*
X023575Y009119D01*
X023606Y009180D01*
X023627Y009246D01*
X023638Y009314D01*
X023638Y009605D01*
X023241Y009605D01*
X023241Y009685D01*
X023161Y009685D01*
X023161Y009605D01*
X022764Y009605D01*
X022764Y009314D01*
X022775Y009246D01*
X022796Y009180D01*
X022827Y009119D01*
X022868Y009064D01*
X022916Y009015D01*
X022972Y008975D01*
X023030Y008945D01*
X022369Y008945D01*
X022449Y008978D01*
X022571Y009101D01*
X022638Y009261D01*
X022638Y010029D01*
X022571Y010189D01*
X022449Y010312D01*
X022288Y010379D01*
X022278Y010379D01*
X021792Y010865D01*
X021610Y010865D01*
X021292Y010865D01*
X020171Y011986D01*
X020171Y012486D01*
X020042Y012615D01*
X019810Y012847D01*
X019800Y012872D01*
X019688Y012984D01*
X019541Y013045D01*
X018861Y013045D01*
X018714Y012984D01*
X018602Y012872D01*
X018541Y012725D01*
X018541Y012565D01*
X018602Y012418D01*
X018714Y012306D01*
X018861Y012245D01*
X019541Y012245D01*
X019688Y012306D01*
X019708Y012327D01*
X019731Y012304D01*
X019731Y011986D01*
X019731Y011941D01*
X019688Y011984D01*
X019541Y012045D01*
X018861Y012045D01*
X018714Y011984D01*
X018602Y011872D01*
X018541Y011725D01*
X018541Y011565D01*
X018602Y011418D01*
X018714Y011306D01*
X018861Y011245D01*
X019541Y011245D01*
X019688Y011306D01*
X019708Y011327D01*
X020481Y010554D01*
X020481Y008736D01*
X020481Y008554D01*
X020981Y008054D01*
X021110Y007925D01*
X025110Y007925D01*
X025981Y007054D01*
X025981Y006824D01*
X025954Y006812D01*
X025831Y006689D01*
X025764Y006529D01*
X025764Y005761D01*
X025831Y005601D01*
X025954Y005478D01*
X026114Y005411D01*
X026288Y005411D01*
X026449Y005478D01*
X026571Y005601D01*
X026638Y005761D01*
X026638Y006529D01*
X026571Y006689D01*
X026449Y006812D01*
X026421Y006824D01*
X026421Y007236D01*
X026292Y007365D01*
X025312Y008345D01*
X027901Y008345D01*
X027901Y003945D01*
X025501Y003945D01*
X025501Y005530D01*
X025571Y005601D01*
X025638Y005761D01*
X025638Y006529D01*
X025571Y006689D01*
X025449Y006812D01*
X025288Y006879D01*
X025114Y006879D01*
X024954Y006812D01*
X024831Y006689D01*
X024764Y006529D01*
X024764Y005761D01*
X024831Y005601D01*
X024901Y005530D01*
X024901Y003945D01*
X021825Y003945D01*
X021501Y004269D01*
X021501Y005530D01*
X021571Y005601D01*
X021638Y005761D01*
X021638Y006529D01*
X021571Y006689D01*
X021449Y006812D01*
X021288Y006879D01*
X021114Y006879D01*
X020954Y006812D01*
X020831Y006689D01*
X020764Y006529D01*
X020764Y006393D01*
X020601Y006556D01*
X020601Y006811D01*
X020421Y006991D01*
X020421Y007236D01*
X020292Y007365D01*
X019810Y007847D01*
X019800Y007872D01*
X019688Y007984D01*
X019541Y008045D01*
X018861Y008045D01*
X018714Y007984D01*
X018694Y007963D01*
X016810Y009847D01*
X016800Y009872D01*
X016688Y009984D01*
X016541Y010045D01*
X015861Y010045D01*
X015714Y009984D01*
X015602Y009872D01*
X015541Y009725D01*
X015541Y009565D01*
X015602Y009418D01*
X015714Y009306D01*
X015861Y009245D01*
X016541Y009245D01*
X016688Y009306D01*
X016708Y009327D01*
X018481Y007554D01*
X018592Y007443D01*
X018602Y007418D01*
X018714Y007306D01*
X018861Y007245D01*
X019541Y007245D01*
X019688Y007306D01*
X019708Y007327D01*
X019981Y007054D01*
X019981Y006991D01*
X019818Y006828D01*
X019816Y006834D01*
X019772Y006900D01*
X019716Y006956D01*
X019651Y006999D01*
X019578Y007030D01*
X019501Y007045D01*
X019241Y007045D01*
X019241Y006685D01*
X019161Y006685D01*
X019161Y006605D01*
X018541Y006605D01*
X018556Y006528D01*
X018587Y006456D01*
X018630Y006390D01*
X018686Y006334D01*
X018752Y006291D01*
X018824Y006260D01*
X018902Y006245D01*
X019161Y006245D01*
X019161Y006605D01*
X019241Y006605D01*
X019241Y006245D01*
X019501Y006245D01*
X019578Y006260D01*
X019651Y006291D01*
X019716Y006334D01*
X019772Y006390D01*
X019816Y006456D01*
X019818Y006462D01*
X020035Y006245D01*
X020290Y006245D01*
X020481Y006054D01*
X020610Y005925D01*
X020764Y005925D01*
X020764Y005761D01*
X020831Y005601D01*
X020901Y005530D01*
X020901Y004205D01*
X020901Y004085D01*
X020947Y003975D01*
X021447Y003475D01*
X021531Y003391D01*
X021593Y003365D01*
X018792Y003365D01*
X018421Y003736D01*
X018421Y005554D01*
X018421Y005736D01*
X017421Y006736D01*
X017292Y006865D01*
X016803Y006865D01*
X016800Y006872D01*
X016688Y006984D01*
X016541Y007045D01*
X015861Y007045D01*
X015714Y006984D01*
X015602Y006872D01*
X015541Y006725D01*
X015541Y006565D01*
X015602Y006418D01*
X015714Y006306D01*
X015861Y006245D01*
X016541Y006245D01*
X016688Y006306D01*
X016800Y006418D01*
X016803Y006425D01*
X017110Y006425D01*
X017981Y005554D01*
X017981Y003676D01*
X017921Y003736D01*
X017921Y005236D01*
X017792Y005365D01*
X017292Y005865D01*
X017110Y005865D01*
X016803Y005865D01*
X016800Y005872D01*
X016688Y005984D01*
X016541Y006045D01*
X015861Y006045D01*
X015714Y005984D01*
X015602Y005872D01*
X015541Y005725D01*
X015541Y005565D01*
X015602Y005418D01*
X015714Y005306D01*
X015861Y005245D01*
X016541Y005245D01*
X016688Y005306D01*
X016800Y005418D01*
X016803Y005425D01*
X017110Y005425D01*
X017481Y005054D01*
X017481Y003736D01*
X017481Y003554D01*
X018481Y002554D01*
X018610Y002425D01*
X026110Y002425D01*
X026463Y002072D01*
X026231Y001840D01*
X026231Y001450D01*
X026486Y001195D01*
X025916Y001195D01*
X026171Y001450D01*
X026171Y001840D01*
X025896Y002115D01*
X025506Y002115D01*
X025231Y001840D01*
X025231Y001450D01*
X025486Y001195D01*
X024916Y001195D01*
X025171Y001450D01*
X025171Y001840D01*
X024896Y002115D01*
X024506Y002115D01*
X024231Y001840D01*
X024231Y001450D01*
X024486Y001195D01*
X023916Y001195D01*
X024171Y001450D01*
X024171Y001840D01*
X023896Y002115D01*
X023506Y002115D01*
X023231Y001840D01*
X023231Y001450D01*
X023486Y001195D01*
X022916Y001195D01*
X023171Y001450D01*
X023171Y001840D01*
X022896Y002115D01*
X022506Y002115D01*
X022231Y001840D01*
X022231Y001450D01*
X022486Y001195D01*
X020916Y001195D01*
X021171Y001450D01*
X021171Y001840D01*
X020896Y002115D01*
X020506Y002115D01*
X020231Y001840D01*
X020231Y001450D01*
X020486Y001195D01*
X019916Y001195D01*
X020171Y001450D01*
X020171Y001605D01*
X019741Y001605D01*
X019741Y001685D01*
X019661Y001685D01*
X019661Y001605D01*
X019231Y001605D01*
X019231Y001450D01*
X019486Y001195D01*
X018916Y001195D01*
X019171Y001450D01*
X019171Y001605D01*
X018741Y001605D01*
X018741Y001685D01*
X018661Y001685D01*
X018661Y001605D01*
X018231Y001605D01*
X018231Y001450D01*
X018486Y001195D01*
X018001Y001195D01*
X018001Y001280D01*
X018171Y001450D01*
X018171Y001840D01*
X017896Y002115D01*
X017506Y002115D01*
X017231Y001840D01*
X017231Y001450D01*
X017401Y001280D01*
X017401Y001195D01*
X016916Y001195D01*
X017171Y001450D01*
X017171Y001840D01*
X016896Y002115D01*
X016506Y002115D01*
X016231Y001840D01*
X016231Y001450D01*
X016486Y001195D01*
X015916Y001195D01*
X016171Y001450D01*
X016171Y001840D01*
X015896Y002115D01*
X015506Y002115D01*
X015231Y001840D01*
X015231Y001450D01*
X015486Y001195D01*
X012825Y001195D01*
X012501Y001519D01*
X012501Y003585D01*
X012501Y005530D01*
X012571Y005601D01*
X012638Y005761D01*
X012638Y006529D01*
X012571Y006689D01*
X012449Y006812D01*
X012288Y006879D01*
X012114Y006879D01*
X011954Y006812D01*
X011831Y006689D01*
X011764Y006529D01*
X011764Y005761D01*
X011831Y005601D01*
X011901Y005530D01*
X011901Y003945D01*
X008501Y003945D01*
X008501Y005530D01*
X008571Y005601D01*
X008638Y005761D01*
X008638Y006529D01*
X008571Y006689D01*
X008449Y006812D01*
X008288Y006879D01*
X008114Y006879D01*
X007954Y006812D01*
X007831Y006689D01*
X007764Y006529D01*
X007764Y005761D01*
X007831Y005601D01*
X007901Y005530D01*
X007901Y003945D01*
X007501Y003945D01*
X007501Y008345D01*
X008141Y008345D01*
X008261Y008345D01*
X010090Y008345D01*
X009110Y007365D01*
X008981Y007236D01*
X008981Y006824D01*
X008954Y006812D01*
X008831Y006689D01*
X008764Y006529D01*
X008764Y005761D01*
X008831Y005601D01*
X008954Y005478D01*
X009114Y005411D01*
X009288Y005411D01*
X009449Y005478D01*
X009571Y005601D01*
X009638Y005761D01*
X009638Y006529D01*
X009571Y006689D01*
X009449Y006812D01*
X009421Y006824D01*
X009421Y007054D01*
X010292Y007925D01*
X014292Y007925D01*
X014421Y008054D01*
X014921Y008554D01*
X014921Y008736D01*
X014921Y010554D01*
X015694Y011327D01*
X015714Y011306D01*
X015861Y011245D01*
X016541Y011245D01*
X016688Y011306D01*
X016800Y011418D01*
X016861Y011565D01*
X016861Y011725D01*
X016800Y011872D01*
X016688Y011984D01*
X016541Y012045D01*
X015861Y012045D01*
X015714Y011984D01*
X015602Y011872D01*
X015592Y011847D01*
X015421Y011676D01*
X015421Y011736D01*
X015421Y012054D01*
X015694Y012327D01*
X015714Y012306D01*
X015861Y012245D01*
X016541Y012245D01*
X016688Y012306D01*
X016800Y012418D01*
X016861Y012565D01*
X016861Y012725D01*
X016800Y012872D01*
X016688Y012984D01*
X016541Y013045D01*
X015861Y013045D01*
X015714Y012984D01*
X015602Y012872D01*
X015592Y012847D01*
X015110Y012365D01*
X014981Y012236D01*
X014981Y011736D01*
X014110Y010865D01*
X013792Y010865D01*
X013610Y010865D01*
X013124Y010379D01*
X013114Y010379D01*
X012954Y010312D01*
X012831Y010189D01*
X012764Y010029D01*
X012764Y009261D01*
X012831Y009101D01*
X012954Y008978D01*
X013114Y008911D01*
X013288Y008911D01*
X013449Y008978D01*
X013571Y009101D01*
X013638Y009261D01*
X013638Y010029D01*
X013571Y010189D01*
X013564Y010197D01*
X013792Y010425D01*
X014292Y010425D01*
X014421Y010554D01*
X014481Y010614D01*
X014481Y010554D01*
X014481Y010278D01*
X014430Y010315D01*
X014369Y010347D01*
X014303Y010368D01*
X014241Y010378D01*
X014241Y009685D01*
X014161Y009685D01*
X014161Y009605D01*
X013764Y009605D01*
X013764Y009314D01*
X013775Y009246D01*
X013796Y009180D01*
X013827Y009119D01*
X013868Y009064D01*
X013916Y009015D01*
X013972Y008975D01*
X014033Y008943D01*
X014099Y008922D01*
X014161Y008912D01*
X014161Y009605D01*
X014241Y009605D01*
X014241Y008912D01*
X014303Y008922D01*
X014369Y008943D01*
X014430Y008975D01*
X014481Y009012D01*
X014481Y008736D01*
X014110Y008365D01*
X011809Y008365D01*
X011871Y008391D01*
X011955Y008475D01*
X012455Y008975D01*
X012462Y008991D01*
X012571Y009101D01*
X012638Y009261D01*
X012638Y010029D01*
X012571Y010189D01*
X012449Y010312D01*
X012288Y010379D01*
X012114Y010379D01*
X011954Y010312D01*
X011831Y010189D01*
X011764Y010029D01*
X011764Y009261D01*
X011802Y009170D01*
X011577Y008945D01*
X010372Y008945D01*
X010430Y008975D01*
X010486Y009015D01*
X010534Y009064D01*
X010575Y009119D01*
X010606Y009180D01*
X010627Y009246D01*
X010638Y009314D01*
X010638Y009605D01*
X010241Y009605D01*
X010241Y009685D01*
X010161Y009685D01*
X010161Y009605D01*
X009764Y009605D01*
X009764Y009314D01*
X009775Y009246D01*
X009796Y009180D01*
X009827Y009119D01*
X009868Y009064D01*
X009916Y009015D01*
X009972Y008975D01*
X010030Y008945D01*
X009369Y008945D01*
X009449Y008978D01*
X009571Y009101D01*
X009638Y009261D01*
X009638Y010029D01*
X009571Y010189D01*
X009449Y010312D01*
X009421Y010324D01*
X009421Y010554D01*
X010292Y011425D01*
X014292Y011425D01*
X014421Y011554D01*
X014921Y012054D01*
X014921Y012236D01*
X014921Y012554D01*
X015694Y013327D01*
X015714Y013306D01*
X015861Y013245D01*
X016541Y013245D01*
X016688Y013306D01*
X016800Y013418D01*
X016861Y013565D01*
X016861Y013725D01*
X016800Y013872D01*
X016688Y013984D01*
X016541Y014045D01*
X015861Y014045D01*
X015714Y013984D01*
X015602Y013872D01*
X015592Y013847D01*
X014638Y012893D01*
X014638Y013105D01*
X014241Y013105D01*
X014241Y012412D01*
X014303Y012422D01*
X014369Y012443D01*
X014430Y012475D01*
X014481Y012512D01*
X014481Y012236D01*
X014110Y011865D01*
X011809Y011865D01*
X011871Y011891D01*
X011955Y011975D01*
X012455Y012475D01*
X012462Y012491D01*
X012571Y012601D01*
X012638Y012761D01*
X012638Y013529D01*
X012571Y013689D01*
X012449Y013812D01*
X012288Y013879D01*
X012114Y013879D01*
X011954Y013812D01*
X011831Y013689D01*
X011764Y013529D01*
X011764Y012761D01*
X011802Y012670D01*
X011577Y012445D01*
X010372Y012445D01*
X010430Y012475D01*
X010486Y012515D01*
X010534Y012564D01*
X010575Y012619D01*
X010606Y012680D01*
X010627Y012746D01*
X010638Y012814D01*
X010638Y013105D01*
X010241Y013105D01*
X010241Y013185D01*
X010161Y013185D01*
X010161Y013105D01*
X009764Y013105D01*
X009764Y012814D01*
X009775Y012746D01*
X009796Y012680D01*
X009827Y012619D01*
X009868Y012564D01*
X009916Y012515D01*
X009972Y012475D01*
X010030Y012445D01*
X009369Y012445D01*
X009449Y012478D01*
X009571Y012601D01*
X009638Y012761D01*
X009638Y013529D01*
X009571Y013689D01*
X009449Y013812D01*
X009421Y013824D01*
X009421Y014054D01*
X010292Y014925D01*
X014792Y014925D01*
X014921Y015054D01*
X015292Y015425D01*
X015599Y015425D01*
X015602Y015418D01*
X015714Y015306D01*
X015861Y015245D01*
X016541Y015245D01*
X016688Y015306D01*
X016800Y015418D01*
X016861Y015565D01*
X016861Y015725D01*
X017269Y015725D01*
X017201Y015647D02*
X016861Y015647D01*
X016861Y015725D02*
X016800Y015872D01*
X016688Y015984D01*
X016541Y016045D01*
X015861Y016045D01*
X015714Y015984D01*
X015602Y015872D01*
X015599Y015865D01*
X015292Y015865D01*
X015110Y015865D01*
X014610Y015365D01*
X011809Y015365D01*
X011871Y015391D01*
X011955Y015475D01*
X012455Y015975D01*
X012462Y015991D01*
X012571Y016101D01*
X012638Y016261D01*
X012638Y017029D01*
X012571Y017189D01*
X012449Y017312D01*
X012288Y017379D01*
X012114Y017379D01*
X011954Y017312D01*
X011831Y017189D01*
X011764Y017029D01*
X011764Y016261D01*
X011802Y016170D01*
X011577Y015945D01*
X010372Y015945D01*
X010430Y015975D01*
X010486Y016015D01*
X010534Y016064D01*
X010575Y016119D01*
X010606Y016180D01*
X010627Y016246D01*
X010638Y016314D01*
X010638Y016605D01*
X010241Y016605D01*
X010241Y016685D01*
X010161Y016685D01*
X010161Y016605D01*
X009764Y016605D01*
X009764Y016314D01*
X009775Y016246D01*
X009796Y016180D01*
X009827Y016119D01*
X009868Y016064D01*
X009916Y016015D01*
X009972Y015975D01*
X010030Y015945D01*
X009369Y015945D01*
X009449Y015978D01*
X009571Y016101D01*
X009638Y016261D01*
X009638Y017029D01*
X009571Y017189D01*
X009564Y017197D01*
X010292Y017925D01*
X015110Y017925D01*
X015592Y017443D01*
X015602Y017418D01*
X015714Y017306D01*
X015861Y017245D01*
X016541Y017245D01*
X016688Y017306D01*
X016800Y017418D01*
X016861Y017565D01*
X016861Y017725D01*
X016800Y017872D01*
X016688Y017984D01*
X016541Y018045D01*
X015861Y018045D01*
X015714Y017984D01*
X015694Y017963D01*
X015421Y018236D01*
X015292Y018365D01*
X010292Y018365D01*
X010110Y018365D01*
X009124Y017379D01*
X009114Y017379D01*
X008954Y017312D01*
X008831Y017189D01*
X008764Y017029D01*
X008764Y016261D01*
X008831Y016101D01*
X008954Y015978D01*
X009033Y015945D01*
X008501Y015945D01*
X008501Y016030D01*
X008571Y016101D01*
X008638Y016261D01*
X008638Y017029D01*
X008571Y017189D01*
X008449Y017312D01*
X008288Y017379D01*
X008114Y017379D01*
X007954Y017312D01*
X007831Y017189D01*
X007764Y017029D01*
X007764Y016261D01*
X007831Y016101D01*
X007901Y016030D01*
X007901Y015945D01*
X007761Y015945D01*
X007641Y015945D01*
X007531Y015899D01*
X007031Y015399D01*
X006947Y015315D01*
X006901Y015205D01*
X006901Y012205D01*
X006901Y012085D01*
X006901Y008705D01*
X006901Y008585D01*
X006901Y003945D01*
X004825Y003945D01*
X004501Y004269D01*
X004501Y007030D01*
X004571Y007101D01*
X004638Y007261D01*
X004638Y008029D01*
X004571Y008189D01*
X004501Y008260D01*
X004501Y008705D01*
X004455Y008815D01*
X004371Y008899D01*
X003501Y009769D01*
X003501Y010530D01*
X003571Y010601D01*
X003638Y010761D01*
X003638Y011529D01*
X003571Y011689D01*
X003449Y011812D01*
X003288Y011879D01*
X003114Y011879D01*
X002954Y011812D01*
X002841Y011700D01*
X002841Y021505D01*
X028043Y021505D01*
X028561Y020987D01*
X028561Y016487D01*
X028643Y016405D01*
X029561Y015487D01*
X029561Y002703D01*
X028751Y001893D01*
X028751Y003335D01*
X028751Y003455D01*
X028705Y003565D01*
X028501Y003769D01*
X028501Y008705D01*
X028501Y012085D01*
X028501Y013705D01*
X028455Y013815D01*
X028371Y013899D01*
X028287Y013983D01*
X028548Y013875D01*
X028854Y013875D01*
X029137Y013992D01*
X029354Y014209D01*
X029471Y014492D01*
X029471Y014798D01*
X029354Y015081D01*
X029137Y015298D01*
X028854Y015415D01*
X028548Y015415D01*
X028265Y015298D01*
X028048Y015081D01*
X027931Y014798D01*
X027931Y014492D01*
X028039Y014231D01*
X026371Y015899D01*
X026315Y015923D01*
X026449Y015978D01*
X026571Y016101D01*
X026638Y016261D01*
X026638Y017029D01*
X026571Y017189D01*
X026449Y017312D01*
X026288Y017379D01*
X026278Y017379D01*
X025292Y018365D01*
X025110Y018365D01*
X020110Y018365D01*
X019981Y018236D01*
X019708Y017963D01*
X019688Y017984D01*
X019541Y018045D01*
X018861Y018045D01*
X018714Y017984D01*
X018602Y017872D01*
X018541Y017725D01*
X018541Y017565D01*
X018602Y017418D01*
X018714Y017306D01*
X018861Y017245D01*
X019541Y017245D01*
X019688Y017306D01*
X019800Y017418D01*
X019810Y017443D01*
X020292Y017925D01*
X025110Y017925D01*
X025838Y017197D01*
X025831Y017189D01*
X025764Y017029D01*
X025764Y016261D01*
X025831Y016101D01*
X025954Y015978D01*
X026033Y015945D01*
X025501Y015945D01*
X025501Y016030D01*
X025571Y016101D01*
X025638Y016261D01*
X025638Y017029D01*
X025571Y017189D01*
X025449Y017312D01*
X025288Y017379D01*
X025114Y017379D01*
X024954Y017312D01*
X024831Y017189D01*
X024764Y017029D01*
X024764Y016261D01*
X024831Y016101D01*
X024901Y016030D01*
X024901Y015945D01*
X023372Y015945D01*
X023430Y015975D01*
X023486Y016015D01*
X023534Y016064D01*
X023575Y016119D01*
X023606Y016180D01*
X023627Y016246D01*
X023638Y016314D01*
X023638Y016605D01*
X023241Y016605D01*
X023241Y016685D01*
X023161Y016685D01*
X023161Y016605D01*
X022764Y016605D01*
X022764Y016314D01*
X022775Y016246D01*
X022796Y016180D01*
X022827Y016119D01*
X022868Y016064D01*
X022916Y016015D01*
X022972Y015975D01*
X023030Y015945D01*
X022369Y015945D01*
X022449Y015978D01*
X022571Y016101D01*
X022638Y016261D01*
X022638Y017029D01*
X022571Y017189D01*
X022449Y017312D01*
X022288Y017379D01*
X022279Y017379D01*
X021792Y017865D01*
X021610Y017865D01*
X020610Y017865D01*
X020481Y017736D01*
X019708Y016963D01*
X019688Y016984D01*
X019541Y017045D01*
X018861Y017045D01*
X018714Y016984D01*
X018602Y016872D01*
X018541Y016725D01*
X018541Y016565D01*
X018602Y016418D01*
X018714Y016306D01*
X018861Y016245D01*
X019541Y016245D01*
X019688Y016306D01*
X019800Y016418D01*
X019810Y016443D01*
X020792Y017425D01*
X021610Y017425D01*
X021838Y017197D01*
X021831Y017189D01*
X021764Y017029D01*
X021764Y016261D01*
X021831Y016101D01*
X021954Y015978D01*
X022033Y015945D01*
X021825Y015945D01*
X021600Y016170D01*
X021638Y016261D01*
X021638Y017029D01*
X021571Y017189D01*
X021449Y017312D01*
X021288Y017379D01*
X021114Y017379D01*
X020954Y017312D01*
X020831Y017189D01*
X020764Y017029D01*
X020764Y016261D01*
X020831Y016101D01*
X020940Y015992D01*
X020947Y015975D01*
X021447Y015475D01*
X021531Y015391D01*
X021641Y015345D01*
X025261Y015345D01*
X026077Y015345D01*
X027901Y013521D01*
X027901Y012445D01*
X027372Y012445D01*
X027430Y012475D01*
X027486Y012515D01*
X027534Y012564D01*
X027575Y012619D01*
X027606Y012680D01*
X027627Y012746D01*
X027638Y012814D01*
X027638Y013105D01*
X027241Y013105D01*
X027241Y013185D01*
X027161Y013185D01*
X027161Y013105D01*
X026764Y013105D01*
X026764Y012814D01*
X026775Y012746D01*
X026796Y012680D01*
X026827Y012619D01*
X026868Y012564D01*
X026916Y012515D01*
X026972Y012475D01*
X027030Y012445D01*
X026369Y012445D01*
X026449Y012478D01*
X026571Y012601D01*
X026638Y012761D01*
X026638Y013529D01*
X026571Y013689D01*
X026449Y013812D01*
X026421Y013824D01*
X026421Y014054D01*
X026421Y014236D01*
X025542Y015115D01*
X025360Y015115D01*
X020542Y015115D01*
X019810Y015847D01*
X019800Y015872D01*
X019688Y015984D01*
X019541Y016045D01*
X018861Y016045D01*
X018714Y015984D01*
X018602Y015872D01*
X018541Y015725D01*
X018541Y015565D01*
X018602Y015418D01*
X018714Y015306D01*
X018861Y015245D01*
X019541Y015245D01*
X019688Y015306D01*
X019708Y015327D01*
X020231Y014804D01*
X020360Y014675D01*
X025360Y014675D01*
X025981Y014054D01*
X025981Y013824D01*
X025954Y013812D01*
X025831Y013689D01*
X025764Y013529D01*
X025764Y012761D01*
X025831Y012601D01*
X025954Y012478D01*
X026033Y012445D01*
X025501Y012445D01*
X025501Y012530D01*
X025571Y012601D01*
X025638Y012761D01*
X025638Y013529D01*
X025571Y013689D01*
X025449Y013812D01*
X025288Y013879D01*
X025114Y013879D01*
X024954Y013812D01*
X024831Y013689D01*
X024764Y013529D01*
X024764Y012761D01*
X024831Y012601D01*
X024901Y012530D01*
X024901Y012445D01*
X023372Y012445D01*
X023430Y012475D01*
X023486Y012515D01*
X023534Y012564D01*
X023575Y012619D01*
X023606Y012680D01*
X023627Y012746D01*
X023638Y012814D01*
X023638Y013105D01*
X023241Y013105D01*
X023241Y013185D01*
X023161Y013185D01*
X023161Y013105D01*
X022764Y013105D01*
X022764Y012814D01*
X022775Y012746D01*
X022796Y012680D01*
X022827Y012619D01*
X022868Y012564D01*
X022916Y012515D01*
X022972Y012475D01*
X023030Y012445D01*
X022369Y012445D01*
X022449Y012478D01*
X022571Y012601D01*
X022638Y012761D01*
X022638Y013529D01*
X022571Y013689D01*
X022449Y013812D01*
X022288Y013879D01*
X022278Y013879D01*
X021921Y014236D01*
X021792Y014365D01*
X020292Y014365D01*
X019921Y014736D01*
X019810Y014847D01*
X019800Y014872D01*
X019688Y014984D01*
X019541Y015045D01*
X018861Y015045D01*
X018714Y014984D01*
X018602Y014872D01*
X018541Y014725D01*
X018541Y014565D01*
X018541Y014626D02*
X018209Y014626D01*
X018294Y014704D02*
X018541Y014704D01*
X018565Y014783D02*
X018341Y014783D01*
X018342Y014861D02*
X018598Y014861D01*
X018670Y014940D02*
X018341Y014940D01*
X018341Y015018D02*
X018797Y015018D01*
X018840Y015254D02*
X018341Y015254D01*
X018341Y015176D02*
X019859Y015176D01*
X019781Y015254D02*
X019563Y015254D01*
X019605Y015018D02*
X020017Y015018D01*
X020095Y014940D02*
X019732Y014940D01*
X019804Y014861D02*
X020174Y014861D01*
X020252Y014783D02*
X019874Y014783D01*
X019953Y014704D02*
X020331Y014704D01*
X020110Y014547D02*
X025488Y014547D01*
X025566Y014469D02*
X020189Y014469D01*
X020267Y014390D02*
X025645Y014390D01*
X025723Y014312D02*
X021846Y014312D01*
X021924Y014233D02*
X025802Y014233D01*
X025881Y014154D02*
X022003Y014154D01*
X022081Y014076D02*
X025959Y014076D01*
X025981Y013997D02*
X022160Y013997D01*
X022238Y013919D02*
X025981Y013919D01*
X025981Y013840D02*
X025381Y013840D01*
X025499Y013762D02*
X025903Y013762D01*
X025828Y013683D02*
X025574Y013683D01*
X025606Y013605D02*
X025796Y013605D01*
X025764Y013526D02*
X025638Y013526D01*
X025638Y013448D02*
X025764Y013448D01*
X025764Y013369D02*
X025638Y013369D01*
X025638Y013291D02*
X025764Y013291D01*
X025764Y013212D02*
X025638Y013212D01*
X025638Y013133D02*
X025764Y013133D01*
X025764Y013055D02*
X025638Y013055D01*
X025638Y012976D02*
X025764Y012976D01*
X025764Y012898D02*
X025638Y012898D01*
X025638Y012819D02*
X025764Y012819D01*
X025773Y012741D02*
X025629Y012741D01*
X025597Y012662D02*
X025805Y012662D01*
X025848Y012584D02*
X025554Y012584D01*
X025501Y012505D02*
X025926Y012505D01*
X026476Y012505D02*
X026930Y012505D01*
X026853Y012584D02*
X026554Y012584D01*
X026597Y012662D02*
X026806Y012662D01*
X026777Y012741D02*
X026629Y012741D01*
X026638Y012819D02*
X026764Y012819D01*
X026764Y012898D02*
X026638Y012898D01*
X026638Y012976D02*
X026764Y012976D01*
X026764Y013055D02*
X026638Y013055D01*
X026638Y013133D02*
X027161Y013133D01*
X027161Y013185D02*
X026764Y013185D01*
X026764Y013476D01*
X026775Y013544D01*
X026796Y013610D01*
X026827Y013671D01*
X026868Y013726D01*
X026916Y013775D01*
X026972Y013815D01*
X027033Y013847D01*
X027099Y013868D01*
X027161Y013878D01*
X027161Y013185D01*
X027161Y013212D02*
X027241Y013212D01*
X027241Y013185D02*
X027241Y013878D01*
X027303Y013868D01*
X027369Y013847D01*
X027430Y013815D01*
X027486Y013775D01*
X027534Y013726D01*
X027575Y013671D01*
X027606Y013610D01*
X027627Y013544D01*
X027638Y013476D01*
X027638Y013185D01*
X027241Y013185D01*
X027241Y013133D02*
X027901Y013133D01*
X027901Y013055D02*
X027638Y013055D01*
X027638Y012976D02*
X027901Y012976D01*
X027901Y012898D02*
X027638Y012898D01*
X027638Y012819D02*
X027901Y012819D01*
X027901Y012741D02*
X027625Y012741D01*
X027597Y012662D02*
X027901Y012662D01*
X027901Y012584D02*
X027549Y012584D01*
X027472Y012505D02*
X027901Y012505D01*
X028501Y012505D02*
X029561Y012505D01*
X029561Y012427D02*
X028501Y012427D01*
X028501Y012348D02*
X029561Y012348D01*
X029561Y012269D02*
X028501Y012269D01*
X028501Y012191D02*
X029561Y012191D01*
X029561Y012112D02*
X028501Y012112D01*
X028501Y012034D02*
X029561Y012034D01*
X029561Y011955D02*
X028501Y011955D01*
X028501Y011877D02*
X029561Y011877D01*
X029561Y011798D02*
X028501Y011798D01*
X028501Y011720D02*
X029561Y011720D01*
X029561Y011641D02*
X028501Y011641D01*
X028501Y011563D02*
X029561Y011563D01*
X029561Y011484D02*
X028501Y011484D01*
X028501Y011405D02*
X029561Y011405D01*
X029561Y011327D02*
X028501Y011327D01*
X028501Y011248D02*
X029561Y011248D01*
X029561Y011170D02*
X028501Y011170D01*
X028501Y011091D02*
X029561Y011091D01*
X029561Y011013D02*
X028501Y011013D01*
X028501Y010934D02*
X029561Y010934D01*
X029561Y010856D02*
X028501Y010856D01*
X028501Y010777D02*
X029561Y010777D01*
X029561Y010699D02*
X028501Y010699D01*
X028501Y010620D02*
X029561Y010620D01*
X029561Y010541D02*
X028501Y010541D01*
X028501Y010463D02*
X029561Y010463D01*
X029561Y010384D02*
X028501Y010384D01*
X028501Y010306D02*
X029561Y010306D01*
X029561Y010227D02*
X028501Y010227D01*
X028501Y010149D02*
X029561Y010149D01*
X029561Y010070D02*
X028501Y010070D01*
X028501Y009992D02*
X029561Y009992D01*
X029561Y009913D02*
X028501Y009913D01*
X028501Y009835D02*
X029561Y009835D01*
X029561Y009756D02*
X028501Y009756D01*
X028501Y009678D02*
X029561Y009678D01*
X029561Y009599D02*
X028501Y009599D01*
X028501Y009520D02*
X029561Y009520D01*
X029561Y009442D02*
X028501Y009442D01*
X028501Y009363D02*
X029561Y009363D01*
X029561Y009285D02*
X028501Y009285D01*
X028501Y009206D02*
X029561Y009206D01*
X029561Y009128D02*
X028501Y009128D01*
X028501Y009049D02*
X029561Y009049D01*
X029561Y008971D02*
X028501Y008971D01*
X028501Y008892D02*
X029561Y008892D01*
X029561Y008814D02*
X028501Y008814D01*
X028501Y008735D02*
X029561Y008735D01*
X029561Y008656D02*
X028501Y008656D01*
X028501Y008578D02*
X029561Y008578D01*
X029561Y008499D02*
X028501Y008499D01*
X028501Y008421D02*
X029561Y008421D01*
X029561Y008342D02*
X028501Y008342D01*
X028501Y008264D02*
X029561Y008264D01*
X029561Y008185D02*
X028501Y008185D01*
X028501Y008107D02*
X029561Y008107D01*
X029561Y008028D02*
X028501Y008028D01*
X028501Y007950D02*
X029561Y007950D01*
X029561Y007871D02*
X028501Y007871D01*
X028501Y007792D02*
X029561Y007792D01*
X029561Y007714D02*
X028501Y007714D01*
X028501Y007635D02*
X029561Y007635D01*
X029561Y007557D02*
X028501Y007557D01*
X028501Y007478D02*
X029561Y007478D01*
X029561Y007400D02*
X028501Y007400D01*
X028501Y007321D02*
X029561Y007321D01*
X029561Y007243D02*
X028501Y007243D01*
X028501Y007164D02*
X029561Y007164D01*
X029561Y007086D02*
X028501Y007086D01*
X028501Y007007D02*
X029561Y007007D01*
X029561Y006929D02*
X028501Y006929D01*
X028501Y006850D02*
X029561Y006850D01*
X029561Y006771D02*
X028501Y006771D01*
X028501Y006693D02*
X029561Y006693D01*
X029561Y006614D02*
X028501Y006614D01*
X028501Y006536D02*
X029561Y006536D01*
X029561Y006457D02*
X028501Y006457D01*
X028501Y006379D02*
X029561Y006379D01*
X029561Y006300D02*
X028501Y006300D01*
X028501Y006222D02*
X029561Y006222D01*
X029561Y006143D02*
X028501Y006143D01*
X028501Y006065D02*
X029561Y006065D01*
X029561Y005986D02*
X028501Y005986D01*
X028501Y005907D02*
X029561Y005907D01*
X029561Y005829D02*
X028501Y005829D01*
X028501Y005750D02*
X029561Y005750D01*
X029561Y005672D02*
X028501Y005672D01*
X028501Y005593D02*
X029561Y005593D01*
X029561Y005515D02*
X028501Y005515D01*
X028501Y005436D02*
X029561Y005436D01*
X029561Y005358D02*
X028501Y005358D01*
X028501Y005279D02*
X029561Y005279D01*
X029561Y005201D02*
X028501Y005201D01*
X028501Y005122D02*
X029561Y005122D01*
X029561Y005043D02*
X028501Y005043D01*
X028501Y004965D02*
X029561Y004965D01*
X029561Y004886D02*
X028501Y004886D01*
X028501Y004808D02*
X029561Y004808D01*
X029561Y004729D02*
X028501Y004729D01*
X028501Y004651D02*
X029561Y004651D01*
X029561Y004572D02*
X028501Y004572D01*
X028501Y004494D02*
X029561Y004494D01*
X029561Y004415D02*
X028501Y004415D01*
X028501Y004337D02*
X029561Y004337D01*
X029561Y004258D02*
X028501Y004258D01*
X028501Y004179D02*
X029561Y004179D01*
X029561Y004101D02*
X028501Y004101D01*
X028501Y004022D02*
X029561Y004022D01*
X029561Y003944D02*
X028501Y003944D01*
X028501Y003865D02*
X029561Y003865D01*
X029561Y003787D02*
X028501Y003787D01*
X028562Y003708D02*
X029561Y003708D01*
X029561Y003630D02*
X028641Y003630D01*
X028711Y003551D02*
X029561Y003551D01*
X029561Y003473D02*
X028744Y003473D01*
X028751Y003394D02*
X029561Y003394D01*
X029561Y003316D02*
X028751Y003316D01*
X028751Y003237D02*
X029561Y003237D01*
X029561Y003158D02*
X028751Y003158D01*
X028751Y003080D02*
X029561Y003080D01*
X029561Y003001D02*
X028751Y003001D01*
X028751Y002923D02*
X029561Y002923D01*
X029561Y002844D02*
X028751Y002844D01*
X028751Y002766D02*
X029561Y002766D01*
X029545Y002687D02*
X028751Y002687D01*
X028751Y002609D02*
X029467Y002609D01*
X029388Y002530D02*
X028751Y002530D01*
X028751Y002452D02*
X029310Y002452D01*
X029231Y002373D02*
X028751Y002373D01*
X028751Y002294D02*
X029153Y002294D01*
X029074Y002216D02*
X028751Y002216D01*
X028751Y002137D02*
X028995Y002137D01*
X028917Y002059D02*
X028751Y002059D01*
X028751Y001980D02*
X028838Y001980D01*
X028760Y001902D02*
X028751Y001902D01*
X026450Y002059D02*
X025952Y002059D01*
X026030Y001980D02*
X026372Y001980D01*
X026293Y001902D02*
X026109Y001902D01*
X026171Y001823D02*
X026231Y001823D01*
X026231Y001745D02*
X026171Y001745D01*
X026171Y001666D02*
X026231Y001666D01*
X026231Y001588D02*
X026171Y001588D01*
X026171Y001509D02*
X026231Y001509D01*
X026251Y001430D02*
X026151Y001430D01*
X026073Y001352D02*
X026330Y001352D01*
X026408Y001273D02*
X025994Y001273D01*
X025408Y001273D02*
X024994Y001273D01*
X025073Y001352D02*
X025330Y001352D01*
X025251Y001430D02*
X025151Y001430D01*
X025171Y001509D02*
X025231Y001509D01*
X025231Y001588D02*
X025171Y001588D01*
X025171Y001666D02*
X025231Y001666D01*
X025231Y001745D02*
X025171Y001745D01*
X025171Y001823D02*
X025231Y001823D01*
X025293Y001902D02*
X025109Y001902D01*
X025030Y001980D02*
X025372Y001980D01*
X025450Y002059D02*
X024952Y002059D01*
X024450Y002059D02*
X023952Y002059D01*
X024030Y001980D02*
X024372Y001980D01*
X024293Y001902D02*
X024109Y001902D01*
X024171Y001823D02*
X024231Y001823D01*
X024231Y001745D02*
X024171Y001745D01*
X024171Y001666D02*
X024231Y001666D01*
X024231Y001588D02*
X024171Y001588D01*
X024171Y001509D02*
X024231Y001509D01*
X024251Y001430D02*
X024151Y001430D01*
X024073Y001352D02*
X024330Y001352D01*
X024408Y001273D02*
X023994Y001273D01*
X023408Y001273D02*
X022994Y001273D01*
X023073Y001352D02*
X023330Y001352D01*
X023251Y001430D02*
X023151Y001430D01*
X023171Y001509D02*
X023231Y001509D01*
X023231Y001588D02*
X023171Y001588D01*
X023171Y001666D02*
X023231Y001666D01*
X023231Y001745D02*
X023171Y001745D01*
X023171Y001823D02*
X023231Y001823D01*
X023293Y001902D02*
X023109Y001902D01*
X023030Y001980D02*
X023372Y001980D01*
X023450Y002059D02*
X022952Y002059D01*
X022450Y002059D02*
X020952Y002059D01*
X021030Y001980D02*
X022372Y001980D01*
X022293Y001902D02*
X021109Y001902D01*
X021171Y001823D02*
X022231Y001823D01*
X022231Y001745D02*
X021171Y001745D01*
X021171Y001666D02*
X022231Y001666D01*
X022231Y001588D02*
X021171Y001588D01*
X021171Y001509D02*
X022231Y001509D01*
X022251Y001430D02*
X021151Y001430D01*
X021073Y001352D02*
X022330Y001352D01*
X022408Y001273D02*
X020994Y001273D01*
X020408Y001273D02*
X019994Y001273D01*
X020073Y001352D02*
X020330Y001352D01*
X020251Y001430D02*
X020151Y001430D01*
X020171Y001509D02*
X020231Y001509D01*
X020231Y001588D02*
X020171Y001588D01*
X020171Y001685D02*
X020171Y001840D01*
X019896Y002115D01*
X019741Y002115D01*
X019741Y001685D01*
X020171Y001685D01*
X020171Y001745D02*
X020231Y001745D01*
X020231Y001823D02*
X020171Y001823D01*
X020109Y001902D02*
X020293Y001902D01*
X020372Y001980D02*
X020030Y001980D01*
X019952Y002059D02*
X020450Y002059D01*
X020231Y001666D02*
X019741Y001666D01*
X019741Y001745D02*
X019661Y001745D01*
X019661Y001685D02*
X019661Y002115D01*
X019506Y002115D01*
X019231Y001840D01*
X019231Y001685D01*
X019661Y001685D01*
X019661Y001666D02*
X018741Y001666D01*
X018741Y001685D02*
X019171Y001685D01*
X019171Y001840D01*
X018896Y002115D01*
X018741Y002115D01*
X018741Y001685D01*
X018741Y001745D02*
X018661Y001745D01*
X018661Y001685D02*
X018661Y002115D01*
X018506Y002115D01*
X018231Y001840D01*
X018231Y001685D01*
X018661Y001685D01*
X018661Y001666D02*
X018171Y001666D01*
X018171Y001588D02*
X018231Y001588D01*
X018231Y001509D02*
X018171Y001509D01*
X018151Y001430D02*
X018251Y001430D01*
X018330Y001352D02*
X018073Y001352D01*
X018001Y001273D02*
X018408Y001273D01*
X018231Y001745D02*
X018171Y001745D01*
X018171Y001823D02*
X018231Y001823D01*
X018293Y001902D02*
X018109Y001902D01*
X018030Y001980D02*
X018372Y001980D01*
X018450Y002059D02*
X017952Y002059D01*
X017450Y002059D02*
X016952Y002059D01*
X017030Y001980D02*
X017372Y001980D01*
X017293Y001902D02*
X017109Y001902D01*
X017171Y001823D02*
X017231Y001823D01*
X017231Y001745D02*
X017171Y001745D01*
X017171Y001666D02*
X017231Y001666D01*
X017231Y001588D02*
X017171Y001588D01*
X017171Y001509D02*
X017231Y001509D01*
X017251Y001430D02*
X017151Y001430D01*
X017073Y001352D02*
X017330Y001352D01*
X017401Y001273D02*
X016994Y001273D01*
X016408Y001273D02*
X015994Y001273D01*
X016073Y001352D02*
X016330Y001352D01*
X016251Y001430D02*
X016151Y001430D01*
X016171Y001509D02*
X016231Y001509D01*
X016231Y001588D02*
X016171Y001588D01*
X016171Y001666D02*
X016231Y001666D01*
X016231Y001745D02*
X016171Y001745D01*
X016171Y001823D02*
X016231Y001823D01*
X016293Y001902D02*
X016109Y001902D01*
X016030Y001980D02*
X016372Y001980D01*
X016450Y002059D02*
X015952Y002059D01*
X015450Y002059D02*
X012501Y002059D01*
X012501Y002137D02*
X026398Y002137D01*
X026319Y002216D02*
X012501Y002216D01*
X012501Y002294D02*
X026241Y002294D01*
X026162Y002373D02*
X012501Y002373D01*
X012501Y002452D02*
X018583Y002452D01*
X018505Y002530D02*
X012501Y002530D01*
X012501Y002609D02*
X018426Y002609D01*
X018348Y002687D02*
X012501Y002687D01*
X012501Y002766D02*
X018269Y002766D01*
X018191Y002844D02*
X012501Y002844D01*
X012501Y002923D02*
X018112Y002923D01*
X018034Y003001D02*
X012501Y003001D01*
X012501Y003080D02*
X017955Y003080D01*
X017877Y003158D02*
X012501Y003158D01*
X012501Y003237D02*
X017798Y003237D01*
X017719Y003316D02*
X012501Y003316D01*
X012501Y003394D02*
X017641Y003394D01*
X017562Y003473D02*
X012501Y003473D01*
X012501Y003551D02*
X017484Y003551D01*
X017481Y003630D02*
X012501Y003630D01*
X012501Y003708D02*
X017481Y003708D01*
X017481Y003787D02*
X012501Y003787D01*
X012501Y003865D02*
X017481Y003865D01*
X017481Y003944D02*
X012501Y003944D01*
X012501Y004022D02*
X017481Y004022D01*
X017481Y004101D02*
X012501Y004101D01*
X012501Y004179D02*
X017481Y004179D01*
X017481Y004258D02*
X016572Y004258D01*
X016541Y004245D02*
X016688Y004306D01*
X016800Y004418D01*
X016861Y004565D01*
X016861Y004725D01*
X016800Y004872D01*
X016688Y004984D01*
X016541Y005045D01*
X015861Y005045D01*
X015714Y004984D01*
X015602Y004872D01*
X015541Y004725D01*
X015541Y004565D01*
X015602Y004418D01*
X015714Y004306D01*
X015861Y004245D01*
X016541Y004245D01*
X016718Y004337D02*
X017481Y004337D01*
X017481Y004415D02*
X016797Y004415D01*
X016831Y004494D02*
X017481Y004494D01*
X017481Y004572D02*
X016861Y004572D01*
X016861Y004651D02*
X017481Y004651D01*
X017481Y004729D02*
X016859Y004729D01*
X016827Y004808D02*
X017481Y004808D01*
X017481Y004886D02*
X016785Y004886D01*
X016707Y004965D02*
X017481Y004965D01*
X017481Y005043D02*
X016544Y005043D01*
X016623Y005279D02*
X017256Y005279D01*
X017334Y005201D02*
X012501Y005201D01*
X012501Y005279D02*
X015779Y005279D01*
X015663Y005358D02*
X012501Y005358D01*
X012501Y005436D02*
X013054Y005436D01*
X013114Y005411D02*
X013288Y005411D01*
X013449Y005478D01*
X013571Y005601D01*
X013638Y005761D01*
X013638Y006529D01*
X013571Y006689D01*
X013564Y006697D01*
X013792Y006925D01*
X014292Y006925D01*
X014421Y007054D01*
X015421Y008054D01*
X015421Y008236D01*
X015421Y010054D01*
X015694Y010327D01*
X015714Y010306D01*
X015861Y010245D01*
X016541Y010245D01*
X016688Y010306D01*
X016800Y010418D01*
X016861Y010565D01*
X016861Y010725D01*
X016800Y010872D01*
X016688Y010984D01*
X016541Y011045D01*
X015861Y011045D01*
X015714Y010984D01*
X015602Y010872D01*
X015592Y010847D01*
X015110Y010365D01*
X014981Y010236D01*
X014981Y008236D01*
X014110Y007365D01*
X013792Y007365D01*
X013610Y007365D01*
X013124Y006879D01*
X013114Y006879D01*
X012954Y006812D01*
X012831Y006689D01*
X012764Y006529D01*
X012764Y005761D01*
X012831Y005601D01*
X012954Y005478D01*
X013114Y005411D01*
X012917Y005515D02*
X012501Y005515D01*
X012564Y005593D02*
X012838Y005593D01*
X012801Y005672D02*
X012601Y005672D01*
X012633Y005750D02*
X012769Y005750D01*
X012764Y005829D02*
X012638Y005829D01*
X012638Y005907D02*
X012764Y005907D01*
X012764Y005986D02*
X012638Y005986D01*
X012638Y006065D02*
X012764Y006065D01*
X012764Y006143D02*
X012638Y006143D01*
X012638Y006222D02*
X012764Y006222D01*
X012764Y006300D02*
X012638Y006300D01*
X012638Y006379D02*
X012764Y006379D01*
X012764Y006457D02*
X012638Y006457D01*
X012635Y006536D02*
X012767Y006536D01*
X012800Y006614D02*
X012603Y006614D01*
X012568Y006693D02*
X012834Y006693D01*
X012913Y006771D02*
X012489Y006771D01*
X012357Y006850D02*
X013045Y006850D01*
X013174Y006929D02*
X009421Y006929D01*
X009421Y007007D02*
X013252Y007007D01*
X013331Y007086D02*
X009453Y007086D01*
X009531Y007164D02*
X013409Y007164D01*
X013488Y007243D02*
X009610Y007243D01*
X009688Y007321D02*
X013566Y007321D01*
X013717Y006850D02*
X014043Y006850D01*
X014033Y006847D02*
X013972Y006815D01*
X013916Y006775D01*
X013868Y006726D01*
X013827Y006671D01*
X013796Y006610D01*
X013775Y006544D01*
X013764Y006476D01*
X013764Y006185D01*
X014161Y006185D01*
X014161Y006105D01*
X013764Y006105D01*
X013764Y005814D01*
X013775Y005746D01*
X013796Y005680D01*
X013827Y005619D01*
X013868Y005564D01*
X013916Y005515D01*
X013972Y005475D01*
X014033Y005443D01*
X014099Y005422D01*
X014161Y005412D01*
X014161Y006105D01*
X014241Y006105D01*
X014241Y005412D01*
X014303Y005422D01*
X014369Y005443D01*
X014430Y005475D01*
X014486Y005515D01*
X014534Y005564D01*
X014575Y005619D01*
X014606Y005680D01*
X014627Y005746D01*
X014638Y005814D01*
X014638Y006105D01*
X014241Y006105D01*
X014241Y006185D01*
X014161Y006185D01*
X014161Y006878D01*
X014099Y006868D01*
X014033Y006847D01*
X014161Y006850D02*
X014241Y006850D01*
X014241Y006878D02*
X014241Y006185D01*
X014638Y006185D01*
X014638Y006476D01*
X014627Y006544D01*
X014606Y006610D01*
X014575Y006671D01*
X014534Y006726D01*
X014486Y006775D01*
X014430Y006815D01*
X014369Y006847D01*
X014303Y006868D01*
X014241Y006878D01*
X014296Y006929D02*
X015659Y006929D01*
X015593Y006850D02*
X014359Y006850D01*
X014241Y006771D02*
X014161Y006771D01*
X014161Y006693D02*
X014241Y006693D01*
X014241Y006614D02*
X014161Y006614D01*
X014161Y006536D02*
X014241Y006536D01*
X014241Y006457D02*
X014161Y006457D01*
X014161Y006379D02*
X014241Y006379D01*
X014241Y006300D02*
X014161Y006300D01*
X014161Y006222D02*
X014241Y006222D01*
X014241Y006143D02*
X017392Y006143D01*
X017470Y006065D02*
X014638Y006065D01*
X014638Y005986D02*
X015719Y005986D01*
X015638Y005907D02*
X014638Y005907D01*
X014638Y005829D02*
X015584Y005829D01*
X015552Y005750D02*
X014628Y005750D01*
X014601Y005672D02*
X015541Y005672D01*
X015541Y005593D02*
X014556Y005593D01*
X014485Y005515D02*
X015562Y005515D01*
X015595Y005436D02*
X014347Y005436D01*
X014241Y005436D02*
X014161Y005436D01*
X014161Y005515D02*
X014241Y005515D01*
X014241Y005593D02*
X014161Y005593D01*
X014161Y005672D02*
X014241Y005672D01*
X014241Y005750D02*
X014161Y005750D01*
X014161Y005829D02*
X014241Y005829D01*
X014241Y005907D02*
X014161Y005907D01*
X014161Y005986D02*
X014241Y005986D01*
X014241Y006065D02*
X014161Y006065D01*
X014161Y006143D02*
X013638Y006143D01*
X013638Y006065D02*
X013764Y006065D01*
X013764Y005986D02*
X013638Y005986D01*
X013638Y005907D02*
X013764Y005907D01*
X013764Y005829D02*
X013638Y005829D01*
X013633Y005750D02*
X013774Y005750D01*
X013801Y005672D02*
X013601Y005672D01*
X013564Y005593D02*
X013846Y005593D01*
X013917Y005515D02*
X013485Y005515D01*
X013348Y005436D02*
X014055Y005436D01*
X013764Y006222D02*
X013638Y006222D01*
X013638Y006300D02*
X013764Y006300D01*
X013764Y006379D02*
X013638Y006379D01*
X013638Y006457D02*
X013764Y006457D01*
X013774Y006536D02*
X013635Y006536D01*
X013603Y006614D02*
X013799Y006614D01*
X013844Y006693D02*
X013568Y006693D01*
X013639Y006771D02*
X013913Y006771D01*
X014374Y007007D02*
X015770Y007007D01*
X015861Y007245D02*
X015714Y007306D01*
X015602Y007418D01*
X015541Y007565D01*
X015541Y007725D01*
X015602Y007872D01*
X015714Y007984D01*
X015861Y008045D01*
X016541Y008045D01*
X016688Y007984D01*
X016800Y007872D01*
X016861Y007725D01*
X016861Y007565D01*
X016800Y007418D01*
X016688Y007306D01*
X016541Y007245D01*
X015861Y007245D01*
X015699Y007321D02*
X014688Y007321D01*
X014610Y007243D02*
X019792Y007243D01*
X019714Y007321D02*
X019703Y007321D01*
X019871Y007164D02*
X014531Y007164D01*
X014453Y007086D02*
X019949Y007086D01*
X019981Y007007D02*
X019632Y007007D01*
X019743Y006929D02*
X019919Y006929D01*
X019840Y006850D02*
X019805Y006850D01*
X019816Y006457D02*
X019823Y006457D01*
X019760Y006379D02*
X019902Y006379D01*
X019980Y006300D02*
X019665Y006300D01*
X019578Y006030D02*
X019501Y006045D01*
X019241Y006045D01*
X019241Y005685D01*
X019161Y005685D01*
X019161Y005605D01*
X018541Y005605D01*
X018556Y005528D01*
X018587Y005456D01*
X018630Y005390D01*
X018686Y005334D01*
X018752Y005291D01*
X018824Y005260D01*
X018902Y005245D01*
X019161Y005245D01*
X019161Y005605D01*
X019241Y005605D01*
X019241Y005245D01*
X019501Y005245D01*
X019578Y005260D01*
X019651Y005291D01*
X019716Y005334D01*
X019772Y005390D01*
X019816Y005456D01*
X019818Y005462D01*
X020035Y005245D01*
X020161Y005245D01*
X020161Y005605D01*
X019861Y005605D01*
X019241Y005605D01*
X019241Y005685D01*
X019861Y005685D01*
X020161Y005685D01*
X020161Y005605D01*
X020241Y005605D01*
X020241Y005245D01*
X020367Y005245D01*
X020601Y005479D01*
X020601Y005605D01*
X020241Y005605D01*
X020241Y005685D01*
X020161Y005685D01*
X020161Y006045D01*
X020035Y006045D01*
X019818Y005828D01*
X019816Y005834D01*
X019772Y005900D01*
X019716Y005956D01*
X019651Y005999D01*
X019578Y006030D01*
X019671Y005986D02*
X019976Y005986D01*
X019898Y005907D02*
X019764Y005907D01*
X019818Y005829D02*
X019819Y005829D01*
X020161Y005829D02*
X020241Y005829D01*
X020241Y005907D02*
X020161Y005907D01*
X020161Y005986D02*
X020241Y005986D01*
X020241Y006045D02*
X020241Y005685D01*
X020601Y005685D01*
X020601Y005811D01*
X020367Y006045D01*
X020241Y006045D01*
X020392Y006143D02*
X018014Y006143D01*
X017936Y006222D02*
X020313Y006222D01*
X020470Y006065D02*
X018093Y006065D01*
X018171Y005986D02*
X018731Y005986D01*
X018752Y005999D02*
X018686Y005956D01*
X018630Y005900D01*
X018587Y005834D01*
X018556Y005762D01*
X018541Y005685D01*
X019161Y005685D01*
X019161Y006045D01*
X018902Y006045D01*
X018824Y006030D01*
X018752Y005999D01*
X018638Y005907D02*
X018250Y005907D01*
X018328Y005829D02*
X018584Y005829D01*
X018554Y005750D02*
X018407Y005750D01*
X018421Y005672D02*
X019161Y005672D01*
X019161Y005750D02*
X019241Y005750D01*
X019241Y005672D02*
X020161Y005672D01*
X020161Y005750D02*
X020241Y005750D01*
X020241Y005672D02*
X020801Y005672D01*
X020769Y005750D02*
X020601Y005750D01*
X020583Y005829D02*
X020764Y005829D01*
X020764Y005907D02*
X020504Y005907D01*
X020549Y005986D02*
X020426Y005986D01*
X020601Y005593D02*
X020838Y005593D01*
X020901Y005515D02*
X020601Y005515D01*
X020558Y005436D02*
X020901Y005436D01*
X020901Y005358D02*
X020479Y005358D01*
X020401Y005279D02*
X020901Y005279D01*
X020901Y005201D02*
X018421Y005201D01*
X018421Y005279D02*
X018779Y005279D01*
X018663Y005358D02*
X018421Y005358D01*
X018421Y005436D02*
X018600Y005436D01*
X018562Y005515D02*
X018421Y005515D01*
X018421Y005593D02*
X018544Y005593D01*
X017981Y005515D02*
X017642Y005515D01*
X017564Y005593D02*
X017942Y005593D01*
X017863Y005672D02*
X017485Y005672D01*
X017407Y005750D02*
X017785Y005750D01*
X017706Y005829D02*
X017328Y005829D01*
X017549Y005986D02*
X016683Y005986D01*
X016764Y005907D02*
X017628Y005907D01*
X017313Y006222D02*
X014638Y006222D01*
X014638Y006300D02*
X015728Y006300D01*
X015642Y006379D02*
X014638Y006379D01*
X014638Y006457D02*
X015586Y006457D01*
X015553Y006536D02*
X014629Y006536D01*
X014604Y006614D02*
X015541Y006614D01*
X015541Y006693D02*
X014559Y006693D01*
X014489Y006771D02*
X015561Y006771D01*
X015621Y007400D02*
X014767Y007400D01*
X014845Y007478D02*
X015577Y007478D01*
X015545Y007557D02*
X014924Y007557D01*
X015003Y007635D02*
X015541Y007635D01*
X015541Y007714D02*
X015081Y007714D01*
X015160Y007792D02*
X015569Y007792D01*
X015602Y007871D02*
X015238Y007871D01*
X015317Y007950D02*
X015680Y007950D01*
X015821Y008028D02*
X015395Y008028D01*
X015421Y008107D02*
X017928Y008107D01*
X017850Y008185D02*
X015421Y008185D01*
X015421Y008264D02*
X015816Y008264D01*
X015824Y008260D02*
X015902Y008245D01*
X016161Y008245D01*
X016161Y008605D01*
X015541Y008605D01*
X015556Y008528D01*
X015587Y008456D01*
X015630Y008390D01*
X015686Y008334D01*
X015752Y008291D01*
X015824Y008260D01*
X015678Y008342D02*
X015421Y008342D01*
X015421Y008421D02*
X015610Y008421D01*
X015568Y008499D02*
X015421Y008499D01*
X015421Y008578D02*
X015547Y008578D01*
X015541Y008685D02*
X016161Y008685D01*
X016161Y008605D01*
X016241Y008605D01*
X016241Y008245D01*
X016501Y008245D01*
X016578Y008260D01*
X016651Y008291D01*
X016716Y008334D01*
X016772Y008390D01*
X016816Y008456D01*
X016846Y008528D01*
X016861Y008605D01*
X016241Y008605D01*
X016241Y008685D01*
X016161Y008685D01*
X016161Y009045D01*
X015902Y009045D01*
X015824Y009030D01*
X015752Y008999D01*
X015686Y008956D01*
X015630Y008900D01*
X015587Y008834D01*
X015556Y008762D01*
X015541Y008685D01*
X015551Y008735D02*
X015421Y008735D01*
X015421Y008814D02*
X015578Y008814D01*
X015625Y008892D02*
X015421Y008892D01*
X015421Y008971D02*
X015708Y008971D01*
X015421Y009049D02*
X016986Y009049D01*
X017064Y008971D02*
X016694Y008971D01*
X016716Y008956D02*
X016651Y008999D01*
X016578Y009030D01*
X016501Y009045D01*
X016241Y009045D01*
X016241Y008685D01*
X016861Y008685D01*
X016846Y008762D01*
X016816Y008834D01*
X016772Y008900D01*
X016716Y008956D01*
X016777Y008892D02*
X017143Y008892D01*
X017221Y008814D02*
X016824Y008814D01*
X016851Y008735D02*
X017300Y008735D01*
X017379Y008656D02*
X016241Y008656D01*
X016241Y008578D02*
X016161Y008578D01*
X016161Y008656D02*
X015421Y008656D01*
X014981Y008656D02*
X014921Y008656D01*
X014921Y008578D02*
X014981Y008578D01*
X014981Y008499D02*
X014866Y008499D01*
X014788Y008421D02*
X014981Y008421D01*
X014981Y008342D02*
X014709Y008342D01*
X014631Y008264D02*
X014981Y008264D01*
X014930Y008185D02*
X014552Y008185D01*
X014474Y008107D02*
X014852Y008107D01*
X014773Y008028D02*
X014395Y008028D01*
X014421Y008054D02*
X014421Y008054D01*
X014317Y007950D02*
X014695Y007950D01*
X014616Y007871D02*
X010238Y007871D01*
X010160Y007792D02*
X014537Y007792D01*
X014459Y007714D02*
X010081Y007714D01*
X010003Y007635D02*
X014380Y007635D01*
X014302Y007557D02*
X009924Y007557D01*
X009845Y007478D02*
X014223Y007478D01*
X014145Y007400D02*
X009767Y007400D01*
X009459Y007714D02*
X007501Y007714D01*
X007501Y007792D02*
X009537Y007792D01*
X009616Y007871D02*
X007501Y007871D01*
X007501Y007950D02*
X009695Y007950D01*
X009773Y008028D02*
X007501Y008028D01*
X007501Y008107D02*
X009852Y008107D01*
X009930Y008185D02*
X007501Y008185D01*
X007501Y008264D02*
X010009Y008264D01*
X010087Y008342D02*
X007501Y008342D01*
X006901Y008342D02*
X006819Y008342D01*
X006851Y008311D02*
X006617Y008545D01*
X006362Y008545D01*
X006042Y008865D01*
X005860Y008865D01*
X005292Y008865D01*
X004921Y009236D01*
X004921Y010510D01*
X004954Y010478D01*
X005114Y010411D01*
X005288Y010411D01*
X005449Y010478D01*
X005571Y010601D01*
X005638Y010761D01*
X005638Y011529D01*
X005571Y011689D01*
X005449Y011812D01*
X005421Y011824D01*
X005421Y018054D01*
X005792Y018425D01*
X014792Y018425D01*
X014921Y018554D01*
X016321Y019954D01*
X016321Y020136D01*
X016321Y020200D01*
X016571Y020450D01*
X016571Y020840D01*
X016296Y021115D01*
X015906Y021115D01*
X015631Y020840D01*
X015631Y020450D01*
X015881Y020200D01*
X015881Y020136D01*
X014610Y018865D01*
X005792Y018865D01*
X005732Y018865D01*
X005792Y018925D01*
X014292Y018925D01*
X014421Y019054D01*
X015321Y019954D01*
X015321Y020136D01*
X015321Y020200D01*
X015571Y020450D01*
X015571Y020840D01*
X015296Y021115D01*
X014906Y021115D01*
X014631Y020840D01*
X014631Y020450D01*
X014881Y020200D01*
X014881Y020136D01*
X014110Y019365D01*
X005792Y019365D01*
X005732Y019365D01*
X005792Y019425D01*
X013792Y019425D01*
X013921Y019554D01*
X014321Y019954D01*
X014321Y020136D01*
X014321Y020200D01*
X014571Y020450D01*
X014571Y020840D01*
X014296Y021115D01*
X013906Y021115D01*
X013631Y020840D01*
X013631Y020450D01*
X013881Y020200D01*
X013881Y020136D01*
X013610Y019865D01*
X005792Y019865D01*
X005610Y019865D01*
X004110Y018365D01*
X003981Y018236D01*
X003981Y011824D01*
X003954Y011812D01*
X003831Y011689D01*
X003764Y011529D01*
X003764Y010761D01*
X003831Y010601D01*
X003954Y010478D01*
X004114Y010411D01*
X004288Y010411D01*
X004449Y010478D01*
X004481Y010510D01*
X004481Y009236D01*
X004481Y009054D01*
X004981Y008554D01*
X004981Y008324D01*
X004954Y008312D01*
X004831Y008189D01*
X004764Y008029D01*
X004764Y007261D01*
X004831Y007101D01*
X004954Y006978D01*
X005114Y006911D01*
X005288Y006911D01*
X005449Y006978D01*
X005571Y007101D01*
X005638Y007261D01*
X005638Y008029D01*
X005571Y008189D01*
X005449Y008312D01*
X005421Y008324D01*
X005421Y008425D01*
X005860Y008425D01*
X006051Y008234D01*
X006051Y007979D01*
X006285Y007745D01*
X006617Y007745D01*
X006851Y007979D01*
X006851Y008311D01*
X006851Y008264D02*
X006901Y008264D01*
X006901Y008185D02*
X006851Y008185D01*
X006851Y008107D02*
X006901Y008107D01*
X006901Y008028D02*
X006851Y008028D01*
X006821Y007950D02*
X006901Y007950D01*
X006901Y007871D02*
X006743Y007871D01*
X006664Y007792D02*
X006901Y007792D01*
X006901Y007714D02*
X005638Y007714D01*
X005638Y007792D02*
X006238Y007792D01*
X006159Y007871D02*
X005638Y007871D01*
X005638Y007950D02*
X006081Y007950D01*
X006051Y008028D02*
X005638Y008028D01*
X005606Y008107D02*
X006051Y008107D01*
X006051Y008185D02*
X005573Y008185D01*
X005497Y008264D02*
X006021Y008264D01*
X005943Y008342D02*
X005421Y008342D01*
X005421Y008421D02*
X005864Y008421D01*
X006251Y008656D02*
X006901Y008656D01*
X006901Y008578D02*
X006329Y008578D01*
X006172Y008735D02*
X006901Y008735D01*
X006901Y008814D02*
X006094Y008814D01*
X006662Y008499D02*
X006901Y008499D01*
X006901Y008421D02*
X006741Y008421D01*
X006901Y008892D02*
X005265Y008892D01*
X005187Y008971D02*
X006901Y008971D01*
X006901Y009049D02*
X005108Y009049D01*
X005029Y009128D02*
X006901Y009128D01*
X006901Y009206D02*
X004951Y009206D01*
X004921Y009285D02*
X006901Y009285D01*
X006901Y009363D02*
X004921Y009363D01*
X004921Y009442D02*
X006901Y009442D01*
X006901Y009520D02*
X004921Y009520D01*
X004921Y009599D02*
X006901Y009599D01*
X006901Y009678D02*
X004921Y009678D01*
X004921Y009756D02*
X006901Y009756D01*
X006901Y009835D02*
X004921Y009835D01*
X004921Y009913D02*
X006901Y009913D01*
X006901Y009992D02*
X004921Y009992D01*
X004921Y010070D02*
X006901Y010070D01*
X006901Y010149D02*
X004921Y010149D01*
X004921Y010227D02*
X006901Y010227D01*
X006901Y010306D02*
X004921Y010306D01*
X004921Y010384D02*
X006901Y010384D01*
X006901Y010463D02*
X006407Y010463D01*
X006430Y010475D02*
X006486Y010515D01*
X006534Y010564D01*
X006575Y010619D01*
X006606Y010680D01*
X006627Y010746D01*
X006638Y010814D01*
X006638Y011105D01*
X006241Y011105D01*
X006241Y010412D01*
X006303Y010422D01*
X006369Y010443D01*
X006430Y010475D01*
X006512Y010541D02*
X006901Y010541D01*
X006901Y010620D02*
X006575Y010620D01*
X006612Y010699D02*
X006901Y010699D01*
X006901Y010777D02*
X006632Y010777D01*
X006638Y010856D02*
X006901Y010856D01*
X006901Y010934D02*
X006638Y010934D01*
X006638Y011013D02*
X006901Y011013D01*
X006901Y011091D02*
X006638Y011091D01*
X006638Y011185D02*
X006241Y011185D01*
X006161Y011185D01*
X006161Y011105D01*
X005764Y011105D01*
X005764Y010814D01*
X005775Y010746D01*
X005796Y010680D01*
X005827Y010619D01*
X005868Y010564D01*
X005916Y010515D01*
X005972Y010475D01*
X006033Y010443D01*
X006099Y010422D01*
X006161Y010412D01*
X006161Y011105D01*
X006241Y011105D01*
X006241Y011185D01*
X006241Y011878D01*
X006303Y011868D01*
X006369Y011847D01*
X006430Y011815D01*
X006486Y011775D01*
X006534Y011726D01*
X006575Y011671D01*
X006606Y011610D01*
X006627Y011544D01*
X006638Y011476D01*
X006638Y011185D01*
X006638Y011248D02*
X006901Y011248D01*
X006901Y011170D02*
X006241Y011170D01*
X006241Y011248D02*
X006161Y011248D01*
X006161Y011185D02*
X006161Y011878D01*
X006099Y011868D01*
X006033Y011847D01*
X005972Y011815D01*
X005916Y011775D01*
X005868Y011726D01*
X005827Y011671D01*
X005796Y011610D01*
X005775Y011544D01*
X005764Y011476D01*
X005764Y011185D01*
X006161Y011185D01*
X006161Y011170D02*
X005638Y011170D01*
X005638Y011248D02*
X005764Y011248D01*
X005764Y011327D02*
X005638Y011327D01*
X005638Y011405D02*
X005764Y011405D01*
X005766Y011484D02*
X005638Y011484D01*
X005624Y011563D02*
X005781Y011563D01*
X005812Y011641D02*
X005591Y011641D01*
X005541Y011720D02*
X005863Y011720D01*
X005948Y011798D02*
X005463Y011798D01*
X005421Y011877D02*
X006154Y011877D01*
X006161Y011877D02*
X006241Y011877D01*
X006248Y011877D02*
X006901Y011877D01*
X006901Y011955D02*
X005421Y011955D01*
X005421Y012034D02*
X006901Y012034D01*
X006901Y012112D02*
X005421Y012112D01*
X005421Y012191D02*
X006901Y012191D01*
X006901Y012269D02*
X005421Y012269D01*
X005421Y012348D02*
X006901Y012348D01*
X006901Y012427D02*
X005421Y012427D01*
X005421Y012505D02*
X006901Y012505D01*
X006901Y012584D02*
X005421Y012584D01*
X005421Y012662D02*
X006901Y012662D01*
X006901Y012741D02*
X005421Y012741D01*
X005421Y012819D02*
X006901Y012819D01*
X006901Y012898D02*
X005421Y012898D01*
X005421Y012976D02*
X006901Y012976D01*
X006901Y013055D02*
X005421Y013055D01*
X005421Y013133D02*
X006901Y013133D01*
X006901Y013212D02*
X005421Y013212D01*
X005421Y013291D02*
X006901Y013291D01*
X006901Y013369D02*
X005421Y013369D01*
X005421Y013448D02*
X006901Y013448D01*
X006901Y013526D02*
X005421Y013526D01*
X005421Y013605D02*
X006901Y013605D01*
X006901Y013683D02*
X005421Y013683D01*
X005421Y013762D02*
X006901Y013762D01*
X006901Y013840D02*
X005421Y013840D01*
X005421Y013919D02*
X006901Y013919D01*
X006901Y013997D02*
X005421Y013997D01*
X005421Y014076D02*
X006901Y014076D01*
X006901Y014154D02*
X005421Y014154D01*
X005421Y014233D02*
X006901Y014233D01*
X006901Y014312D02*
X005421Y014312D01*
X005421Y014390D02*
X006901Y014390D01*
X006901Y014469D02*
X005421Y014469D01*
X005421Y014547D02*
X006901Y014547D01*
X006901Y014626D02*
X005421Y014626D01*
X005421Y014704D02*
X006901Y014704D01*
X006901Y014783D02*
X005421Y014783D01*
X005421Y014861D02*
X006901Y014861D01*
X006901Y014940D02*
X005421Y014940D01*
X005421Y015018D02*
X006901Y015018D01*
X006901Y015097D02*
X005421Y015097D01*
X005421Y015176D02*
X006901Y015176D01*
X006922Y015254D02*
X005421Y015254D01*
X005421Y015333D02*
X006964Y015333D01*
X007043Y015411D02*
X005421Y015411D01*
X005421Y015490D02*
X007122Y015490D01*
X007200Y015568D02*
X005421Y015568D01*
X005421Y015647D02*
X007279Y015647D01*
X007357Y015725D02*
X005421Y015725D01*
X005421Y015804D02*
X007436Y015804D01*
X007514Y015882D02*
X005421Y015882D01*
X005421Y015961D02*
X007901Y015961D01*
X007892Y016040D02*
X005421Y016040D01*
X005421Y016118D02*
X007824Y016118D01*
X007791Y016197D02*
X005421Y016197D01*
X005421Y016275D02*
X007764Y016275D01*
X007764Y016354D02*
X005421Y016354D01*
X005421Y016432D02*
X007764Y016432D01*
X007764Y016511D02*
X005421Y016511D01*
X005421Y016589D02*
X007764Y016589D01*
X007764Y016668D02*
X005421Y016668D01*
X005421Y016746D02*
X007764Y016746D01*
X007764Y016825D02*
X005421Y016825D01*
X005421Y016904D02*
X007764Y016904D01*
X007764Y016982D02*
X005421Y016982D01*
X005421Y017061D02*
X007777Y017061D01*
X007810Y017139D02*
X005421Y017139D01*
X005421Y017218D02*
X007859Y017218D01*
X007938Y017296D02*
X005421Y017296D01*
X005421Y017375D02*
X008105Y017375D01*
X008298Y017375D02*
X009105Y017375D01*
X009198Y017453D02*
X005421Y017453D01*
X005421Y017532D02*
X009277Y017532D01*
X009355Y017610D02*
X005421Y017610D01*
X005421Y017689D02*
X009434Y017689D01*
X009512Y017767D02*
X005421Y017767D01*
X005421Y017846D02*
X009591Y017846D01*
X009670Y017925D02*
X005421Y017925D01*
X005421Y018003D02*
X009748Y018003D01*
X009827Y018082D02*
X005449Y018082D01*
X005527Y018160D02*
X009905Y018160D01*
X009984Y018239D02*
X005606Y018239D01*
X005684Y018317D02*
X010062Y018317D01*
X010292Y017925D02*
X015110Y017925D01*
X015189Y017846D02*
X014811Y017846D01*
X014792Y017865D02*
X013792Y017865D01*
X013610Y017865D01*
X013124Y017379D01*
X013114Y017379D01*
X012954Y017312D01*
X012831Y017189D01*
X012764Y017029D01*
X012764Y016261D01*
X012831Y016101D01*
X012954Y015978D01*
X013114Y015911D01*
X013288Y015911D01*
X013449Y015978D01*
X013571Y016101D01*
X013638Y016261D01*
X013638Y017029D01*
X013571Y017189D01*
X013564Y017197D01*
X013792Y017425D01*
X014610Y017425D01*
X015592Y016443D01*
X015602Y016418D01*
X015714Y016306D01*
X015861Y016245D01*
X016541Y016245D01*
X016688Y016306D01*
X016800Y016418D01*
X016861Y016565D01*
X016861Y016725D01*
X016800Y016872D01*
X016688Y016984D01*
X016541Y017045D01*
X015861Y017045D01*
X015714Y016984D01*
X015694Y016963D01*
X014921Y017736D01*
X014792Y017865D01*
X014890Y017767D02*
X015268Y017767D01*
X015346Y017689D02*
X014968Y017689D01*
X015047Y017610D02*
X015425Y017610D01*
X015503Y017532D02*
X015125Y017532D01*
X015204Y017453D02*
X015582Y017453D01*
X015646Y017375D02*
X015282Y017375D01*
X015361Y017296D02*
X015738Y017296D01*
X015518Y017139D02*
X019884Y017139D01*
X019806Y017061D02*
X015597Y017061D01*
X015675Y016982D02*
X015712Y016982D01*
X015440Y017218D02*
X019963Y017218D01*
X020041Y017296D02*
X019664Y017296D01*
X019756Y017375D02*
X020120Y017375D01*
X020198Y017453D02*
X019820Y017453D01*
X019899Y017532D02*
X020277Y017532D01*
X020355Y017610D02*
X019978Y017610D01*
X020056Y017689D02*
X020434Y017689D01*
X020512Y017767D02*
X020135Y017767D01*
X020213Y017846D02*
X020591Y017846D01*
X020292Y017925D02*
X025110Y017925D01*
X025189Y017846D02*
X021811Y017846D01*
X021890Y017767D02*
X025268Y017767D01*
X025346Y017689D02*
X021968Y017689D01*
X022047Y017610D02*
X025425Y017610D01*
X025503Y017532D02*
X022125Y017532D01*
X022204Y017453D02*
X025582Y017453D01*
X025660Y017375D02*
X025298Y017375D01*
X025465Y017296D02*
X025739Y017296D01*
X025817Y017218D02*
X025543Y017218D01*
X025592Y017139D02*
X025810Y017139D01*
X025777Y017061D02*
X025625Y017061D01*
X025638Y016982D02*
X025764Y016982D01*
X025764Y016904D02*
X025638Y016904D01*
X025638Y016825D02*
X025764Y016825D01*
X025764Y016746D02*
X025638Y016746D01*
X025638Y016668D02*
X025764Y016668D01*
X025764Y016589D02*
X025638Y016589D01*
X025638Y016511D02*
X025764Y016511D01*
X025764Y016432D02*
X025638Y016432D01*
X025638Y016354D02*
X025764Y016354D01*
X025764Y016275D02*
X025638Y016275D01*
X025611Y016197D02*
X025791Y016197D01*
X025824Y016118D02*
X025579Y016118D01*
X025510Y016040D02*
X025892Y016040D01*
X025994Y015961D02*
X025501Y015961D01*
X024901Y015961D02*
X023403Y015961D01*
X023510Y016040D02*
X024892Y016040D01*
X024824Y016118D02*
X023574Y016118D01*
X023611Y016197D02*
X024791Y016197D01*
X024764Y016275D02*
X023632Y016275D01*
X023638Y016354D02*
X024764Y016354D01*
X024764Y016432D02*
X023638Y016432D01*
X023638Y016511D02*
X024764Y016511D01*
X024764Y016589D02*
X023638Y016589D01*
X023638Y016685D02*
X023638Y016976D01*
X023627Y017044D01*
X023606Y017110D01*
X023575Y017171D01*
X023534Y017226D01*
X023486Y017275D01*
X023430Y017315D01*
X023369Y017347D01*
X023303Y017368D01*
X023241Y017378D01*
X023241Y016685D01*
X023638Y016685D01*
X023638Y016746D02*
X024764Y016746D01*
X024764Y016668D02*
X023241Y016668D01*
X023241Y016746D02*
X023161Y016746D01*
X023161Y016685D02*
X023161Y017378D01*
X023099Y017368D01*
X023033Y017347D01*
X022972Y017315D01*
X022916Y017275D01*
X022868Y017226D01*
X022827Y017171D01*
X022796Y017110D01*
X022775Y017044D01*
X022764Y016976D01*
X022764Y016685D01*
X023161Y016685D01*
X023161Y016668D02*
X022638Y016668D01*
X022638Y016746D02*
X022764Y016746D01*
X022764Y016825D02*
X022638Y016825D01*
X022638Y016904D02*
X022764Y016904D01*
X022765Y016982D02*
X022638Y016982D01*
X022625Y017061D02*
X022780Y017061D01*
X022811Y017139D02*
X022592Y017139D01*
X022543Y017218D02*
X022862Y017218D01*
X022946Y017296D02*
X022465Y017296D01*
X022298Y017375D02*
X023142Y017375D01*
X023161Y017375D02*
X023241Y017375D01*
X023260Y017375D02*
X025105Y017375D01*
X024938Y017296D02*
X023457Y017296D01*
X023541Y017218D02*
X024859Y017218D01*
X024810Y017139D02*
X023591Y017139D01*
X023622Y017061D02*
X024777Y017061D01*
X024764Y016982D02*
X023637Y016982D01*
X023638Y016904D02*
X024764Y016904D01*
X024764Y016825D02*
X023638Y016825D01*
X023241Y016825D02*
X023161Y016825D01*
X023161Y016904D02*
X023241Y016904D01*
X023241Y016982D02*
X023161Y016982D01*
X023161Y017061D02*
X023241Y017061D01*
X023241Y017139D02*
X023161Y017139D01*
X023161Y017218D02*
X023241Y017218D01*
X023241Y017296D02*
X023161Y017296D01*
X022764Y016589D02*
X022638Y016589D01*
X022638Y016511D02*
X022764Y016511D01*
X022764Y016432D02*
X022638Y016432D01*
X022638Y016354D02*
X022764Y016354D01*
X022770Y016275D02*
X022638Y016275D01*
X022611Y016197D02*
X022791Y016197D01*
X022828Y016118D02*
X022579Y016118D01*
X022510Y016040D02*
X022892Y016040D01*
X022999Y015961D02*
X022408Y015961D01*
X021994Y015961D02*
X021809Y015961D01*
X021731Y016040D02*
X021892Y016040D01*
X021824Y016118D02*
X021652Y016118D01*
X021611Y016197D02*
X021791Y016197D01*
X021764Y016275D02*
X021638Y016275D01*
X021638Y016354D02*
X021764Y016354D01*
X021764Y016432D02*
X021638Y016432D01*
X021638Y016511D02*
X021764Y016511D01*
X021764Y016589D02*
X021638Y016589D01*
X021638Y016668D02*
X021764Y016668D01*
X021764Y016746D02*
X021638Y016746D01*
X021638Y016825D02*
X021764Y016825D01*
X021764Y016904D02*
X021638Y016904D01*
X021638Y016982D02*
X021764Y016982D01*
X021777Y017061D02*
X021625Y017061D01*
X021592Y017139D02*
X021810Y017139D01*
X021817Y017218D02*
X021543Y017218D01*
X021465Y017296D02*
X021739Y017296D01*
X021660Y017375D02*
X021298Y017375D01*
X021105Y017375D02*
X020742Y017375D01*
X020663Y017296D02*
X020938Y017296D01*
X020859Y017218D02*
X020585Y017218D01*
X020506Y017139D02*
X020810Y017139D01*
X020777Y017061D02*
X020428Y017061D01*
X020349Y016982D02*
X020764Y016982D01*
X020764Y016904D02*
X020271Y016904D01*
X020192Y016825D02*
X020764Y016825D01*
X020764Y016746D02*
X020114Y016746D01*
X020035Y016668D02*
X020764Y016668D01*
X020764Y016589D02*
X019956Y016589D01*
X019878Y016511D02*
X020764Y016511D01*
X020764Y016432D02*
X019806Y016432D01*
X019735Y016354D02*
X020764Y016354D01*
X020764Y016275D02*
X019613Y016275D01*
X019554Y016040D02*
X020892Y016040D01*
X020824Y016118D02*
X014574Y016118D01*
X014575Y016119D02*
X014606Y016180D01*
X014627Y016246D01*
X014638Y016314D01*
X014638Y016605D01*
X014241Y016605D01*
X014241Y015912D01*
X014303Y015922D01*
X014369Y015943D01*
X014430Y015975D01*
X014486Y016015D01*
X014534Y016064D01*
X014575Y016119D01*
X014611Y016197D02*
X020791Y016197D01*
X020961Y015961D02*
X019711Y015961D01*
X019789Y015882D02*
X021039Y015882D01*
X021118Y015804D02*
X019853Y015804D01*
X019932Y015725D02*
X021196Y015725D01*
X021275Y015647D02*
X020010Y015647D01*
X020089Y015568D02*
X021354Y015568D01*
X021432Y015490D02*
X020167Y015490D01*
X020246Y015411D02*
X021511Y015411D01*
X020482Y015176D02*
X026246Y015176D01*
X026168Y015254D02*
X020403Y015254D01*
X020325Y015333D02*
X026089Y015333D01*
X026325Y015097D02*
X025560Y015097D01*
X025639Y015018D02*
X026403Y015018D01*
X026482Y014940D02*
X025717Y014940D01*
X025796Y014861D02*
X026560Y014861D01*
X026639Y014783D02*
X025874Y014783D01*
X025953Y014704D02*
X026718Y014704D01*
X026796Y014626D02*
X026031Y014626D01*
X026110Y014547D02*
X026875Y014547D01*
X026953Y014469D02*
X026189Y014469D01*
X026267Y014390D02*
X027032Y014390D01*
X027110Y014312D02*
X026346Y014312D01*
X026421Y014233D02*
X027189Y014233D01*
X027267Y014154D02*
X026421Y014154D01*
X026421Y014076D02*
X027346Y014076D01*
X027424Y013997D02*
X026421Y013997D01*
X026421Y013919D02*
X027503Y013919D01*
X027582Y013840D02*
X027381Y013840D01*
X027241Y013840D02*
X027161Y013840D01*
X027161Y013762D02*
X027241Y013762D01*
X027241Y013683D02*
X027161Y013683D01*
X027161Y013605D02*
X027241Y013605D01*
X027241Y013526D02*
X027161Y013526D01*
X027161Y013448D02*
X027241Y013448D01*
X027241Y013369D02*
X027161Y013369D01*
X027161Y013291D02*
X027241Y013291D01*
X026764Y013291D02*
X026638Y013291D01*
X026638Y013369D02*
X026764Y013369D01*
X026764Y013448D02*
X026638Y013448D01*
X026638Y013526D02*
X026772Y013526D01*
X026795Y013605D02*
X026606Y013605D01*
X026574Y013683D02*
X026836Y013683D01*
X026903Y013762D02*
X026499Y013762D01*
X026421Y013840D02*
X027021Y013840D01*
X027499Y013762D02*
X027660Y013762D01*
X027739Y013683D02*
X027566Y013683D01*
X027608Y013605D02*
X027817Y013605D01*
X027896Y013526D02*
X027630Y013526D01*
X027638Y013448D02*
X027901Y013448D01*
X027901Y013369D02*
X027638Y013369D01*
X027638Y013291D02*
X027901Y013291D01*
X027901Y013212D02*
X027638Y013212D01*
X028501Y013212D02*
X029561Y013212D01*
X029561Y013291D02*
X028501Y013291D01*
X028501Y013369D02*
X029561Y013369D01*
X029561Y013448D02*
X028501Y013448D01*
X028501Y013526D02*
X029561Y013526D01*
X029561Y013605D02*
X028501Y013605D01*
X028501Y013683D02*
X029561Y013683D01*
X029561Y013762D02*
X028477Y013762D01*
X028430Y013840D02*
X029561Y013840D01*
X029561Y013919D02*
X028960Y013919D01*
X029142Y013997D02*
X029561Y013997D01*
X029561Y014076D02*
X029221Y014076D01*
X029299Y014154D02*
X029561Y014154D01*
X029561Y014233D02*
X029364Y014233D01*
X029396Y014312D02*
X029561Y014312D01*
X029561Y014390D02*
X029429Y014390D01*
X029461Y014469D02*
X029561Y014469D01*
X029561Y014547D02*
X029471Y014547D01*
X029471Y014626D02*
X029561Y014626D01*
X029561Y014704D02*
X029471Y014704D01*
X029471Y014783D02*
X029561Y014783D01*
X029561Y014861D02*
X029445Y014861D01*
X029412Y014940D02*
X029561Y014940D01*
X029561Y015018D02*
X029380Y015018D01*
X029338Y015097D02*
X029561Y015097D01*
X029561Y015176D02*
X029259Y015176D01*
X029181Y015254D02*
X029561Y015254D01*
X029561Y015333D02*
X029053Y015333D01*
X028863Y015411D02*
X029561Y015411D01*
X029558Y015490D02*
X026781Y015490D01*
X026859Y015411D02*
X028539Y015411D01*
X028349Y015333D02*
X026938Y015333D01*
X027016Y015254D02*
X028221Y015254D01*
X028143Y015176D02*
X027095Y015176D01*
X027173Y015097D02*
X028064Y015097D01*
X028022Y015018D02*
X027252Y015018D01*
X027330Y014940D02*
X027990Y014940D01*
X027957Y014861D02*
X027409Y014861D01*
X027488Y014783D02*
X027931Y014783D01*
X027931Y014704D02*
X027566Y014704D01*
X027645Y014626D02*
X027931Y014626D01*
X027931Y014547D02*
X027723Y014547D01*
X027802Y014469D02*
X027941Y014469D01*
X027973Y014390D02*
X027880Y014390D01*
X027959Y014312D02*
X028006Y014312D01*
X028037Y014233D02*
X028038Y014233D01*
X028351Y013919D02*
X028442Y013919D01*
X028501Y013133D02*
X029561Y013133D01*
X029561Y013055D02*
X028501Y013055D01*
X028501Y012976D02*
X029561Y012976D01*
X029561Y012898D02*
X028501Y012898D01*
X028501Y012819D02*
X029561Y012819D01*
X029561Y012741D02*
X028501Y012741D01*
X028501Y012662D02*
X029561Y012662D01*
X029561Y012584D02*
X028501Y012584D01*
X027901Y011798D02*
X021359Y011798D01*
X021438Y011720D02*
X027901Y011720D01*
X027901Y011641D02*
X021516Y011641D01*
X021565Y011877D02*
X021280Y011877D01*
X021202Y011955D02*
X021467Y011955D01*
X021388Y012034D02*
X021123Y012034D01*
X021045Y012112D02*
X021309Y012112D01*
X021231Y012191D02*
X020966Y012191D01*
X020888Y012269D02*
X021152Y012269D01*
X021074Y012348D02*
X020809Y012348D01*
X020731Y012427D02*
X020995Y012427D01*
X020926Y012505D02*
X020671Y012505D01*
X020671Y012584D02*
X020848Y012584D01*
X020805Y012662D02*
X020671Y012662D01*
X020671Y012741D02*
X020773Y012741D01*
X020764Y012819D02*
X020671Y012819D01*
X020671Y012898D02*
X020764Y012898D01*
X020764Y012976D02*
X020671Y012976D01*
X020602Y013055D02*
X020764Y013055D01*
X020764Y013133D02*
X020524Y013133D01*
X020445Y013212D02*
X020764Y013212D01*
X020764Y013291D02*
X020367Y013291D01*
X020288Y013369D02*
X020764Y013369D01*
X020764Y013448D02*
X020210Y013448D01*
X020131Y013526D02*
X020764Y013526D01*
X020796Y013605D02*
X020053Y013605D01*
X019974Y013683D02*
X020828Y013683D01*
X020903Y013762D02*
X019895Y013762D01*
X019817Y013840D02*
X021021Y013840D01*
X021381Y013840D02*
X021695Y013840D01*
X021773Y013762D02*
X021499Y013762D01*
X021574Y013683D02*
X021828Y013683D01*
X021796Y013605D02*
X021606Y013605D01*
X021638Y013526D02*
X021764Y013526D01*
X021764Y013448D02*
X021638Y013448D01*
X021638Y013369D02*
X021764Y013369D01*
X021764Y013291D02*
X021638Y013291D01*
X021638Y013212D02*
X021764Y013212D01*
X021764Y013133D02*
X021638Y013133D01*
X021638Y013055D02*
X021764Y013055D01*
X021764Y012976D02*
X021638Y012976D01*
X021638Y012898D02*
X021764Y012898D01*
X021764Y012819D02*
X021638Y012819D01*
X021629Y012741D02*
X021773Y012741D01*
X021805Y012662D02*
X021608Y012662D01*
X021687Y012584D02*
X021848Y012584D01*
X021926Y012505D02*
X021765Y012505D01*
X022476Y012505D02*
X022930Y012505D01*
X022853Y012584D02*
X022554Y012584D01*
X022597Y012662D02*
X022806Y012662D01*
X022777Y012741D02*
X022629Y012741D01*
X022638Y012819D02*
X022764Y012819D01*
X022764Y012898D02*
X022638Y012898D01*
X022638Y012976D02*
X022764Y012976D01*
X022764Y013055D02*
X022638Y013055D01*
X022638Y013133D02*
X023161Y013133D01*
X023161Y013185D02*
X022764Y013185D01*
X022764Y013476D01*
X022775Y013544D01*
X022796Y013610D01*
X022827Y013671D01*
X022868Y013726D01*
X022916Y013775D01*
X022972Y013815D01*
X023033Y013847D01*
X023099Y013868D01*
X023161Y013878D01*
X023161Y013185D01*
X023161Y013212D02*
X023241Y013212D01*
X023241Y013185D02*
X023241Y013878D01*
X023303Y013868D01*
X023369Y013847D01*
X023430Y013815D01*
X023486Y013775D01*
X023534Y013726D01*
X023575Y013671D01*
X023606Y013610D01*
X023627Y013544D01*
X023638Y013476D01*
X023638Y013185D01*
X023241Y013185D01*
X023241Y013133D02*
X024764Y013133D01*
X024764Y013055D02*
X023638Y013055D01*
X023638Y012976D02*
X024764Y012976D01*
X024764Y012898D02*
X023638Y012898D01*
X023638Y012819D02*
X024764Y012819D01*
X024773Y012741D02*
X023625Y012741D01*
X023597Y012662D02*
X024805Y012662D01*
X024848Y012584D02*
X023549Y012584D01*
X023472Y012505D02*
X024901Y012505D01*
X024764Y013212D02*
X023638Y013212D01*
X023638Y013291D02*
X024764Y013291D01*
X024764Y013369D02*
X023638Y013369D01*
X023638Y013448D02*
X024764Y013448D01*
X024764Y013526D02*
X023630Y013526D01*
X023608Y013605D02*
X024796Y013605D01*
X024828Y013683D02*
X023566Y013683D01*
X023499Y013762D02*
X024903Y013762D01*
X025021Y013840D02*
X023381Y013840D01*
X023241Y013840D02*
X023161Y013840D01*
X023161Y013762D02*
X023241Y013762D01*
X023241Y013683D02*
X023161Y013683D01*
X023161Y013605D02*
X023241Y013605D01*
X023241Y013526D02*
X023161Y013526D01*
X023161Y013448D02*
X023241Y013448D01*
X023241Y013369D02*
X023161Y013369D01*
X023161Y013291D02*
X023241Y013291D01*
X022764Y013291D02*
X022638Y013291D01*
X022638Y013369D02*
X022764Y013369D01*
X022764Y013448D02*
X022638Y013448D01*
X022638Y013526D02*
X022772Y013526D01*
X022795Y013605D02*
X022606Y013605D01*
X022574Y013683D02*
X022836Y013683D01*
X022903Y013762D02*
X022499Y013762D01*
X022381Y013840D02*
X023021Y013840D01*
X022764Y013212D02*
X022638Y013212D01*
X021616Y013919D02*
X019753Y013919D01*
X019656Y013997D02*
X020038Y013997D01*
X019959Y014076D02*
X018341Y014076D01*
X018341Y014154D02*
X019881Y014154D01*
X019802Y014233D02*
X018341Y014233D01*
X018341Y014312D02*
X018709Y014312D01*
X018630Y014390D02*
X018341Y014390D01*
X018301Y014469D02*
X018581Y014469D01*
X018747Y013997D02*
X018341Y013997D01*
X018341Y013919D02*
X018649Y013919D01*
X018589Y013840D02*
X018341Y013840D01*
X018331Y013762D02*
X018557Y013762D01*
X018541Y013683D02*
X018252Y013683D01*
X018244Y013605D02*
X018541Y013605D01*
X018557Y013526D02*
X018323Y013526D01*
X018341Y013448D02*
X018590Y013448D01*
X018651Y013369D02*
X018341Y013369D01*
X018341Y013291D02*
X018752Y013291D01*
X018707Y012976D02*
X018215Y012976D01*
X018284Y012898D02*
X018628Y012898D01*
X018580Y012819D02*
X018341Y012819D01*
X018341Y012741D02*
X018548Y012741D01*
X018541Y012662D02*
X018341Y012662D01*
X018341Y012584D02*
X018541Y012584D01*
X018566Y012505D02*
X018341Y012505D01*
X018341Y012427D02*
X018599Y012427D01*
X018672Y012348D02*
X018341Y012348D01*
X018341Y012269D02*
X018803Y012269D01*
X018341Y012191D02*
X019731Y012191D01*
X019731Y012269D02*
X019600Y012269D01*
X019731Y012112D02*
X018287Y012112D01*
X018341Y012034D02*
X018835Y012034D01*
X018686Y011955D02*
X018341Y011955D01*
X018341Y011877D02*
X018607Y011877D01*
X018572Y011798D02*
X018341Y011798D01*
X018341Y011720D02*
X018541Y011720D01*
X018541Y011641D02*
X018341Y011641D01*
X018341Y011563D02*
X018542Y011563D01*
X018575Y011484D02*
X018341Y011484D01*
X018341Y011405D02*
X018615Y011405D01*
X018694Y011327D02*
X018268Y011327D01*
X018014Y011327D02*
X017786Y011327D01*
X017863Y011405D02*
X017941Y011405D01*
X017940Y011484D02*
X017941Y011484D01*
X017688Y011798D02*
X017647Y011798D01*
X017726Y011877D02*
X017765Y011877D01*
X017741Y011955D02*
X017842Y011955D01*
X017919Y012034D02*
X017741Y012034D01*
X017687Y012112D02*
X017996Y012112D01*
X017941Y012191D02*
X015558Y012191D01*
X015480Y012112D02*
X017396Y012112D01*
X017317Y012034D02*
X016568Y012034D01*
X016716Y011955D02*
X017239Y011955D01*
X017211Y011877D02*
X016795Y011877D01*
X016831Y011798D02*
X017211Y011798D01*
X017211Y011720D02*
X016861Y011720D01*
X016861Y011641D02*
X017211Y011641D01*
X017211Y011563D02*
X016860Y011563D01*
X016827Y011484D02*
X017249Y011484D01*
X017328Y011405D02*
X016787Y011405D01*
X016709Y011327D02*
X017406Y011327D01*
X016807Y010856D02*
X018595Y010856D01*
X018602Y010872D02*
X018541Y010725D01*
X018541Y010565D01*
X018602Y010418D01*
X018714Y010306D01*
X018861Y010245D01*
X019541Y010245D01*
X019688Y010306D01*
X019708Y010327D01*
X019981Y010054D01*
X019981Y008236D01*
X019981Y008054D01*
X020731Y007304D01*
X020860Y007175D01*
X021360Y007175D01*
X021838Y006697D01*
X021831Y006689D01*
X021764Y006529D01*
X021764Y005761D01*
X021831Y005601D01*
X021954Y005478D01*
X022114Y005411D01*
X022288Y005411D01*
X022449Y005478D01*
X022571Y005601D01*
X022638Y005761D01*
X022638Y006529D01*
X022571Y006689D01*
X022449Y006812D01*
X022288Y006879D01*
X022279Y006879D01*
X021542Y007615D01*
X021360Y007615D01*
X021042Y007615D01*
X020421Y008236D01*
X020421Y010236D01*
X020292Y010365D01*
X019810Y010847D01*
X019800Y010872D01*
X019688Y010984D01*
X019541Y011045D01*
X018861Y011045D01*
X018714Y010984D01*
X018602Y010872D01*
X018665Y010934D02*
X016738Y010934D01*
X016619Y011013D02*
X018784Y011013D01*
X018853Y011248D02*
X016549Y011248D01*
X016839Y010777D02*
X018563Y010777D01*
X018541Y010699D02*
X016861Y010699D01*
X016861Y010620D02*
X018541Y010620D01*
X018551Y010541D02*
X016851Y010541D01*
X016819Y010463D02*
X018584Y010463D01*
X018636Y010384D02*
X016766Y010384D01*
X016687Y010306D02*
X018715Y010306D01*
X018861Y010045D02*
X018714Y009984D01*
X018602Y009872D01*
X018541Y009725D01*
X018541Y009565D01*
X018602Y009418D01*
X018714Y009306D01*
X018861Y009245D01*
X019541Y009245D01*
X019688Y009306D01*
X019800Y009418D01*
X019861Y009565D01*
X019861Y009725D01*
X019800Y009872D01*
X019688Y009984D01*
X019541Y010045D01*
X018861Y010045D01*
X018733Y009992D02*
X016669Y009992D01*
X016759Y009913D02*
X018644Y009913D01*
X018587Y009835D02*
X016823Y009835D01*
X016901Y009756D02*
X018554Y009756D01*
X018541Y009678D02*
X016980Y009678D01*
X017058Y009599D02*
X018541Y009599D01*
X018560Y009520D02*
X017137Y009520D01*
X017215Y009442D02*
X018592Y009442D01*
X018657Y009363D02*
X017294Y009363D01*
X017372Y009285D02*
X018766Y009285D01*
X018861Y009045D02*
X018714Y008984D01*
X018602Y008872D01*
X018541Y008725D01*
X018541Y008565D01*
X018602Y008418D01*
X018714Y008306D01*
X018861Y008245D01*
X019541Y008245D01*
X019688Y008306D01*
X019800Y008418D01*
X019861Y008565D01*
X019861Y008725D01*
X019800Y008872D01*
X019688Y008984D01*
X019541Y009045D01*
X018861Y009045D01*
X018701Y008971D02*
X017687Y008971D01*
X017765Y008892D02*
X018622Y008892D01*
X018578Y008814D02*
X017844Y008814D01*
X017922Y008735D02*
X018545Y008735D01*
X018541Y008656D02*
X018001Y008656D01*
X018079Y008578D02*
X018541Y008578D01*
X018568Y008499D02*
X018158Y008499D01*
X018236Y008421D02*
X018601Y008421D01*
X018678Y008342D02*
X018315Y008342D01*
X018393Y008264D02*
X018816Y008264D01*
X018821Y008028D02*
X018629Y008028D01*
X018551Y008107D02*
X019981Y008107D01*
X019981Y008185D02*
X018472Y008185D01*
X018164Y007871D02*
X016800Y007871D01*
X016833Y007792D02*
X018243Y007792D01*
X018321Y007714D02*
X016861Y007714D01*
X016861Y007635D02*
X018400Y007635D01*
X018478Y007557D02*
X016857Y007557D01*
X016825Y007478D02*
X018557Y007478D01*
X018621Y007400D02*
X016781Y007400D01*
X016703Y007321D02*
X018699Y007321D01*
X018824Y007030D02*
X018752Y006999D01*
X018686Y006956D01*
X018630Y006900D01*
X018587Y006834D01*
X018556Y006762D01*
X018541Y006685D01*
X019161Y006685D01*
X019161Y007045D01*
X018902Y007045D01*
X018824Y007030D01*
X018770Y007007D02*
X016632Y007007D01*
X016743Y006929D02*
X018659Y006929D01*
X018597Y006850D02*
X017307Y006850D01*
X017386Y006771D02*
X018561Y006771D01*
X018543Y006693D02*
X017464Y006693D01*
X017543Y006614D02*
X019161Y006614D01*
X019161Y006536D02*
X019241Y006536D01*
X019241Y006457D02*
X019161Y006457D01*
X019161Y006379D02*
X019241Y006379D01*
X019241Y006300D02*
X019161Y006300D01*
X019161Y005986D02*
X019241Y005986D01*
X019241Y005907D02*
X019161Y005907D01*
X019161Y005829D02*
X019241Y005829D01*
X019241Y005593D02*
X019161Y005593D01*
X019161Y005515D02*
X019241Y005515D01*
X019241Y005436D02*
X019161Y005436D01*
X019161Y005358D02*
X019241Y005358D01*
X019241Y005279D02*
X019161Y005279D01*
X019161Y005045D02*
X018902Y005045D01*
X018824Y005030D01*
X018752Y004999D01*
X018686Y004956D01*
X018630Y004900D01*
X018587Y004834D01*
X018556Y004762D01*
X018541Y004685D01*
X019161Y004685D01*
X019161Y004605D01*
X018541Y004605D01*
X018556Y004528D01*
X018587Y004456D01*
X018630Y004390D01*
X018686Y004334D01*
X018752Y004291D01*
X018824Y004260D01*
X018902Y004245D01*
X019161Y004245D01*
X019161Y004605D01*
X019241Y004605D01*
X019241Y004245D01*
X019501Y004245D01*
X019578Y004260D01*
X019651Y004291D01*
X019716Y004334D01*
X019772Y004390D01*
X019816Y004456D01*
X019846Y004528D01*
X019861Y004605D01*
X019241Y004605D01*
X019241Y004685D01*
X019161Y004685D01*
X019161Y005045D01*
X019161Y005043D02*
X019241Y005043D01*
X019241Y005045D02*
X019241Y004685D01*
X019861Y004685D01*
X019846Y004762D01*
X019816Y004834D01*
X019772Y004900D01*
X019716Y004956D01*
X019651Y004999D01*
X019578Y005030D01*
X019501Y005045D01*
X019241Y005045D01*
X019241Y004965D02*
X019161Y004965D01*
X019161Y004886D02*
X019241Y004886D01*
X019241Y004808D02*
X019161Y004808D01*
X019161Y004729D02*
X019241Y004729D01*
X019241Y004651D02*
X020901Y004651D01*
X020901Y004729D02*
X019852Y004729D01*
X019827Y004808D02*
X020901Y004808D01*
X020901Y004886D02*
X019781Y004886D01*
X019702Y004965D02*
X020901Y004965D01*
X020901Y005043D02*
X019508Y005043D01*
X019623Y005279D02*
X020001Y005279D01*
X019923Y005358D02*
X019739Y005358D01*
X019803Y005436D02*
X019844Y005436D01*
X020161Y005436D02*
X020241Y005436D01*
X020241Y005358D02*
X020161Y005358D01*
X020161Y005279D02*
X020241Y005279D01*
X020241Y005515D02*
X020161Y005515D01*
X020161Y005593D02*
X020241Y005593D01*
X020901Y005122D02*
X018421Y005122D01*
X018421Y005043D02*
X018894Y005043D01*
X018700Y004965D02*
X018421Y004965D01*
X018421Y004886D02*
X018621Y004886D01*
X018576Y004808D02*
X018421Y004808D01*
X018421Y004729D02*
X018550Y004729D01*
X018421Y004651D02*
X019161Y004651D01*
X019161Y004572D02*
X019241Y004572D01*
X019241Y004494D02*
X019161Y004494D01*
X019161Y004415D02*
X019241Y004415D01*
X019241Y004337D02*
X019161Y004337D01*
X019161Y004258D02*
X019241Y004258D01*
X019566Y004258D02*
X020901Y004258D01*
X020901Y004179D02*
X018421Y004179D01*
X018421Y004101D02*
X020901Y004101D01*
X020927Y004022D02*
X018421Y004022D01*
X018421Y003944D02*
X020978Y003944D01*
X021057Y003865D02*
X018421Y003865D01*
X018421Y003787D02*
X021135Y003787D01*
X021214Y003708D02*
X018449Y003708D01*
X018528Y003630D02*
X021292Y003630D01*
X021371Y003551D02*
X018606Y003551D01*
X018685Y003473D02*
X021449Y003473D01*
X021528Y003394D02*
X018763Y003394D01*
X017981Y003708D02*
X017949Y003708D01*
X017921Y003787D02*
X017981Y003787D01*
X017981Y003865D02*
X017921Y003865D01*
X017921Y003944D02*
X017981Y003944D01*
X017981Y004022D02*
X017921Y004022D01*
X017921Y004101D02*
X017981Y004101D01*
X017981Y004179D02*
X017921Y004179D01*
X017921Y004258D02*
X017981Y004258D01*
X017981Y004337D02*
X017921Y004337D01*
X017921Y004415D02*
X017981Y004415D01*
X017981Y004494D02*
X017921Y004494D01*
X017921Y004572D02*
X017981Y004572D01*
X017981Y004651D02*
X017921Y004651D01*
X017921Y004729D02*
X017981Y004729D01*
X017981Y004808D02*
X017921Y004808D01*
X017921Y004886D02*
X017981Y004886D01*
X017981Y004965D02*
X017921Y004965D01*
X017921Y005043D02*
X017981Y005043D01*
X017981Y005122D02*
X017921Y005122D01*
X017921Y005201D02*
X017981Y005201D01*
X017981Y005279D02*
X017878Y005279D01*
X017800Y005358D02*
X017981Y005358D01*
X017981Y005436D02*
X017721Y005436D01*
X017413Y005122D02*
X012501Y005122D01*
X012501Y005043D02*
X015858Y005043D01*
X015695Y004965D02*
X012501Y004965D01*
X012501Y004886D02*
X015617Y004886D01*
X015576Y004808D02*
X012501Y004808D01*
X012501Y004729D02*
X015543Y004729D01*
X015541Y004651D02*
X012501Y004651D01*
X012501Y004572D02*
X015541Y004572D01*
X015571Y004494D02*
X012501Y004494D01*
X012501Y004415D02*
X015605Y004415D01*
X015684Y004337D02*
X012501Y004337D01*
X012501Y004258D02*
X015830Y004258D01*
X016739Y005358D02*
X017177Y005358D01*
X017235Y006300D02*
X016674Y006300D01*
X016760Y006379D02*
X017156Y006379D01*
X017621Y006536D02*
X018555Y006536D01*
X018586Y006457D02*
X017700Y006457D01*
X017779Y006379D02*
X018642Y006379D01*
X018737Y006300D02*
X017857Y006300D01*
X019161Y006693D02*
X019241Y006693D01*
X019241Y006771D02*
X019161Y006771D01*
X019161Y006850D02*
X019241Y006850D01*
X019241Y006929D02*
X019161Y006929D01*
X019161Y007007D02*
X019241Y007007D01*
X019943Y007714D02*
X020321Y007714D01*
X020243Y007792D02*
X019865Y007792D01*
X019800Y007871D02*
X020164Y007871D01*
X020085Y007950D02*
X019722Y007950D01*
X019581Y008028D02*
X020007Y008028D01*
X019981Y008264D02*
X019586Y008264D01*
X019724Y008342D02*
X019981Y008342D01*
X019981Y008421D02*
X019801Y008421D01*
X019834Y008499D02*
X019981Y008499D01*
X019981Y008578D02*
X019861Y008578D01*
X019861Y008656D02*
X019981Y008656D01*
X019981Y008735D02*
X019857Y008735D01*
X019824Y008814D02*
X019981Y008814D01*
X019981Y008892D02*
X019780Y008892D01*
X019701Y008971D02*
X019981Y008971D01*
X019981Y009049D02*
X017608Y009049D01*
X017529Y009128D02*
X019981Y009128D01*
X019981Y009206D02*
X017451Y009206D01*
X016907Y009128D02*
X015421Y009128D01*
X015421Y009206D02*
X016829Y009206D01*
X016750Y009285D02*
X016637Y009285D01*
X016241Y008971D02*
X016161Y008971D01*
X016161Y008892D02*
X016241Y008892D01*
X016241Y008814D02*
X016161Y008814D01*
X016161Y008735D02*
X016241Y008735D01*
X016241Y008499D02*
X016161Y008499D01*
X016161Y008421D02*
X016241Y008421D01*
X016241Y008342D02*
X016161Y008342D01*
X016161Y008264D02*
X016241Y008264D01*
X016586Y008264D02*
X017771Y008264D01*
X017693Y008342D02*
X016724Y008342D01*
X016792Y008421D02*
X017614Y008421D01*
X017536Y008499D02*
X016834Y008499D01*
X016856Y008578D02*
X017457Y008578D01*
X018007Y008028D02*
X016581Y008028D01*
X016722Y007950D02*
X018085Y007950D01*
X020022Y007635D02*
X020400Y007635D01*
X020478Y007557D02*
X020100Y007557D01*
X020179Y007478D02*
X020557Y007478D01*
X020635Y007400D02*
X020257Y007400D01*
X020336Y007321D02*
X020714Y007321D01*
X020792Y007243D02*
X020415Y007243D01*
X020421Y007164D02*
X021371Y007164D01*
X021449Y007086D02*
X020421Y007086D01*
X020421Y007007D02*
X021528Y007007D01*
X021606Y006929D02*
X020483Y006929D01*
X020562Y006850D02*
X021045Y006850D01*
X020913Y006771D02*
X020601Y006771D01*
X020601Y006693D02*
X020834Y006693D01*
X020800Y006614D02*
X020601Y006614D01*
X020621Y006536D02*
X020767Y006536D01*
X020764Y006457D02*
X020700Y006457D01*
X021357Y006850D02*
X021685Y006850D01*
X021764Y006771D02*
X021489Y006771D01*
X021568Y006693D02*
X021834Y006693D01*
X021800Y006614D02*
X021603Y006614D01*
X021635Y006536D02*
X021767Y006536D01*
X021764Y006457D02*
X021638Y006457D01*
X021638Y006379D02*
X021764Y006379D01*
X021764Y006300D02*
X021638Y006300D01*
X021638Y006222D02*
X021764Y006222D01*
X021764Y006143D02*
X021638Y006143D01*
X021638Y006065D02*
X021764Y006065D01*
X021764Y005986D02*
X021638Y005986D01*
X021638Y005907D02*
X021764Y005907D01*
X021764Y005829D02*
X021638Y005829D01*
X021633Y005750D02*
X021769Y005750D01*
X021801Y005672D02*
X021601Y005672D01*
X021564Y005593D02*
X021838Y005593D01*
X021917Y005515D02*
X021501Y005515D01*
X021501Y005436D02*
X022054Y005436D01*
X022348Y005436D02*
X023055Y005436D01*
X023033Y005443D02*
X023099Y005422D01*
X023161Y005412D01*
X023161Y006105D01*
X022764Y006105D01*
X022764Y005814D01*
X022775Y005746D01*
X022796Y005680D01*
X022827Y005619D01*
X022868Y005564D01*
X022916Y005515D01*
X022972Y005475D01*
X023033Y005443D01*
X023161Y005436D02*
X023241Y005436D01*
X023241Y005412D02*
X023303Y005422D01*
X023369Y005443D01*
X023430Y005475D01*
X023486Y005515D01*
X023534Y005564D01*
X023575Y005619D01*
X023606Y005680D01*
X023627Y005746D01*
X023638Y005814D01*
X023638Y006105D01*
X023241Y006105D01*
X023241Y005412D01*
X023241Y005515D02*
X023161Y005515D01*
X023161Y005593D02*
X023241Y005593D01*
X023241Y005672D02*
X023161Y005672D01*
X023161Y005750D02*
X023241Y005750D01*
X023241Y005829D02*
X023161Y005829D01*
X023161Y005907D02*
X023241Y005907D01*
X023241Y005986D02*
X023161Y005986D01*
X023161Y006065D02*
X023241Y006065D01*
X023241Y006105D02*
X023161Y006105D01*
X023161Y006185D01*
X022764Y006185D01*
X022764Y006476D01*
X022775Y006544D01*
X022796Y006610D01*
X022827Y006671D01*
X022868Y006726D01*
X022916Y006775D01*
X022972Y006815D01*
X023033Y006847D01*
X023099Y006868D01*
X023161Y006878D01*
X023161Y006185D01*
X023241Y006185D01*
X023241Y006878D01*
X023303Y006868D01*
X023369Y006847D01*
X023430Y006815D01*
X023486Y006775D01*
X023534Y006726D01*
X023575Y006671D01*
X023606Y006610D01*
X023627Y006544D01*
X023638Y006476D01*
X023638Y006185D01*
X023241Y006185D01*
X023241Y006105D01*
X023241Y006143D02*
X024764Y006143D01*
X024764Y006065D02*
X023638Y006065D01*
X023638Y005986D02*
X024764Y005986D01*
X024764Y005907D02*
X023638Y005907D01*
X023638Y005829D02*
X024764Y005829D01*
X024769Y005750D02*
X023628Y005750D01*
X023601Y005672D02*
X024801Y005672D01*
X024838Y005593D02*
X023556Y005593D01*
X023485Y005515D02*
X024901Y005515D01*
X024901Y005436D02*
X023347Y005436D01*
X022917Y005515D02*
X022485Y005515D01*
X022564Y005593D02*
X022846Y005593D01*
X022801Y005672D02*
X022601Y005672D01*
X022633Y005750D02*
X022774Y005750D01*
X022764Y005829D02*
X022638Y005829D01*
X022638Y005907D02*
X022764Y005907D01*
X022764Y005986D02*
X022638Y005986D01*
X022638Y006065D02*
X022764Y006065D01*
X022638Y006143D02*
X023161Y006143D01*
X023161Y006222D02*
X023241Y006222D01*
X023241Y006300D02*
X023161Y006300D01*
X023161Y006379D02*
X023241Y006379D01*
X023241Y006457D02*
X023161Y006457D01*
X023161Y006536D02*
X023241Y006536D01*
X023241Y006614D02*
X023161Y006614D01*
X023161Y006693D02*
X023241Y006693D01*
X023241Y006771D02*
X023161Y006771D01*
X023161Y006850D02*
X023241Y006850D01*
X023359Y006850D02*
X025045Y006850D01*
X024913Y006771D02*
X023489Y006771D01*
X023559Y006693D02*
X024834Y006693D01*
X024800Y006614D02*
X023604Y006614D01*
X023629Y006536D02*
X024767Y006536D01*
X024764Y006457D02*
X023638Y006457D01*
X023638Y006379D02*
X024764Y006379D01*
X024764Y006300D02*
X023638Y006300D01*
X023638Y006222D02*
X024764Y006222D01*
X025357Y006850D02*
X025981Y006850D01*
X025981Y006929D02*
X022229Y006929D01*
X022150Y007007D02*
X025981Y007007D01*
X025949Y007086D02*
X022072Y007086D01*
X021993Y007164D02*
X025871Y007164D01*
X025792Y007243D02*
X021915Y007243D01*
X021836Y007321D02*
X025714Y007321D01*
X025635Y007400D02*
X021757Y007400D01*
X021679Y007478D02*
X025557Y007478D01*
X025478Y007557D02*
X021600Y007557D01*
X021022Y007635D02*
X025400Y007635D01*
X025321Y007714D02*
X020943Y007714D01*
X020865Y007792D02*
X025243Y007792D01*
X025164Y007871D02*
X020786Y007871D01*
X020708Y007950D02*
X021085Y007950D01*
X021007Y008028D02*
X020629Y008028D01*
X020551Y008107D02*
X020928Y008107D01*
X020850Y008185D02*
X020472Y008185D01*
X020421Y008264D02*
X020771Y008264D01*
X020693Y008342D02*
X020421Y008342D01*
X020421Y008421D02*
X020614Y008421D01*
X020536Y008499D02*
X020421Y008499D01*
X020421Y008578D02*
X020481Y008578D01*
X020481Y008656D02*
X020421Y008656D01*
X020421Y008735D02*
X020481Y008735D01*
X020481Y008814D02*
X020421Y008814D01*
X020421Y008892D02*
X020481Y008892D01*
X020481Y008971D02*
X020421Y008971D01*
X020421Y009049D02*
X020481Y009049D01*
X020481Y009128D02*
X020421Y009128D01*
X020421Y009206D02*
X020481Y009206D01*
X020481Y009285D02*
X020421Y009285D01*
X020421Y009363D02*
X020481Y009363D01*
X020481Y009442D02*
X020421Y009442D01*
X020421Y009520D02*
X020481Y009520D01*
X020481Y009599D02*
X020421Y009599D01*
X020421Y009678D02*
X020481Y009678D01*
X020481Y009756D02*
X020421Y009756D01*
X020421Y009835D02*
X020481Y009835D01*
X020481Y009913D02*
X020421Y009913D01*
X020421Y009992D02*
X020481Y009992D01*
X020481Y010070D02*
X020421Y010070D01*
X020421Y010149D02*
X020481Y010149D01*
X020481Y010227D02*
X020421Y010227D01*
X020481Y010306D02*
X020351Y010306D01*
X020273Y010384D02*
X020481Y010384D01*
X020481Y010463D02*
X020194Y010463D01*
X020116Y010541D02*
X020481Y010541D01*
X020415Y010620D02*
X020037Y010620D01*
X019959Y010699D02*
X020336Y010699D01*
X020258Y010777D02*
X019880Y010777D01*
X019807Y010856D02*
X020179Y010856D01*
X020101Y010934D02*
X019738Y010934D01*
X019619Y011013D02*
X020022Y011013D01*
X019944Y011091D02*
X015458Y011091D01*
X015380Y011013D02*
X015784Y011013D01*
X015665Y010934D02*
X015301Y010934D01*
X015223Y010856D02*
X015595Y010856D01*
X015522Y010777D02*
X015144Y010777D01*
X015066Y010699D02*
X015444Y010699D01*
X015365Y010620D02*
X014987Y010620D01*
X014921Y010541D02*
X015286Y010541D01*
X015208Y010463D02*
X014921Y010463D01*
X014921Y010384D02*
X015129Y010384D01*
X015051Y010306D02*
X014921Y010306D01*
X014921Y010227D02*
X014981Y010227D01*
X014981Y010149D02*
X014921Y010149D01*
X014921Y010070D02*
X014981Y010070D01*
X014981Y009992D02*
X014921Y009992D01*
X014921Y009913D02*
X014981Y009913D01*
X014981Y009835D02*
X014921Y009835D01*
X014921Y009756D02*
X014981Y009756D01*
X014981Y009678D02*
X014921Y009678D01*
X014921Y009599D02*
X014981Y009599D01*
X014981Y009520D02*
X014921Y009520D01*
X014921Y009442D02*
X014981Y009442D01*
X014981Y009363D02*
X014921Y009363D01*
X014921Y009285D02*
X014981Y009285D01*
X014981Y009206D02*
X014921Y009206D01*
X014921Y009128D02*
X014981Y009128D01*
X014981Y009049D02*
X014921Y009049D01*
X014921Y008971D02*
X014981Y008971D01*
X014981Y008892D02*
X014921Y008892D01*
X014921Y008814D02*
X014981Y008814D01*
X014981Y008735D02*
X014921Y008735D01*
X014480Y008735D02*
X012215Y008735D01*
X012137Y008656D02*
X014401Y008656D01*
X014323Y008578D02*
X012058Y008578D01*
X011980Y008499D02*
X014244Y008499D01*
X014166Y008421D02*
X011901Y008421D01*
X012294Y008814D02*
X014481Y008814D01*
X014481Y008892D02*
X012372Y008892D01*
X012451Y008971D02*
X012971Y008971D01*
X012882Y009049D02*
X012520Y009049D01*
X012583Y009128D02*
X012820Y009128D01*
X012787Y009206D02*
X012615Y009206D01*
X012638Y009285D02*
X012764Y009285D01*
X012764Y009363D02*
X012638Y009363D01*
X012638Y009442D02*
X012764Y009442D01*
X012764Y009520D02*
X012638Y009520D01*
X012638Y009599D02*
X012764Y009599D01*
X012764Y009678D02*
X012638Y009678D01*
X012638Y009756D02*
X012764Y009756D01*
X012764Y009835D02*
X012638Y009835D01*
X012638Y009913D02*
X012764Y009913D01*
X012764Y009992D02*
X012638Y009992D01*
X012621Y010070D02*
X012781Y010070D01*
X012814Y010149D02*
X012588Y010149D01*
X012533Y010227D02*
X012869Y010227D01*
X012947Y010306D02*
X012455Y010306D01*
X011947Y010306D02*
X010443Y010306D01*
X010430Y010315D02*
X010369Y010347D01*
X010303Y010368D01*
X010241Y010378D01*
X010241Y009685D01*
X010638Y009685D01*
X010638Y009976D01*
X010627Y010044D01*
X010606Y010110D01*
X010575Y010171D01*
X010534Y010226D01*
X010486Y010275D01*
X010430Y010315D01*
X010533Y010227D02*
X011869Y010227D01*
X011814Y010149D02*
X010586Y010149D01*
X010619Y010070D02*
X011781Y010070D01*
X011764Y009992D02*
X010635Y009992D01*
X010638Y009913D02*
X011764Y009913D01*
X011764Y009835D02*
X010638Y009835D01*
X010638Y009756D02*
X011764Y009756D01*
X011764Y009678D02*
X010241Y009678D01*
X010241Y009756D02*
X010161Y009756D01*
X010161Y009685D02*
X010161Y010378D01*
X010099Y010368D01*
X010033Y010347D01*
X009972Y010315D01*
X009916Y010275D01*
X009868Y010226D01*
X009827Y010171D01*
X009796Y010110D01*
X009775Y010044D01*
X009764Y009976D01*
X009764Y009685D01*
X010161Y009685D01*
X010161Y009678D02*
X009638Y009678D01*
X009638Y009756D02*
X009764Y009756D01*
X009764Y009835D02*
X009638Y009835D01*
X009638Y009913D02*
X009764Y009913D01*
X009767Y009992D02*
X009638Y009992D01*
X009621Y010070D02*
X009784Y010070D01*
X009816Y010149D02*
X009588Y010149D01*
X009533Y010227D02*
X009869Y010227D01*
X009959Y010306D02*
X009455Y010306D01*
X009421Y010384D02*
X013129Y010384D01*
X013208Y010463D02*
X009421Y010463D01*
X009421Y010541D02*
X013286Y010541D01*
X013365Y010620D02*
X009487Y010620D01*
X009566Y010699D02*
X013444Y010699D01*
X013522Y010777D02*
X009644Y010777D01*
X009723Y010856D02*
X013601Y010856D01*
X013752Y010384D02*
X014481Y010384D01*
X014481Y010306D02*
X014443Y010306D01*
X014481Y010463D02*
X014330Y010463D01*
X014409Y010541D02*
X014481Y010541D01*
X014241Y010306D02*
X014161Y010306D01*
X014161Y010378D02*
X014099Y010368D01*
X014033Y010347D01*
X013972Y010315D01*
X013916Y010275D01*
X013868Y010226D01*
X013827Y010171D01*
X013796Y010110D01*
X013775Y010044D01*
X013764Y009976D01*
X013764Y009685D01*
X014161Y009685D01*
X014161Y010378D01*
X014161Y010227D02*
X014241Y010227D01*
X014241Y010149D02*
X014161Y010149D01*
X014161Y010070D02*
X014241Y010070D01*
X014241Y009992D02*
X014161Y009992D01*
X014161Y009913D02*
X014241Y009913D01*
X014241Y009835D02*
X014161Y009835D01*
X014161Y009756D02*
X014241Y009756D01*
X014161Y009678D02*
X013638Y009678D01*
X013638Y009756D02*
X013764Y009756D01*
X013764Y009835D02*
X013638Y009835D01*
X013638Y009913D02*
X013764Y009913D01*
X013767Y009992D02*
X013638Y009992D01*
X013621Y010070D02*
X013784Y010070D01*
X013816Y010149D02*
X013588Y010149D01*
X013594Y010227D02*
X013869Y010227D01*
X013959Y010306D02*
X013673Y010306D01*
X013638Y009599D02*
X013764Y009599D01*
X013764Y009520D02*
X013638Y009520D01*
X013638Y009442D02*
X013764Y009442D01*
X013764Y009363D02*
X013638Y009363D01*
X013638Y009285D02*
X013769Y009285D01*
X013788Y009206D02*
X013615Y009206D01*
X013583Y009128D02*
X013823Y009128D01*
X013882Y009049D02*
X013520Y009049D01*
X013431Y008971D02*
X013980Y008971D01*
X014161Y008971D02*
X014241Y008971D01*
X014241Y009049D02*
X014161Y009049D01*
X014161Y009128D02*
X014241Y009128D01*
X014241Y009206D02*
X014161Y009206D01*
X014161Y009285D02*
X014241Y009285D01*
X014241Y009363D02*
X014161Y009363D01*
X014161Y009442D02*
X014241Y009442D01*
X014241Y009520D02*
X014161Y009520D01*
X014161Y009599D02*
X014241Y009599D01*
X014422Y008971D02*
X014481Y008971D01*
X015421Y009285D02*
X015766Y009285D01*
X015657Y009363D02*
X015421Y009363D01*
X015421Y009442D02*
X015592Y009442D01*
X015560Y009520D02*
X015421Y009520D01*
X015421Y009599D02*
X015541Y009599D01*
X015541Y009678D02*
X015421Y009678D01*
X015421Y009756D02*
X015554Y009756D01*
X015587Y009835D02*
X015421Y009835D01*
X015421Y009913D02*
X015644Y009913D01*
X015733Y009992D02*
X015421Y009992D01*
X015437Y010070D02*
X019965Y010070D01*
X019981Y009992D02*
X019669Y009992D01*
X019759Y009913D02*
X019981Y009913D01*
X019981Y009835D02*
X019816Y009835D01*
X019848Y009756D02*
X019981Y009756D01*
X019981Y009678D02*
X019861Y009678D01*
X019861Y009599D02*
X019981Y009599D01*
X019981Y009520D02*
X019842Y009520D01*
X019810Y009442D02*
X019981Y009442D01*
X019981Y009363D02*
X019745Y009363D01*
X019637Y009285D02*
X019981Y009285D01*
X019886Y010149D02*
X015516Y010149D01*
X015594Y010227D02*
X019808Y010227D01*
X019729Y010306D02*
X019687Y010306D01*
X019865Y011170D02*
X015537Y011170D01*
X015616Y011248D02*
X015853Y011248D01*
X015465Y011720D02*
X015421Y011720D01*
X015421Y011798D02*
X015543Y011798D01*
X015607Y011877D02*
X015421Y011877D01*
X015421Y011955D02*
X015686Y011955D01*
X015835Y012034D02*
X015421Y012034D01*
X014981Y012034D02*
X014901Y012034D01*
X014921Y012112D02*
X014981Y012112D01*
X014981Y012191D02*
X014921Y012191D01*
X014921Y012269D02*
X015014Y012269D01*
X015093Y012348D02*
X014921Y012348D01*
X014921Y012427D02*
X015172Y012427D01*
X015250Y012505D02*
X014921Y012505D01*
X014951Y012584D02*
X015329Y012584D01*
X015407Y012662D02*
X015029Y012662D01*
X015108Y012741D02*
X015486Y012741D01*
X015564Y012819D02*
X015186Y012819D01*
X015265Y012898D02*
X015628Y012898D01*
X015707Y012976D02*
X015343Y012976D01*
X015422Y013055D02*
X017268Y013055D01*
X017221Y013133D02*
X015501Y013133D01*
X015579Y013212D02*
X017221Y013212D01*
X017221Y013291D02*
X016650Y013291D01*
X016751Y013369D02*
X017221Y013369D01*
X017221Y013448D02*
X016812Y013448D01*
X016845Y013526D02*
X017239Y013526D01*
X017318Y013605D02*
X016861Y013605D01*
X016861Y013683D02*
X017396Y013683D01*
X017341Y013762D02*
X016846Y013762D01*
X016813Y013840D02*
X017263Y013840D01*
X017211Y013919D02*
X016753Y013919D01*
X016656Y013997D02*
X017211Y013997D01*
X017211Y014076D02*
X013443Y014076D01*
X013421Y014054D02*
X013792Y014425D01*
X015599Y014425D01*
X015602Y014418D01*
X015714Y014306D01*
X015861Y014245D01*
X016541Y014245D01*
X016688Y014306D01*
X016800Y014418D01*
X016861Y014565D01*
X016861Y014725D01*
X016800Y014872D01*
X016688Y014984D01*
X016541Y015045D01*
X015861Y015045D01*
X015714Y014984D01*
X015602Y014872D01*
X015599Y014865D01*
X013792Y014865D01*
X013610Y014865D01*
X013110Y014365D01*
X012981Y014236D01*
X012981Y013824D01*
X012954Y013812D01*
X012831Y013689D01*
X012764Y013529D01*
X012764Y012761D01*
X012831Y012601D01*
X012954Y012478D01*
X013114Y012411D01*
X013288Y012411D01*
X013449Y012478D01*
X013571Y012601D01*
X013638Y012761D01*
X013638Y013529D01*
X013571Y013689D01*
X013449Y013812D01*
X013421Y013824D01*
X013421Y014054D01*
X013421Y013997D02*
X015747Y013997D01*
X015649Y013919D02*
X013421Y013919D01*
X013421Y013840D02*
X014021Y013840D01*
X014033Y013847D02*
X013972Y013815D01*
X013916Y013775D01*
X013868Y013726D01*
X013827Y013671D01*
X013796Y013610D01*
X013775Y013544D01*
X013764Y013476D01*
X013764Y013185D01*
X014161Y013185D01*
X014161Y013105D01*
X013764Y013105D01*
X013764Y012814D01*
X013775Y012746D01*
X013796Y012680D01*
X013827Y012619D01*
X013868Y012564D01*
X013916Y012515D01*
X013972Y012475D01*
X014033Y012443D01*
X014099Y012422D01*
X014161Y012412D01*
X014161Y013105D01*
X014241Y013105D01*
X014241Y013185D01*
X014161Y013185D01*
X014161Y013878D01*
X014099Y013868D01*
X014033Y013847D01*
X014161Y013840D02*
X014241Y013840D01*
X014241Y013878D02*
X014241Y013185D01*
X014638Y013185D01*
X014638Y013476D01*
X014627Y013544D01*
X014606Y013610D01*
X014575Y013671D01*
X014534Y013726D01*
X014486Y013775D01*
X014430Y013815D01*
X014369Y013847D01*
X014303Y013868D01*
X014241Y013878D01*
X014241Y013762D02*
X014161Y013762D01*
X014161Y013683D02*
X014241Y013683D01*
X014241Y013605D02*
X014161Y013605D01*
X014161Y013526D02*
X014241Y013526D01*
X014241Y013448D02*
X014161Y013448D01*
X014161Y013369D02*
X014241Y013369D01*
X014241Y013291D02*
X014161Y013291D01*
X014161Y013212D02*
X014241Y013212D01*
X014241Y013133D02*
X014878Y013133D01*
X014800Y013055D02*
X014638Y013055D01*
X014638Y012976D02*
X014721Y012976D01*
X014643Y012898D02*
X014638Y012898D01*
X014481Y012505D02*
X014472Y012505D01*
X014481Y012427D02*
X014317Y012427D01*
X014241Y012427D02*
X014161Y012427D01*
X014085Y012427D02*
X013325Y012427D01*
X013476Y012505D02*
X013930Y012505D01*
X013853Y012584D02*
X013554Y012584D01*
X013597Y012662D02*
X013806Y012662D01*
X013777Y012741D02*
X013629Y012741D01*
X013638Y012819D02*
X013764Y012819D01*
X013764Y012898D02*
X013638Y012898D01*
X013638Y012976D02*
X013764Y012976D01*
X013764Y013055D02*
X013638Y013055D01*
X013638Y013133D02*
X014161Y013133D01*
X014161Y013055D02*
X014241Y013055D01*
X014241Y012976D02*
X014161Y012976D01*
X014161Y012898D02*
X014241Y012898D01*
X014241Y012819D02*
X014161Y012819D01*
X014161Y012741D02*
X014241Y012741D01*
X014241Y012662D02*
X014161Y012662D01*
X014161Y012584D02*
X014241Y012584D01*
X014241Y012505D02*
X014161Y012505D01*
X014481Y012348D02*
X012328Y012348D01*
X012250Y012269D02*
X014481Y012269D01*
X014436Y012191D02*
X012171Y012191D01*
X012093Y012112D02*
X014357Y012112D01*
X014279Y012034D02*
X012014Y012034D01*
X011936Y011955D02*
X014200Y011955D01*
X014122Y011877D02*
X011837Y011877D01*
X012407Y012427D02*
X013077Y012427D01*
X012926Y012505D02*
X012476Y012505D01*
X012554Y012584D02*
X012848Y012584D01*
X012805Y012662D02*
X012597Y012662D01*
X012629Y012741D02*
X012773Y012741D01*
X012764Y012819D02*
X012638Y012819D01*
X012638Y012898D02*
X012764Y012898D01*
X012764Y012976D02*
X012638Y012976D01*
X012638Y013055D02*
X012764Y013055D01*
X012764Y013133D02*
X012638Y013133D01*
X012638Y013212D02*
X012764Y013212D01*
X012764Y013291D02*
X012638Y013291D01*
X012638Y013369D02*
X012764Y013369D01*
X012764Y013448D02*
X012638Y013448D01*
X012638Y013526D02*
X012764Y013526D01*
X012796Y013605D02*
X012606Y013605D01*
X012574Y013683D02*
X012828Y013683D01*
X012903Y013762D02*
X012499Y013762D01*
X012381Y013840D02*
X012981Y013840D01*
X012981Y013919D02*
X009421Y013919D01*
X009421Y013997D02*
X012981Y013997D01*
X012981Y014076D02*
X009443Y014076D01*
X009522Y014154D02*
X012981Y014154D01*
X012981Y014233D02*
X009600Y014233D01*
X009679Y014312D02*
X013057Y014312D01*
X013135Y014390D02*
X009757Y014390D01*
X009836Y014469D02*
X013214Y014469D01*
X013292Y014547D02*
X009914Y014547D01*
X009993Y014626D02*
X013371Y014626D01*
X013449Y014704D02*
X010071Y014704D01*
X010150Y014783D02*
X013528Y014783D01*
X013606Y014861D02*
X010229Y014861D01*
X010241Y013878D02*
X010241Y013185D01*
X010638Y013185D01*
X010638Y013476D01*
X010627Y013544D01*
X010606Y013610D01*
X010575Y013671D01*
X010534Y013726D01*
X010486Y013775D01*
X010430Y013815D01*
X010369Y013847D01*
X010303Y013868D01*
X010241Y013878D01*
X010241Y013840D02*
X010161Y013840D01*
X010161Y013878D02*
X010099Y013868D01*
X010033Y013847D01*
X009972Y013815D01*
X009916Y013775D01*
X009868Y013726D01*
X009827Y013671D01*
X009796Y013610D01*
X009775Y013544D01*
X009764Y013476D01*
X009764Y013185D01*
X010161Y013185D01*
X010161Y013878D01*
X010161Y013762D02*
X010241Y013762D01*
X010241Y013683D02*
X010161Y013683D01*
X010161Y013605D02*
X010241Y013605D01*
X010241Y013526D02*
X010161Y013526D01*
X010161Y013448D02*
X010241Y013448D01*
X010241Y013369D02*
X010161Y013369D01*
X010161Y013291D02*
X010241Y013291D01*
X010241Y013212D02*
X010161Y013212D01*
X010161Y013133D02*
X009638Y013133D01*
X009638Y013055D02*
X009764Y013055D01*
X009764Y012976D02*
X009638Y012976D01*
X009638Y012898D02*
X009764Y012898D01*
X009764Y012819D02*
X009638Y012819D01*
X009629Y012741D02*
X009777Y012741D01*
X009806Y012662D02*
X009597Y012662D01*
X009554Y012584D02*
X009853Y012584D01*
X009930Y012505D02*
X009476Y012505D01*
X010241Y013133D02*
X011764Y013133D01*
X011764Y013055D02*
X010638Y013055D01*
X010638Y012976D02*
X011764Y012976D01*
X011764Y012898D02*
X010638Y012898D01*
X010638Y012819D02*
X011764Y012819D01*
X011773Y012741D02*
X010625Y012741D01*
X010597Y012662D02*
X011794Y012662D01*
X011715Y012584D02*
X010549Y012584D01*
X010472Y012505D02*
X011637Y012505D01*
X011764Y013212D02*
X010638Y013212D01*
X010638Y013291D02*
X011764Y013291D01*
X011764Y013369D02*
X010638Y013369D01*
X010638Y013448D02*
X011764Y013448D01*
X011764Y013526D02*
X010630Y013526D01*
X010608Y013605D02*
X011796Y013605D01*
X011828Y013683D02*
X010566Y013683D01*
X010499Y013762D02*
X011903Y013762D01*
X012021Y013840D02*
X010381Y013840D01*
X010021Y013840D02*
X009421Y013840D01*
X009499Y013762D02*
X009903Y013762D01*
X009836Y013683D02*
X009574Y013683D01*
X009606Y013605D02*
X009795Y013605D01*
X009772Y013526D02*
X009638Y013526D01*
X009638Y013448D02*
X009764Y013448D01*
X009764Y013369D02*
X009638Y013369D01*
X009638Y013291D02*
X009764Y013291D01*
X009764Y013212D02*
X009638Y013212D01*
X010273Y011405D02*
X014650Y011405D01*
X014572Y011327D02*
X010194Y011327D01*
X010116Y011248D02*
X014493Y011248D01*
X014415Y011170D02*
X010037Y011170D01*
X009958Y011091D02*
X014336Y011091D01*
X014258Y011013D02*
X009880Y011013D01*
X009801Y010934D02*
X014179Y010934D01*
X014351Y011484D02*
X014729Y011484D01*
X014808Y011563D02*
X014430Y011563D01*
X014508Y011641D02*
X014886Y011641D01*
X014965Y011720D02*
X014587Y011720D01*
X014665Y011798D02*
X014981Y011798D01*
X014981Y011877D02*
X014744Y011877D01*
X014822Y011955D02*
X014981Y011955D01*
X015637Y012269D02*
X015803Y012269D01*
X016600Y012269D02*
X017941Y012269D01*
X017346Y012313D02*
X017346Y012313D01*
X017303Y012348D02*
X016730Y012348D01*
X016804Y012427D02*
X017224Y012427D01*
X017221Y012505D02*
X016836Y012505D01*
X016861Y012584D02*
X017221Y012584D01*
X017288Y012662D02*
X016861Y012662D01*
X016854Y012741D02*
X017366Y012741D01*
X017445Y012819D02*
X016822Y012819D01*
X016774Y012898D02*
X017425Y012898D01*
X017347Y012976D02*
X016695Y012976D01*
X015752Y013291D02*
X015658Y013291D01*
X015271Y013526D02*
X014630Y013526D01*
X014638Y013448D02*
X015193Y013448D01*
X015114Y013369D02*
X014638Y013369D01*
X014638Y013291D02*
X015036Y013291D01*
X014957Y013212D02*
X014638Y013212D01*
X014608Y013605D02*
X015350Y013605D01*
X015428Y013683D02*
X014566Y013683D01*
X014499Y013762D02*
X015507Y013762D01*
X015585Y013840D02*
X014381Y013840D01*
X013903Y013762D02*
X013499Y013762D01*
X013574Y013683D02*
X013836Y013683D01*
X013795Y013605D02*
X013606Y013605D01*
X013638Y013526D02*
X013772Y013526D01*
X013764Y013448D02*
X013638Y013448D01*
X013638Y013369D02*
X013764Y013369D01*
X013764Y013291D02*
X013638Y013291D01*
X013638Y013212D02*
X013764Y013212D01*
X013522Y014154D02*
X017211Y014154D01*
X017211Y014233D02*
X013600Y014233D01*
X013679Y014312D02*
X015709Y014312D01*
X015630Y014390D02*
X013757Y014390D01*
X014807Y014940D02*
X015670Y014940D01*
X015797Y015018D02*
X014886Y015018D01*
X014964Y015097D02*
X017201Y015097D01*
X017201Y015018D02*
X016605Y015018D01*
X016732Y014940D02*
X017201Y014940D01*
X017201Y014861D02*
X016804Y014861D01*
X016837Y014783D02*
X017201Y014783D01*
X017259Y014704D02*
X016861Y014704D01*
X016861Y014626D02*
X017338Y014626D01*
X017416Y014547D02*
X016854Y014547D01*
X016821Y014469D02*
X017382Y014469D01*
X017303Y014390D02*
X016772Y014390D01*
X016693Y014312D02*
X017225Y014312D01*
X017201Y015176D02*
X015043Y015176D01*
X015121Y015254D02*
X015840Y015254D01*
X015688Y015333D02*
X015200Y015333D01*
X015278Y015411D02*
X015609Y015411D01*
X015613Y015882D02*
X012363Y015882D01*
X012284Y015804D02*
X015049Y015804D01*
X014970Y015725D02*
X012206Y015725D01*
X012127Y015647D02*
X014892Y015647D01*
X014813Y015568D02*
X012049Y015568D01*
X011970Y015490D02*
X014735Y015490D01*
X014656Y015411D02*
X011891Y015411D01*
X011593Y015961D02*
X010403Y015961D01*
X010510Y016040D02*
X011671Y016040D01*
X011750Y016118D02*
X010574Y016118D01*
X010611Y016197D02*
X011791Y016197D01*
X011764Y016275D02*
X010632Y016275D01*
X010638Y016354D02*
X011764Y016354D01*
X011764Y016432D02*
X010638Y016432D01*
X010638Y016511D02*
X011764Y016511D01*
X011764Y016589D02*
X010638Y016589D01*
X010638Y016685D02*
X010638Y016976D01*
X010627Y017044D01*
X010606Y017110D01*
X010575Y017171D01*
X010534Y017226D01*
X010486Y017275D01*
X010430Y017315D01*
X010369Y017347D01*
X010303Y017368D01*
X010241Y017378D01*
X010241Y016685D01*
X010638Y016685D01*
X010638Y016746D02*
X011764Y016746D01*
X011764Y016668D02*
X010241Y016668D01*
X010241Y016746D02*
X010161Y016746D01*
X010161Y016685D02*
X010161Y017378D01*
X010099Y017368D01*
X010033Y017347D01*
X009972Y017315D01*
X009916Y017275D01*
X009868Y017226D01*
X009827Y017171D01*
X009796Y017110D01*
X009775Y017044D01*
X009764Y016976D01*
X009764Y016685D01*
X010161Y016685D01*
X010161Y016668D02*
X009638Y016668D01*
X009638Y016746D02*
X009764Y016746D01*
X009764Y016825D02*
X009638Y016825D01*
X009638Y016904D02*
X009764Y016904D01*
X009765Y016982D02*
X009638Y016982D01*
X009625Y017061D02*
X009780Y017061D01*
X009811Y017139D02*
X009592Y017139D01*
X009585Y017218D02*
X009862Y017218D01*
X009946Y017296D02*
X009663Y017296D01*
X009742Y017375D02*
X010142Y017375D01*
X010161Y017375D02*
X010241Y017375D01*
X010260Y017375D02*
X012105Y017375D01*
X011938Y017296D02*
X010457Y017296D01*
X010541Y017218D02*
X011859Y017218D01*
X011810Y017139D02*
X010591Y017139D01*
X010622Y017061D02*
X011777Y017061D01*
X011764Y016982D02*
X010637Y016982D01*
X010638Y016904D02*
X011764Y016904D01*
X011764Y016825D02*
X010638Y016825D01*
X010241Y016825D02*
X010161Y016825D01*
X010161Y016904D02*
X010241Y016904D01*
X010241Y016982D02*
X010161Y016982D01*
X010161Y017061D02*
X010241Y017061D01*
X010241Y017139D02*
X010161Y017139D01*
X010161Y017218D02*
X010241Y017218D01*
X010241Y017296D02*
X010161Y017296D01*
X009899Y017532D02*
X013277Y017532D01*
X013355Y017610D02*
X009978Y017610D01*
X010056Y017689D02*
X013434Y017689D01*
X013512Y017767D02*
X010135Y017767D01*
X010213Y017846D02*
X013591Y017846D01*
X013198Y017453D02*
X009820Y017453D01*
X008938Y017296D02*
X008465Y017296D01*
X008543Y017218D02*
X008859Y017218D01*
X008810Y017139D02*
X008592Y017139D01*
X008625Y017061D02*
X008777Y017061D01*
X008764Y016982D02*
X008638Y016982D01*
X008638Y016904D02*
X008764Y016904D01*
X008764Y016825D02*
X008638Y016825D01*
X008638Y016746D02*
X008764Y016746D01*
X008764Y016668D02*
X008638Y016668D01*
X008638Y016589D02*
X008764Y016589D01*
X008764Y016511D02*
X008638Y016511D01*
X008638Y016432D02*
X008764Y016432D01*
X008764Y016354D02*
X008638Y016354D01*
X008638Y016275D02*
X008764Y016275D01*
X008791Y016197D02*
X008611Y016197D01*
X008579Y016118D02*
X008824Y016118D01*
X008892Y016040D02*
X008510Y016040D01*
X008501Y015961D02*
X008994Y015961D01*
X009408Y015961D02*
X009999Y015961D01*
X009892Y016040D02*
X009510Y016040D01*
X009579Y016118D02*
X009828Y016118D01*
X009791Y016197D02*
X009611Y016197D01*
X009638Y016275D02*
X009770Y016275D01*
X009764Y016354D02*
X009638Y016354D01*
X009638Y016432D02*
X009764Y016432D01*
X009764Y016511D02*
X009638Y016511D01*
X009638Y016589D02*
X009764Y016589D01*
X012298Y017375D02*
X013105Y017375D01*
X012938Y017296D02*
X012465Y017296D01*
X012543Y017218D02*
X012859Y017218D01*
X012810Y017139D02*
X012592Y017139D01*
X012625Y017061D02*
X012777Y017061D01*
X012764Y016982D02*
X012638Y016982D01*
X012638Y016904D02*
X012764Y016904D01*
X012764Y016825D02*
X012638Y016825D01*
X012638Y016746D02*
X012764Y016746D01*
X012764Y016668D02*
X012638Y016668D01*
X012638Y016589D02*
X012764Y016589D01*
X012764Y016511D02*
X012638Y016511D01*
X012638Y016432D02*
X012764Y016432D01*
X012764Y016354D02*
X012638Y016354D01*
X012638Y016275D02*
X012764Y016275D01*
X012791Y016197D02*
X012611Y016197D01*
X012579Y016118D02*
X012824Y016118D01*
X012892Y016040D02*
X012510Y016040D01*
X012441Y015961D02*
X012994Y015961D01*
X013408Y015961D02*
X013999Y015961D01*
X013972Y015975D02*
X014033Y015943D01*
X014099Y015922D01*
X014161Y015912D01*
X014161Y016605D01*
X013764Y016605D01*
X013764Y016314D01*
X013775Y016246D01*
X013796Y016180D01*
X013827Y016119D01*
X013868Y016064D01*
X013916Y016015D01*
X013972Y015975D01*
X013892Y016040D02*
X013510Y016040D01*
X013579Y016118D02*
X013828Y016118D01*
X013791Y016197D02*
X013611Y016197D01*
X013638Y016275D02*
X013770Y016275D01*
X013764Y016354D02*
X013638Y016354D01*
X013638Y016432D02*
X013764Y016432D01*
X013764Y016511D02*
X013638Y016511D01*
X013638Y016589D02*
X013764Y016589D01*
X013764Y016685D02*
X014161Y016685D01*
X014161Y016605D01*
X014241Y016605D01*
X014241Y016685D01*
X014161Y016685D01*
X014161Y017378D01*
X014099Y017368D01*
X014033Y017347D01*
X013972Y017315D01*
X013916Y017275D01*
X013868Y017226D01*
X013827Y017171D01*
X013796Y017110D01*
X013775Y017044D01*
X013764Y016976D01*
X013764Y016685D01*
X013764Y016746D02*
X013638Y016746D01*
X013638Y016668D02*
X014161Y016668D01*
X014161Y016746D02*
X014241Y016746D01*
X014241Y016685D02*
X014241Y017378D01*
X014303Y017368D01*
X014369Y017347D01*
X014430Y017315D01*
X014486Y017275D01*
X014534Y017226D01*
X014575Y017171D01*
X014606Y017110D01*
X014627Y017044D01*
X014638Y016976D01*
X014638Y016685D01*
X014241Y016685D01*
X014241Y016668D02*
X015367Y016668D01*
X015289Y016746D02*
X014638Y016746D01*
X014638Y016825D02*
X015210Y016825D01*
X015131Y016904D02*
X014638Y016904D01*
X014637Y016982D02*
X015053Y016982D01*
X014974Y017061D02*
X014622Y017061D01*
X014591Y017139D02*
X014896Y017139D01*
X014817Y017218D02*
X014541Y017218D01*
X014457Y017296D02*
X014739Y017296D01*
X014660Y017375D02*
X014260Y017375D01*
X014241Y017375D02*
X014161Y017375D01*
X014142Y017375D02*
X013742Y017375D01*
X013663Y017296D02*
X013946Y017296D01*
X013862Y017218D02*
X013585Y017218D01*
X013592Y017139D02*
X013811Y017139D01*
X013780Y017061D02*
X013625Y017061D01*
X013638Y016982D02*
X013765Y016982D01*
X013764Y016904D02*
X013638Y016904D01*
X013638Y016825D02*
X013764Y016825D01*
X014161Y016825D02*
X014241Y016825D01*
X014241Y016904D02*
X014161Y016904D01*
X014161Y016982D02*
X014241Y016982D01*
X014241Y017061D02*
X014161Y017061D01*
X014161Y017139D02*
X014241Y017139D01*
X014241Y017218D02*
X014161Y017218D01*
X014161Y017296D02*
X014241Y017296D01*
X014241Y016589D02*
X014161Y016589D01*
X014161Y016511D02*
X014241Y016511D01*
X014241Y016432D02*
X014161Y016432D01*
X014161Y016354D02*
X014241Y016354D01*
X014241Y016275D02*
X014161Y016275D01*
X014161Y016197D02*
X014241Y016197D01*
X014241Y016118D02*
X014161Y016118D01*
X014161Y016040D02*
X014241Y016040D01*
X014241Y015961D02*
X014161Y015961D01*
X014403Y015961D02*
X015691Y015961D01*
X015848Y016040D02*
X014510Y016040D01*
X014632Y016275D02*
X015789Y016275D01*
X015667Y016354D02*
X014638Y016354D01*
X014638Y016432D02*
X015596Y016432D01*
X015524Y016511D02*
X014638Y016511D01*
X014638Y016589D02*
X015446Y016589D01*
X016613Y016275D02*
X018789Y016275D01*
X018667Y016354D02*
X016735Y016354D01*
X016806Y016432D02*
X018596Y016432D01*
X018564Y016511D02*
X016838Y016511D01*
X016861Y016589D02*
X018541Y016589D01*
X018541Y016668D02*
X016861Y016668D01*
X016852Y016746D02*
X018550Y016746D01*
X018583Y016825D02*
X016819Y016825D01*
X016768Y016904D02*
X018634Y016904D01*
X018712Y016982D02*
X016690Y016982D01*
X016664Y017296D02*
X018738Y017296D01*
X018646Y017375D02*
X016756Y017375D01*
X016815Y017453D02*
X018588Y017453D01*
X018555Y017532D02*
X016847Y017532D01*
X016861Y017610D02*
X018541Y017610D01*
X018541Y017689D02*
X016861Y017689D01*
X016843Y017767D02*
X018559Y017767D01*
X018591Y017846D02*
X016811Y017846D01*
X016747Y017925D02*
X018655Y017925D01*
X018760Y018003D02*
X016642Y018003D01*
X015760Y018003D02*
X015654Y018003D01*
X015576Y018082D02*
X019827Y018082D01*
X019905Y018160D02*
X015497Y018160D01*
X015418Y018239D02*
X019984Y018239D01*
X019981Y018236D02*
X019981Y018236D01*
X020062Y018317D02*
X015340Y018317D01*
X014999Y018631D02*
X028561Y018631D01*
X028561Y018553D02*
X014920Y018553D01*
X014842Y018474D02*
X028561Y018474D01*
X028561Y018396D02*
X005763Y018396D01*
X005734Y018867D02*
X014612Y018867D01*
X014691Y018946D02*
X014313Y018946D01*
X014391Y019024D02*
X014769Y019024D01*
X014848Y019103D02*
X014470Y019103D01*
X014548Y019181D02*
X014926Y019181D01*
X015005Y019260D02*
X014627Y019260D01*
X014706Y019338D02*
X015083Y019338D01*
X015162Y019417D02*
X014784Y019417D01*
X014863Y019495D02*
X015240Y019495D01*
X015319Y019574D02*
X014941Y019574D01*
X015020Y019653D02*
X015397Y019653D01*
X015476Y019731D02*
X015098Y019731D01*
X015177Y019810D02*
X015555Y019810D01*
X015633Y019888D02*
X015255Y019888D01*
X015321Y019967D02*
X015712Y019967D01*
X015790Y020045D02*
X015321Y020045D01*
X015321Y020124D02*
X015869Y020124D01*
X015879Y020202D02*
X015323Y020202D01*
X015402Y020281D02*
X015801Y020281D01*
X015722Y020359D02*
X015480Y020359D01*
X015559Y020438D02*
X015644Y020438D01*
X015631Y020516D02*
X015571Y020516D01*
X015571Y020595D02*
X015631Y020595D01*
X015631Y020674D02*
X015571Y020674D01*
X015571Y020752D02*
X015631Y020752D01*
X015631Y020831D02*
X015571Y020831D01*
X015502Y020909D02*
X015701Y020909D01*
X015779Y020988D02*
X015423Y020988D01*
X015344Y021066D02*
X015858Y021066D01*
X016344Y021066D02*
X016858Y021066D01*
X016906Y021115D02*
X016631Y020840D01*
X016631Y020450D01*
X016906Y020175D01*
X017296Y020175D01*
X017571Y020450D01*
X017571Y020840D01*
X017296Y021115D01*
X016906Y021115D01*
X016779Y020988D02*
X016423Y020988D01*
X016502Y020909D02*
X016701Y020909D01*
X016631Y020831D02*
X016571Y020831D01*
X016571Y020752D02*
X016631Y020752D01*
X016631Y020674D02*
X016571Y020674D01*
X016571Y020595D02*
X016631Y020595D01*
X016631Y020516D02*
X016571Y020516D01*
X016559Y020438D02*
X016644Y020438D01*
X016722Y020359D02*
X016480Y020359D01*
X016402Y020281D02*
X016801Y020281D01*
X016879Y020202D02*
X016323Y020202D01*
X016321Y020124D02*
X028561Y020124D01*
X028561Y020202D02*
X027923Y020202D01*
X027896Y020175D02*
X028171Y020450D01*
X028171Y020840D01*
X027896Y021115D01*
X027506Y021115D01*
X027231Y020840D01*
X027231Y020450D01*
X027506Y020175D01*
X027896Y020175D01*
X028002Y020281D02*
X028561Y020281D01*
X028561Y020359D02*
X028080Y020359D01*
X028159Y020438D02*
X028561Y020438D01*
X028561Y020516D02*
X028171Y020516D01*
X028171Y020595D02*
X028561Y020595D01*
X028561Y020674D02*
X028171Y020674D01*
X028171Y020752D02*
X028561Y020752D01*
X028561Y020831D02*
X028171Y020831D01*
X028102Y020909D02*
X028561Y020909D01*
X028560Y020988D02*
X028023Y020988D01*
X027944Y021066D02*
X028482Y021066D01*
X028403Y021145D02*
X009290Y021145D01*
X009354Y021081D02*
X009137Y021298D01*
X008854Y021415D01*
X008548Y021415D01*
X008265Y021298D01*
X008048Y021081D01*
X007931Y020798D01*
X007931Y020492D01*
X008048Y020209D01*
X008265Y019992D01*
X008548Y019875D01*
X008854Y019875D01*
X009137Y019992D01*
X009354Y020209D01*
X009471Y020492D01*
X009471Y020798D01*
X009354Y021081D01*
X009360Y021066D02*
X011858Y021066D01*
X011906Y021115D02*
X011631Y020840D01*
X011631Y020450D01*
X011906Y020175D01*
X012296Y020175D01*
X012571Y020450D01*
X012571Y020840D01*
X012296Y021115D01*
X011906Y021115D01*
X011779Y020988D02*
X009392Y020988D01*
X009425Y020909D02*
X011701Y020909D01*
X011631Y020831D02*
X009458Y020831D01*
X009471Y020752D02*
X011631Y020752D01*
X011631Y020674D02*
X009471Y020674D01*
X009471Y020595D02*
X011631Y020595D01*
X011631Y020516D02*
X009471Y020516D01*
X009449Y020438D02*
X011644Y020438D01*
X011722Y020359D02*
X009416Y020359D01*
X009384Y020281D02*
X011801Y020281D01*
X011879Y020202D02*
X009347Y020202D01*
X009269Y020124D02*
X013869Y020124D01*
X013879Y020202D02*
X013323Y020202D01*
X013296Y020175D02*
X013571Y020450D01*
X013571Y020605D01*
X013141Y020605D01*
X013141Y020175D01*
X013296Y020175D01*
X013402Y020281D02*
X013801Y020281D01*
X013722Y020359D02*
X013480Y020359D01*
X013559Y020438D02*
X013644Y020438D01*
X013631Y020516D02*
X013571Y020516D01*
X013571Y020595D02*
X013631Y020595D01*
X013631Y020674D02*
X013141Y020674D01*
X013141Y020685D02*
X013571Y020685D01*
X013571Y020840D01*
X013296Y021115D01*
X013141Y021115D01*
X013141Y020685D01*
X013061Y020685D01*
X013061Y020605D01*
X012631Y020605D01*
X012631Y020450D01*
X012906Y020175D01*
X013061Y020175D01*
X013061Y020605D01*
X013141Y020605D01*
X013141Y020685D01*
X013141Y020752D02*
X013061Y020752D01*
X013061Y020685D02*
X013061Y021115D01*
X012906Y021115D01*
X012631Y020840D01*
X012631Y020685D01*
X013061Y020685D01*
X013061Y020674D02*
X012571Y020674D01*
X012571Y020752D02*
X012631Y020752D01*
X012631Y020831D02*
X012571Y020831D01*
X012502Y020909D02*
X012701Y020909D01*
X012779Y020988D02*
X012423Y020988D01*
X012344Y021066D02*
X012858Y021066D01*
X013061Y021066D02*
X013141Y021066D01*
X013141Y020988D02*
X013061Y020988D01*
X013061Y020909D02*
X013141Y020909D01*
X013141Y020831D02*
X013061Y020831D01*
X013061Y020595D02*
X013141Y020595D01*
X013141Y020516D02*
X013061Y020516D01*
X013061Y020438D02*
X013141Y020438D01*
X013141Y020359D02*
X013061Y020359D01*
X013061Y020281D02*
X013141Y020281D01*
X013141Y020202D02*
X013061Y020202D01*
X012879Y020202D02*
X012323Y020202D01*
X012402Y020281D02*
X012801Y020281D01*
X012722Y020359D02*
X012480Y020359D01*
X012559Y020438D02*
X012644Y020438D01*
X012631Y020516D02*
X012571Y020516D01*
X012571Y020595D02*
X012631Y020595D01*
X013344Y021066D02*
X013858Y021066D01*
X013779Y020988D02*
X013423Y020988D01*
X013502Y020909D02*
X013701Y020909D01*
X013631Y020831D02*
X013571Y020831D01*
X013571Y020752D02*
X013631Y020752D01*
X014344Y021066D02*
X014858Y021066D01*
X014779Y020988D02*
X014423Y020988D01*
X014502Y020909D02*
X014701Y020909D01*
X014631Y020831D02*
X014571Y020831D01*
X014571Y020752D02*
X014631Y020752D01*
X014631Y020674D02*
X014571Y020674D01*
X014571Y020595D02*
X014631Y020595D01*
X014631Y020516D02*
X014571Y020516D01*
X014559Y020438D02*
X014644Y020438D01*
X014722Y020359D02*
X014480Y020359D01*
X014402Y020281D02*
X014801Y020281D01*
X014879Y020202D02*
X014323Y020202D01*
X014321Y020124D02*
X014869Y020124D01*
X014790Y020045D02*
X014321Y020045D01*
X014321Y019967D02*
X014712Y019967D01*
X014633Y019888D02*
X014255Y019888D01*
X014177Y019810D02*
X014555Y019810D01*
X014476Y019731D02*
X014098Y019731D01*
X014020Y019653D02*
X014397Y019653D01*
X014319Y019574D02*
X013941Y019574D01*
X013863Y019495D02*
X014240Y019495D01*
X014162Y019417D02*
X005784Y019417D01*
X005476Y019731D02*
X002841Y019731D01*
X002841Y019653D02*
X005397Y019653D01*
X005319Y019574D02*
X002841Y019574D01*
X002841Y019495D02*
X005240Y019495D01*
X005162Y019417D02*
X002841Y019417D01*
X002841Y019338D02*
X005083Y019338D01*
X005005Y019260D02*
X002841Y019260D01*
X002841Y019181D02*
X004926Y019181D01*
X004848Y019103D02*
X002841Y019103D01*
X002841Y019024D02*
X004769Y019024D01*
X004691Y018946D02*
X002841Y018946D01*
X002841Y018867D02*
X004612Y018867D01*
X004534Y018789D02*
X002841Y018789D01*
X002841Y018710D02*
X004455Y018710D01*
X004376Y018631D02*
X002841Y018631D01*
X002841Y018553D02*
X004298Y018553D01*
X004219Y018474D02*
X002841Y018474D01*
X002841Y018396D02*
X004141Y018396D01*
X004062Y018317D02*
X002841Y018317D01*
X002841Y018239D02*
X003984Y018239D01*
X003981Y018160D02*
X002841Y018160D01*
X002841Y018082D02*
X003981Y018082D01*
X003981Y018003D02*
X002841Y018003D01*
X002841Y017925D02*
X003981Y017925D01*
X003981Y017846D02*
X002841Y017846D01*
X002841Y017767D02*
X003981Y017767D01*
X003981Y017689D02*
X002841Y017689D01*
X002841Y017610D02*
X003981Y017610D01*
X003981Y017532D02*
X002841Y017532D01*
X002841Y017453D02*
X003981Y017453D01*
X003981Y017375D02*
X002841Y017375D01*
X002841Y017296D02*
X003981Y017296D01*
X003981Y017218D02*
X002841Y017218D01*
X002841Y017139D02*
X003981Y017139D01*
X003981Y017061D02*
X002841Y017061D01*
X002841Y016982D02*
X003981Y016982D01*
X003981Y016904D02*
X002841Y016904D01*
X002841Y016825D02*
X003981Y016825D01*
X003981Y016746D02*
X002841Y016746D01*
X002841Y016668D02*
X003981Y016668D01*
X003981Y016589D02*
X002841Y016589D01*
X002841Y016511D02*
X003981Y016511D01*
X003981Y016432D02*
X002841Y016432D01*
X002841Y016354D02*
X003981Y016354D01*
X003981Y016275D02*
X002841Y016275D01*
X002841Y016197D02*
X003981Y016197D01*
X003981Y016118D02*
X002841Y016118D01*
X002841Y016040D02*
X003981Y016040D01*
X003981Y015961D02*
X002841Y015961D01*
X002841Y015882D02*
X003981Y015882D01*
X003981Y015804D02*
X002841Y015804D01*
X002841Y015725D02*
X003981Y015725D01*
X003981Y015647D02*
X002841Y015647D01*
X002841Y015568D02*
X003981Y015568D01*
X003981Y015490D02*
X002841Y015490D01*
X002841Y015411D02*
X003981Y015411D01*
X003981Y015333D02*
X002841Y015333D01*
X002841Y015254D02*
X003981Y015254D01*
X003981Y015176D02*
X002841Y015176D01*
X002841Y015097D02*
X003981Y015097D01*
X003981Y015018D02*
X002841Y015018D01*
X002841Y014940D02*
X003981Y014940D01*
X003981Y014861D02*
X002841Y014861D01*
X002841Y014783D02*
X003981Y014783D01*
X003981Y014704D02*
X002841Y014704D01*
X002841Y014626D02*
X003981Y014626D01*
X003981Y014547D02*
X002841Y014547D01*
X002841Y014469D02*
X003981Y014469D01*
X003981Y014390D02*
X002841Y014390D01*
X002841Y014312D02*
X003981Y014312D01*
X003981Y014233D02*
X002841Y014233D01*
X002841Y014154D02*
X003981Y014154D01*
X003981Y014076D02*
X002841Y014076D01*
X002841Y013997D02*
X003981Y013997D01*
X003981Y013919D02*
X002841Y013919D01*
X002841Y013840D02*
X003981Y013840D01*
X003981Y013762D02*
X002841Y013762D01*
X002841Y013683D02*
X003981Y013683D01*
X003981Y013605D02*
X002841Y013605D01*
X002841Y013526D02*
X003981Y013526D01*
X003981Y013448D02*
X002841Y013448D01*
X002841Y013369D02*
X003981Y013369D01*
X003981Y013291D02*
X002841Y013291D01*
X002841Y013212D02*
X003981Y013212D01*
X003981Y013133D02*
X002841Y013133D01*
X002841Y013055D02*
X003981Y013055D01*
X003981Y012976D02*
X002841Y012976D01*
X002841Y012898D02*
X003981Y012898D01*
X003981Y012819D02*
X002841Y012819D01*
X002841Y012741D02*
X003981Y012741D01*
X003981Y012662D02*
X002841Y012662D01*
X002841Y012584D02*
X003981Y012584D01*
X003981Y012505D02*
X002841Y012505D01*
X002841Y012427D02*
X003981Y012427D01*
X003981Y012348D02*
X002841Y012348D01*
X002841Y012269D02*
X003981Y012269D01*
X003981Y012191D02*
X002841Y012191D01*
X002841Y012112D02*
X003981Y012112D01*
X003981Y012034D02*
X002841Y012034D01*
X002841Y011955D02*
X003981Y011955D01*
X003981Y011877D02*
X003293Y011877D01*
X003109Y011877D02*
X002841Y011877D01*
X002841Y011798D02*
X002940Y011798D01*
X002861Y011720D02*
X002841Y011720D01*
X003463Y011798D02*
X003940Y011798D01*
X003861Y011720D02*
X003541Y011720D01*
X003591Y011641D02*
X003811Y011641D01*
X003778Y011563D02*
X003624Y011563D01*
X003638Y011484D02*
X003764Y011484D01*
X003764Y011405D02*
X003638Y011405D01*
X003638Y011327D02*
X003764Y011327D01*
X003764Y011248D02*
X003638Y011248D01*
X003638Y011170D02*
X003764Y011170D01*
X003764Y011091D02*
X003638Y011091D01*
X003638Y011013D02*
X003764Y011013D01*
X003764Y010934D02*
X003638Y010934D01*
X003638Y010856D02*
X003764Y010856D01*
X003764Y010777D02*
X003638Y010777D01*
X003612Y010699D02*
X003790Y010699D01*
X003823Y010620D02*
X003579Y010620D01*
X003512Y010541D02*
X003890Y010541D01*
X003990Y010463D02*
X003501Y010463D01*
X003501Y010384D02*
X004481Y010384D01*
X004481Y010306D02*
X003501Y010306D01*
X003501Y010227D02*
X004481Y010227D01*
X004481Y010149D02*
X003501Y010149D01*
X003501Y010070D02*
X004481Y010070D01*
X004481Y009992D02*
X003501Y009992D01*
X003501Y009913D02*
X004481Y009913D01*
X004481Y009835D02*
X003501Y009835D01*
X003514Y009756D02*
X004481Y009756D01*
X004481Y009678D02*
X003593Y009678D01*
X003671Y009599D02*
X004481Y009599D01*
X004481Y009520D02*
X003750Y009520D01*
X003828Y009442D02*
X004481Y009442D01*
X004481Y009363D02*
X003907Y009363D01*
X003986Y009285D02*
X004481Y009285D01*
X004481Y009206D02*
X004064Y009206D01*
X004143Y009128D02*
X004481Y009128D01*
X004486Y009049D02*
X004221Y009049D01*
X004300Y008971D02*
X004564Y008971D01*
X004643Y008892D02*
X004378Y008892D01*
X004456Y008814D02*
X004721Y008814D01*
X004800Y008735D02*
X004489Y008735D01*
X004501Y008656D02*
X004879Y008656D01*
X004957Y008578D02*
X004501Y008578D01*
X004501Y008499D02*
X004981Y008499D01*
X004981Y008421D02*
X004501Y008421D01*
X004501Y008342D02*
X004981Y008342D01*
X004905Y008264D02*
X004501Y008264D01*
X004573Y008185D02*
X004829Y008185D01*
X004797Y008107D02*
X004606Y008107D01*
X004638Y008028D02*
X004764Y008028D01*
X004764Y007950D02*
X004638Y007950D01*
X004638Y007871D02*
X004764Y007871D01*
X004764Y007792D02*
X004638Y007792D01*
X004638Y007714D02*
X004764Y007714D01*
X004764Y007635D02*
X004638Y007635D01*
X004638Y007557D02*
X004764Y007557D01*
X004764Y007478D02*
X004638Y007478D01*
X004638Y007400D02*
X004764Y007400D01*
X004764Y007321D02*
X004638Y007321D01*
X004630Y007243D02*
X004772Y007243D01*
X004804Y007164D02*
X004598Y007164D01*
X004556Y007086D02*
X004846Y007086D01*
X004924Y007007D02*
X004501Y007007D01*
X004501Y006929D02*
X005073Y006929D01*
X005329Y006929D02*
X006102Y006929D01*
X006051Y006979D02*
X006285Y006745D01*
X006411Y006745D01*
X006411Y007105D01*
X006051Y007105D01*
X006051Y006979D01*
X006051Y007007D02*
X005478Y007007D01*
X005556Y007086D02*
X006051Y007086D01*
X006051Y007185D02*
X006411Y007185D01*
X006411Y007105D01*
X006491Y007105D01*
X006491Y006745D01*
X006617Y006745D01*
X006851Y006979D01*
X006851Y007105D01*
X006491Y007105D01*
X006491Y007185D01*
X006411Y007185D01*
X006411Y007545D01*
X006285Y007545D01*
X006051Y007311D01*
X006051Y007185D01*
X006051Y007243D02*
X005630Y007243D01*
X005638Y007321D02*
X006062Y007321D01*
X006140Y007400D02*
X005638Y007400D01*
X005638Y007478D02*
X006219Y007478D01*
X006411Y007478D02*
X006491Y007478D01*
X006491Y007545D02*
X006491Y007185D01*
X006851Y007185D01*
X006851Y007311D01*
X006617Y007545D01*
X006491Y007545D01*
X006491Y007400D02*
X006411Y007400D01*
X006411Y007321D02*
X006491Y007321D01*
X006491Y007243D02*
X006411Y007243D01*
X006411Y007164D02*
X005598Y007164D01*
X005638Y007557D02*
X006901Y007557D01*
X006901Y007635D02*
X005638Y007635D01*
X006411Y007086D02*
X006491Y007086D01*
X006491Y007164D02*
X006901Y007164D01*
X006901Y007086D02*
X006851Y007086D01*
X006851Y007007D02*
X006901Y007007D01*
X006901Y006929D02*
X006800Y006929D01*
X006722Y006850D02*
X006901Y006850D01*
X006901Y006771D02*
X006643Y006771D01*
X006491Y006771D02*
X006411Y006771D01*
X006411Y006850D02*
X006491Y006850D01*
X006491Y006929D02*
X006411Y006929D01*
X006411Y007007D02*
X006491Y007007D01*
X006259Y006771D02*
X004501Y006771D01*
X004501Y006693D02*
X006901Y006693D01*
X006901Y006614D02*
X004501Y006614D01*
X004501Y006536D02*
X006901Y006536D01*
X006901Y006457D02*
X004501Y006457D01*
X004501Y006379D02*
X006901Y006379D01*
X006901Y006300D02*
X004501Y006300D01*
X004501Y006222D02*
X006901Y006222D01*
X006901Y006143D02*
X004501Y006143D01*
X004501Y006065D02*
X006901Y006065D01*
X006901Y005986D02*
X004501Y005986D01*
X004501Y005907D02*
X006901Y005907D01*
X006901Y005829D02*
X004501Y005829D01*
X004501Y005750D02*
X006901Y005750D01*
X006901Y005672D02*
X004501Y005672D01*
X004501Y005593D02*
X006901Y005593D01*
X006901Y005515D02*
X004501Y005515D01*
X004501Y005436D02*
X006901Y005436D01*
X006901Y005358D02*
X004501Y005358D01*
X004501Y005279D02*
X006901Y005279D01*
X006901Y005201D02*
X004501Y005201D01*
X004501Y005122D02*
X006901Y005122D01*
X006901Y005043D02*
X004501Y005043D01*
X004501Y004965D02*
X006901Y004965D01*
X006901Y004886D02*
X004501Y004886D01*
X004501Y004808D02*
X006901Y004808D01*
X006901Y004729D02*
X004501Y004729D01*
X004501Y004651D02*
X006901Y004651D01*
X006901Y004572D02*
X004501Y004572D01*
X004501Y004494D02*
X006901Y004494D01*
X006901Y004415D02*
X004501Y004415D01*
X004501Y004337D02*
X006901Y004337D01*
X006901Y004258D02*
X004512Y004258D01*
X004591Y004179D02*
X006901Y004179D01*
X006901Y004101D02*
X004669Y004101D01*
X004748Y004022D02*
X006901Y004022D01*
X007501Y004022D02*
X007901Y004022D01*
X007901Y004101D02*
X007501Y004101D01*
X007501Y004179D02*
X007901Y004179D01*
X007901Y004258D02*
X007501Y004258D01*
X007501Y004337D02*
X007901Y004337D01*
X007901Y004415D02*
X007501Y004415D01*
X007501Y004494D02*
X007901Y004494D01*
X007901Y004572D02*
X007501Y004572D01*
X007501Y004651D02*
X007901Y004651D01*
X007901Y004729D02*
X007501Y004729D01*
X007501Y004808D02*
X007901Y004808D01*
X007901Y004886D02*
X007501Y004886D01*
X007501Y004965D02*
X007901Y004965D01*
X007901Y005043D02*
X007501Y005043D01*
X007501Y005122D02*
X007901Y005122D01*
X007901Y005201D02*
X007501Y005201D01*
X007501Y005279D02*
X007901Y005279D01*
X007901Y005358D02*
X007501Y005358D01*
X007501Y005436D02*
X007901Y005436D01*
X007901Y005515D02*
X007501Y005515D01*
X007501Y005593D02*
X007838Y005593D01*
X007801Y005672D02*
X007501Y005672D01*
X007501Y005750D02*
X007769Y005750D01*
X007764Y005829D02*
X007501Y005829D01*
X007501Y005907D02*
X007764Y005907D01*
X007764Y005986D02*
X007501Y005986D01*
X007501Y006065D02*
X007764Y006065D01*
X007764Y006143D02*
X007501Y006143D01*
X007501Y006222D02*
X007764Y006222D01*
X007764Y006300D02*
X007501Y006300D01*
X007501Y006379D02*
X007764Y006379D01*
X007764Y006457D02*
X007501Y006457D01*
X007501Y006536D02*
X007767Y006536D01*
X007800Y006614D02*
X007501Y006614D01*
X007501Y006693D02*
X007834Y006693D01*
X007913Y006771D02*
X007501Y006771D01*
X007501Y006850D02*
X008045Y006850D01*
X008357Y006850D02*
X008981Y006850D01*
X008981Y006929D02*
X007501Y006929D01*
X007501Y007007D02*
X008981Y007007D01*
X008981Y007086D02*
X007501Y007086D01*
X007501Y007164D02*
X008981Y007164D01*
X008988Y007243D02*
X007501Y007243D01*
X007501Y007321D02*
X009066Y007321D01*
X009145Y007400D02*
X007501Y007400D01*
X007501Y007478D02*
X009223Y007478D01*
X009302Y007557D02*
X007501Y007557D01*
X007501Y007635D02*
X009380Y007635D01*
X009421Y006850D02*
X010043Y006850D01*
X010033Y006847D02*
X009972Y006815D01*
X009916Y006775D01*
X009868Y006726D01*
X009827Y006671D01*
X009796Y006610D01*
X009775Y006544D01*
X009764Y006476D01*
X009764Y006185D01*
X010161Y006185D01*
X010161Y006105D01*
X009764Y006105D01*
X009764Y005814D01*
X009775Y005746D01*
X009796Y005680D01*
X009827Y005619D01*
X009868Y005564D01*
X009916Y005515D01*
X009972Y005475D01*
X010033Y005443D01*
X010099Y005422D01*
X010161Y005412D01*
X010161Y006105D01*
X010241Y006105D01*
X010241Y005412D01*
X010303Y005422D01*
X010369Y005443D01*
X010430Y005475D01*
X010486Y005515D01*
X010534Y005564D01*
X010575Y005619D01*
X010606Y005680D01*
X010627Y005746D01*
X010638Y005814D01*
X010638Y006105D01*
X010241Y006105D01*
X010241Y006185D01*
X010161Y006185D01*
X010161Y006878D01*
X010099Y006868D01*
X010033Y006847D01*
X010161Y006850D02*
X010241Y006850D01*
X010241Y006878D02*
X010241Y006185D01*
X010638Y006185D01*
X010638Y006476D01*
X010627Y006544D01*
X010606Y006610D01*
X010575Y006671D01*
X010534Y006726D01*
X010486Y006775D01*
X010430Y006815D01*
X010369Y006847D01*
X010303Y006868D01*
X010241Y006878D01*
X010241Y006771D02*
X010161Y006771D01*
X010161Y006693D02*
X010241Y006693D01*
X010241Y006614D02*
X010161Y006614D01*
X010161Y006536D02*
X010241Y006536D01*
X010241Y006457D02*
X010161Y006457D01*
X010161Y006379D02*
X010241Y006379D01*
X010241Y006300D02*
X010161Y006300D01*
X010161Y006222D02*
X010241Y006222D01*
X010241Y006143D02*
X011764Y006143D01*
X011764Y006065D02*
X010638Y006065D01*
X010638Y005986D02*
X011764Y005986D01*
X011764Y005907D02*
X010638Y005907D01*
X010638Y005829D02*
X011764Y005829D01*
X011769Y005750D02*
X010628Y005750D01*
X010601Y005672D02*
X011801Y005672D01*
X011838Y005593D02*
X010556Y005593D01*
X010485Y005515D02*
X011901Y005515D01*
X011901Y005436D02*
X010347Y005436D01*
X010241Y005436D02*
X010161Y005436D01*
X010161Y005515D02*
X010241Y005515D01*
X010241Y005593D02*
X010161Y005593D01*
X010161Y005672D02*
X010241Y005672D01*
X010241Y005750D02*
X010161Y005750D01*
X010161Y005829D02*
X010241Y005829D01*
X010241Y005907D02*
X010161Y005907D01*
X010161Y005986D02*
X010241Y005986D01*
X010241Y006065D02*
X010161Y006065D01*
X010161Y006143D02*
X009638Y006143D01*
X009638Y006065D02*
X009764Y006065D01*
X009764Y005986D02*
X009638Y005986D01*
X009638Y005907D02*
X009764Y005907D01*
X009764Y005829D02*
X009638Y005829D01*
X009633Y005750D02*
X009774Y005750D01*
X009801Y005672D02*
X009601Y005672D01*
X009564Y005593D02*
X009846Y005593D01*
X009917Y005515D02*
X009485Y005515D01*
X009348Y005436D02*
X010055Y005436D01*
X009764Y006222D02*
X009638Y006222D01*
X009638Y006300D02*
X009764Y006300D01*
X009764Y006379D02*
X009638Y006379D01*
X009638Y006457D02*
X009764Y006457D01*
X009774Y006536D02*
X009635Y006536D01*
X009603Y006614D02*
X009799Y006614D01*
X009844Y006693D02*
X009568Y006693D01*
X009489Y006771D02*
X009913Y006771D01*
X010359Y006850D02*
X012045Y006850D01*
X011913Y006771D02*
X010489Y006771D01*
X010559Y006693D02*
X011834Y006693D01*
X011800Y006614D02*
X010604Y006614D01*
X010629Y006536D02*
X011767Y006536D01*
X011764Y006457D02*
X010638Y006457D01*
X010638Y006379D02*
X011764Y006379D01*
X011764Y006300D02*
X010638Y006300D01*
X010638Y006222D02*
X011764Y006222D01*
X011901Y005358D02*
X008501Y005358D01*
X008501Y005436D02*
X009054Y005436D01*
X008917Y005515D02*
X008501Y005515D01*
X008564Y005593D02*
X008838Y005593D01*
X008801Y005672D02*
X008601Y005672D01*
X008633Y005750D02*
X008769Y005750D01*
X008764Y005829D02*
X008638Y005829D01*
X008638Y005907D02*
X008764Y005907D01*
X008764Y005986D02*
X008638Y005986D01*
X008638Y006065D02*
X008764Y006065D01*
X008764Y006143D02*
X008638Y006143D01*
X008638Y006222D02*
X008764Y006222D01*
X008764Y006300D02*
X008638Y006300D01*
X008638Y006379D02*
X008764Y006379D01*
X008764Y006457D02*
X008638Y006457D01*
X008635Y006536D02*
X008767Y006536D01*
X008800Y006614D02*
X008603Y006614D01*
X008568Y006693D02*
X008834Y006693D01*
X008913Y006771D02*
X008489Y006771D01*
X006901Y007243D02*
X006851Y007243D01*
X006841Y007321D02*
X006901Y007321D01*
X006901Y007400D02*
X006762Y007400D01*
X006683Y007478D02*
X006901Y007478D01*
X006181Y006850D02*
X004501Y006850D01*
X008501Y005279D02*
X011901Y005279D01*
X011901Y005201D02*
X008501Y005201D01*
X008501Y005122D02*
X011901Y005122D01*
X011901Y005043D02*
X008501Y005043D01*
X008501Y004965D02*
X011901Y004965D01*
X011901Y004886D02*
X008501Y004886D01*
X008501Y004808D02*
X011901Y004808D01*
X011901Y004729D02*
X008501Y004729D01*
X008501Y004651D02*
X011901Y004651D01*
X011901Y004572D02*
X008501Y004572D01*
X008501Y004494D02*
X011901Y004494D01*
X011901Y004415D02*
X008501Y004415D01*
X008501Y004337D02*
X011901Y004337D01*
X011901Y004258D02*
X008501Y004258D01*
X008501Y004179D02*
X011901Y004179D01*
X011901Y004101D02*
X008501Y004101D01*
X008501Y004022D02*
X011901Y004022D01*
X012501Y001980D02*
X015372Y001980D01*
X015293Y001902D02*
X012501Y001902D01*
X012501Y001823D02*
X015231Y001823D01*
X015231Y001745D02*
X012501Y001745D01*
X012501Y001666D02*
X015231Y001666D01*
X015231Y001588D02*
X012501Y001588D01*
X012511Y001509D02*
X015231Y001509D01*
X015251Y001430D02*
X012590Y001430D01*
X012668Y001352D02*
X015330Y001352D01*
X015408Y001273D02*
X012747Y001273D01*
X018421Y004258D02*
X018836Y004258D01*
X018684Y004337D02*
X018421Y004337D01*
X018421Y004415D02*
X018614Y004415D01*
X018571Y004494D02*
X018421Y004494D01*
X018421Y004572D02*
X018548Y004572D01*
X019718Y004337D02*
X020901Y004337D01*
X020901Y004415D02*
X019789Y004415D01*
X019831Y004494D02*
X020901Y004494D01*
X020901Y004572D02*
X019854Y004572D01*
X021501Y004572D02*
X024901Y004572D01*
X024901Y004494D02*
X021501Y004494D01*
X021501Y004415D02*
X024901Y004415D01*
X024901Y004337D02*
X021501Y004337D01*
X021512Y004258D02*
X024901Y004258D01*
X024901Y004179D02*
X021591Y004179D01*
X021669Y004101D02*
X024901Y004101D01*
X024901Y004022D02*
X021748Y004022D01*
X021501Y004651D02*
X024901Y004651D01*
X024901Y004729D02*
X021501Y004729D01*
X021501Y004808D02*
X024901Y004808D01*
X024901Y004886D02*
X021501Y004886D01*
X021501Y004965D02*
X024901Y004965D01*
X024901Y005043D02*
X021501Y005043D01*
X021501Y005122D02*
X024901Y005122D01*
X024901Y005201D02*
X021501Y005201D01*
X021501Y005279D02*
X024901Y005279D01*
X024901Y005358D02*
X021501Y005358D01*
X022638Y006222D02*
X022764Y006222D01*
X022764Y006300D02*
X022638Y006300D01*
X022638Y006379D02*
X022764Y006379D01*
X022764Y006457D02*
X022638Y006457D01*
X022635Y006536D02*
X022774Y006536D01*
X022799Y006614D02*
X022603Y006614D01*
X022568Y006693D02*
X022844Y006693D01*
X022913Y006771D02*
X022489Y006771D01*
X022357Y006850D02*
X023043Y006850D01*
X025489Y006771D02*
X025913Y006771D01*
X025834Y006693D02*
X025568Y006693D01*
X025603Y006614D02*
X025800Y006614D01*
X025767Y006536D02*
X025635Y006536D01*
X025638Y006457D02*
X025764Y006457D01*
X025764Y006379D02*
X025638Y006379D01*
X025638Y006300D02*
X025764Y006300D01*
X025764Y006222D02*
X025638Y006222D01*
X025638Y006143D02*
X025764Y006143D01*
X025764Y006065D02*
X025638Y006065D01*
X025638Y005986D02*
X025764Y005986D01*
X025764Y005907D02*
X025638Y005907D01*
X025638Y005829D02*
X025764Y005829D01*
X025769Y005750D02*
X025633Y005750D01*
X025601Y005672D02*
X025801Y005672D01*
X025838Y005593D02*
X025564Y005593D01*
X025501Y005515D02*
X025917Y005515D01*
X026054Y005436D02*
X025501Y005436D01*
X025501Y005358D02*
X027901Y005358D01*
X027901Y005436D02*
X027347Y005436D01*
X027369Y005443D02*
X027430Y005475D01*
X027486Y005515D01*
X027534Y005564D01*
X027575Y005619D01*
X027606Y005680D01*
X027627Y005746D01*
X027638Y005814D01*
X027638Y006105D01*
X027241Y006105D01*
X027241Y005412D01*
X027303Y005422D01*
X027369Y005443D01*
X027241Y005436D02*
X027161Y005436D01*
X027161Y005412D02*
X027161Y006105D01*
X026764Y006105D01*
X026764Y005814D01*
X026775Y005746D01*
X026796Y005680D01*
X026827Y005619D01*
X026868Y005564D01*
X026916Y005515D01*
X026972Y005475D01*
X027033Y005443D01*
X027099Y005422D01*
X027161Y005412D01*
X027161Y005515D02*
X027241Y005515D01*
X027241Y005593D02*
X027161Y005593D01*
X027161Y005672D02*
X027241Y005672D01*
X027241Y005750D02*
X027161Y005750D01*
X027161Y005829D02*
X027241Y005829D01*
X027241Y005907D02*
X027161Y005907D01*
X027161Y005986D02*
X027241Y005986D01*
X027241Y006065D02*
X027161Y006065D01*
X027161Y006105D02*
X027241Y006105D01*
X027241Y006185D01*
X027161Y006185D01*
X027161Y006105D01*
X027161Y006143D02*
X026638Y006143D01*
X026638Y006065D02*
X026764Y006065D01*
X026764Y005986D02*
X026638Y005986D01*
X026638Y005907D02*
X026764Y005907D01*
X026764Y005829D02*
X026638Y005829D01*
X026633Y005750D02*
X026774Y005750D01*
X026801Y005672D02*
X026601Y005672D01*
X026564Y005593D02*
X026846Y005593D01*
X026917Y005515D02*
X026485Y005515D01*
X026348Y005436D02*
X027055Y005436D01*
X027485Y005515D02*
X027901Y005515D01*
X027901Y005593D02*
X027556Y005593D01*
X027601Y005672D02*
X027901Y005672D01*
X027901Y005750D02*
X027628Y005750D01*
X027638Y005829D02*
X027901Y005829D01*
X027901Y005907D02*
X027638Y005907D01*
X027638Y005986D02*
X027901Y005986D01*
X027901Y006065D02*
X027638Y006065D01*
X027638Y006185D02*
X027638Y006476D01*
X027627Y006544D01*
X027606Y006610D01*
X027575Y006671D01*
X027534Y006726D01*
X027486Y006775D01*
X027430Y006815D01*
X027369Y006847D01*
X027303Y006868D01*
X027241Y006878D01*
X027241Y006185D01*
X027638Y006185D01*
X027638Y006222D02*
X027901Y006222D01*
X027901Y006300D02*
X027638Y006300D01*
X027638Y006379D02*
X027901Y006379D01*
X027901Y006457D02*
X027638Y006457D01*
X027629Y006536D02*
X027901Y006536D01*
X027901Y006614D02*
X027604Y006614D01*
X027559Y006693D02*
X027901Y006693D01*
X027901Y006771D02*
X027489Y006771D01*
X027359Y006850D02*
X027901Y006850D01*
X027901Y006929D02*
X026421Y006929D01*
X026421Y007007D02*
X027901Y007007D01*
X027901Y007086D02*
X026421Y007086D01*
X026421Y007164D02*
X027901Y007164D01*
X027901Y007243D02*
X026415Y007243D01*
X026336Y007321D02*
X027901Y007321D01*
X027901Y007400D02*
X026257Y007400D01*
X026179Y007478D02*
X027901Y007478D01*
X027901Y007557D02*
X026100Y007557D01*
X026022Y007635D02*
X027901Y007635D01*
X027901Y007714D02*
X025943Y007714D01*
X025865Y007792D02*
X027901Y007792D01*
X027901Y007871D02*
X025786Y007871D01*
X025708Y007950D02*
X027901Y007950D01*
X027901Y008028D02*
X025629Y008028D01*
X025551Y008107D02*
X027901Y008107D01*
X027901Y008185D02*
X025472Y008185D01*
X025393Y008264D02*
X027901Y008264D01*
X027901Y008342D02*
X025315Y008342D01*
X025501Y008971D02*
X025971Y008971D01*
X025882Y009049D02*
X025520Y009049D01*
X025583Y009128D02*
X025820Y009128D01*
X025787Y009206D02*
X025615Y009206D01*
X025638Y009285D02*
X025764Y009285D01*
X025764Y009363D02*
X025638Y009363D01*
X025638Y009442D02*
X025764Y009442D01*
X025764Y009520D02*
X025638Y009520D01*
X025638Y009599D02*
X025764Y009599D01*
X025764Y009678D02*
X025638Y009678D01*
X025638Y009756D02*
X025764Y009756D01*
X025764Y009835D02*
X025638Y009835D01*
X025638Y009913D02*
X025764Y009913D01*
X025764Y009992D02*
X025638Y009992D01*
X025621Y010070D02*
X025781Y010070D01*
X025814Y010149D02*
X025588Y010149D01*
X025533Y010227D02*
X025869Y010227D01*
X025947Y010306D02*
X025455Y010306D01*
X024947Y010306D02*
X023443Y010306D01*
X023430Y010315D02*
X023369Y010347D01*
X023303Y010368D01*
X023241Y010378D01*
X023241Y009685D01*
X023638Y009685D01*
X023638Y009976D01*
X023627Y010044D01*
X023606Y010110D01*
X023575Y010171D01*
X023534Y010226D01*
X023486Y010275D01*
X023430Y010315D01*
X023533Y010227D02*
X024869Y010227D01*
X024814Y010149D02*
X023586Y010149D01*
X023619Y010070D02*
X024781Y010070D01*
X024764Y009992D02*
X023635Y009992D01*
X023638Y009913D02*
X024764Y009913D01*
X024764Y009835D02*
X023638Y009835D01*
X023638Y009756D02*
X024764Y009756D01*
X024764Y009678D02*
X023241Y009678D01*
X023241Y009756D02*
X023161Y009756D01*
X023161Y009685D02*
X023161Y010378D01*
X023099Y010368D01*
X023033Y010347D01*
X022972Y010315D01*
X022916Y010275D01*
X022868Y010226D01*
X022827Y010171D01*
X022796Y010110D01*
X022775Y010044D01*
X022764Y009976D01*
X022764Y009685D01*
X023161Y009685D01*
X023161Y009678D02*
X022638Y009678D01*
X022638Y009756D02*
X022764Y009756D01*
X022764Y009835D02*
X022638Y009835D01*
X022638Y009913D02*
X022764Y009913D01*
X022767Y009992D02*
X022638Y009992D01*
X022621Y010070D02*
X022784Y010070D01*
X022816Y010149D02*
X022588Y010149D01*
X022533Y010227D02*
X022869Y010227D01*
X022959Y010306D02*
X022455Y010306D01*
X022273Y010384D02*
X025981Y010384D01*
X025981Y010463D02*
X022194Y010463D01*
X022116Y010541D02*
X025981Y010541D01*
X025915Y010620D02*
X022037Y010620D01*
X021959Y010699D02*
X025836Y010699D01*
X025758Y010777D02*
X021880Y010777D01*
X021802Y010856D02*
X025679Y010856D01*
X025601Y010934D02*
X021223Y010934D01*
X021144Y011013D02*
X025522Y011013D01*
X025444Y011091D02*
X021066Y011091D01*
X020987Y011170D02*
X025365Y011170D01*
X025673Y011484D02*
X027901Y011484D01*
X027901Y011563D02*
X025595Y011563D01*
X025752Y011405D02*
X027901Y011405D01*
X027901Y011327D02*
X025830Y011327D01*
X025909Y011248D02*
X027901Y011248D01*
X027901Y011170D02*
X025987Y011170D01*
X026066Y011091D02*
X027901Y011091D01*
X027901Y011013D02*
X026144Y011013D01*
X026223Y010934D02*
X027901Y010934D01*
X027901Y010856D02*
X026302Y010856D01*
X026380Y010777D02*
X027901Y010777D01*
X027901Y010699D02*
X026421Y010699D01*
X026421Y010620D02*
X027901Y010620D01*
X027901Y010541D02*
X026421Y010541D01*
X026421Y010463D02*
X027901Y010463D01*
X027901Y010384D02*
X026421Y010384D01*
X026455Y010306D02*
X026959Y010306D01*
X026972Y010315D02*
X026916Y010275D01*
X026868Y010226D01*
X026827Y010171D01*
X026796Y010110D01*
X026775Y010044D01*
X026764Y009976D01*
X026764Y009685D01*
X027161Y009685D01*
X027161Y010378D01*
X027099Y010368D01*
X027033Y010347D01*
X026972Y010315D01*
X026869Y010227D02*
X026533Y010227D01*
X026588Y010149D02*
X026816Y010149D01*
X026784Y010070D02*
X026621Y010070D01*
X026638Y009992D02*
X026767Y009992D01*
X026764Y009913D02*
X026638Y009913D01*
X026638Y009835D02*
X026764Y009835D01*
X026764Y009756D02*
X026638Y009756D01*
X026638Y009678D02*
X027161Y009678D01*
X027161Y009756D02*
X027241Y009756D01*
X027241Y009685D02*
X027241Y010378D01*
X027303Y010368D01*
X027369Y010347D01*
X027430Y010315D01*
X027486Y010275D01*
X027534Y010226D01*
X027575Y010171D01*
X027606Y010110D01*
X027627Y010044D01*
X027638Y009976D01*
X027638Y009685D01*
X027241Y009685D01*
X027241Y009678D02*
X027901Y009678D01*
X027901Y009756D02*
X027638Y009756D01*
X027638Y009835D02*
X027901Y009835D01*
X027901Y009913D02*
X027638Y009913D01*
X027635Y009992D02*
X027901Y009992D01*
X027901Y010070D02*
X027619Y010070D01*
X027586Y010149D02*
X027901Y010149D01*
X027901Y010227D02*
X027533Y010227D01*
X027443Y010306D02*
X027901Y010306D01*
X027241Y010306D02*
X027161Y010306D01*
X027161Y010227D02*
X027241Y010227D01*
X027241Y010149D02*
X027161Y010149D01*
X027161Y010070D02*
X027241Y010070D01*
X027241Y009992D02*
X027161Y009992D01*
X027161Y009913D02*
X027241Y009913D01*
X027241Y009835D02*
X027161Y009835D01*
X026764Y009599D02*
X026638Y009599D01*
X026638Y009520D02*
X026764Y009520D01*
X026764Y009442D02*
X026638Y009442D01*
X026638Y009363D02*
X026764Y009363D01*
X026769Y009285D02*
X026638Y009285D01*
X026615Y009206D02*
X026788Y009206D01*
X026823Y009128D02*
X026583Y009128D01*
X026520Y009049D02*
X026882Y009049D01*
X026980Y008971D02*
X026431Y008971D01*
X027422Y008971D02*
X027901Y008971D01*
X027901Y009049D02*
X027520Y009049D01*
X027579Y009128D02*
X027901Y009128D01*
X027901Y009206D02*
X027614Y009206D01*
X027633Y009285D02*
X027901Y009285D01*
X027901Y009363D02*
X027638Y009363D01*
X027638Y009442D02*
X027901Y009442D01*
X027901Y009520D02*
X027638Y009520D01*
X027638Y009599D02*
X027901Y009599D01*
X024901Y008971D02*
X023422Y008971D01*
X023520Y009049D02*
X024882Y009049D01*
X024820Y009128D02*
X023579Y009128D01*
X023614Y009206D02*
X024787Y009206D01*
X024764Y009285D02*
X023633Y009285D01*
X023638Y009363D02*
X024764Y009363D01*
X024764Y009442D02*
X023638Y009442D01*
X023638Y009520D02*
X024764Y009520D01*
X024764Y009599D02*
X023638Y009599D01*
X023241Y009835D02*
X023161Y009835D01*
X023161Y009913D02*
X023241Y009913D01*
X023241Y009992D02*
X023161Y009992D01*
X023161Y010070D02*
X023241Y010070D01*
X023241Y010149D02*
X023161Y010149D01*
X023161Y010227D02*
X023241Y010227D01*
X023241Y010306D02*
X023161Y010306D01*
X022764Y009599D02*
X022638Y009599D01*
X022638Y009520D02*
X022764Y009520D01*
X022764Y009442D02*
X022638Y009442D01*
X022638Y009363D02*
X022764Y009363D01*
X022769Y009285D02*
X022638Y009285D01*
X022615Y009206D02*
X022788Y009206D01*
X022823Y009128D02*
X022583Y009128D01*
X022520Y009049D02*
X022882Y009049D01*
X022980Y008971D02*
X022431Y008971D01*
X021287Y011248D02*
X020909Y011248D01*
X020830Y011327D02*
X021208Y011327D01*
X021130Y011405D02*
X020752Y011405D01*
X020673Y011484D02*
X021051Y011484D01*
X020972Y011563D02*
X020595Y011563D01*
X020516Y011641D02*
X020894Y011641D01*
X020815Y011720D02*
X020438Y011720D01*
X020359Y011798D02*
X020737Y011798D01*
X020658Y011877D02*
X020280Y011877D01*
X020202Y011955D02*
X020580Y011955D01*
X020501Y012034D02*
X020171Y012034D01*
X020171Y012112D02*
X020423Y012112D01*
X020344Y012191D02*
X020171Y012191D01*
X020171Y012269D02*
X020266Y012269D01*
X020231Y012348D02*
X020171Y012348D01*
X020171Y012427D02*
X020231Y012427D01*
X020231Y012505D02*
X020152Y012505D01*
X020074Y012584D02*
X020231Y012584D01*
X020231Y012662D02*
X019995Y012662D01*
X019916Y012741D02*
X020231Y012741D01*
X020216Y012819D02*
X019838Y012819D01*
X019774Y012898D02*
X020137Y012898D01*
X020059Y012976D02*
X019695Y012976D01*
X019902Y013133D02*
X018341Y013133D01*
X018341Y013212D02*
X019823Y013212D01*
X019744Y013291D02*
X019650Y013291D01*
X019980Y013055D02*
X018294Y013055D01*
X019568Y012034D02*
X019731Y012034D01*
X019731Y011955D02*
X019716Y011955D01*
X019787Y011248D02*
X019549Y011248D01*
X015715Y010306D02*
X015673Y010306D01*
X011764Y009599D02*
X010638Y009599D01*
X010638Y009520D02*
X011764Y009520D01*
X011764Y009442D02*
X010638Y009442D01*
X010638Y009363D02*
X011764Y009363D01*
X011764Y009285D02*
X010633Y009285D01*
X010614Y009206D02*
X011787Y009206D01*
X011760Y009128D02*
X010579Y009128D01*
X010520Y009049D02*
X011681Y009049D01*
X011602Y008971D02*
X010422Y008971D01*
X009980Y008971D02*
X009431Y008971D01*
X009520Y009049D02*
X009882Y009049D01*
X009823Y009128D02*
X009583Y009128D01*
X009615Y009206D02*
X009788Y009206D01*
X009769Y009285D02*
X009638Y009285D01*
X009638Y009363D02*
X009764Y009363D01*
X009764Y009442D02*
X009638Y009442D01*
X009638Y009520D02*
X009764Y009520D01*
X009764Y009599D02*
X009638Y009599D01*
X010161Y009835D02*
X010241Y009835D01*
X010241Y009913D02*
X010161Y009913D01*
X010161Y009992D02*
X010241Y009992D01*
X010241Y010070D02*
X010161Y010070D01*
X010161Y010149D02*
X010241Y010149D01*
X010241Y010227D02*
X010161Y010227D01*
X010161Y010306D02*
X010241Y010306D01*
X006901Y011327D02*
X006638Y011327D01*
X006638Y011405D02*
X006901Y011405D01*
X006901Y011484D02*
X006637Y011484D01*
X006621Y011563D02*
X006901Y011563D01*
X006901Y011641D02*
X006590Y011641D01*
X006539Y011720D02*
X006901Y011720D01*
X006901Y011798D02*
X006454Y011798D01*
X006241Y011798D02*
X006161Y011798D01*
X006161Y011720D02*
X006241Y011720D01*
X006241Y011641D02*
X006161Y011641D01*
X006161Y011563D02*
X006241Y011563D01*
X006241Y011484D02*
X006161Y011484D01*
X006161Y011405D02*
X006241Y011405D01*
X006241Y011327D02*
X006161Y011327D01*
X006161Y011091D02*
X006241Y011091D01*
X006241Y011013D02*
X006161Y011013D01*
X006161Y010934D02*
X006241Y010934D01*
X006241Y010856D02*
X006161Y010856D01*
X006161Y010777D02*
X006241Y010777D01*
X006241Y010699D02*
X006161Y010699D01*
X006161Y010620D02*
X006241Y010620D01*
X006241Y010541D02*
X006161Y010541D01*
X006161Y010463D02*
X006241Y010463D01*
X005995Y010463D02*
X005413Y010463D01*
X005512Y010541D02*
X005890Y010541D01*
X005827Y010620D02*
X005579Y010620D01*
X005612Y010699D02*
X005790Y010699D01*
X005770Y010777D02*
X005638Y010777D01*
X005638Y010856D02*
X005764Y010856D01*
X005764Y010934D02*
X005638Y010934D01*
X005638Y011013D02*
X005764Y011013D01*
X005764Y011091D02*
X005638Y011091D01*
X004990Y010463D02*
X004921Y010463D01*
X004481Y010463D02*
X004413Y010463D01*
X015077Y018710D02*
X028561Y018710D01*
X028561Y018789D02*
X015156Y018789D01*
X015234Y018867D02*
X028561Y018867D01*
X028561Y018946D02*
X015313Y018946D01*
X015391Y019024D02*
X017563Y019024D01*
X017582Y019005D02*
X017743Y019005D01*
X017861Y019123D01*
X017861Y019119D01*
X017976Y019005D01*
X018137Y019005D01*
X018182Y019050D01*
X018226Y019005D01*
X018782Y019005D01*
X018896Y019119D01*
X018896Y019281D01*
X018896Y019414D01*
X018896Y019472D01*
X018954Y019414D01*
X018954Y019119D01*
X019068Y019005D01*
X019229Y019005D01*
X019344Y019119D01*
X019344Y019414D01*
X019401Y019472D01*
X019401Y019414D01*
X019401Y019119D01*
X019515Y019005D01*
X019677Y019005D01*
X019791Y019119D01*
X019791Y019300D01*
X019795Y019300D01*
X019795Y019119D01*
X019909Y019005D01*
X020071Y019005D01*
X020115Y019050D01*
X020160Y019005D01*
X020715Y019005D01*
X020829Y019119D01*
X020829Y019281D01*
X020829Y019871D01*
X020715Y019985D01*
X020554Y019985D01*
X020439Y019871D01*
X020439Y019395D01*
X020185Y019395D01*
X020185Y019674D01*
X020071Y019789D01*
X020071Y019789D01*
X019988Y019871D01*
X019988Y019871D01*
X019874Y019985D01*
X019712Y019985D01*
X019540Y019814D01*
X019540Y019871D01*
X019426Y019985D01*
X019265Y019985D01*
X019150Y019871D01*
X019150Y019773D01*
X019149Y019771D01*
X019147Y019773D01*
X019147Y019871D01*
X019032Y019985D01*
X018871Y019985D01*
X018826Y019941D01*
X018782Y019985D01*
X018620Y019985D01*
X018226Y019985D01*
X018182Y019941D01*
X018137Y019985D01*
X017842Y019985D01*
X017680Y019985D01*
X017610Y019916D01*
X017582Y019887D01*
X017582Y019887D01*
X017538Y019843D01*
X017468Y019773D01*
X017468Y019576D01*
X017468Y019414D01*
X017534Y019348D01*
X017468Y019281D01*
X017468Y019119D01*
X017582Y019005D01*
X017484Y019103D02*
X015470Y019103D01*
X015548Y019181D02*
X017468Y019181D01*
X017468Y019260D02*
X015627Y019260D01*
X015706Y019338D02*
X017525Y019338D01*
X017468Y019417D02*
X015784Y019417D01*
X015863Y019495D02*
X017468Y019495D01*
X017468Y019574D02*
X015941Y019574D01*
X016020Y019653D02*
X017468Y019653D01*
X017468Y019731D02*
X016098Y019731D01*
X016177Y019810D02*
X017504Y019810D01*
X017468Y019773D02*
X017468Y019773D01*
X017583Y019888D02*
X016255Y019888D01*
X016321Y019967D02*
X017662Y019967D01*
X017680Y019985D02*
X017680Y019985D01*
X017879Y020202D02*
X017323Y020202D01*
X017402Y020281D02*
X017801Y020281D01*
X017722Y020359D02*
X017480Y020359D01*
X017559Y020438D02*
X017644Y020438D01*
X017631Y020450D02*
X017906Y020175D01*
X018296Y020175D01*
X018571Y020450D01*
X018571Y020840D01*
X018296Y021115D01*
X017906Y021115D01*
X017631Y020840D01*
X017631Y020450D01*
X017631Y020516D02*
X017571Y020516D01*
X017571Y020595D02*
X017631Y020595D01*
X017631Y020674D02*
X017571Y020674D01*
X017571Y020752D02*
X017631Y020752D01*
X017631Y020831D02*
X017571Y020831D01*
X017502Y020909D02*
X017701Y020909D01*
X017779Y020988D02*
X017423Y020988D01*
X017344Y021066D02*
X017858Y021066D01*
X018344Y021066D02*
X018858Y021066D01*
X018906Y021115D02*
X018631Y020840D01*
X018631Y020450D01*
X018906Y020175D01*
X019296Y020175D01*
X019571Y020450D01*
X019571Y020840D01*
X019296Y021115D01*
X018906Y021115D01*
X018779Y020988D02*
X018423Y020988D01*
X018502Y020909D02*
X018701Y020909D01*
X018631Y020831D02*
X018571Y020831D01*
X018571Y020752D02*
X018631Y020752D01*
X018631Y020674D02*
X018571Y020674D01*
X018571Y020595D02*
X018631Y020595D01*
X018631Y020516D02*
X018571Y020516D01*
X018559Y020438D02*
X018644Y020438D01*
X018722Y020359D02*
X018480Y020359D01*
X018402Y020281D02*
X018801Y020281D01*
X018879Y020202D02*
X018323Y020202D01*
X018208Y019967D02*
X018156Y019967D01*
X018800Y019967D02*
X018852Y019967D01*
X019051Y019967D02*
X019246Y019967D01*
X019167Y019888D02*
X019130Y019888D01*
X019147Y019810D02*
X019150Y019810D01*
X019445Y019967D02*
X019694Y019967D01*
X019615Y019888D02*
X019523Y019888D01*
X019323Y020202D02*
X020479Y020202D01*
X020506Y020175D02*
X020896Y020175D01*
X021171Y020450D01*
X021171Y020840D01*
X020896Y021115D01*
X020506Y021115D01*
X020231Y020840D01*
X020231Y020450D01*
X020506Y020175D01*
X020401Y020281D02*
X019402Y020281D01*
X019480Y020359D02*
X020322Y020359D01*
X020244Y020438D02*
X019559Y020438D01*
X019571Y020516D02*
X020231Y020516D01*
X020231Y020595D02*
X019571Y020595D01*
X019571Y020674D02*
X020231Y020674D01*
X020231Y020752D02*
X019571Y020752D01*
X019571Y020831D02*
X020231Y020831D01*
X020301Y020909D02*
X019502Y020909D01*
X019423Y020988D02*
X020379Y020988D01*
X020458Y021066D02*
X019344Y021066D01*
X019893Y019967D02*
X020535Y019967D01*
X020456Y019888D02*
X019971Y019888D01*
X020050Y019810D02*
X020439Y019810D01*
X020439Y019731D02*
X020128Y019731D01*
X020185Y019653D02*
X020439Y019653D01*
X020439Y019574D02*
X020185Y019574D01*
X020185Y019495D02*
X020439Y019495D01*
X020439Y019417D02*
X020185Y019417D01*
X019795Y019260D02*
X019791Y019260D01*
X019791Y019181D02*
X019795Y019181D01*
X019811Y019103D02*
X019775Y019103D01*
X019696Y019024D02*
X019890Y019024D01*
X020090Y019024D02*
X020141Y019024D01*
X020734Y019024D02*
X021430Y019024D01*
X021449Y019005D02*
X021611Y019005D01*
X021725Y019119D01*
X021725Y019399D01*
X021728Y019399D01*
X021728Y019119D01*
X021843Y019005D01*
X022004Y019005D01*
X022098Y019099D01*
X022122Y019075D01*
X022192Y019005D01*
X022354Y019005D01*
X022550Y019005D01*
X022665Y019119D01*
X022763Y019218D01*
X022763Y019379D01*
X022763Y019596D01*
X022821Y019596D01*
X022821Y019119D01*
X022935Y019005D01*
X023096Y019005D01*
X023211Y019119D01*
X023211Y019596D01*
X023293Y019596D01*
X023338Y019640D01*
X023383Y019596D01*
X023465Y019596D01*
X023465Y019119D01*
X023579Y019005D01*
X023741Y019005D01*
X023855Y019119D01*
X023855Y019596D01*
X023913Y019596D01*
X023913Y019218D01*
X023913Y019218D01*
X023983Y019148D01*
X024027Y019103D01*
X024056Y019075D01*
X024126Y019005D01*
X024287Y019005D01*
X024484Y019005D01*
X024598Y019119D01*
X024627Y019148D01*
X024629Y019146D01*
X024672Y019103D01*
X024582Y019103D01*
X024672Y019103D02*
X024672Y019103D01*
X024698Y019077D01*
X024770Y019005D01*
X025227Y019005D01*
X025341Y019119D01*
X025341Y019281D01*
X025341Y019414D01*
X025341Y019576D01*
X025341Y019710D01*
X025341Y019871D01*
X025227Y019985D01*
X024932Y019985D01*
X024770Y019985D01*
X024700Y019916D01*
X024672Y019887D01*
X024672Y019887D01*
X024627Y019843D01*
X024627Y019842D01*
X024582Y019887D01*
X024484Y019985D01*
X024322Y019985D01*
X024287Y019985D01*
X024126Y019985D01*
X024126Y019985D01*
X024062Y019922D01*
X024032Y019892D01*
X023938Y019985D01*
X023383Y019985D01*
X023338Y019941D01*
X023293Y019985D01*
X022738Y019985D01*
X022644Y019892D01*
X022550Y019985D01*
X022389Y019985D01*
X022354Y019985D01*
X022192Y019985D01*
X022128Y019922D01*
X022098Y019892D01*
X022004Y019985D01*
X021843Y019985D01*
X021727Y019869D01*
X021613Y019983D01*
X021611Y019985D01*
X021449Y019985D01*
X021336Y019873D01*
X021335Y019871D01*
X021335Y019119D01*
X021449Y019005D01*
X021351Y019103D02*
X020813Y019103D01*
X020829Y019181D02*
X021335Y019181D01*
X021335Y019260D02*
X020829Y019260D01*
X020829Y019338D02*
X021335Y019338D01*
X021335Y019417D02*
X020829Y019417D01*
X020829Y019495D02*
X021335Y019495D01*
X021335Y019574D02*
X020829Y019574D01*
X020829Y019653D02*
X021335Y019653D01*
X021335Y019731D02*
X020829Y019731D01*
X020829Y019810D02*
X021335Y019810D01*
X021352Y019888D02*
X020812Y019888D01*
X020734Y019967D02*
X021430Y019967D01*
X021449Y019985D02*
X021449Y019985D01*
X021629Y019967D02*
X021824Y019967D01*
X021745Y019888D02*
X021708Y019888D01*
X022023Y019967D02*
X022173Y019967D01*
X022192Y019985D02*
X022192Y019985D01*
X021923Y020202D02*
X022479Y020202D01*
X022506Y020175D02*
X022896Y020175D01*
X023171Y020450D01*
X023171Y020840D01*
X022896Y021115D01*
X022506Y021115D01*
X022231Y020840D01*
X022231Y020450D01*
X022506Y020175D01*
X022401Y020281D02*
X022002Y020281D01*
X022080Y020359D02*
X022322Y020359D01*
X022244Y020438D02*
X022159Y020438D01*
X022171Y020450D02*
X021896Y020175D01*
X021506Y020175D01*
X021231Y020450D01*
X021231Y020840D01*
X021506Y021115D01*
X021896Y021115D01*
X022171Y020840D01*
X022171Y020450D01*
X022171Y020516D02*
X022231Y020516D01*
X022231Y020595D02*
X022171Y020595D01*
X022171Y020674D02*
X022231Y020674D01*
X022231Y020752D02*
X022171Y020752D01*
X022171Y020831D02*
X022231Y020831D01*
X022301Y020909D02*
X022102Y020909D01*
X022023Y020988D02*
X022379Y020988D01*
X022458Y021066D02*
X021944Y021066D01*
X021458Y021066D02*
X020944Y021066D01*
X021023Y020988D02*
X021379Y020988D01*
X021301Y020909D02*
X021102Y020909D01*
X021171Y020831D02*
X021231Y020831D01*
X021231Y020752D02*
X021171Y020752D01*
X021171Y020674D02*
X021231Y020674D01*
X021231Y020595D02*
X021171Y020595D01*
X021171Y020516D02*
X021231Y020516D01*
X021244Y020438D02*
X021159Y020438D01*
X021080Y020359D02*
X021322Y020359D01*
X021401Y020281D02*
X021002Y020281D01*
X020923Y020202D02*
X021479Y020202D01*
X021725Y019338D02*
X021728Y019338D01*
X021725Y019260D02*
X021728Y019260D01*
X021725Y019181D02*
X021728Y019181D01*
X021745Y019103D02*
X021708Y019103D01*
X021630Y019024D02*
X021824Y019024D01*
X022023Y019024D02*
X022173Y019024D01*
X022192Y019005D02*
X022192Y019005D01*
X022569Y019024D02*
X022916Y019024D01*
X022837Y019103D02*
X022648Y019103D01*
X022727Y019181D02*
X022821Y019181D01*
X022821Y019260D02*
X022763Y019260D01*
X022763Y019338D02*
X022821Y019338D01*
X022821Y019417D02*
X022763Y019417D01*
X022763Y019495D02*
X022821Y019495D01*
X022821Y019574D02*
X022763Y019574D01*
X023211Y019574D02*
X023465Y019574D01*
X023465Y019495D02*
X023211Y019495D01*
X023211Y019417D02*
X023465Y019417D01*
X023465Y019338D02*
X023211Y019338D01*
X023211Y019260D02*
X023465Y019260D01*
X023465Y019181D02*
X023211Y019181D01*
X023194Y019103D02*
X023482Y019103D01*
X023560Y019024D02*
X023116Y019024D01*
X023760Y019024D02*
X024106Y019024D01*
X024126Y019005D02*
X024126Y019005D01*
X024028Y019103D02*
X023839Y019103D01*
X023855Y019181D02*
X023949Y019181D01*
X023913Y019260D02*
X023855Y019260D01*
X023855Y019338D02*
X023913Y019338D01*
X023913Y019417D02*
X023855Y019417D01*
X023855Y019495D02*
X023913Y019495D01*
X023913Y019574D02*
X023855Y019574D01*
X023957Y019967D02*
X024107Y019967D01*
X023896Y020175D02*
X024171Y020450D01*
X024171Y020840D01*
X023896Y021115D01*
X023506Y021115D01*
X023231Y020840D01*
X023231Y020450D01*
X023506Y020175D01*
X023896Y020175D01*
X023923Y020202D02*
X024479Y020202D01*
X024506Y020175D02*
X024896Y020175D01*
X025171Y020450D01*
X025171Y020840D01*
X024896Y021115D01*
X024506Y021115D01*
X024231Y020840D01*
X024231Y020450D01*
X024506Y020175D01*
X024401Y020281D02*
X024002Y020281D01*
X024080Y020359D02*
X024322Y020359D01*
X024244Y020438D02*
X024159Y020438D01*
X024171Y020516D02*
X024231Y020516D01*
X024231Y020595D02*
X024171Y020595D01*
X024171Y020674D02*
X024231Y020674D01*
X024231Y020752D02*
X024171Y020752D01*
X024171Y020831D02*
X024231Y020831D01*
X024301Y020909D02*
X024102Y020909D01*
X024023Y020988D02*
X024379Y020988D01*
X024458Y021066D02*
X023944Y021066D01*
X023458Y021066D02*
X022944Y021066D01*
X023023Y020988D02*
X023379Y020988D01*
X023301Y020909D02*
X023102Y020909D01*
X023171Y020831D02*
X023231Y020831D01*
X023231Y020752D02*
X023171Y020752D01*
X023171Y020674D02*
X023231Y020674D01*
X023231Y020595D02*
X023171Y020595D01*
X023171Y020516D02*
X023231Y020516D01*
X023244Y020438D02*
X023159Y020438D01*
X023080Y020359D02*
X023322Y020359D01*
X023401Y020281D02*
X023002Y020281D01*
X022923Y020202D02*
X023479Y020202D01*
X023364Y019967D02*
X023312Y019967D01*
X022719Y019967D02*
X022569Y019967D01*
X024027Y019103D02*
X024027Y019103D01*
X024503Y019024D02*
X024751Y019024D01*
X025246Y019024D02*
X028561Y019024D01*
X028561Y019103D02*
X025325Y019103D01*
X025341Y019181D02*
X028561Y019181D01*
X028561Y019260D02*
X025341Y019260D01*
X025341Y019338D02*
X028561Y019338D01*
X028561Y019417D02*
X025341Y019417D01*
X025341Y019495D02*
X028561Y019495D01*
X028561Y019574D02*
X025341Y019574D01*
X025341Y019653D02*
X028561Y019653D01*
X028561Y019731D02*
X025341Y019731D01*
X025341Y019810D02*
X028561Y019810D01*
X028561Y019888D02*
X025324Y019888D01*
X025246Y019967D02*
X028561Y019967D01*
X028561Y020045D02*
X016321Y020045D01*
X017763Y019024D02*
X017956Y019024D01*
X017878Y019103D02*
X017841Y019103D01*
X018156Y019024D02*
X018207Y019024D01*
X018801Y019024D02*
X019049Y019024D01*
X018970Y019103D02*
X018879Y019103D01*
X018896Y019181D02*
X018954Y019181D01*
X018954Y019260D02*
X018896Y019260D01*
X018896Y019338D02*
X018954Y019338D01*
X018951Y019417D02*
X018896Y019417D01*
X019346Y019417D02*
X019401Y019417D01*
X019401Y019338D02*
X019344Y019338D01*
X019344Y019260D02*
X019401Y019260D01*
X019401Y019181D02*
X019344Y019181D01*
X019327Y019103D02*
X019418Y019103D01*
X019496Y019024D02*
X019248Y019024D01*
X019642Y018003D02*
X019748Y018003D01*
X019727Y016982D02*
X019690Y016982D01*
X018848Y016040D02*
X016554Y016040D01*
X016711Y015961D02*
X018691Y015961D01*
X018613Y015882D02*
X018238Y015882D01*
X018314Y015804D02*
X018574Y015804D01*
X018541Y015725D02*
X018342Y015725D01*
X018340Y015647D02*
X018541Y015647D01*
X018541Y015568D02*
X018298Y015568D01*
X018216Y015490D02*
X018572Y015490D01*
X018609Y015411D02*
X018134Y015411D01*
X018296Y015333D02*
X018688Y015333D01*
X018341Y015097D02*
X019938Y015097D01*
X020031Y014626D02*
X025409Y014626D01*
X026702Y015568D02*
X029480Y015568D01*
X029401Y015647D02*
X026624Y015647D01*
X026545Y015725D02*
X029323Y015725D01*
X029244Y015804D02*
X026466Y015804D01*
X026388Y015882D02*
X029166Y015882D01*
X029087Y015961D02*
X027403Y015961D01*
X027430Y015975D02*
X027486Y016015D01*
X027534Y016064D01*
X027575Y016119D01*
X027606Y016180D01*
X027627Y016246D01*
X027638Y016314D01*
X027638Y016605D01*
X027241Y016605D01*
X027241Y015912D01*
X027303Y015922D01*
X027369Y015943D01*
X027430Y015975D01*
X027510Y016040D02*
X029009Y016040D01*
X028930Y016118D02*
X027574Y016118D01*
X027611Y016197D02*
X028851Y016197D01*
X028773Y016275D02*
X027632Y016275D01*
X027638Y016354D02*
X028694Y016354D01*
X028616Y016432D02*
X027638Y016432D01*
X027638Y016511D02*
X028561Y016511D01*
X028561Y016589D02*
X027638Y016589D01*
X027638Y016685D02*
X027638Y016976D01*
X027627Y017044D01*
X027606Y017110D01*
X027575Y017171D01*
X027534Y017226D01*
X027486Y017275D01*
X027430Y017315D01*
X027369Y017347D01*
X027303Y017368D01*
X027241Y017378D01*
X027241Y016685D01*
X027161Y016685D01*
X027161Y016605D01*
X026764Y016605D01*
X026764Y016314D01*
X026775Y016246D01*
X026796Y016180D01*
X026827Y016119D01*
X026868Y016064D01*
X026916Y016015D01*
X026972Y015975D01*
X027033Y015943D01*
X027099Y015922D01*
X027161Y015912D01*
X027161Y016605D01*
X027241Y016605D01*
X027241Y016685D01*
X027638Y016685D01*
X027638Y016746D02*
X028561Y016746D01*
X028561Y016668D02*
X027241Y016668D01*
X027241Y016746D02*
X027161Y016746D01*
X027161Y016685D02*
X027161Y017378D01*
X027099Y017368D01*
X027033Y017347D01*
X026972Y017315D01*
X026916Y017275D01*
X026868Y017226D01*
X026827Y017171D01*
X026796Y017110D01*
X026775Y017044D01*
X026764Y016976D01*
X026764Y016685D01*
X027161Y016685D01*
X027161Y016668D02*
X026638Y016668D01*
X026638Y016746D02*
X026764Y016746D01*
X026764Y016825D02*
X026638Y016825D01*
X026638Y016904D02*
X026764Y016904D01*
X026765Y016982D02*
X026638Y016982D01*
X026625Y017061D02*
X026780Y017061D01*
X026811Y017139D02*
X026592Y017139D01*
X026543Y017218D02*
X026862Y017218D01*
X026946Y017296D02*
X026465Y017296D01*
X026298Y017375D02*
X027142Y017375D01*
X027161Y017375D02*
X027241Y017375D01*
X027260Y017375D02*
X028561Y017375D01*
X028561Y017453D02*
X026204Y017453D01*
X026125Y017532D02*
X028561Y017532D01*
X028561Y017610D02*
X026047Y017610D01*
X025968Y017689D02*
X028561Y017689D01*
X028561Y017767D02*
X025890Y017767D01*
X025811Y017846D02*
X028561Y017846D01*
X028561Y017925D02*
X025733Y017925D01*
X025654Y018003D02*
X028561Y018003D01*
X028561Y018082D02*
X025576Y018082D01*
X025497Y018160D02*
X028561Y018160D01*
X028561Y018239D02*
X025418Y018239D01*
X025340Y018317D02*
X028561Y018317D01*
X028561Y017296D02*
X027457Y017296D01*
X027541Y017218D02*
X028561Y017218D01*
X028561Y017139D02*
X027591Y017139D01*
X027622Y017061D02*
X028561Y017061D01*
X028561Y016982D02*
X027637Y016982D01*
X027638Y016904D02*
X028561Y016904D01*
X028561Y016825D02*
X027638Y016825D01*
X027241Y016825D02*
X027161Y016825D01*
X027161Y016904D02*
X027241Y016904D01*
X027241Y016982D02*
X027161Y016982D01*
X027161Y017061D02*
X027241Y017061D01*
X027241Y017139D02*
X027161Y017139D01*
X027161Y017218D02*
X027241Y017218D01*
X027241Y017296D02*
X027161Y017296D01*
X027161Y016589D02*
X027241Y016589D01*
X027241Y016511D02*
X027161Y016511D01*
X027161Y016432D02*
X027241Y016432D01*
X027241Y016354D02*
X027161Y016354D01*
X027161Y016275D02*
X027241Y016275D01*
X027241Y016197D02*
X027161Y016197D01*
X027161Y016118D02*
X027241Y016118D01*
X027241Y016040D02*
X027161Y016040D01*
X027161Y015961D02*
X027241Y015961D01*
X026999Y015961D02*
X026408Y015961D01*
X026510Y016040D02*
X026892Y016040D01*
X026828Y016118D02*
X026579Y016118D01*
X026611Y016197D02*
X026791Y016197D01*
X026770Y016275D02*
X026638Y016275D01*
X026638Y016354D02*
X026764Y016354D01*
X026764Y016432D02*
X026638Y016432D01*
X026638Y016511D02*
X026764Y016511D01*
X026764Y016589D02*
X026638Y016589D01*
X026638Y013212D02*
X026764Y013212D01*
X019723Y014312D02*
X019693Y014312D01*
X017966Y015804D02*
X017945Y015804D01*
X017866Y015882D02*
X018048Y015882D01*
X017426Y015882D02*
X016789Y015882D01*
X016828Y015804D02*
X017347Y015804D01*
X017201Y015568D02*
X016861Y015568D01*
X016830Y015490D02*
X017201Y015490D01*
X017201Y015411D02*
X016793Y015411D01*
X016714Y015333D02*
X017201Y015333D01*
X017201Y015254D02*
X016563Y015254D01*
X013633Y019888D02*
X008886Y019888D01*
X009075Y019967D02*
X013712Y019967D01*
X013790Y020045D02*
X009190Y020045D01*
X008516Y019888D02*
X002841Y019888D01*
X002841Y019810D02*
X005555Y019810D01*
X007931Y020516D02*
X002841Y020516D01*
X002841Y020438D02*
X007954Y020438D01*
X007986Y020359D02*
X002841Y020359D01*
X002841Y020281D02*
X008019Y020281D01*
X008055Y020202D02*
X002841Y020202D01*
X002841Y020124D02*
X008134Y020124D01*
X008212Y020045D02*
X002841Y020045D01*
X002841Y019967D02*
X008327Y019967D01*
X007931Y020595D02*
X002841Y020595D01*
X002841Y020674D02*
X007931Y020674D01*
X007931Y020752D02*
X002841Y020752D01*
X002841Y020831D02*
X007945Y020831D01*
X007977Y020909D02*
X002841Y020909D01*
X002841Y020988D02*
X008010Y020988D01*
X008042Y021066D02*
X002841Y021066D01*
X002841Y021145D02*
X008112Y021145D01*
X008191Y021223D02*
X002841Y021223D01*
X002841Y021302D02*
X008275Y021302D01*
X008465Y021380D02*
X002841Y021380D01*
X002841Y021459D02*
X028089Y021459D01*
X028168Y021380D02*
X008937Y021380D01*
X009127Y021302D02*
X028246Y021302D01*
X028325Y021223D02*
X009212Y021223D01*
X024503Y019967D02*
X024751Y019967D01*
X024770Y019985D02*
X024770Y019985D01*
X024673Y019888D02*
X024581Y019888D01*
X024923Y020202D02*
X025479Y020202D01*
X025506Y020175D02*
X025231Y020450D01*
X025231Y020840D01*
X025506Y021115D01*
X025896Y021115D01*
X026171Y020840D01*
X026171Y020450D01*
X025896Y020175D01*
X025506Y020175D01*
X025401Y020281D02*
X025002Y020281D01*
X025080Y020359D02*
X025322Y020359D01*
X025244Y020438D02*
X025159Y020438D01*
X025171Y020516D02*
X025231Y020516D01*
X025231Y020595D02*
X025171Y020595D01*
X025171Y020674D02*
X025231Y020674D01*
X025231Y020752D02*
X025171Y020752D01*
X025171Y020831D02*
X025231Y020831D01*
X025301Y020909D02*
X025102Y020909D01*
X025023Y020988D02*
X025379Y020988D01*
X025458Y021066D02*
X024944Y021066D01*
X025944Y021066D02*
X026458Y021066D01*
X026506Y021115D02*
X026231Y020840D01*
X026231Y020450D01*
X026506Y020175D01*
X026896Y020175D01*
X027171Y020450D01*
X027171Y020840D01*
X026896Y021115D01*
X026506Y021115D01*
X026379Y020988D02*
X026023Y020988D01*
X026102Y020909D02*
X026301Y020909D01*
X026231Y020831D02*
X026171Y020831D01*
X026171Y020752D02*
X026231Y020752D01*
X026231Y020674D02*
X026171Y020674D01*
X026171Y020595D02*
X026231Y020595D01*
X026231Y020516D02*
X026171Y020516D01*
X026159Y020438D02*
X026244Y020438D01*
X026322Y020359D02*
X026080Y020359D01*
X026002Y020281D02*
X026401Y020281D01*
X026479Y020202D02*
X025923Y020202D01*
X026923Y020202D02*
X027479Y020202D01*
X027401Y020281D02*
X027002Y020281D01*
X027080Y020359D02*
X027322Y020359D01*
X027244Y020438D02*
X027159Y020438D01*
X027171Y020516D02*
X027231Y020516D01*
X027231Y020595D02*
X027171Y020595D01*
X027171Y020674D02*
X027231Y020674D01*
X027231Y020752D02*
X027171Y020752D01*
X027171Y020831D02*
X027231Y020831D01*
X027301Y020909D02*
X027102Y020909D01*
X027023Y020988D02*
X027379Y020988D01*
X027458Y021066D02*
X026944Y021066D01*
X027161Y006878D02*
X027099Y006868D01*
X027033Y006847D01*
X026972Y006815D01*
X026916Y006775D01*
X026868Y006726D01*
X026827Y006671D01*
X026796Y006610D01*
X026775Y006544D01*
X026764Y006476D01*
X026764Y006185D01*
X027161Y006185D01*
X027161Y006878D01*
X027161Y006850D02*
X027241Y006850D01*
X027241Y006771D02*
X027161Y006771D01*
X027161Y006693D02*
X027241Y006693D01*
X027241Y006614D02*
X027161Y006614D01*
X027161Y006536D02*
X027241Y006536D01*
X027241Y006457D02*
X027161Y006457D01*
X027161Y006379D02*
X027241Y006379D01*
X027241Y006300D02*
X027161Y006300D01*
X027161Y006222D02*
X027241Y006222D01*
X027241Y006143D02*
X027901Y006143D01*
X027043Y006850D02*
X026421Y006850D01*
X026489Y006771D02*
X026913Y006771D01*
X026844Y006693D02*
X026568Y006693D01*
X026603Y006614D02*
X026799Y006614D01*
X026774Y006536D02*
X026635Y006536D01*
X026638Y006457D02*
X026764Y006457D01*
X026764Y006379D02*
X026638Y006379D01*
X026638Y006300D02*
X026764Y006300D01*
X026764Y006222D02*
X026638Y006222D01*
X025501Y005279D02*
X027901Y005279D01*
X027901Y005201D02*
X025501Y005201D01*
X025501Y005122D02*
X027901Y005122D01*
X027901Y005043D02*
X025501Y005043D01*
X025501Y004965D02*
X027901Y004965D01*
X027901Y004886D02*
X025501Y004886D01*
X025501Y004808D02*
X027901Y004808D01*
X027901Y004729D02*
X025501Y004729D01*
X025501Y004651D02*
X027901Y004651D01*
X027901Y004572D02*
X025501Y004572D01*
X025501Y004494D02*
X027901Y004494D01*
X027901Y004415D02*
X025501Y004415D01*
X025501Y004337D02*
X027901Y004337D01*
X027901Y004258D02*
X025501Y004258D01*
X025501Y004179D02*
X027901Y004179D01*
X027901Y004101D02*
X025501Y004101D01*
X025501Y004022D02*
X027901Y004022D01*
X019741Y002059D02*
X019661Y002059D01*
X019661Y001980D02*
X019741Y001980D01*
X019741Y001902D02*
X019661Y001902D01*
X019661Y001823D02*
X019741Y001823D01*
X019450Y002059D02*
X018952Y002059D01*
X019030Y001980D02*
X019372Y001980D01*
X019293Y001902D02*
X019109Y001902D01*
X019171Y001823D02*
X019231Y001823D01*
X019231Y001745D02*
X019171Y001745D01*
X019171Y001588D02*
X019231Y001588D01*
X019231Y001509D02*
X019171Y001509D01*
X019151Y001430D02*
X019251Y001430D01*
X019330Y001352D02*
X019073Y001352D01*
X018994Y001273D02*
X019408Y001273D01*
X018741Y001823D02*
X018661Y001823D01*
X018661Y001902D02*
X018741Y001902D01*
X018741Y001980D02*
X018661Y001980D01*
X018661Y002059D02*
X018741Y002059D01*
D17*
X004701Y003645D02*
X004201Y004145D01*
X004201Y007645D01*
X004201Y008645D01*
X003201Y009645D01*
X003201Y011145D01*
X007201Y012145D02*
X007201Y008645D01*
X008201Y008645D01*
X008201Y009645D01*
X008201Y008645D02*
X011701Y008645D01*
X012201Y009145D01*
X012201Y009645D01*
X011701Y012145D02*
X008201Y012145D01*
X008201Y013145D01*
X008201Y012145D02*
X007201Y012145D01*
X007201Y015145D01*
X007701Y015645D01*
X008201Y015645D01*
X008201Y016645D01*
X008201Y015645D02*
X011701Y015645D01*
X012201Y016145D01*
X012201Y016645D01*
X012201Y013145D02*
X012201Y012645D01*
X011701Y012145D01*
X007201Y008645D02*
X007201Y003645D01*
X004701Y003645D01*
X007201Y003645D02*
X008201Y003645D01*
X008201Y006145D01*
X008201Y003645D02*
X012201Y003645D01*
X012201Y001395D01*
X012701Y000895D01*
X017701Y000895D01*
X017701Y001645D01*
X017701Y000895D02*
X027951Y000895D01*
X028451Y001395D01*
X028451Y003395D01*
X028201Y003645D01*
X025201Y003645D01*
X021701Y003645D01*
X021201Y004145D01*
X021201Y006145D01*
X021701Y008645D02*
X025201Y008645D01*
X025201Y009645D01*
X025201Y008645D02*
X028201Y008645D01*
X028201Y003645D01*
X025201Y003645D02*
X025201Y006145D01*
X028201Y008645D02*
X028201Y012145D01*
X025201Y012145D01*
X025201Y013145D01*
X025201Y012145D02*
X021701Y012145D01*
X021201Y012645D01*
X021201Y013145D01*
X021701Y015645D02*
X025201Y015645D01*
X025201Y016645D01*
X025201Y015645D02*
X026201Y015645D01*
X028201Y013645D01*
X028201Y012145D01*
X021701Y008645D02*
X021201Y009145D01*
X021201Y009645D01*
X021701Y015645D02*
X021201Y016145D01*
X021201Y016645D01*
X012201Y006145D02*
X012201Y003645D01*
D18*
X013201Y006145D02*
X013201Y006645D01*
X013701Y007145D01*
X014201Y007145D01*
X015201Y008145D01*
X015201Y010145D01*
X015701Y010645D01*
X016201Y010645D01*
X016201Y009645D02*
X016701Y009645D01*
X018701Y007645D01*
X019201Y007645D01*
X019701Y007645D01*
X020201Y007145D01*
X020201Y006645D01*
X020701Y006145D01*
X021201Y006145D01*
X022201Y006145D02*
X022201Y006645D01*
X021451Y007395D01*
X020951Y007395D01*
X020201Y008145D01*
X020201Y010145D01*
X019701Y010645D01*
X019201Y010645D01*
X019201Y011645D02*
X019701Y011645D01*
X020701Y010645D01*
X020701Y008645D01*
X021201Y008145D01*
X025201Y008145D01*
X026201Y007145D01*
X026201Y006145D01*
X026701Y003145D02*
X018701Y003145D01*
X018201Y003645D01*
X018201Y005645D01*
X017201Y006645D01*
X016201Y006645D01*
X016201Y005645D02*
X017201Y005645D01*
X017701Y005145D01*
X017701Y003645D01*
X018701Y002645D01*
X026201Y002645D01*
X026701Y002145D01*
X026701Y001645D01*
X027701Y001645D02*
X027701Y002145D01*
X026701Y003145D01*
X026201Y009645D02*
X026201Y010645D01*
X025451Y011395D01*
X021451Y011395D01*
X020451Y012395D01*
X020451Y012895D01*
X019701Y013645D01*
X019201Y013645D01*
X019701Y014645D02*
X020201Y014145D01*
X021701Y014145D01*
X022201Y013645D01*
X022201Y013145D01*
X019951Y012395D02*
X019951Y011895D01*
X021201Y010645D01*
X021701Y010645D01*
X022201Y010145D01*
X022201Y009645D01*
X019951Y012395D02*
X019701Y012645D01*
X019201Y012645D01*
X019201Y014645D02*
X019701Y014645D01*
X020451Y014895D02*
X025451Y014895D01*
X026201Y014145D01*
X026201Y013145D01*
X026201Y016645D02*
X026201Y017145D01*
X025201Y018145D01*
X020201Y018145D01*
X019701Y017645D01*
X019201Y017645D01*
X019201Y016645D02*
X019701Y016645D01*
X020701Y017645D01*
X021701Y017645D01*
X022201Y017145D01*
X022201Y016645D01*
X020451Y014895D02*
X019701Y015645D01*
X019201Y015645D01*
X016201Y015645D02*
X015201Y015645D01*
X014701Y015145D01*
X010201Y015145D01*
X009201Y014145D01*
X009201Y013145D01*
X010201Y011645D02*
X009201Y010645D01*
X009201Y009645D01*
X010201Y008145D02*
X009201Y007145D01*
X009201Y006145D01*
X010201Y008145D02*
X014201Y008145D01*
X014701Y008645D01*
X014701Y010645D01*
X015701Y011645D01*
X016201Y011645D01*
X015201Y011645D02*
X014201Y010645D01*
X013701Y010645D01*
X013201Y010145D01*
X013201Y009645D01*
X014201Y011645D02*
X010201Y011645D01*
X013201Y013145D02*
X013201Y014145D01*
X013701Y014645D01*
X016201Y014645D01*
X016201Y013645D02*
X015701Y013645D01*
X014701Y012645D01*
X014701Y012145D01*
X014201Y011645D01*
X015201Y011645D02*
X015201Y012145D01*
X015701Y012645D01*
X016201Y012645D01*
X016201Y016645D02*
X015701Y016645D01*
X014701Y017645D01*
X013701Y017645D01*
X013201Y017145D01*
X013201Y016645D01*
X015201Y018145D02*
X010201Y018145D01*
X009201Y017145D01*
X009201Y016645D01*
X005701Y018645D02*
X005201Y018145D01*
X005201Y011145D01*
X004201Y011145D02*
X004201Y018145D01*
X005701Y019645D01*
X013701Y019645D01*
X014101Y020045D01*
X014101Y020645D01*
X015101Y020645D02*
X015101Y020045D01*
X014201Y019145D01*
X005701Y019145D01*
X004701Y018145D01*
X004701Y009145D01*
X005201Y008645D01*
X005951Y008645D01*
X006451Y008145D01*
X005201Y007645D02*
X005201Y008645D01*
X015201Y018145D02*
X015701Y017645D01*
X016201Y017645D01*
X014701Y018645D02*
X005701Y018645D01*
X014701Y018645D02*
X016101Y020045D01*
X016101Y020645D01*
M02*
