G75*
G70*
%OFA0B0*%
%FSLAX24Y24*%
%IPPOS*%
%LPD*%
%AMOC8*
5,1,8,0,0,1.08239X$1,22.5*
%
%ADD10OC8,0.0660*%
%ADD11C,0.0594*%
%ADD12OC8,0.0520*%
%ADD13C,0.0520*%
D10*
X015701Y001645D03*
X016701Y001645D03*
X017701Y001645D03*
X018701Y001645D03*
X019701Y001645D03*
X020701Y001645D03*
X022701Y001645D03*
X023701Y001645D03*
X024701Y001645D03*
X025701Y001645D03*
X026701Y001645D03*
X027701Y001645D03*
X027701Y020645D03*
X026701Y020645D03*
X025701Y020645D03*
X024701Y020645D03*
X023701Y020645D03*
X022701Y020645D03*
X021701Y020645D03*
X020701Y020645D03*
X019101Y020645D03*
X018101Y020645D03*
X017101Y020645D03*
X016101Y020645D03*
X015101Y020645D03*
X014101Y020645D03*
X013101Y020645D03*
X012101Y020645D03*
D11*
X008201Y006442D02*
X008201Y005848D01*
X009201Y005848D02*
X009201Y006442D01*
X010201Y006442D02*
X010201Y005848D01*
X012201Y005848D02*
X012201Y006442D01*
X013201Y006442D02*
X013201Y005848D01*
X014201Y005848D02*
X014201Y006442D01*
X014201Y009348D02*
X014201Y009942D01*
X013201Y009942D02*
X013201Y009348D01*
X012201Y009348D02*
X012201Y009942D01*
X010201Y009942D02*
X010201Y009348D01*
X009201Y009348D02*
X009201Y009942D01*
X008201Y009942D02*
X008201Y009348D01*
X006201Y010848D02*
X006201Y011442D01*
X005201Y011442D02*
X005201Y010848D01*
X004201Y010848D02*
X004201Y011442D01*
X003201Y011442D02*
X003201Y010848D01*
X004201Y007942D02*
X004201Y007348D01*
X005201Y007348D02*
X005201Y007942D01*
X008201Y012848D02*
X008201Y013442D01*
X009201Y013442D02*
X009201Y012848D01*
X010201Y012848D02*
X010201Y013442D01*
X012201Y013442D02*
X012201Y012848D01*
X013201Y012848D02*
X013201Y013442D01*
X014201Y013442D02*
X014201Y012848D01*
X014201Y016348D02*
X014201Y016942D01*
X013201Y016942D02*
X013201Y016348D01*
X012201Y016348D02*
X012201Y016942D01*
X010201Y016942D02*
X010201Y016348D01*
X009201Y016348D02*
X009201Y016942D01*
X008201Y016942D02*
X008201Y016348D01*
X021201Y016348D02*
X021201Y016942D01*
X022201Y016942D02*
X022201Y016348D01*
X023201Y016348D02*
X023201Y016942D01*
X025201Y016942D02*
X025201Y016348D01*
X026201Y016348D02*
X026201Y016942D01*
X027201Y016942D02*
X027201Y016348D01*
X027201Y013442D02*
X027201Y012848D01*
X026201Y012848D02*
X026201Y013442D01*
X025201Y013442D02*
X025201Y012848D01*
X023201Y012848D02*
X023201Y013442D01*
X022201Y013442D02*
X022201Y012848D01*
X021201Y012848D02*
X021201Y013442D01*
X021201Y009942D02*
X021201Y009348D01*
X022201Y009348D02*
X022201Y009942D01*
X023201Y009942D02*
X023201Y009348D01*
X025201Y009348D02*
X025201Y009942D01*
X026201Y009942D02*
X026201Y009348D01*
X027201Y009348D02*
X027201Y009942D01*
X027201Y006442D02*
X027201Y005848D01*
X026201Y005848D02*
X026201Y006442D01*
X025201Y006442D02*
X025201Y005848D01*
X023201Y005848D02*
X023201Y006442D01*
X022201Y006442D02*
X022201Y005848D01*
X021201Y005848D02*
X021201Y006442D01*
D12*
X020201Y006645D03*
X020201Y005645D03*
X006451Y007145D03*
X006451Y008145D03*
D13*
X015941Y007645D02*
X016461Y007645D01*
X016461Y008645D02*
X015941Y008645D01*
X015941Y009645D02*
X016461Y009645D01*
X016461Y010645D02*
X015941Y010645D01*
X015941Y011645D02*
X016461Y011645D01*
X016461Y012645D02*
X015941Y012645D01*
X015941Y013645D02*
X016461Y013645D01*
X016461Y014645D02*
X015941Y014645D01*
X015941Y015645D02*
X016461Y015645D01*
X016461Y016645D02*
X015941Y016645D01*
X015941Y017645D02*
X016461Y017645D01*
X018941Y017645D02*
X019461Y017645D01*
X019461Y016645D02*
X018941Y016645D01*
X018941Y015645D02*
X019461Y015645D01*
X019461Y014645D02*
X018941Y014645D01*
X018941Y013645D02*
X019461Y013645D01*
X019461Y012645D02*
X018941Y012645D01*
X018941Y011645D02*
X019461Y011645D01*
X019461Y010645D02*
X018941Y010645D01*
X018941Y009645D02*
X019461Y009645D01*
X019461Y008645D02*
X018941Y008645D01*
X018941Y007645D02*
X019461Y007645D01*
X019461Y006645D02*
X018941Y006645D01*
X018941Y005645D02*
X019461Y005645D01*
X019461Y004645D02*
X018941Y004645D01*
X016461Y004645D02*
X015941Y004645D01*
X015941Y005645D02*
X016461Y005645D01*
X016461Y006645D02*
X015941Y006645D01*
M02*
