G75*
G70*
%OFA0B0*%
%FSLAX24Y24*%
%IPPOS*%
%LPD*%
%AMOC8*
5,1,8,0,0,1.08239X$1,22.5*
%
%ADD10C,0.0000*%
%ADD11C,0.0060*%
%ADD12C,0.0120*%
%ADD13C,0.0070*%
%ADD14R,0.0280X0.0160*%
%ADD15C,0.0160*%
%ADD16C,0.0080*%
D10*
X013838Y004001D02*
X020838Y004001D01*
X021338Y004001D01*
X021838Y004001D01*
X028838Y004001D01*
X028838Y011001D01*
X028838Y011501D01*
X028838Y012001D01*
X028838Y019001D01*
X021838Y019001D01*
X021338Y019001D01*
X020838Y019001D01*
X013838Y019001D01*
X013838Y012001D01*
X013838Y011501D01*
X013838Y011001D01*
X013838Y004001D01*
X014688Y005001D02*
X014690Y005051D01*
X014696Y005101D01*
X014706Y005151D01*
X014719Y005199D01*
X014736Y005247D01*
X014757Y005293D01*
X014781Y005337D01*
X014809Y005379D01*
X014840Y005419D01*
X014874Y005456D01*
X014911Y005491D01*
X014950Y005522D01*
X014991Y005551D01*
X015035Y005576D01*
X015081Y005598D01*
X015128Y005616D01*
X015176Y005630D01*
X015225Y005641D01*
X015275Y005648D01*
X015325Y005651D01*
X015376Y005650D01*
X015426Y005645D01*
X015476Y005636D01*
X015524Y005624D01*
X015572Y005607D01*
X015618Y005587D01*
X015663Y005564D01*
X015706Y005537D01*
X015746Y005507D01*
X015784Y005474D01*
X015819Y005438D01*
X015852Y005399D01*
X015881Y005358D01*
X015907Y005315D01*
X015930Y005270D01*
X015949Y005223D01*
X015964Y005175D01*
X015976Y005126D01*
X015984Y005076D01*
X015988Y005026D01*
X015988Y004976D01*
X015984Y004926D01*
X015976Y004876D01*
X015964Y004827D01*
X015949Y004779D01*
X015930Y004732D01*
X015907Y004687D01*
X015881Y004644D01*
X015852Y004603D01*
X015819Y004564D01*
X015784Y004528D01*
X015746Y004495D01*
X015706Y004465D01*
X015663Y004438D01*
X015618Y004415D01*
X015572Y004395D01*
X015524Y004378D01*
X015476Y004366D01*
X015426Y004357D01*
X015376Y004352D01*
X015325Y004351D01*
X015275Y004354D01*
X015225Y004361D01*
X015176Y004372D01*
X015128Y004386D01*
X015081Y004404D01*
X015035Y004426D01*
X014991Y004451D01*
X014950Y004480D01*
X014911Y004511D01*
X014874Y004546D01*
X014840Y004583D01*
X014809Y004623D01*
X014781Y004665D01*
X014757Y004709D01*
X014736Y004755D01*
X014719Y004803D01*
X014706Y004851D01*
X014696Y004901D01*
X014690Y004951D01*
X014688Y005001D01*
X018688Y005001D02*
X018690Y005051D01*
X018696Y005101D01*
X018706Y005151D01*
X018719Y005199D01*
X018736Y005247D01*
X018757Y005293D01*
X018781Y005337D01*
X018809Y005379D01*
X018840Y005419D01*
X018874Y005456D01*
X018911Y005491D01*
X018950Y005522D01*
X018991Y005551D01*
X019035Y005576D01*
X019081Y005598D01*
X019128Y005616D01*
X019176Y005630D01*
X019225Y005641D01*
X019275Y005648D01*
X019325Y005651D01*
X019376Y005650D01*
X019426Y005645D01*
X019476Y005636D01*
X019524Y005624D01*
X019572Y005607D01*
X019618Y005587D01*
X019663Y005564D01*
X019706Y005537D01*
X019746Y005507D01*
X019784Y005474D01*
X019819Y005438D01*
X019852Y005399D01*
X019881Y005358D01*
X019907Y005315D01*
X019930Y005270D01*
X019949Y005223D01*
X019964Y005175D01*
X019976Y005126D01*
X019984Y005076D01*
X019988Y005026D01*
X019988Y004976D01*
X019984Y004926D01*
X019976Y004876D01*
X019964Y004827D01*
X019949Y004779D01*
X019930Y004732D01*
X019907Y004687D01*
X019881Y004644D01*
X019852Y004603D01*
X019819Y004564D01*
X019784Y004528D01*
X019746Y004495D01*
X019706Y004465D01*
X019663Y004438D01*
X019618Y004415D01*
X019572Y004395D01*
X019524Y004378D01*
X019476Y004366D01*
X019426Y004357D01*
X019376Y004352D01*
X019325Y004351D01*
X019275Y004354D01*
X019225Y004361D01*
X019176Y004372D01*
X019128Y004386D01*
X019081Y004404D01*
X019035Y004426D01*
X018991Y004451D01*
X018950Y004480D01*
X018911Y004511D01*
X018874Y004546D01*
X018840Y004583D01*
X018809Y004623D01*
X018781Y004665D01*
X018757Y004709D01*
X018736Y004755D01*
X018719Y004803D01*
X018706Y004851D01*
X018696Y004901D01*
X018690Y004951D01*
X018688Y005001D01*
X022688Y005001D02*
X022690Y005051D01*
X022696Y005101D01*
X022706Y005151D01*
X022719Y005199D01*
X022736Y005247D01*
X022757Y005293D01*
X022781Y005337D01*
X022809Y005379D01*
X022840Y005419D01*
X022874Y005456D01*
X022911Y005491D01*
X022950Y005522D01*
X022991Y005551D01*
X023035Y005576D01*
X023081Y005598D01*
X023128Y005616D01*
X023176Y005630D01*
X023225Y005641D01*
X023275Y005648D01*
X023325Y005651D01*
X023376Y005650D01*
X023426Y005645D01*
X023476Y005636D01*
X023524Y005624D01*
X023572Y005607D01*
X023618Y005587D01*
X023663Y005564D01*
X023706Y005537D01*
X023746Y005507D01*
X023784Y005474D01*
X023819Y005438D01*
X023852Y005399D01*
X023881Y005358D01*
X023907Y005315D01*
X023930Y005270D01*
X023949Y005223D01*
X023964Y005175D01*
X023976Y005126D01*
X023984Y005076D01*
X023988Y005026D01*
X023988Y004976D01*
X023984Y004926D01*
X023976Y004876D01*
X023964Y004827D01*
X023949Y004779D01*
X023930Y004732D01*
X023907Y004687D01*
X023881Y004644D01*
X023852Y004603D01*
X023819Y004564D01*
X023784Y004528D01*
X023746Y004495D01*
X023706Y004465D01*
X023663Y004438D01*
X023618Y004415D01*
X023572Y004395D01*
X023524Y004378D01*
X023476Y004366D01*
X023426Y004357D01*
X023376Y004352D01*
X023325Y004351D01*
X023275Y004354D01*
X023225Y004361D01*
X023176Y004372D01*
X023128Y004386D01*
X023081Y004404D01*
X023035Y004426D01*
X022991Y004451D01*
X022950Y004480D01*
X022911Y004511D01*
X022874Y004546D01*
X022840Y004583D01*
X022809Y004623D01*
X022781Y004665D01*
X022757Y004709D01*
X022736Y004755D01*
X022719Y004803D01*
X022706Y004851D01*
X022696Y004901D01*
X022690Y004951D01*
X022688Y005001D01*
X026688Y005001D02*
X026690Y005051D01*
X026696Y005101D01*
X026706Y005151D01*
X026719Y005199D01*
X026736Y005247D01*
X026757Y005293D01*
X026781Y005337D01*
X026809Y005379D01*
X026840Y005419D01*
X026874Y005456D01*
X026911Y005491D01*
X026950Y005522D01*
X026991Y005551D01*
X027035Y005576D01*
X027081Y005598D01*
X027128Y005616D01*
X027176Y005630D01*
X027225Y005641D01*
X027275Y005648D01*
X027325Y005651D01*
X027376Y005650D01*
X027426Y005645D01*
X027476Y005636D01*
X027524Y005624D01*
X027572Y005607D01*
X027618Y005587D01*
X027663Y005564D01*
X027706Y005537D01*
X027746Y005507D01*
X027784Y005474D01*
X027819Y005438D01*
X027852Y005399D01*
X027881Y005358D01*
X027907Y005315D01*
X027930Y005270D01*
X027949Y005223D01*
X027964Y005175D01*
X027976Y005126D01*
X027984Y005076D01*
X027988Y005026D01*
X027988Y004976D01*
X027984Y004926D01*
X027976Y004876D01*
X027964Y004827D01*
X027949Y004779D01*
X027930Y004732D01*
X027907Y004687D01*
X027881Y004644D01*
X027852Y004603D01*
X027819Y004564D01*
X027784Y004528D01*
X027746Y004495D01*
X027706Y004465D01*
X027663Y004438D01*
X027618Y004415D01*
X027572Y004395D01*
X027524Y004378D01*
X027476Y004366D01*
X027426Y004357D01*
X027376Y004352D01*
X027325Y004351D01*
X027275Y004354D01*
X027225Y004361D01*
X027176Y004372D01*
X027128Y004386D01*
X027081Y004404D01*
X027035Y004426D01*
X026991Y004451D01*
X026950Y004480D01*
X026911Y004511D01*
X026874Y004546D01*
X026840Y004583D01*
X026809Y004623D01*
X026781Y004665D01*
X026757Y004709D01*
X026736Y004755D01*
X026719Y004803D01*
X026706Y004851D01*
X026696Y004901D01*
X026690Y004951D01*
X026688Y005001D01*
X026688Y010001D02*
X026690Y010051D01*
X026696Y010101D01*
X026706Y010151D01*
X026719Y010199D01*
X026736Y010247D01*
X026757Y010293D01*
X026781Y010337D01*
X026809Y010379D01*
X026840Y010419D01*
X026874Y010456D01*
X026911Y010491D01*
X026950Y010522D01*
X026991Y010551D01*
X027035Y010576D01*
X027081Y010598D01*
X027128Y010616D01*
X027176Y010630D01*
X027225Y010641D01*
X027275Y010648D01*
X027325Y010651D01*
X027376Y010650D01*
X027426Y010645D01*
X027476Y010636D01*
X027524Y010624D01*
X027572Y010607D01*
X027618Y010587D01*
X027663Y010564D01*
X027706Y010537D01*
X027746Y010507D01*
X027784Y010474D01*
X027819Y010438D01*
X027852Y010399D01*
X027881Y010358D01*
X027907Y010315D01*
X027930Y010270D01*
X027949Y010223D01*
X027964Y010175D01*
X027976Y010126D01*
X027984Y010076D01*
X027988Y010026D01*
X027988Y009976D01*
X027984Y009926D01*
X027976Y009876D01*
X027964Y009827D01*
X027949Y009779D01*
X027930Y009732D01*
X027907Y009687D01*
X027881Y009644D01*
X027852Y009603D01*
X027819Y009564D01*
X027784Y009528D01*
X027746Y009495D01*
X027706Y009465D01*
X027663Y009438D01*
X027618Y009415D01*
X027572Y009395D01*
X027524Y009378D01*
X027476Y009366D01*
X027426Y009357D01*
X027376Y009352D01*
X027325Y009351D01*
X027275Y009354D01*
X027225Y009361D01*
X027176Y009372D01*
X027128Y009386D01*
X027081Y009404D01*
X027035Y009426D01*
X026991Y009451D01*
X026950Y009480D01*
X026911Y009511D01*
X026874Y009546D01*
X026840Y009583D01*
X026809Y009623D01*
X026781Y009665D01*
X026757Y009709D01*
X026736Y009755D01*
X026719Y009803D01*
X026706Y009851D01*
X026696Y009901D01*
X026690Y009951D01*
X026688Y010001D01*
X022688Y010001D02*
X022690Y010051D01*
X022696Y010101D01*
X022706Y010151D01*
X022719Y010199D01*
X022736Y010247D01*
X022757Y010293D01*
X022781Y010337D01*
X022809Y010379D01*
X022840Y010419D01*
X022874Y010456D01*
X022911Y010491D01*
X022950Y010522D01*
X022991Y010551D01*
X023035Y010576D01*
X023081Y010598D01*
X023128Y010616D01*
X023176Y010630D01*
X023225Y010641D01*
X023275Y010648D01*
X023325Y010651D01*
X023376Y010650D01*
X023426Y010645D01*
X023476Y010636D01*
X023524Y010624D01*
X023572Y010607D01*
X023618Y010587D01*
X023663Y010564D01*
X023706Y010537D01*
X023746Y010507D01*
X023784Y010474D01*
X023819Y010438D01*
X023852Y010399D01*
X023881Y010358D01*
X023907Y010315D01*
X023930Y010270D01*
X023949Y010223D01*
X023964Y010175D01*
X023976Y010126D01*
X023984Y010076D01*
X023988Y010026D01*
X023988Y009976D01*
X023984Y009926D01*
X023976Y009876D01*
X023964Y009827D01*
X023949Y009779D01*
X023930Y009732D01*
X023907Y009687D01*
X023881Y009644D01*
X023852Y009603D01*
X023819Y009564D01*
X023784Y009528D01*
X023746Y009495D01*
X023706Y009465D01*
X023663Y009438D01*
X023618Y009415D01*
X023572Y009395D01*
X023524Y009378D01*
X023476Y009366D01*
X023426Y009357D01*
X023376Y009352D01*
X023325Y009351D01*
X023275Y009354D01*
X023225Y009361D01*
X023176Y009372D01*
X023128Y009386D01*
X023081Y009404D01*
X023035Y009426D01*
X022991Y009451D01*
X022950Y009480D01*
X022911Y009511D01*
X022874Y009546D01*
X022840Y009583D01*
X022809Y009623D01*
X022781Y009665D01*
X022757Y009709D01*
X022736Y009755D01*
X022719Y009803D01*
X022706Y009851D01*
X022696Y009901D01*
X022690Y009951D01*
X022688Y010001D01*
X018688Y010001D02*
X018690Y010051D01*
X018696Y010101D01*
X018706Y010151D01*
X018719Y010199D01*
X018736Y010247D01*
X018757Y010293D01*
X018781Y010337D01*
X018809Y010379D01*
X018840Y010419D01*
X018874Y010456D01*
X018911Y010491D01*
X018950Y010522D01*
X018991Y010551D01*
X019035Y010576D01*
X019081Y010598D01*
X019128Y010616D01*
X019176Y010630D01*
X019225Y010641D01*
X019275Y010648D01*
X019325Y010651D01*
X019376Y010650D01*
X019426Y010645D01*
X019476Y010636D01*
X019524Y010624D01*
X019572Y010607D01*
X019618Y010587D01*
X019663Y010564D01*
X019706Y010537D01*
X019746Y010507D01*
X019784Y010474D01*
X019819Y010438D01*
X019852Y010399D01*
X019881Y010358D01*
X019907Y010315D01*
X019930Y010270D01*
X019949Y010223D01*
X019964Y010175D01*
X019976Y010126D01*
X019984Y010076D01*
X019988Y010026D01*
X019988Y009976D01*
X019984Y009926D01*
X019976Y009876D01*
X019964Y009827D01*
X019949Y009779D01*
X019930Y009732D01*
X019907Y009687D01*
X019881Y009644D01*
X019852Y009603D01*
X019819Y009564D01*
X019784Y009528D01*
X019746Y009495D01*
X019706Y009465D01*
X019663Y009438D01*
X019618Y009415D01*
X019572Y009395D01*
X019524Y009378D01*
X019476Y009366D01*
X019426Y009357D01*
X019376Y009352D01*
X019325Y009351D01*
X019275Y009354D01*
X019225Y009361D01*
X019176Y009372D01*
X019128Y009386D01*
X019081Y009404D01*
X019035Y009426D01*
X018991Y009451D01*
X018950Y009480D01*
X018911Y009511D01*
X018874Y009546D01*
X018840Y009583D01*
X018809Y009623D01*
X018781Y009665D01*
X018757Y009709D01*
X018736Y009755D01*
X018719Y009803D01*
X018706Y009851D01*
X018696Y009901D01*
X018690Y009951D01*
X018688Y010001D01*
X014688Y010001D02*
X014690Y010051D01*
X014696Y010101D01*
X014706Y010151D01*
X014719Y010199D01*
X014736Y010247D01*
X014757Y010293D01*
X014781Y010337D01*
X014809Y010379D01*
X014840Y010419D01*
X014874Y010456D01*
X014911Y010491D01*
X014950Y010522D01*
X014991Y010551D01*
X015035Y010576D01*
X015081Y010598D01*
X015128Y010616D01*
X015176Y010630D01*
X015225Y010641D01*
X015275Y010648D01*
X015325Y010651D01*
X015376Y010650D01*
X015426Y010645D01*
X015476Y010636D01*
X015524Y010624D01*
X015572Y010607D01*
X015618Y010587D01*
X015663Y010564D01*
X015706Y010537D01*
X015746Y010507D01*
X015784Y010474D01*
X015819Y010438D01*
X015852Y010399D01*
X015881Y010358D01*
X015907Y010315D01*
X015930Y010270D01*
X015949Y010223D01*
X015964Y010175D01*
X015976Y010126D01*
X015984Y010076D01*
X015988Y010026D01*
X015988Y009976D01*
X015984Y009926D01*
X015976Y009876D01*
X015964Y009827D01*
X015949Y009779D01*
X015930Y009732D01*
X015907Y009687D01*
X015881Y009644D01*
X015852Y009603D01*
X015819Y009564D01*
X015784Y009528D01*
X015746Y009495D01*
X015706Y009465D01*
X015663Y009438D01*
X015618Y009415D01*
X015572Y009395D01*
X015524Y009378D01*
X015476Y009366D01*
X015426Y009357D01*
X015376Y009352D01*
X015325Y009351D01*
X015275Y009354D01*
X015225Y009361D01*
X015176Y009372D01*
X015128Y009386D01*
X015081Y009404D01*
X015035Y009426D01*
X014991Y009451D01*
X014950Y009480D01*
X014911Y009511D01*
X014874Y009546D01*
X014840Y009583D01*
X014809Y009623D01*
X014781Y009665D01*
X014757Y009709D01*
X014736Y009755D01*
X014719Y009803D01*
X014706Y009851D01*
X014696Y009901D01*
X014690Y009951D01*
X014688Y010001D01*
X014688Y013001D02*
X014690Y013051D01*
X014696Y013101D01*
X014706Y013151D01*
X014719Y013199D01*
X014736Y013247D01*
X014757Y013293D01*
X014781Y013337D01*
X014809Y013379D01*
X014840Y013419D01*
X014874Y013456D01*
X014911Y013491D01*
X014950Y013522D01*
X014991Y013551D01*
X015035Y013576D01*
X015081Y013598D01*
X015128Y013616D01*
X015176Y013630D01*
X015225Y013641D01*
X015275Y013648D01*
X015325Y013651D01*
X015376Y013650D01*
X015426Y013645D01*
X015476Y013636D01*
X015524Y013624D01*
X015572Y013607D01*
X015618Y013587D01*
X015663Y013564D01*
X015706Y013537D01*
X015746Y013507D01*
X015784Y013474D01*
X015819Y013438D01*
X015852Y013399D01*
X015881Y013358D01*
X015907Y013315D01*
X015930Y013270D01*
X015949Y013223D01*
X015964Y013175D01*
X015976Y013126D01*
X015984Y013076D01*
X015988Y013026D01*
X015988Y012976D01*
X015984Y012926D01*
X015976Y012876D01*
X015964Y012827D01*
X015949Y012779D01*
X015930Y012732D01*
X015907Y012687D01*
X015881Y012644D01*
X015852Y012603D01*
X015819Y012564D01*
X015784Y012528D01*
X015746Y012495D01*
X015706Y012465D01*
X015663Y012438D01*
X015618Y012415D01*
X015572Y012395D01*
X015524Y012378D01*
X015476Y012366D01*
X015426Y012357D01*
X015376Y012352D01*
X015325Y012351D01*
X015275Y012354D01*
X015225Y012361D01*
X015176Y012372D01*
X015128Y012386D01*
X015081Y012404D01*
X015035Y012426D01*
X014991Y012451D01*
X014950Y012480D01*
X014911Y012511D01*
X014874Y012546D01*
X014840Y012583D01*
X014809Y012623D01*
X014781Y012665D01*
X014757Y012709D01*
X014736Y012755D01*
X014719Y012803D01*
X014706Y012851D01*
X014696Y012901D01*
X014690Y012951D01*
X014688Y013001D01*
X018688Y013001D02*
X018690Y013051D01*
X018696Y013101D01*
X018706Y013151D01*
X018719Y013199D01*
X018736Y013247D01*
X018757Y013293D01*
X018781Y013337D01*
X018809Y013379D01*
X018840Y013419D01*
X018874Y013456D01*
X018911Y013491D01*
X018950Y013522D01*
X018991Y013551D01*
X019035Y013576D01*
X019081Y013598D01*
X019128Y013616D01*
X019176Y013630D01*
X019225Y013641D01*
X019275Y013648D01*
X019325Y013651D01*
X019376Y013650D01*
X019426Y013645D01*
X019476Y013636D01*
X019524Y013624D01*
X019572Y013607D01*
X019618Y013587D01*
X019663Y013564D01*
X019706Y013537D01*
X019746Y013507D01*
X019784Y013474D01*
X019819Y013438D01*
X019852Y013399D01*
X019881Y013358D01*
X019907Y013315D01*
X019930Y013270D01*
X019949Y013223D01*
X019964Y013175D01*
X019976Y013126D01*
X019984Y013076D01*
X019988Y013026D01*
X019988Y012976D01*
X019984Y012926D01*
X019976Y012876D01*
X019964Y012827D01*
X019949Y012779D01*
X019930Y012732D01*
X019907Y012687D01*
X019881Y012644D01*
X019852Y012603D01*
X019819Y012564D01*
X019784Y012528D01*
X019746Y012495D01*
X019706Y012465D01*
X019663Y012438D01*
X019618Y012415D01*
X019572Y012395D01*
X019524Y012378D01*
X019476Y012366D01*
X019426Y012357D01*
X019376Y012352D01*
X019325Y012351D01*
X019275Y012354D01*
X019225Y012361D01*
X019176Y012372D01*
X019128Y012386D01*
X019081Y012404D01*
X019035Y012426D01*
X018991Y012451D01*
X018950Y012480D01*
X018911Y012511D01*
X018874Y012546D01*
X018840Y012583D01*
X018809Y012623D01*
X018781Y012665D01*
X018757Y012709D01*
X018736Y012755D01*
X018719Y012803D01*
X018706Y012851D01*
X018696Y012901D01*
X018690Y012951D01*
X018688Y013001D01*
X022688Y013001D02*
X022690Y013051D01*
X022696Y013101D01*
X022706Y013151D01*
X022719Y013199D01*
X022736Y013247D01*
X022757Y013293D01*
X022781Y013337D01*
X022809Y013379D01*
X022840Y013419D01*
X022874Y013456D01*
X022911Y013491D01*
X022950Y013522D01*
X022991Y013551D01*
X023035Y013576D01*
X023081Y013598D01*
X023128Y013616D01*
X023176Y013630D01*
X023225Y013641D01*
X023275Y013648D01*
X023325Y013651D01*
X023376Y013650D01*
X023426Y013645D01*
X023476Y013636D01*
X023524Y013624D01*
X023572Y013607D01*
X023618Y013587D01*
X023663Y013564D01*
X023706Y013537D01*
X023746Y013507D01*
X023784Y013474D01*
X023819Y013438D01*
X023852Y013399D01*
X023881Y013358D01*
X023907Y013315D01*
X023930Y013270D01*
X023949Y013223D01*
X023964Y013175D01*
X023976Y013126D01*
X023984Y013076D01*
X023988Y013026D01*
X023988Y012976D01*
X023984Y012926D01*
X023976Y012876D01*
X023964Y012827D01*
X023949Y012779D01*
X023930Y012732D01*
X023907Y012687D01*
X023881Y012644D01*
X023852Y012603D01*
X023819Y012564D01*
X023784Y012528D01*
X023746Y012495D01*
X023706Y012465D01*
X023663Y012438D01*
X023618Y012415D01*
X023572Y012395D01*
X023524Y012378D01*
X023476Y012366D01*
X023426Y012357D01*
X023376Y012352D01*
X023325Y012351D01*
X023275Y012354D01*
X023225Y012361D01*
X023176Y012372D01*
X023128Y012386D01*
X023081Y012404D01*
X023035Y012426D01*
X022991Y012451D01*
X022950Y012480D01*
X022911Y012511D01*
X022874Y012546D01*
X022840Y012583D01*
X022809Y012623D01*
X022781Y012665D01*
X022757Y012709D01*
X022736Y012755D01*
X022719Y012803D01*
X022706Y012851D01*
X022696Y012901D01*
X022690Y012951D01*
X022688Y013001D01*
X026688Y013001D02*
X026690Y013051D01*
X026696Y013101D01*
X026706Y013151D01*
X026719Y013199D01*
X026736Y013247D01*
X026757Y013293D01*
X026781Y013337D01*
X026809Y013379D01*
X026840Y013419D01*
X026874Y013456D01*
X026911Y013491D01*
X026950Y013522D01*
X026991Y013551D01*
X027035Y013576D01*
X027081Y013598D01*
X027128Y013616D01*
X027176Y013630D01*
X027225Y013641D01*
X027275Y013648D01*
X027325Y013651D01*
X027376Y013650D01*
X027426Y013645D01*
X027476Y013636D01*
X027524Y013624D01*
X027572Y013607D01*
X027618Y013587D01*
X027663Y013564D01*
X027706Y013537D01*
X027746Y013507D01*
X027784Y013474D01*
X027819Y013438D01*
X027852Y013399D01*
X027881Y013358D01*
X027907Y013315D01*
X027930Y013270D01*
X027949Y013223D01*
X027964Y013175D01*
X027976Y013126D01*
X027984Y013076D01*
X027988Y013026D01*
X027988Y012976D01*
X027984Y012926D01*
X027976Y012876D01*
X027964Y012827D01*
X027949Y012779D01*
X027930Y012732D01*
X027907Y012687D01*
X027881Y012644D01*
X027852Y012603D01*
X027819Y012564D01*
X027784Y012528D01*
X027746Y012495D01*
X027706Y012465D01*
X027663Y012438D01*
X027618Y012415D01*
X027572Y012395D01*
X027524Y012378D01*
X027476Y012366D01*
X027426Y012357D01*
X027376Y012352D01*
X027325Y012351D01*
X027275Y012354D01*
X027225Y012361D01*
X027176Y012372D01*
X027128Y012386D01*
X027081Y012404D01*
X027035Y012426D01*
X026991Y012451D01*
X026950Y012480D01*
X026911Y012511D01*
X026874Y012546D01*
X026840Y012583D01*
X026809Y012623D01*
X026781Y012665D01*
X026757Y012709D01*
X026736Y012755D01*
X026719Y012803D01*
X026706Y012851D01*
X026696Y012901D01*
X026690Y012951D01*
X026688Y013001D01*
X026688Y018001D02*
X026690Y018051D01*
X026696Y018101D01*
X026706Y018151D01*
X026719Y018199D01*
X026736Y018247D01*
X026757Y018293D01*
X026781Y018337D01*
X026809Y018379D01*
X026840Y018419D01*
X026874Y018456D01*
X026911Y018491D01*
X026950Y018522D01*
X026991Y018551D01*
X027035Y018576D01*
X027081Y018598D01*
X027128Y018616D01*
X027176Y018630D01*
X027225Y018641D01*
X027275Y018648D01*
X027325Y018651D01*
X027376Y018650D01*
X027426Y018645D01*
X027476Y018636D01*
X027524Y018624D01*
X027572Y018607D01*
X027618Y018587D01*
X027663Y018564D01*
X027706Y018537D01*
X027746Y018507D01*
X027784Y018474D01*
X027819Y018438D01*
X027852Y018399D01*
X027881Y018358D01*
X027907Y018315D01*
X027930Y018270D01*
X027949Y018223D01*
X027964Y018175D01*
X027976Y018126D01*
X027984Y018076D01*
X027988Y018026D01*
X027988Y017976D01*
X027984Y017926D01*
X027976Y017876D01*
X027964Y017827D01*
X027949Y017779D01*
X027930Y017732D01*
X027907Y017687D01*
X027881Y017644D01*
X027852Y017603D01*
X027819Y017564D01*
X027784Y017528D01*
X027746Y017495D01*
X027706Y017465D01*
X027663Y017438D01*
X027618Y017415D01*
X027572Y017395D01*
X027524Y017378D01*
X027476Y017366D01*
X027426Y017357D01*
X027376Y017352D01*
X027325Y017351D01*
X027275Y017354D01*
X027225Y017361D01*
X027176Y017372D01*
X027128Y017386D01*
X027081Y017404D01*
X027035Y017426D01*
X026991Y017451D01*
X026950Y017480D01*
X026911Y017511D01*
X026874Y017546D01*
X026840Y017583D01*
X026809Y017623D01*
X026781Y017665D01*
X026757Y017709D01*
X026736Y017755D01*
X026719Y017803D01*
X026706Y017851D01*
X026696Y017901D01*
X026690Y017951D01*
X026688Y018001D01*
X022688Y018001D02*
X022690Y018051D01*
X022696Y018101D01*
X022706Y018151D01*
X022719Y018199D01*
X022736Y018247D01*
X022757Y018293D01*
X022781Y018337D01*
X022809Y018379D01*
X022840Y018419D01*
X022874Y018456D01*
X022911Y018491D01*
X022950Y018522D01*
X022991Y018551D01*
X023035Y018576D01*
X023081Y018598D01*
X023128Y018616D01*
X023176Y018630D01*
X023225Y018641D01*
X023275Y018648D01*
X023325Y018651D01*
X023376Y018650D01*
X023426Y018645D01*
X023476Y018636D01*
X023524Y018624D01*
X023572Y018607D01*
X023618Y018587D01*
X023663Y018564D01*
X023706Y018537D01*
X023746Y018507D01*
X023784Y018474D01*
X023819Y018438D01*
X023852Y018399D01*
X023881Y018358D01*
X023907Y018315D01*
X023930Y018270D01*
X023949Y018223D01*
X023964Y018175D01*
X023976Y018126D01*
X023984Y018076D01*
X023988Y018026D01*
X023988Y017976D01*
X023984Y017926D01*
X023976Y017876D01*
X023964Y017827D01*
X023949Y017779D01*
X023930Y017732D01*
X023907Y017687D01*
X023881Y017644D01*
X023852Y017603D01*
X023819Y017564D01*
X023784Y017528D01*
X023746Y017495D01*
X023706Y017465D01*
X023663Y017438D01*
X023618Y017415D01*
X023572Y017395D01*
X023524Y017378D01*
X023476Y017366D01*
X023426Y017357D01*
X023376Y017352D01*
X023325Y017351D01*
X023275Y017354D01*
X023225Y017361D01*
X023176Y017372D01*
X023128Y017386D01*
X023081Y017404D01*
X023035Y017426D01*
X022991Y017451D01*
X022950Y017480D01*
X022911Y017511D01*
X022874Y017546D01*
X022840Y017583D01*
X022809Y017623D01*
X022781Y017665D01*
X022757Y017709D01*
X022736Y017755D01*
X022719Y017803D01*
X022706Y017851D01*
X022696Y017901D01*
X022690Y017951D01*
X022688Y018001D01*
X018688Y018001D02*
X018690Y018051D01*
X018696Y018101D01*
X018706Y018151D01*
X018719Y018199D01*
X018736Y018247D01*
X018757Y018293D01*
X018781Y018337D01*
X018809Y018379D01*
X018840Y018419D01*
X018874Y018456D01*
X018911Y018491D01*
X018950Y018522D01*
X018991Y018551D01*
X019035Y018576D01*
X019081Y018598D01*
X019128Y018616D01*
X019176Y018630D01*
X019225Y018641D01*
X019275Y018648D01*
X019325Y018651D01*
X019376Y018650D01*
X019426Y018645D01*
X019476Y018636D01*
X019524Y018624D01*
X019572Y018607D01*
X019618Y018587D01*
X019663Y018564D01*
X019706Y018537D01*
X019746Y018507D01*
X019784Y018474D01*
X019819Y018438D01*
X019852Y018399D01*
X019881Y018358D01*
X019907Y018315D01*
X019930Y018270D01*
X019949Y018223D01*
X019964Y018175D01*
X019976Y018126D01*
X019984Y018076D01*
X019988Y018026D01*
X019988Y017976D01*
X019984Y017926D01*
X019976Y017876D01*
X019964Y017827D01*
X019949Y017779D01*
X019930Y017732D01*
X019907Y017687D01*
X019881Y017644D01*
X019852Y017603D01*
X019819Y017564D01*
X019784Y017528D01*
X019746Y017495D01*
X019706Y017465D01*
X019663Y017438D01*
X019618Y017415D01*
X019572Y017395D01*
X019524Y017378D01*
X019476Y017366D01*
X019426Y017357D01*
X019376Y017352D01*
X019325Y017351D01*
X019275Y017354D01*
X019225Y017361D01*
X019176Y017372D01*
X019128Y017386D01*
X019081Y017404D01*
X019035Y017426D01*
X018991Y017451D01*
X018950Y017480D01*
X018911Y017511D01*
X018874Y017546D01*
X018840Y017583D01*
X018809Y017623D01*
X018781Y017665D01*
X018757Y017709D01*
X018736Y017755D01*
X018719Y017803D01*
X018706Y017851D01*
X018696Y017901D01*
X018690Y017951D01*
X018688Y018001D01*
X014688Y018001D02*
X014690Y018051D01*
X014696Y018101D01*
X014706Y018151D01*
X014719Y018199D01*
X014736Y018247D01*
X014757Y018293D01*
X014781Y018337D01*
X014809Y018379D01*
X014840Y018419D01*
X014874Y018456D01*
X014911Y018491D01*
X014950Y018522D01*
X014991Y018551D01*
X015035Y018576D01*
X015081Y018598D01*
X015128Y018616D01*
X015176Y018630D01*
X015225Y018641D01*
X015275Y018648D01*
X015325Y018651D01*
X015376Y018650D01*
X015426Y018645D01*
X015476Y018636D01*
X015524Y018624D01*
X015572Y018607D01*
X015618Y018587D01*
X015663Y018564D01*
X015706Y018537D01*
X015746Y018507D01*
X015784Y018474D01*
X015819Y018438D01*
X015852Y018399D01*
X015881Y018358D01*
X015907Y018315D01*
X015930Y018270D01*
X015949Y018223D01*
X015964Y018175D01*
X015976Y018126D01*
X015984Y018076D01*
X015988Y018026D01*
X015988Y017976D01*
X015984Y017926D01*
X015976Y017876D01*
X015964Y017827D01*
X015949Y017779D01*
X015930Y017732D01*
X015907Y017687D01*
X015881Y017644D01*
X015852Y017603D01*
X015819Y017564D01*
X015784Y017528D01*
X015746Y017495D01*
X015706Y017465D01*
X015663Y017438D01*
X015618Y017415D01*
X015572Y017395D01*
X015524Y017378D01*
X015476Y017366D01*
X015426Y017357D01*
X015376Y017352D01*
X015325Y017351D01*
X015275Y017354D01*
X015225Y017361D01*
X015176Y017372D01*
X015128Y017386D01*
X015081Y017404D01*
X015035Y017426D01*
X014991Y017451D01*
X014950Y017480D01*
X014911Y017511D01*
X014874Y017546D01*
X014840Y017583D01*
X014809Y017623D01*
X014781Y017665D01*
X014757Y017709D01*
X014736Y017755D01*
X014719Y017803D01*
X014706Y017851D01*
X014696Y017901D01*
X014690Y017951D01*
X014688Y018001D01*
D11*
X014968Y017172D02*
X014968Y016945D01*
X015082Y016831D01*
X015195Y016945D01*
X015195Y017172D01*
X015336Y017115D02*
X015336Y016888D01*
X015393Y016831D01*
X015507Y016831D01*
X015563Y016888D01*
X015705Y016888D02*
X015761Y016831D01*
X015875Y016831D01*
X015932Y016888D01*
X015932Y017115D02*
X015875Y017172D01*
X015761Y017172D01*
X015705Y017115D01*
X015705Y016888D01*
X015563Y017115D02*
X015507Y017172D01*
X015393Y017172D01*
X015336Y017115D01*
X015336Y016172D02*
X015336Y015831D01*
X015336Y015945D02*
X015563Y016172D01*
X015705Y016172D02*
X015818Y016172D01*
X015761Y016172D02*
X015761Y015831D01*
X015705Y015831D02*
X015818Y015831D01*
X015563Y015831D02*
X015393Y016001D01*
X015195Y015888D02*
X015138Y015831D01*
X015025Y015831D01*
X014968Y015888D01*
X014968Y016115D01*
X015025Y016172D01*
X015138Y016172D01*
X015195Y016115D01*
X015138Y015172D02*
X015025Y015172D01*
X014968Y015115D01*
X014968Y015058D01*
X015025Y015001D01*
X015138Y015001D01*
X015195Y014945D01*
X015195Y014888D01*
X015138Y014831D01*
X015025Y014831D01*
X014968Y014888D01*
X015195Y015115D02*
X015138Y015172D01*
X015336Y015172D02*
X015507Y015172D01*
X015563Y015115D01*
X015563Y014888D01*
X015507Y014831D01*
X015336Y014831D01*
X015336Y015172D01*
X015705Y015172D02*
X015818Y015172D01*
X015761Y015172D02*
X015761Y014831D01*
X015705Y014831D02*
X015818Y014831D01*
X015875Y014172D02*
X015705Y014172D01*
X015705Y013831D01*
X015875Y013831D01*
X015932Y013888D01*
X015932Y014115D01*
X015875Y014172D01*
X015563Y014172D02*
X015563Y013831D01*
X015336Y014172D01*
X015336Y013831D01*
X015195Y013888D02*
X015195Y014001D01*
X015082Y014001D01*
X015195Y013888D02*
X015138Y013831D01*
X015025Y013831D01*
X014968Y013888D01*
X014968Y014115D01*
X015025Y014172D01*
X015138Y014172D01*
X015195Y014115D01*
X018763Y014115D02*
X018763Y013888D01*
X018820Y013831D01*
X018933Y013831D01*
X018990Y013888D01*
X018990Y014001D01*
X018877Y014001D01*
X018990Y014115D02*
X018933Y014172D01*
X018820Y014172D01*
X018763Y014115D01*
X019131Y014172D02*
X019358Y013831D01*
X019358Y014172D01*
X019500Y014172D02*
X019670Y014172D01*
X019727Y014115D01*
X019727Y013888D01*
X019670Y013831D01*
X019500Y013831D01*
X019500Y014172D01*
X019131Y014172D02*
X019131Y013831D01*
X019131Y014831D02*
X019302Y014831D01*
X019358Y014888D01*
X019358Y015115D01*
X019302Y015172D01*
X019131Y015172D01*
X019131Y014831D01*
X018990Y014888D02*
X018933Y014831D01*
X018820Y014831D01*
X018763Y014888D01*
X018820Y015001D02*
X018933Y015001D01*
X018990Y014945D01*
X018990Y014888D01*
X018820Y015001D02*
X018763Y015058D01*
X018763Y015115D01*
X018820Y015172D01*
X018933Y015172D01*
X018990Y015115D01*
X019500Y015115D02*
X019500Y014888D01*
X019556Y014831D01*
X019670Y014831D01*
X019727Y014888D01*
X019727Y015115D01*
X019670Y015172D01*
X019556Y015172D01*
X019500Y015115D01*
X019556Y015831D02*
X019670Y015831D01*
X019727Y015888D01*
X019727Y016115D01*
X019670Y016172D01*
X019556Y016172D01*
X019500Y016115D01*
X019500Y015888D01*
X019556Y015831D01*
X019358Y015831D02*
X019188Y016001D01*
X019131Y015945D02*
X019358Y016172D01*
X019131Y016172D02*
X019131Y015831D01*
X018990Y015888D02*
X018933Y015831D01*
X018820Y015831D01*
X018763Y015888D01*
X018763Y016115D01*
X018820Y016172D01*
X018933Y016172D01*
X018990Y016115D01*
X018877Y016831D02*
X018990Y016945D01*
X018990Y017172D01*
X019131Y017115D02*
X019131Y016888D01*
X019188Y016831D01*
X019302Y016831D01*
X019358Y016888D01*
X019500Y016888D02*
X019556Y016831D01*
X019670Y016831D01*
X019727Y016888D01*
X019727Y017115D02*
X019670Y017172D01*
X019556Y017172D01*
X019500Y017115D01*
X019500Y016888D01*
X019358Y017115D02*
X019302Y017172D01*
X019188Y017172D01*
X019131Y017115D01*
X018763Y017172D02*
X018763Y016945D01*
X018877Y016831D01*
X022968Y016945D02*
X023082Y016831D01*
X023195Y016945D01*
X023195Y017172D01*
X023336Y017115D02*
X023336Y016888D01*
X023393Y016831D01*
X023507Y016831D01*
X023563Y016888D01*
X023705Y016888D02*
X023705Y017115D01*
X023761Y017172D01*
X023875Y017172D01*
X023932Y017115D01*
X023932Y016888D02*
X023875Y016831D01*
X023761Y016831D01*
X023705Y016888D01*
X023563Y017115D02*
X023507Y017172D01*
X023393Y017172D01*
X023336Y017115D01*
X022968Y017172D02*
X022968Y016945D01*
X023025Y016172D02*
X022968Y016115D01*
X022968Y015888D01*
X023025Y015831D01*
X023138Y015831D01*
X023195Y015888D01*
X023336Y015945D02*
X023563Y016172D01*
X023705Y016172D02*
X023818Y016172D01*
X023761Y016172D02*
X023761Y015831D01*
X023705Y015831D02*
X023818Y015831D01*
X023563Y015831D02*
X023393Y016001D01*
X023336Y015831D02*
X023336Y016172D01*
X023195Y016115D02*
X023138Y016172D01*
X023025Y016172D01*
X023025Y015172D02*
X022968Y015115D01*
X022968Y015058D01*
X023025Y015001D01*
X023138Y015001D01*
X023195Y014945D01*
X023195Y014888D01*
X023138Y014831D01*
X023025Y014831D01*
X022968Y014888D01*
X023025Y015172D02*
X023138Y015172D01*
X023195Y015115D01*
X023336Y015172D02*
X023507Y015172D01*
X023563Y015115D01*
X023563Y014888D01*
X023507Y014831D01*
X023336Y014831D01*
X023336Y015172D01*
X023705Y015172D02*
X023818Y015172D01*
X023761Y015172D02*
X023761Y014831D01*
X023705Y014831D02*
X023818Y014831D01*
X023875Y014172D02*
X023705Y014172D01*
X023705Y013831D01*
X023875Y013831D01*
X023932Y013888D01*
X023932Y014115D01*
X023875Y014172D01*
X023563Y014172D02*
X023563Y013831D01*
X023336Y014172D01*
X023336Y013831D01*
X023195Y013888D02*
X023195Y014001D01*
X023082Y014001D01*
X023195Y013888D02*
X023138Y013831D01*
X023025Y013831D01*
X022968Y013888D01*
X022968Y014115D01*
X023025Y014172D01*
X023138Y014172D01*
X023195Y014115D01*
X026763Y014115D02*
X026763Y013888D01*
X026820Y013831D01*
X026933Y013831D01*
X026990Y013888D01*
X026990Y014001D01*
X026877Y014001D01*
X026990Y014115D02*
X026933Y014172D01*
X026820Y014172D01*
X026763Y014115D01*
X027131Y014172D02*
X027358Y013831D01*
X027358Y014172D01*
X027500Y014172D02*
X027670Y014172D01*
X027727Y014115D01*
X027727Y013888D01*
X027670Y013831D01*
X027500Y013831D01*
X027500Y014172D01*
X027131Y014172D02*
X027131Y013831D01*
X027131Y014831D02*
X027302Y014831D01*
X027358Y014888D01*
X027358Y015115D01*
X027302Y015172D01*
X027131Y015172D01*
X027131Y014831D01*
X026990Y014888D02*
X026933Y014831D01*
X026820Y014831D01*
X026763Y014888D01*
X026820Y015001D02*
X026933Y015001D01*
X026990Y014945D01*
X026990Y014888D01*
X026820Y015001D02*
X026763Y015058D01*
X026763Y015115D01*
X026820Y015172D01*
X026933Y015172D01*
X026990Y015115D01*
X027500Y015115D02*
X027500Y014888D01*
X027556Y014831D01*
X027670Y014831D01*
X027727Y014888D01*
X027727Y015115D01*
X027670Y015172D01*
X027556Y015172D01*
X027500Y015115D01*
X027556Y015831D02*
X027670Y015831D01*
X027727Y015888D01*
X027727Y016115D01*
X027670Y016172D01*
X027556Y016172D01*
X027500Y016115D01*
X027500Y015888D01*
X027556Y015831D01*
X027358Y015831D02*
X027188Y016001D01*
X027131Y015945D02*
X027358Y016172D01*
X027131Y016172D02*
X027131Y015831D01*
X026990Y015888D02*
X026933Y015831D01*
X026820Y015831D01*
X026763Y015888D01*
X026763Y016115D01*
X026820Y016172D01*
X026933Y016172D01*
X026990Y016115D01*
X026877Y016831D02*
X026990Y016945D01*
X026990Y017172D01*
X027131Y017115D02*
X027131Y016888D01*
X027188Y016831D01*
X027302Y016831D01*
X027358Y016888D01*
X027500Y016888D02*
X027556Y016831D01*
X027670Y016831D01*
X027727Y016888D01*
X027727Y017115D02*
X027670Y017172D01*
X027556Y017172D01*
X027500Y017115D01*
X027500Y016888D01*
X027358Y017115D02*
X027302Y017172D01*
X027188Y017172D01*
X027131Y017115D01*
X026763Y017172D02*
X026763Y016945D01*
X026877Y016831D01*
X026990Y009172D02*
X026990Y008945D01*
X026877Y008831D01*
X026763Y008945D01*
X026763Y009172D01*
X027131Y009115D02*
X027131Y008888D01*
X027188Y008831D01*
X027302Y008831D01*
X027358Y008888D01*
X027500Y008888D02*
X027556Y008831D01*
X027670Y008831D01*
X027727Y008888D01*
X027727Y009115D02*
X027670Y009172D01*
X027556Y009172D01*
X027500Y009115D01*
X027500Y008888D01*
X027358Y009115D02*
X027302Y009172D01*
X027188Y009172D01*
X027131Y009115D01*
X027131Y008172D02*
X027131Y007831D01*
X027131Y007945D02*
X027358Y008172D01*
X027500Y008115D02*
X027500Y007888D01*
X027556Y007831D01*
X027670Y007831D01*
X027727Y007888D01*
X027727Y008115D01*
X027670Y008172D01*
X027556Y008172D01*
X027500Y008115D01*
X027358Y007831D02*
X027188Y008001D01*
X026990Y007888D02*
X026933Y007831D01*
X026820Y007831D01*
X026763Y007888D01*
X026763Y008115D01*
X026820Y008172D01*
X026933Y008172D01*
X026990Y008115D01*
X026933Y007172D02*
X026820Y007172D01*
X026763Y007115D01*
X026763Y007058D01*
X026820Y007001D01*
X026933Y007001D01*
X026990Y006945D01*
X026990Y006888D01*
X026933Y006831D01*
X026820Y006831D01*
X026763Y006888D01*
X026990Y007115D02*
X026933Y007172D01*
X027131Y007172D02*
X027302Y007172D01*
X027358Y007115D01*
X027358Y006888D01*
X027302Y006831D01*
X027131Y006831D01*
X027131Y007172D01*
X027500Y007115D02*
X027500Y006888D01*
X027556Y006831D01*
X027670Y006831D01*
X027727Y006888D01*
X027727Y007115D01*
X027670Y007172D01*
X027556Y007172D01*
X027500Y007115D01*
X027500Y006172D02*
X027670Y006172D01*
X027727Y006115D01*
X027727Y005888D01*
X027670Y005831D01*
X027500Y005831D01*
X027500Y006172D01*
X027358Y006172D02*
X027358Y005831D01*
X027131Y006172D01*
X027131Y005831D01*
X026990Y005888D02*
X026990Y006001D01*
X026877Y006001D01*
X026990Y005888D02*
X026933Y005831D01*
X026820Y005831D01*
X026763Y005888D01*
X026763Y006115D01*
X026820Y006172D01*
X026933Y006172D01*
X026990Y006115D01*
X023932Y006115D02*
X023932Y005888D01*
X023875Y005831D01*
X023705Y005831D01*
X023705Y006172D01*
X023875Y006172D01*
X023932Y006115D01*
X023563Y006172D02*
X023563Y005831D01*
X023336Y006172D01*
X023336Y005831D01*
X023195Y005888D02*
X023195Y006001D01*
X023082Y006001D01*
X023195Y005888D02*
X023138Y005831D01*
X023025Y005831D01*
X022968Y005888D01*
X022968Y006115D01*
X023025Y006172D01*
X023138Y006172D01*
X023195Y006115D01*
X023138Y006831D02*
X023025Y006831D01*
X022968Y006888D01*
X023025Y007001D02*
X023138Y007001D01*
X023195Y006945D01*
X023195Y006888D01*
X023138Y006831D01*
X023336Y006831D02*
X023507Y006831D01*
X023563Y006888D01*
X023563Y007115D01*
X023507Y007172D01*
X023336Y007172D01*
X023336Y006831D01*
X023195Y007115D02*
X023138Y007172D01*
X023025Y007172D01*
X022968Y007115D01*
X022968Y007058D01*
X023025Y007001D01*
X023705Y006831D02*
X023818Y006831D01*
X023761Y006831D02*
X023761Y007172D01*
X023705Y007172D02*
X023818Y007172D01*
X023818Y007831D02*
X023705Y007831D01*
X023761Y007831D02*
X023761Y008172D01*
X023705Y008172D02*
X023818Y008172D01*
X023563Y008172D02*
X023336Y007945D01*
X023393Y008001D02*
X023563Y007831D01*
X023336Y007831D02*
X023336Y008172D01*
X023195Y008115D02*
X023138Y008172D01*
X023025Y008172D01*
X022968Y008115D01*
X022968Y007888D01*
X023025Y007831D01*
X023138Y007831D01*
X023195Y007888D01*
X023082Y008831D02*
X023195Y008945D01*
X023195Y009172D01*
X023336Y009115D02*
X023336Y008888D01*
X023393Y008831D01*
X023507Y008831D01*
X023563Y008888D01*
X023705Y008888D02*
X023761Y008831D01*
X023875Y008831D01*
X023932Y008888D01*
X023932Y009115D02*
X023875Y009172D01*
X023761Y009172D01*
X023705Y009115D01*
X023705Y008888D01*
X023563Y009115D02*
X023507Y009172D01*
X023393Y009172D01*
X023336Y009115D01*
X022968Y009172D02*
X022968Y008945D01*
X023082Y008831D01*
X019727Y008888D02*
X019670Y008831D01*
X019556Y008831D01*
X019500Y008888D01*
X019500Y009115D01*
X019556Y009172D01*
X019670Y009172D01*
X019727Y009115D01*
X019358Y009115D02*
X019302Y009172D01*
X019188Y009172D01*
X019131Y009115D01*
X019131Y008888D01*
X019188Y008831D01*
X019302Y008831D01*
X019358Y008888D01*
X018990Y008945D02*
X018990Y009172D01*
X018763Y009172D02*
X018763Y008945D01*
X018877Y008831D01*
X018990Y008945D01*
X018933Y008172D02*
X018820Y008172D01*
X018763Y008115D01*
X018763Y007888D01*
X018820Y007831D01*
X018933Y007831D01*
X018990Y007888D01*
X019131Y007945D02*
X019358Y008172D01*
X019500Y008115D02*
X019500Y007888D01*
X019556Y007831D01*
X019670Y007831D01*
X019727Y007888D01*
X019727Y008115D01*
X019670Y008172D01*
X019556Y008172D01*
X019500Y008115D01*
X019358Y007831D02*
X019188Y008001D01*
X019131Y007831D02*
X019131Y008172D01*
X018990Y008115D02*
X018933Y008172D01*
X018933Y007172D02*
X018820Y007172D01*
X018763Y007115D01*
X018763Y007058D01*
X018820Y007001D01*
X018933Y007001D01*
X018990Y006945D01*
X018990Y006888D01*
X018933Y006831D01*
X018820Y006831D01*
X018763Y006888D01*
X018990Y007115D02*
X018933Y007172D01*
X019131Y007172D02*
X019302Y007172D01*
X019358Y007115D01*
X019358Y006888D01*
X019302Y006831D01*
X019131Y006831D01*
X019131Y007172D01*
X019500Y007115D02*
X019500Y006888D01*
X019556Y006831D01*
X019670Y006831D01*
X019727Y006888D01*
X019727Y007115D01*
X019670Y007172D01*
X019556Y007172D01*
X019500Y007115D01*
X019500Y006172D02*
X019670Y006172D01*
X019727Y006115D01*
X019727Y005888D01*
X019670Y005831D01*
X019500Y005831D01*
X019500Y006172D01*
X019358Y006172D02*
X019358Y005831D01*
X019131Y006172D01*
X019131Y005831D01*
X018990Y005888D02*
X018990Y006001D01*
X018877Y006001D01*
X018990Y005888D02*
X018933Y005831D01*
X018820Y005831D01*
X018763Y005888D01*
X018763Y006115D01*
X018820Y006172D01*
X018933Y006172D01*
X018990Y006115D01*
X015932Y006115D02*
X015932Y005888D01*
X015875Y005831D01*
X015705Y005831D01*
X015705Y006172D01*
X015875Y006172D01*
X015932Y006115D01*
X015563Y006172D02*
X015563Y005831D01*
X015336Y006172D01*
X015336Y005831D01*
X015195Y005888D02*
X015195Y006001D01*
X015082Y006001D01*
X015195Y005888D02*
X015138Y005831D01*
X015025Y005831D01*
X014968Y005888D01*
X014968Y006115D01*
X015025Y006172D01*
X015138Y006172D01*
X015195Y006115D01*
X015138Y006831D02*
X015025Y006831D01*
X014968Y006888D01*
X015025Y007001D02*
X015138Y007001D01*
X015195Y006945D01*
X015195Y006888D01*
X015138Y006831D01*
X015336Y006831D02*
X015507Y006831D01*
X015563Y006888D01*
X015563Y007115D01*
X015507Y007172D01*
X015336Y007172D01*
X015336Y006831D01*
X015195Y007115D02*
X015138Y007172D01*
X015025Y007172D01*
X014968Y007115D01*
X014968Y007058D01*
X015025Y007001D01*
X015705Y006831D02*
X015818Y006831D01*
X015761Y006831D02*
X015761Y007172D01*
X015705Y007172D02*
X015818Y007172D01*
X015818Y007831D02*
X015705Y007831D01*
X015761Y007831D02*
X015761Y008172D01*
X015705Y008172D02*
X015818Y008172D01*
X015563Y008172D02*
X015336Y007945D01*
X015393Y008001D02*
X015563Y007831D01*
X015336Y007831D02*
X015336Y008172D01*
X015195Y008115D02*
X015138Y008172D01*
X015025Y008172D01*
X014968Y008115D01*
X014968Y007888D01*
X015025Y007831D01*
X015138Y007831D01*
X015195Y007888D01*
X015082Y008831D02*
X015195Y008945D01*
X015195Y009172D01*
X015336Y009115D02*
X015336Y008888D01*
X015393Y008831D01*
X015507Y008831D01*
X015563Y008888D01*
X015705Y008888D02*
X015761Y008831D01*
X015875Y008831D01*
X015932Y008888D01*
X015932Y009115D02*
X015875Y009172D01*
X015761Y009172D01*
X015705Y009115D01*
X015705Y008888D01*
X015563Y009115D02*
X015507Y009172D01*
X015393Y009172D01*
X015336Y009115D01*
X014968Y009172D02*
X014968Y008945D01*
X015082Y008831D01*
D12*
X013838Y011501D02*
X028838Y011501D01*
X021338Y004001D02*
X021338Y019001D01*
D13*
X018116Y017214D02*
X018116Y013789D01*
X016561Y013789D01*
X016561Y017214D01*
X018116Y017214D01*
X016747Y016840D02*
X016749Y016867D01*
X016755Y016894D01*
X016764Y016920D01*
X016777Y016944D01*
X016793Y016967D01*
X016812Y016986D01*
X016834Y017003D01*
X016858Y017017D01*
X016883Y017027D01*
X016910Y017034D01*
X016937Y017037D01*
X016965Y017036D01*
X016992Y017031D01*
X017018Y017023D01*
X017042Y017011D01*
X017065Y016995D01*
X017086Y016977D01*
X017103Y016956D01*
X017118Y016932D01*
X017129Y016907D01*
X017137Y016881D01*
X017141Y016854D01*
X017141Y016826D01*
X017137Y016799D01*
X017129Y016773D01*
X017118Y016748D01*
X017103Y016724D01*
X017086Y016703D01*
X017065Y016685D01*
X017043Y016669D01*
X017018Y016657D01*
X016992Y016649D01*
X016965Y016644D01*
X016937Y016643D01*
X016910Y016646D01*
X016883Y016653D01*
X016858Y016663D01*
X016834Y016677D01*
X016812Y016694D01*
X016793Y016713D01*
X016777Y016736D01*
X016764Y016760D01*
X016755Y016786D01*
X016749Y016813D01*
X016747Y016840D01*
X024561Y017214D02*
X024561Y013789D01*
X026116Y013789D01*
X026116Y017214D01*
X024561Y017214D01*
X024747Y016840D02*
X024749Y016867D01*
X024755Y016894D01*
X024764Y016920D01*
X024777Y016944D01*
X024793Y016967D01*
X024812Y016986D01*
X024834Y017003D01*
X024858Y017017D01*
X024883Y017027D01*
X024910Y017034D01*
X024937Y017037D01*
X024965Y017036D01*
X024992Y017031D01*
X025018Y017023D01*
X025042Y017011D01*
X025065Y016995D01*
X025086Y016977D01*
X025103Y016956D01*
X025118Y016932D01*
X025129Y016907D01*
X025137Y016881D01*
X025141Y016854D01*
X025141Y016826D01*
X025137Y016799D01*
X025129Y016773D01*
X025118Y016748D01*
X025103Y016724D01*
X025086Y016703D01*
X025065Y016685D01*
X025043Y016669D01*
X025018Y016657D01*
X024992Y016649D01*
X024965Y016644D01*
X024937Y016643D01*
X024910Y016646D01*
X024883Y016653D01*
X024858Y016663D01*
X024834Y016677D01*
X024812Y016694D01*
X024793Y016713D01*
X024777Y016736D01*
X024764Y016760D01*
X024755Y016786D01*
X024749Y016813D01*
X024747Y016840D01*
X024561Y009214D02*
X026116Y009214D01*
X026116Y005789D01*
X024561Y005789D01*
X024561Y009214D01*
X024747Y008840D02*
X024749Y008867D01*
X024755Y008894D01*
X024764Y008920D01*
X024777Y008944D01*
X024793Y008967D01*
X024812Y008986D01*
X024834Y009003D01*
X024858Y009017D01*
X024883Y009027D01*
X024910Y009034D01*
X024937Y009037D01*
X024965Y009036D01*
X024992Y009031D01*
X025018Y009023D01*
X025042Y009011D01*
X025065Y008995D01*
X025086Y008977D01*
X025103Y008956D01*
X025118Y008932D01*
X025129Y008907D01*
X025137Y008881D01*
X025141Y008854D01*
X025141Y008826D01*
X025137Y008799D01*
X025129Y008773D01*
X025118Y008748D01*
X025103Y008724D01*
X025086Y008703D01*
X025065Y008685D01*
X025043Y008669D01*
X025018Y008657D01*
X024992Y008649D01*
X024965Y008644D01*
X024937Y008643D01*
X024910Y008646D01*
X024883Y008653D01*
X024858Y008663D01*
X024834Y008677D01*
X024812Y008694D01*
X024793Y008713D01*
X024777Y008736D01*
X024764Y008760D01*
X024755Y008786D01*
X024749Y008813D01*
X024747Y008840D01*
X018116Y009214D02*
X018116Y005789D01*
X016561Y005789D01*
X016561Y009214D01*
X018116Y009214D01*
X016747Y008840D02*
X016749Y008867D01*
X016755Y008894D01*
X016764Y008920D01*
X016777Y008944D01*
X016793Y008967D01*
X016812Y008986D01*
X016834Y009003D01*
X016858Y009017D01*
X016883Y009027D01*
X016910Y009034D01*
X016937Y009037D01*
X016965Y009036D01*
X016992Y009031D01*
X017018Y009023D01*
X017042Y009011D01*
X017065Y008995D01*
X017086Y008977D01*
X017103Y008956D01*
X017118Y008932D01*
X017129Y008907D01*
X017137Y008881D01*
X017141Y008854D01*
X017141Y008826D01*
X017137Y008799D01*
X017129Y008773D01*
X017118Y008748D01*
X017103Y008724D01*
X017086Y008703D01*
X017065Y008685D01*
X017043Y008669D01*
X017018Y008657D01*
X016992Y008649D01*
X016965Y008644D01*
X016937Y008643D01*
X016910Y008646D01*
X016883Y008653D01*
X016858Y008663D01*
X016834Y008677D01*
X016812Y008694D01*
X016793Y008713D01*
X016777Y008736D01*
X016764Y008760D01*
X016755Y008786D01*
X016749Y008813D01*
X016747Y008840D01*
D14*
X016838Y005001D03*
X017338Y005001D03*
X017838Y005001D03*
X024838Y005001D03*
X025338Y005001D03*
X025838Y005001D03*
X025838Y013001D03*
X025338Y013001D03*
X024838Y013001D03*
X017838Y013001D03*
X017338Y013001D03*
X016838Y013001D03*
D15*
X017326Y010001D02*
X017350Y010001D01*
X025326Y010001D02*
X025350Y010001D01*
X025350Y018001D02*
X025326Y018001D01*
X017350Y018001D02*
X017326Y018001D01*
D16*
X014838Y017251D02*
X014588Y017501D01*
X014088Y017501D01*
X013838Y017251D01*
X013838Y016751D01*
X014088Y016501D01*
X013838Y016251D01*
X013838Y015751D01*
X014088Y015501D01*
X013838Y015251D01*
X013838Y014751D01*
X014088Y014501D01*
X013838Y014251D01*
X013838Y013751D01*
X014088Y013501D01*
X014588Y013501D01*
X014838Y013751D01*
X014838Y014251D01*
X014588Y014501D01*
X014838Y014751D01*
X014838Y015251D01*
X014588Y015501D01*
X014838Y015751D01*
X014838Y016251D01*
X014588Y016501D01*
X014838Y016751D01*
X014838Y017251D01*
X019838Y017251D02*
X019838Y016751D01*
X020088Y016501D01*
X019838Y016251D01*
X019838Y015751D01*
X020088Y015501D01*
X019838Y015251D01*
X019838Y014751D01*
X020088Y014501D01*
X019838Y014251D01*
X019838Y013751D01*
X020088Y013501D01*
X020588Y013501D01*
X020838Y013751D01*
X020838Y014251D01*
X020588Y014501D01*
X020838Y014751D01*
X020838Y015251D01*
X020588Y015501D01*
X020838Y015751D01*
X020838Y016251D01*
X020588Y016501D01*
X020838Y016751D01*
X020838Y017251D01*
X020588Y017501D01*
X020088Y017501D01*
X019838Y017251D01*
X021838Y017251D02*
X021838Y016751D01*
X022088Y016501D01*
X021838Y016251D01*
X021838Y015751D01*
X022088Y015501D01*
X021838Y015251D01*
X021838Y014751D01*
X022088Y014501D01*
X021838Y014251D01*
X021838Y013751D01*
X022088Y013501D01*
X022588Y013501D01*
X022838Y013751D01*
X022838Y014251D01*
X022588Y014501D01*
X022838Y014751D01*
X022838Y015251D01*
X022588Y015501D01*
X022838Y015751D01*
X022838Y016251D01*
X022588Y016501D01*
X022838Y016751D01*
X022838Y017251D01*
X022588Y017501D01*
X022088Y017501D01*
X021838Y017251D01*
X027838Y017251D02*
X027838Y016751D01*
X028088Y016501D01*
X027838Y016251D01*
X027838Y015751D01*
X028088Y015501D01*
X027838Y015251D01*
X027838Y014751D01*
X028088Y014501D01*
X027838Y014251D01*
X027838Y013751D01*
X028088Y013501D01*
X028588Y013501D01*
X028838Y013751D01*
X028838Y014251D01*
X028588Y014501D01*
X028838Y014751D01*
X028838Y015251D01*
X028588Y015501D01*
X028838Y015751D01*
X028838Y016251D01*
X028588Y016501D01*
X028838Y016751D01*
X028838Y017251D01*
X028588Y017501D01*
X028088Y017501D01*
X027838Y017251D01*
X028088Y009501D02*
X027838Y009251D01*
X027838Y008751D01*
X028088Y008501D01*
X027838Y008251D01*
X027838Y007751D01*
X028088Y007501D01*
X027838Y007251D01*
X027838Y006751D01*
X028088Y006501D01*
X027838Y006251D01*
X027838Y005751D01*
X028088Y005501D01*
X028588Y005501D01*
X028838Y005751D01*
X028838Y006251D01*
X028588Y006501D01*
X028838Y006751D01*
X028838Y007251D01*
X028588Y007501D01*
X028838Y007751D01*
X028838Y008251D01*
X028588Y008501D01*
X028838Y008751D01*
X028838Y009251D01*
X028588Y009501D01*
X028088Y009501D01*
X022838Y009251D02*
X022838Y008751D01*
X022588Y008501D01*
X022838Y008251D01*
X022838Y007751D01*
X022588Y007501D01*
X022838Y007251D01*
X022838Y006751D01*
X022588Y006501D01*
X022838Y006251D01*
X022838Y005751D01*
X022588Y005501D01*
X022088Y005501D01*
X021838Y005751D01*
X021838Y006251D01*
X022088Y006501D01*
X021838Y006751D01*
X021838Y007251D01*
X022088Y007501D01*
X021838Y007751D01*
X021838Y008251D01*
X022088Y008501D01*
X021838Y008751D01*
X021838Y009251D01*
X022088Y009501D01*
X022588Y009501D01*
X022838Y009251D01*
X020838Y009251D02*
X020838Y008751D01*
X020588Y008501D01*
X020838Y008251D01*
X020838Y007751D01*
X020588Y007501D01*
X020838Y007251D01*
X020838Y006751D01*
X020588Y006501D01*
X020838Y006251D01*
X020838Y005751D01*
X020588Y005501D01*
X020088Y005501D01*
X019838Y005751D01*
X019838Y006251D01*
X020088Y006501D01*
X019838Y006751D01*
X019838Y007251D01*
X020088Y007501D01*
X019838Y007751D01*
X019838Y008251D01*
X020088Y008501D01*
X019838Y008751D01*
X019838Y009251D01*
X020088Y009501D01*
X020588Y009501D01*
X020838Y009251D01*
X014838Y009251D02*
X014838Y008751D01*
X014588Y008501D01*
X014838Y008251D01*
X014838Y007751D01*
X014588Y007501D01*
X014838Y007251D01*
X014838Y006751D01*
X014588Y006501D01*
X014838Y006251D01*
X014838Y005751D01*
X014588Y005501D01*
X014088Y005501D01*
X013838Y005751D01*
X013838Y006251D01*
X014088Y006501D01*
X013838Y006751D01*
X013838Y007251D01*
X014088Y007501D01*
X013838Y007751D01*
X013838Y008251D01*
X014088Y008501D01*
X013838Y008751D01*
X013838Y009251D01*
X014088Y009501D01*
X014588Y009501D01*
X014838Y009251D01*
M02*
