%
M48
M72
T01C0.0200
T02C0.0400
T03C0.1300
%
T01
X16738Y5701
X16838Y7501
X17838Y7601
X19038Y7501
X17338Y9301
X16538Y9751
X24538Y9751
X25338Y9301
X25838Y7601
X27038Y7501
X24838Y7501
X24738Y5701
X24738Y13701
X24838Y15501
X25838Y15601
X27038Y15501
X25338Y17301
X24538Y17751
X19038Y15501
X17838Y15601
X16838Y15501
X17338Y17301
X16538Y17751
X16738Y13701
T02
X14338Y6001
X14338Y7001
X14338Y8001
X14338Y9001
X20338Y9001
X22338Y9001
X22338Y8001
X20338Y8001
X20338Y7001
X22338Y7001
X22338Y6001
X20338Y6001
X28338Y6001
X28338Y7001
X28338Y8001
X28338Y9001
X28338Y14001
X28338Y15001
X28338Y16001
X28338Y17001
X22338Y17001
X20338Y17001
X20338Y16001
X22338Y16001
X22338Y15001
X20338Y15001
X20338Y14001
X22338Y14001
X14338Y14001
X14338Y15001
X14338Y16001
X14338Y17001
T03
X15338Y18001
X19338Y18001
X23338Y18001
X27338Y18001
X27338Y13001
X23338Y13001
X19338Y13001
X15338Y13001
X15338Y10001
X19338Y10001
X23338Y10001
X27338Y10001
X27338Y5001
X23338Y5001
X19338Y5001
X15338Y5001
M30
