G75*
G70*
%OFA0B0*%
%FSLAX24Y24*%
%IPPOS*%
%LPD*%
%AMOC8*
5,1,8,0,0,1.08239X$1,22.5*
%
%ADD10C,0.0000*%
%ADD11C,0.0060*%
%ADD12C,0.0050*%
D10*
X013838Y004001D02*
X020838Y004001D01*
X021338Y004001D01*
X021838Y004001D01*
X028838Y004001D01*
X028838Y011001D01*
X028838Y011501D01*
X028838Y012001D01*
X028838Y019001D01*
X021838Y019001D01*
X021338Y019001D01*
X020838Y019001D01*
X013838Y019001D01*
X013838Y012001D01*
X013838Y011501D01*
X013838Y011001D01*
X013838Y004001D01*
X014688Y005001D02*
X014690Y005051D01*
X014696Y005101D01*
X014706Y005151D01*
X014719Y005199D01*
X014736Y005247D01*
X014757Y005293D01*
X014781Y005337D01*
X014809Y005379D01*
X014840Y005419D01*
X014874Y005456D01*
X014911Y005491D01*
X014950Y005522D01*
X014991Y005551D01*
X015035Y005576D01*
X015081Y005598D01*
X015128Y005616D01*
X015176Y005630D01*
X015225Y005641D01*
X015275Y005648D01*
X015325Y005651D01*
X015376Y005650D01*
X015426Y005645D01*
X015476Y005636D01*
X015524Y005624D01*
X015572Y005607D01*
X015618Y005587D01*
X015663Y005564D01*
X015706Y005537D01*
X015746Y005507D01*
X015784Y005474D01*
X015819Y005438D01*
X015852Y005399D01*
X015881Y005358D01*
X015907Y005315D01*
X015930Y005270D01*
X015949Y005223D01*
X015964Y005175D01*
X015976Y005126D01*
X015984Y005076D01*
X015988Y005026D01*
X015988Y004976D01*
X015984Y004926D01*
X015976Y004876D01*
X015964Y004827D01*
X015949Y004779D01*
X015930Y004732D01*
X015907Y004687D01*
X015881Y004644D01*
X015852Y004603D01*
X015819Y004564D01*
X015784Y004528D01*
X015746Y004495D01*
X015706Y004465D01*
X015663Y004438D01*
X015618Y004415D01*
X015572Y004395D01*
X015524Y004378D01*
X015476Y004366D01*
X015426Y004357D01*
X015376Y004352D01*
X015325Y004351D01*
X015275Y004354D01*
X015225Y004361D01*
X015176Y004372D01*
X015128Y004386D01*
X015081Y004404D01*
X015035Y004426D01*
X014991Y004451D01*
X014950Y004480D01*
X014911Y004511D01*
X014874Y004546D01*
X014840Y004583D01*
X014809Y004623D01*
X014781Y004665D01*
X014757Y004709D01*
X014736Y004755D01*
X014719Y004803D01*
X014706Y004851D01*
X014696Y004901D01*
X014690Y004951D01*
X014688Y005001D01*
X018688Y005001D02*
X018690Y005051D01*
X018696Y005101D01*
X018706Y005151D01*
X018719Y005199D01*
X018736Y005247D01*
X018757Y005293D01*
X018781Y005337D01*
X018809Y005379D01*
X018840Y005419D01*
X018874Y005456D01*
X018911Y005491D01*
X018950Y005522D01*
X018991Y005551D01*
X019035Y005576D01*
X019081Y005598D01*
X019128Y005616D01*
X019176Y005630D01*
X019225Y005641D01*
X019275Y005648D01*
X019325Y005651D01*
X019376Y005650D01*
X019426Y005645D01*
X019476Y005636D01*
X019524Y005624D01*
X019572Y005607D01*
X019618Y005587D01*
X019663Y005564D01*
X019706Y005537D01*
X019746Y005507D01*
X019784Y005474D01*
X019819Y005438D01*
X019852Y005399D01*
X019881Y005358D01*
X019907Y005315D01*
X019930Y005270D01*
X019949Y005223D01*
X019964Y005175D01*
X019976Y005126D01*
X019984Y005076D01*
X019988Y005026D01*
X019988Y004976D01*
X019984Y004926D01*
X019976Y004876D01*
X019964Y004827D01*
X019949Y004779D01*
X019930Y004732D01*
X019907Y004687D01*
X019881Y004644D01*
X019852Y004603D01*
X019819Y004564D01*
X019784Y004528D01*
X019746Y004495D01*
X019706Y004465D01*
X019663Y004438D01*
X019618Y004415D01*
X019572Y004395D01*
X019524Y004378D01*
X019476Y004366D01*
X019426Y004357D01*
X019376Y004352D01*
X019325Y004351D01*
X019275Y004354D01*
X019225Y004361D01*
X019176Y004372D01*
X019128Y004386D01*
X019081Y004404D01*
X019035Y004426D01*
X018991Y004451D01*
X018950Y004480D01*
X018911Y004511D01*
X018874Y004546D01*
X018840Y004583D01*
X018809Y004623D01*
X018781Y004665D01*
X018757Y004709D01*
X018736Y004755D01*
X018719Y004803D01*
X018706Y004851D01*
X018696Y004901D01*
X018690Y004951D01*
X018688Y005001D01*
X022688Y005001D02*
X022690Y005051D01*
X022696Y005101D01*
X022706Y005151D01*
X022719Y005199D01*
X022736Y005247D01*
X022757Y005293D01*
X022781Y005337D01*
X022809Y005379D01*
X022840Y005419D01*
X022874Y005456D01*
X022911Y005491D01*
X022950Y005522D01*
X022991Y005551D01*
X023035Y005576D01*
X023081Y005598D01*
X023128Y005616D01*
X023176Y005630D01*
X023225Y005641D01*
X023275Y005648D01*
X023325Y005651D01*
X023376Y005650D01*
X023426Y005645D01*
X023476Y005636D01*
X023524Y005624D01*
X023572Y005607D01*
X023618Y005587D01*
X023663Y005564D01*
X023706Y005537D01*
X023746Y005507D01*
X023784Y005474D01*
X023819Y005438D01*
X023852Y005399D01*
X023881Y005358D01*
X023907Y005315D01*
X023930Y005270D01*
X023949Y005223D01*
X023964Y005175D01*
X023976Y005126D01*
X023984Y005076D01*
X023988Y005026D01*
X023988Y004976D01*
X023984Y004926D01*
X023976Y004876D01*
X023964Y004827D01*
X023949Y004779D01*
X023930Y004732D01*
X023907Y004687D01*
X023881Y004644D01*
X023852Y004603D01*
X023819Y004564D01*
X023784Y004528D01*
X023746Y004495D01*
X023706Y004465D01*
X023663Y004438D01*
X023618Y004415D01*
X023572Y004395D01*
X023524Y004378D01*
X023476Y004366D01*
X023426Y004357D01*
X023376Y004352D01*
X023325Y004351D01*
X023275Y004354D01*
X023225Y004361D01*
X023176Y004372D01*
X023128Y004386D01*
X023081Y004404D01*
X023035Y004426D01*
X022991Y004451D01*
X022950Y004480D01*
X022911Y004511D01*
X022874Y004546D01*
X022840Y004583D01*
X022809Y004623D01*
X022781Y004665D01*
X022757Y004709D01*
X022736Y004755D01*
X022719Y004803D01*
X022706Y004851D01*
X022696Y004901D01*
X022690Y004951D01*
X022688Y005001D01*
X026688Y005001D02*
X026690Y005051D01*
X026696Y005101D01*
X026706Y005151D01*
X026719Y005199D01*
X026736Y005247D01*
X026757Y005293D01*
X026781Y005337D01*
X026809Y005379D01*
X026840Y005419D01*
X026874Y005456D01*
X026911Y005491D01*
X026950Y005522D01*
X026991Y005551D01*
X027035Y005576D01*
X027081Y005598D01*
X027128Y005616D01*
X027176Y005630D01*
X027225Y005641D01*
X027275Y005648D01*
X027325Y005651D01*
X027376Y005650D01*
X027426Y005645D01*
X027476Y005636D01*
X027524Y005624D01*
X027572Y005607D01*
X027618Y005587D01*
X027663Y005564D01*
X027706Y005537D01*
X027746Y005507D01*
X027784Y005474D01*
X027819Y005438D01*
X027852Y005399D01*
X027881Y005358D01*
X027907Y005315D01*
X027930Y005270D01*
X027949Y005223D01*
X027964Y005175D01*
X027976Y005126D01*
X027984Y005076D01*
X027988Y005026D01*
X027988Y004976D01*
X027984Y004926D01*
X027976Y004876D01*
X027964Y004827D01*
X027949Y004779D01*
X027930Y004732D01*
X027907Y004687D01*
X027881Y004644D01*
X027852Y004603D01*
X027819Y004564D01*
X027784Y004528D01*
X027746Y004495D01*
X027706Y004465D01*
X027663Y004438D01*
X027618Y004415D01*
X027572Y004395D01*
X027524Y004378D01*
X027476Y004366D01*
X027426Y004357D01*
X027376Y004352D01*
X027325Y004351D01*
X027275Y004354D01*
X027225Y004361D01*
X027176Y004372D01*
X027128Y004386D01*
X027081Y004404D01*
X027035Y004426D01*
X026991Y004451D01*
X026950Y004480D01*
X026911Y004511D01*
X026874Y004546D01*
X026840Y004583D01*
X026809Y004623D01*
X026781Y004665D01*
X026757Y004709D01*
X026736Y004755D01*
X026719Y004803D01*
X026706Y004851D01*
X026696Y004901D01*
X026690Y004951D01*
X026688Y005001D01*
X026688Y010001D02*
X026690Y010051D01*
X026696Y010101D01*
X026706Y010151D01*
X026719Y010199D01*
X026736Y010247D01*
X026757Y010293D01*
X026781Y010337D01*
X026809Y010379D01*
X026840Y010419D01*
X026874Y010456D01*
X026911Y010491D01*
X026950Y010522D01*
X026991Y010551D01*
X027035Y010576D01*
X027081Y010598D01*
X027128Y010616D01*
X027176Y010630D01*
X027225Y010641D01*
X027275Y010648D01*
X027325Y010651D01*
X027376Y010650D01*
X027426Y010645D01*
X027476Y010636D01*
X027524Y010624D01*
X027572Y010607D01*
X027618Y010587D01*
X027663Y010564D01*
X027706Y010537D01*
X027746Y010507D01*
X027784Y010474D01*
X027819Y010438D01*
X027852Y010399D01*
X027881Y010358D01*
X027907Y010315D01*
X027930Y010270D01*
X027949Y010223D01*
X027964Y010175D01*
X027976Y010126D01*
X027984Y010076D01*
X027988Y010026D01*
X027988Y009976D01*
X027984Y009926D01*
X027976Y009876D01*
X027964Y009827D01*
X027949Y009779D01*
X027930Y009732D01*
X027907Y009687D01*
X027881Y009644D01*
X027852Y009603D01*
X027819Y009564D01*
X027784Y009528D01*
X027746Y009495D01*
X027706Y009465D01*
X027663Y009438D01*
X027618Y009415D01*
X027572Y009395D01*
X027524Y009378D01*
X027476Y009366D01*
X027426Y009357D01*
X027376Y009352D01*
X027325Y009351D01*
X027275Y009354D01*
X027225Y009361D01*
X027176Y009372D01*
X027128Y009386D01*
X027081Y009404D01*
X027035Y009426D01*
X026991Y009451D01*
X026950Y009480D01*
X026911Y009511D01*
X026874Y009546D01*
X026840Y009583D01*
X026809Y009623D01*
X026781Y009665D01*
X026757Y009709D01*
X026736Y009755D01*
X026719Y009803D01*
X026706Y009851D01*
X026696Y009901D01*
X026690Y009951D01*
X026688Y010001D01*
X022688Y010001D02*
X022690Y010051D01*
X022696Y010101D01*
X022706Y010151D01*
X022719Y010199D01*
X022736Y010247D01*
X022757Y010293D01*
X022781Y010337D01*
X022809Y010379D01*
X022840Y010419D01*
X022874Y010456D01*
X022911Y010491D01*
X022950Y010522D01*
X022991Y010551D01*
X023035Y010576D01*
X023081Y010598D01*
X023128Y010616D01*
X023176Y010630D01*
X023225Y010641D01*
X023275Y010648D01*
X023325Y010651D01*
X023376Y010650D01*
X023426Y010645D01*
X023476Y010636D01*
X023524Y010624D01*
X023572Y010607D01*
X023618Y010587D01*
X023663Y010564D01*
X023706Y010537D01*
X023746Y010507D01*
X023784Y010474D01*
X023819Y010438D01*
X023852Y010399D01*
X023881Y010358D01*
X023907Y010315D01*
X023930Y010270D01*
X023949Y010223D01*
X023964Y010175D01*
X023976Y010126D01*
X023984Y010076D01*
X023988Y010026D01*
X023988Y009976D01*
X023984Y009926D01*
X023976Y009876D01*
X023964Y009827D01*
X023949Y009779D01*
X023930Y009732D01*
X023907Y009687D01*
X023881Y009644D01*
X023852Y009603D01*
X023819Y009564D01*
X023784Y009528D01*
X023746Y009495D01*
X023706Y009465D01*
X023663Y009438D01*
X023618Y009415D01*
X023572Y009395D01*
X023524Y009378D01*
X023476Y009366D01*
X023426Y009357D01*
X023376Y009352D01*
X023325Y009351D01*
X023275Y009354D01*
X023225Y009361D01*
X023176Y009372D01*
X023128Y009386D01*
X023081Y009404D01*
X023035Y009426D01*
X022991Y009451D01*
X022950Y009480D01*
X022911Y009511D01*
X022874Y009546D01*
X022840Y009583D01*
X022809Y009623D01*
X022781Y009665D01*
X022757Y009709D01*
X022736Y009755D01*
X022719Y009803D01*
X022706Y009851D01*
X022696Y009901D01*
X022690Y009951D01*
X022688Y010001D01*
X018688Y010001D02*
X018690Y010051D01*
X018696Y010101D01*
X018706Y010151D01*
X018719Y010199D01*
X018736Y010247D01*
X018757Y010293D01*
X018781Y010337D01*
X018809Y010379D01*
X018840Y010419D01*
X018874Y010456D01*
X018911Y010491D01*
X018950Y010522D01*
X018991Y010551D01*
X019035Y010576D01*
X019081Y010598D01*
X019128Y010616D01*
X019176Y010630D01*
X019225Y010641D01*
X019275Y010648D01*
X019325Y010651D01*
X019376Y010650D01*
X019426Y010645D01*
X019476Y010636D01*
X019524Y010624D01*
X019572Y010607D01*
X019618Y010587D01*
X019663Y010564D01*
X019706Y010537D01*
X019746Y010507D01*
X019784Y010474D01*
X019819Y010438D01*
X019852Y010399D01*
X019881Y010358D01*
X019907Y010315D01*
X019930Y010270D01*
X019949Y010223D01*
X019964Y010175D01*
X019976Y010126D01*
X019984Y010076D01*
X019988Y010026D01*
X019988Y009976D01*
X019984Y009926D01*
X019976Y009876D01*
X019964Y009827D01*
X019949Y009779D01*
X019930Y009732D01*
X019907Y009687D01*
X019881Y009644D01*
X019852Y009603D01*
X019819Y009564D01*
X019784Y009528D01*
X019746Y009495D01*
X019706Y009465D01*
X019663Y009438D01*
X019618Y009415D01*
X019572Y009395D01*
X019524Y009378D01*
X019476Y009366D01*
X019426Y009357D01*
X019376Y009352D01*
X019325Y009351D01*
X019275Y009354D01*
X019225Y009361D01*
X019176Y009372D01*
X019128Y009386D01*
X019081Y009404D01*
X019035Y009426D01*
X018991Y009451D01*
X018950Y009480D01*
X018911Y009511D01*
X018874Y009546D01*
X018840Y009583D01*
X018809Y009623D01*
X018781Y009665D01*
X018757Y009709D01*
X018736Y009755D01*
X018719Y009803D01*
X018706Y009851D01*
X018696Y009901D01*
X018690Y009951D01*
X018688Y010001D01*
X014688Y010001D02*
X014690Y010051D01*
X014696Y010101D01*
X014706Y010151D01*
X014719Y010199D01*
X014736Y010247D01*
X014757Y010293D01*
X014781Y010337D01*
X014809Y010379D01*
X014840Y010419D01*
X014874Y010456D01*
X014911Y010491D01*
X014950Y010522D01*
X014991Y010551D01*
X015035Y010576D01*
X015081Y010598D01*
X015128Y010616D01*
X015176Y010630D01*
X015225Y010641D01*
X015275Y010648D01*
X015325Y010651D01*
X015376Y010650D01*
X015426Y010645D01*
X015476Y010636D01*
X015524Y010624D01*
X015572Y010607D01*
X015618Y010587D01*
X015663Y010564D01*
X015706Y010537D01*
X015746Y010507D01*
X015784Y010474D01*
X015819Y010438D01*
X015852Y010399D01*
X015881Y010358D01*
X015907Y010315D01*
X015930Y010270D01*
X015949Y010223D01*
X015964Y010175D01*
X015976Y010126D01*
X015984Y010076D01*
X015988Y010026D01*
X015988Y009976D01*
X015984Y009926D01*
X015976Y009876D01*
X015964Y009827D01*
X015949Y009779D01*
X015930Y009732D01*
X015907Y009687D01*
X015881Y009644D01*
X015852Y009603D01*
X015819Y009564D01*
X015784Y009528D01*
X015746Y009495D01*
X015706Y009465D01*
X015663Y009438D01*
X015618Y009415D01*
X015572Y009395D01*
X015524Y009378D01*
X015476Y009366D01*
X015426Y009357D01*
X015376Y009352D01*
X015325Y009351D01*
X015275Y009354D01*
X015225Y009361D01*
X015176Y009372D01*
X015128Y009386D01*
X015081Y009404D01*
X015035Y009426D01*
X014991Y009451D01*
X014950Y009480D01*
X014911Y009511D01*
X014874Y009546D01*
X014840Y009583D01*
X014809Y009623D01*
X014781Y009665D01*
X014757Y009709D01*
X014736Y009755D01*
X014719Y009803D01*
X014706Y009851D01*
X014696Y009901D01*
X014690Y009951D01*
X014688Y010001D01*
X014688Y013001D02*
X014690Y013051D01*
X014696Y013101D01*
X014706Y013151D01*
X014719Y013199D01*
X014736Y013247D01*
X014757Y013293D01*
X014781Y013337D01*
X014809Y013379D01*
X014840Y013419D01*
X014874Y013456D01*
X014911Y013491D01*
X014950Y013522D01*
X014991Y013551D01*
X015035Y013576D01*
X015081Y013598D01*
X015128Y013616D01*
X015176Y013630D01*
X015225Y013641D01*
X015275Y013648D01*
X015325Y013651D01*
X015376Y013650D01*
X015426Y013645D01*
X015476Y013636D01*
X015524Y013624D01*
X015572Y013607D01*
X015618Y013587D01*
X015663Y013564D01*
X015706Y013537D01*
X015746Y013507D01*
X015784Y013474D01*
X015819Y013438D01*
X015852Y013399D01*
X015881Y013358D01*
X015907Y013315D01*
X015930Y013270D01*
X015949Y013223D01*
X015964Y013175D01*
X015976Y013126D01*
X015984Y013076D01*
X015988Y013026D01*
X015988Y012976D01*
X015984Y012926D01*
X015976Y012876D01*
X015964Y012827D01*
X015949Y012779D01*
X015930Y012732D01*
X015907Y012687D01*
X015881Y012644D01*
X015852Y012603D01*
X015819Y012564D01*
X015784Y012528D01*
X015746Y012495D01*
X015706Y012465D01*
X015663Y012438D01*
X015618Y012415D01*
X015572Y012395D01*
X015524Y012378D01*
X015476Y012366D01*
X015426Y012357D01*
X015376Y012352D01*
X015325Y012351D01*
X015275Y012354D01*
X015225Y012361D01*
X015176Y012372D01*
X015128Y012386D01*
X015081Y012404D01*
X015035Y012426D01*
X014991Y012451D01*
X014950Y012480D01*
X014911Y012511D01*
X014874Y012546D01*
X014840Y012583D01*
X014809Y012623D01*
X014781Y012665D01*
X014757Y012709D01*
X014736Y012755D01*
X014719Y012803D01*
X014706Y012851D01*
X014696Y012901D01*
X014690Y012951D01*
X014688Y013001D01*
X018688Y013001D02*
X018690Y013051D01*
X018696Y013101D01*
X018706Y013151D01*
X018719Y013199D01*
X018736Y013247D01*
X018757Y013293D01*
X018781Y013337D01*
X018809Y013379D01*
X018840Y013419D01*
X018874Y013456D01*
X018911Y013491D01*
X018950Y013522D01*
X018991Y013551D01*
X019035Y013576D01*
X019081Y013598D01*
X019128Y013616D01*
X019176Y013630D01*
X019225Y013641D01*
X019275Y013648D01*
X019325Y013651D01*
X019376Y013650D01*
X019426Y013645D01*
X019476Y013636D01*
X019524Y013624D01*
X019572Y013607D01*
X019618Y013587D01*
X019663Y013564D01*
X019706Y013537D01*
X019746Y013507D01*
X019784Y013474D01*
X019819Y013438D01*
X019852Y013399D01*
X019881Y013358D01*
X019907Y013315D01*
X019930Y013270D01*
X019949Y013223D01*
X019964Y013175D01*
X019976Y013126D01*
X019984Y013076D01*
X019988Y013026D01*
X019988Y012976D01*
X019984Y012926D01*
X019976Y012876D01*
X019964Y012827D01*
X019949Y012779D01*
X019930Y012732D01*
X019907Y012687D01*
X019881Y012644D01*
X019852Y012603D01*
X019819Y012564D01*
X019784Y012528D01*
X019746Y012495D01*
X019706Y012465D01*
X019663Y012438D01*
X019618Y012415D01*
X019572Y012395D01*
X019524Y012378D01*
X019476Y012366D01*
X019426Y012357D01*
X019376Y012352D01*
X019325Y012351D01*
X019275Y012354D01*
X019225Y012361D01*
X019176Y012372D01*
X019128Y012386D01*
X019081Y012404D01*
X019035Y012426D01*
X018991Y012451D01*
X018950Y012480D01*
X018911Y012511D01*
X018874Y012546D01*
X018840Y012583D01*
X018809Y012623D01*
X018781Y012665D01*
X018757Y012709D01*
X018736Y012755D01*
X018719Y012803D01*
X018706Y012851D01*
X018696Y012901D01*
X018690Y012951D01*
X018688Y013001D01*
X022688Y013001D02*
X022690Y013051D01*
X022696Y013101D01*
X022706Y013151D01*
X022719Y013199D01*
X022736Y013247D01*
X022757Y013293D01*
X022781Y013337D01*
X022809Y013379D01*
X022840Y013419D01*
X022874Y013456D01*
X022911Y013491D01*
X022950Y013522D01*
X022991Y013551D01*
X023035Y013576D01*
X023081Y013598D01*
X023128Y013616D01*
X023176Y013630D01*
X023225Y013641D01*
X023275Y013648D01*
X023325Y013651D01*
X023376Y013650D01*
X023426Y013645D01*
X023476Y013636D01*
X023524Y013624D01*
X023572Y013607D01*
X023618Y013587D01*
X023663Y013564D01*
X023706Y013537D01*
X023746Y013507D01*
X023784Y013474D01*
X023819Y013438D01*
X023852Y013399D01*
X023881Y013358D01*
X023907Y013315D01*
X023930Y013270D01*
X023949Y013223D01*
X023964Y013175D01*
X023976Y013126D01*
X023984Y013076D01*
X023988Y013026D01*
X023988Y012976D01*
X023984Y012926D01*
X023976Y012876D01*
X023964Y012827D01*
X023949Y012779D01*
X023930Y012732D01*
X023907Y012687D01*
X023881Y012644D01*
X023852Y012603D01*
X023819Y012564D01*
X023784Y012528D01*
X023746Y012495D01*
X023706Y012465D01*
X023663Y012438D01*
X023618Y012415D01*
X023572Y012395D01*
X023524Y012378D01*
X023476Y012366D01*
X023426Y012357D01*
X023376Y012352D01*
X023325Y012351D01*
X023275Y012354D01*
X023225Y012361D01*
X023176Y012372D01*
X023128Y012386D01*
X023081Y012404D01*
X023035Y012426D01*
X022991Y012451D01*
X022950Y012480D01*
X022911Y012511D01*
X022874Y012546D01*
X022840Y012583D01*
X022809Y012623D01*
X022781Y012665D01*
X022757Y012709D01*
X022736Y012755D01*
X022719Y012803D01*
X022706Y012851D01*
X022696Y012901D01*
X022690Y012951D01*
X022688Y013001D01*
X026688Y013001D02*
X026690Y013051D01*
X026696Y013101D01*
X026706Y013151D01*
X026719Y013199D01*
X026736Y013247D01*
X026757Y013293D01*
X026781Y013337D01*
X026809Y013379D01*
X026840Y013419D01*
X026874Y013456D01*
X026911Y013491D01*
X026950Y013522D01*
X026991Y013551D01*
X027035Y013576D01*
X027081Y013598D01*
X027128Y013616D01*
X027176Y013630D01*
X027225Y013641D01*
X027275Y013648D01*
X027325Y013651D01*
X027376Y013650D01*
X027426Y013645D01*
X027476Y013636D01*
X027524Y013624D01*
X027572Y013607D01*
X027618Y013587D01*
X027663Y013564D01*
X027706Y013537D01*
X027746Y013507D01*
X027784Y013474D01*
X027819Y013438D01*
X027852Y013399D01*
X027881Y013358D01*
X027907Y013315D01*
X027930Y013270D01*
X027949Y013223D01*
X027964Y013175D01*
X027976Y013126D01*
X027984Y013076D01*
X027988Y013026D01*
X027988Y012976D01*
X027984Y012926D01*
X027976Y012876D01*
X027964Y012827D01*
X027949Y012779D01*
X027930Y012732D01*
X027907Y012687D01*
X027881Y012644D01*
X027852Y012603D01*
X027819Y012564D01*
X027784Y012528D01*
X027746Y012495D01*
X027706Y012465D01*
X027663Y012438D01*
X027618Y012415D01*
X027572Y012395D01*
X027524Y012378D01*
X027476Y012366D01*
X027426Y012357D01*
X027376Y012352D01*
X027325Y012351D01*
X027275Y012354D01*
X027225Y012361D01*
X027176Y012372D01*
X027128Y012386D01*
X027081Y012404D01*
X027035Y012426D01*
X026991Y012451D01*
X026950Y012480D01*
X026911Y012511D01*
X026874Y012546D01*
X026840Y012583D01*
X026809Y012623D01*
X026781Y012665D01*
X026757Y012709D01*
X026736Y012755D01*
X026719Y012803D01*
X026706Y012851D01*
X026696Y012901D01*
X026690Y012951D01*
X026688Y013001D01*
X026688Y018001D02*
X026690Y018051D01*
X026696Y018101D01*
X026706Y018151D01*
X026719Y018199D01*
X026736Y018247D01*
X026757Y018293D01*
X026781Y018337D01*
X026809Y018379D01*
X026840Y018419D01*
X026874Y018456D01*
X026911Y018491D01*
X026950Y018522D01*
X026991Y018551D01*
X027035Y018576D01*
X027081Y018598D01*
X027128Y018616D01*
X027176Y018630D01*
X027225Y018641D01*
X027275Y018648D01*
X027325Y018651D01*
X027376Y018650D01*
X027426Y018645D01*
X027476Y018636D01*
X027524Y018624D01*
X027572Y018607D01*
X027618Y018587D01*
X027663Y018564D01*
X027706Y018537D01*
X027746Y018507D01*
X027784Y018474D01*
X027819Y018438D01*
X027852Y018399D01*
X027881Y018358D01*
X027907Y018315D01*
X027930Y018270D01*
X027949Y018223D01*
X027964Y018175D01*
X027976Y018126D01*
X027984Y018076D01*
X027988Y018026D01*
X027988Y017976D01*
X027984Y017926D01*
X027976Y017876D01*
X027964Y017827D01*
X027949Y017779D01*
X027930Y017732D01*
X027907Y017687D01*
X027881Y017644D01*
X027852Y017603D01*
X027819Y017564D01*
X027784Y017528D01*
X027746Y017495D01*
X027706Y017465D01*
X027663Y017438D01*
X027618Y017415D01*
X027572Y017395D01*
X027524Y017378D01*
X027476Y017366D01*
X027426Y017357D01*
X027376Y017352D01*
X027325Y017351D01*
X027275Y017354D01*
X027225Y017361D01*
X027176Y017372D01*
X027128Y017386D01*
X027081Y017404D01*
X027035Y017426D01*
X026991Y017451D01*
X026950Y017480D01*
X026911Y017511D01*
X026874Y017546D01*
X026840Y017583D01*
X026809Y017623D01*
X026781Y017665D01*
X026757Y017709D01*
X026736Y017755D01*
X026719Y017803D01*
X026706Y017851D01*
X026696Y017901D01*
X026690Y017951D01*
X026688Y018001D01*
X022688Y018001D02*
X022690Y018051D01*
X022696Y018101D01*
X022706Y018151D01*
X022719Y018199D01*
X022736Y018247D01*
X022757Y018293D01*
X022781Y018337D01*
X022809Y018379D01*
X022840Y018419D01*
X022874Y018456D01*
X022911Y018491D01*
X022950Y018522D01*
X022991Y018551D01*
X023035Y018576D01*
X023081Y018598D01*
X023128Y018616D01*
X023176Y018630D01*
X023225Y018641D01*
X023275Y018648D01*
X023325Y018651D01*
X023376Y018650D01*
X023426Y018645D01*
X023476Y018636D01*
X023524Y018624D01*
X023572Y018607D01*
X023618Y018587D01*
X023663Y018564D01*
X023706Y018537D01*
X023746Y018507D01*
X023784Y018474D01*
X023819Y018438D01*
X023852Y018399D01*
X023881Y018358D01*
X023907Y018315D01*
X023930Y018270D01*
X023949Y018223D01*
X023964Y018175D01*
X023976Y018126D01*
X023984Y018076D01*
X023988Y018026D01*
X023988Y017976D01*
X023984Y017926D01*
X023976Y017876D01*
X023964Y017827D01*
X023949Y017779D01*
X023930Y017732D01*
X023907Y017687D01*
X023881Y017644D01*
X023852Y017603D01*
X023819Y017564D01*
X023784Y017528D01*
X023746Y017495D01*
X023706Y017465D01*
X023663Y017438D01*
X023618Y017415D01*
X023572Y017395D01*
X023524Y017378D01*
X023476Y017366D01*
X023426Y017357D01*
X023376Y017352D01*
X023325Y017351D01*
X023275Y017354D01*
X023225Y017361D01*
X023176Y017372D01*
X023128Y017386D01*
X023081Y017404D01*
X023035Y017426D01*
X022991Y017451D01*
X022950Y017480D01*
X022911Y017511D01*
X022874Y017546D01*
X022840Y017583D01*
X022809Y017623D01*
X022781Y017665D01*
X022757Y017709D01*
X022736Y017755D01*
X022719Y017803D01*
X022706Y017851D01*
X022696Y017901D01*
X022690Y017951D01*
X022688Y018001D01*
X018688Y018001D02*
X018690Y018051D01*
X018696Y018101D01*
X018706Y018151D01*
X018719Y018199D01*
X018736Y018247D01*
X018757Y018293D01*
X018781Y018337D01*
X018809Y018379D01*
X018840Y018419D01*
X018874Y018456D01*
X018911Y018491D01*
X018950Y018522D01*
X018991Y018551D01*
X019035Y018576D01*
X019081Y018598D01*
X019128Y018616D01*
X019176Y018630D01*
X019225Y018641D01*
X019275Y018648D01*
X019325Y018651D01*
X019376Y018650D01*
X019426Y018645D01*
X019476Y018636D01*
X019524Y018624D01*
X019572Y018607D01*
X019618Y018587D01*
X019663Y018564D01*
X019706Y018537D01*
X019746Y018507D01*
X019784Y018474D01*
X019819Y018438D01*
X019852Y018399D01*
X019881Y018358D01*
X019907Y018315D01*
X019930Y018270D01*
X019949Y018223D01*
X019964Y018175D01*
X019976Y018126D01*
X019984Y018076D01*
X019988Y018026D01*
X019988Y017976D01*
X019984Y017926D01*
X019976Y017876D01*
X019964Y017827D01*
X019949Y017779D01*
X019930Y017732D01*
X019907Y017687D01*
X019881Y017644D01*
X019852Y017603D01*
X019819Y017564D01*
X019784Y017528D01*
X019746Y017495D01*
X019706Y017465D01*
X019663Y017438D01*
X019618Y017415D01*
X019572Y017395D01*
X019524Y017378D01*
X019476Y017366D01*
X019426Y017357D01*
X019376Y017352D01*
X019325Y017351D01*
X019275Y017354D01*
X019225Y017361D01*
X019176Y017372D01*
X019128Y017386D01*
X019081Y017404D01*
X019035Y017426D01*
X018991Y017451D01*
X018950Y017480D01*
X018911Y017511D01*
X018874Y017546D01*
X018840Y017583D01*
X018809Y017623D01*
X018781Y017665D01*
X018757Y017709D01*
X018736Y017755D01*
X018719Y017803D01*
X018706Y017851D01*
X018696Y017901D01*
X018690Y017951D01*
X018688Y018001D01*
X014688Y018001D02*
X014690Y018051D01*
X014696Y018101D01*
X014706Y018151D01*
X014719Y018199D01*
X014736Y018247D01*
X014757Y018293D01*
X014781Y018337D01*
X014809Y018379D01*
X014840Y018419D01*
X014874Y018456D01*
X014911Y018491D01*
X014950Y018522D01*
X014991Y018551D01*
X015035Y018576D01*
X015081Y018598D01*
X015128Y018616D01*
X015176Y018630D01*
X015225Y018641D01*
X015275Y018648D01*
X015325Y018651D01*
X015376Y018650D01*
X015426Y018645D01*
X015476Y018636D01*
X015524Y018624D01*
X015572Y018607D01*
X015618Y018587D01*
X015663Y018564D01*
X015706Y018537D01*
X015746Y018507D01*
X015784Y018474D01*
X015819Y018438D01*
X015852Y018399D01*
X015881Y018358D01*
X015907Y018315D01*
X015930Y018270D01*
X015949Y018223D01*
X015964Y018175D01*
X015976Y018126D01*
X015984Y018076D01*
X015988Y018026D01*
X015988Y017976D01*
X015984Y017926D01*
X015976Y017876D01*
X015964Y017827D01*
X015949Y017779D01*
X015930Y017732D01*
X015907Y017687D01*
X015881Y017644D01*
X015852Y017603D01*
X015819Y017564D01*
X015784Y017528D01*
X015746Y017495D01*
X015706Y017465D01*
X015663Y017438D01*
X015618Y017415D01*
X015572Y017395D01*
X015524Y017378D01*
X015476Y017366D01*
X015426Y017357D01*
X015376Y017352D01*
X015325Y017351D01*
X015275Y017354D01*
X015225Y017361D01*
X015176Y017372D01*
X015128Y017386D01*
X015081Y017404D01*
X015035Y017426D01*
X014991Y017451D01*
X014950Y017480D01*
X014911Y017511D01*
X014874Y017546D01*
X014840Y017583D01*
X014809Y017623D01*
X014781Y017665D01*
X014757Y017709D01*
X014736Y017755D01*
X014719Y017803D01*
X014706Y017851D01*
X014696Y017901D01*
X014690Y017951D01*
X014688Y018001D01*
D11*
X015026Y017172D02*
X015140Y017172D01*
X015196Y017115D01*
X015196Y016888D01*
X015140Y016831D01*
X015026Y016831D01*
X014970Y016888D01*
X014970Y017115D02*
X015026Y017172D01*
X015338Y017115D02*
X015395Y017172D01*
X015508Y017172D01*
X015565Y017115D01*
X015565Y016888D01*
X015508Y016831D01*
X015395Y016831D01*
X015338Y016888D01*
X015706Y016945D02*
X015706Y017172D01*
X015933Y017172D02*
X015933Y016945D01*
X015820Y016831D01*
X015706Y016945D01*
X015754Y016172D02*
X015810Y016115D01*
X015810Y015888D01*
X015754Y015831D01*
X015640Y015831D01*
X015583Y015888D01*
X015442Y015831D02*
X015442Y016172D01*
X015583Y016115D02*
X015640Y016172D01*
X015754Y016172D01*
X015442Y015945D02*
X015215Y016172D01*
X015074Y016172D02*
X014960Y016172D01*
X015017Y016172D02*
X015017Y015831D01*
X015074Y015831D02*
X014960Y015831D01*
X015215Y015831D02*
X015385Y016001D01*
X015442Y015172D02*
X015272Y015172D01*
X015215Y015115D01*
X015215Y014888D01*
X015272Y014831D01*
X015442Y014831D01*
X015442Y015172D01*
X015583Y015115D02*
X015640Y015172D01*
X015754Y015172D01*
X015810Y015115D01*
X015810Y015058D01*
X015754Y015001D01*
X015640Y015001D01*
X015583Y014945D01*
X015583Y014888D01*
X015640Y014831D01*
X015754Y014831D01*
X015810Y014888D01*
X015074Y014831D02*
X014960Y014831D01*
X015017Y014831D02*
X015017Y015172D01*
X015074Y015172D02*
X014960Y015172D01*
X015026Y014172D02*
X015196Y014172D01*
X015196Y013831D01*
X015026Y013831D01*
X014970Y013888D01*
X014970Y014115D01*
X015026Y014172D01*
X015338Y014172D02*
X015338Y013831D01*
X015565Y014172D01*
X015565Y013831D01*
X015706Y013888D02*
X015706Y014001D01*
X015820Y014001D01*
X015933Y013888D02*
X015876Y013831D01*
X015763Y013831D01*
X015706Y013888D01*
X015933Y013888D02*
X015933Y014115D01*
X015876Y014172D01*
X015763Y014172D01*
X015706Y014115D01*
X018765Y014115D02*
X018765Y013888D01*
X018821Y013831D01*
X018991Y013831D01*
X018991Y014172D01*
X018821Y014172D01*
X018765Y014115D01*
X019133Y014172D02*
X019133Y013831D01*
X019360Y014172D01*
X019360Y013831D01*
X019501Y013888D02*
X019501Y014001D01*
X019615Y014001D01*
X019728Y013888D02*
X019671Y013831D01*
X019558Y013831D01*
X019501Y013888D01*
X019728Y013888D02*
X019728Y014115D01*
X019671Y014172D01*
X019558Y014172D01*
X019501Y014115D01*
X019558Y014831D02*
X019671Y014831D01*
X019728Y014888D01*
X019671Y015001D02*
X019558Y015001D01*
X019501Y014945D01*
X019501Y014888D01*
X019558Y014831D01*
X019360Y014831D02*
X019190Y014831D01*
X019133Y014888D01*
X019133Y015115D01*
X019190Y015172D01*
X019360Y015172D01*
X019360Y014831D01*
X019671Y015001D02*
X019728Y015058D01*
X019728Y015115D01*
X019671Y015172D01*
X019558Y015172D01*
X019501Y015115D01*
X018991Y015115D02*
X018991Y014888D01*
X018935Y014831D01*
X018821Y014831D01*
X018765Y014888D01*
X018765Y015115D01*
X018821Y015172D01*
X018935Y015172D01*
X018991Y015115D01*
X018935Y015831D02*
X018821Y015831D01*
X018765Y015888D01*
X018765Y016115D01*
X018821Y016172D01*
X018935Y016172D01*
X018991Y016115D01*
X018991Y015888D01*
X018935Y015831D01*
X019133Y015831D02*
X019303Y016001D01*
X019360Y015945D02*
X019133Y016172D01*
X019360Y016172D02*
X019360Y015831D01*
X019501Y015888D02*
X019558Y015831D01*
X019671Y015831D01*
X019728Y015888D01*
X019728Y016115D01*
X019671Y016172D01*
X019558Y016172D01*
X019501Y016115D01*
X019615Y016831D02*
X019501Y016945D01*
X019501Y017172D01*
X019360Y017115D02*
X019360Y016888D01*
X019303Y016831D01*
X019190Y016831D01*
X019133Y016888D01*
X018991Y016888D02*
X018935Y016831D01*
X018821Y016831D01*
X018765Y016888D01*
X018991Y016888D02*
X018991Y017115D01*
X018935Y017172D01*
X018821Y017172D01*
X018765Y017115D01*
X019133Y017115D02*
X019190Y017172D01*
X019303Y017172D01*
X019360Y017115D01*
X019728Y017172D02*
X019728Y016945D01*
X019615Y016831D01*
X022970Y016888D02*
X023026Y016831D01*
X023140Y016831D01*
X023196Y016888D01*
X023196Y017115D01*
X023140Y017172D01*
X023026Y017172D01*
X022970Y017115D01*
X023338Y017115D02*
X023395Y017172D01*
X023508Y017172D01*
X023565Y017115D01*
X023565Y016888D01*
X023508Y016831D01*
X023395Y016831D01*
X023338Y016888D01*
X023706Y016945D02*
X023706Y017172D01*
X023933Y017172D02*
X023933Y016945D01*
X023820Y016831D01*
X023706Y016945D01*
X023754Y016172D02*
X023640Y016172D01*
X023583Y016115D01*
X023442Y016172D02*
X023442Y015831D01*
X023442Y015945D02*
X023215Y016172D01*
X023074Y016172D02*
X022960Y016172D01*
X023017Y016172D02*
X023017Y015831D01*
X023074Y015831D02*
X022960Y015831D01*
X023215Y015831D02*
X023385Y016001D01*
X023583Y015888D02*
X023640Y015831D01*
X023754Y015831D01*
X023810Y015888D01*
X023810Y016115D01*
X023754Y016172D01*
X023754Y015172D02*
X023640Y015172D01*
X023583Y015115D01*
X023640Y015001D02*
X023583Y014945D01*
X023583Y014888D01*
X023640Y014831D01*
X023754Y014831D01*
X023810Y014888D01*
X023754Y015001D02*
X023640Y015001D01*
X023754Y015001D02*
X023810Y015058D01*
X023810Y015115D01*
X023754Y015172D01*
X023442Y015172D02*
X023272Y015172D01*
X023215Y015115D01*
X023215Y014888D01*
X023272Y014831D01*
X023442Y014831D01*
X023442Y015172D01*
X023074Y015172D02*
X022960Y015172D01*
X023017Y015172D02*
X023017Y014831D01*
X023074Y014831D02*
X022960Y014831D01*
X023026Y014172D02*
X023196Y014172D01*
X023196Y013831D01*
X023026Y013831D01*
X022970Y013888D01*
X022970Y014115D01*
X023026Y014172D01*
X023338Y014172D02*
X023338Y013831D01*
X023565Y014172D01*
X023565Y013831D01*
X023706Y013888D02*
X023706Y014001D01*
X023820Y014001D01*
X023933Y013888D02*
X023876Y013831D01*
X023763Y013831D01*
X023706Y013888D01*
X023933Y013888D02*
X023933Y014115D01*
X023876Y014172D01*
X023763Y014172D01*
X023706Y014115D01*
X026765Y014115D02*
X026765Y013888D01*
X026821Y013831D01*
X026991Y013831D01*
X026991Y014172D01*
X026821Y014172D01*
X026765Y014115D01*
X027133Y014172D02*
X027133Y013831D01*
X027360Y014172D01*
X027360Y013831D01*
X027501Y013888D02*
X027501Y014001D01*
X027615Y014001D01*
X027728Y013888D02*
X027671Y013831D01*
X027558Y013831D01*
X027501Y013888D01*
X027728Y013888D02*
X027728Y014115D01*
X027671Y014172D01*
X027558Y014172D01*
X027501Y014115D01*
X027558Y014831D02*
X027671Y014831D01*
X027728Y014888D01*
X027671Y015001D02*
X027558Y015001D01*
X027501Y014945D01*
X027501Y014888D01*
X027558Y014831D01*
X027360Y014831D02*
X027190Y014831D01*
X027133Y014888D01*
X027133Y015115D01*
X027190Y015172D01*
X027360Y015172D01*
X027360Y014831D01*
X027671Y015001D02*
X027728Y015058D01*
X027728Y015115D01*
X027671Y015172D01*
X027558Y015172D01*
X027501Y015115D01*
X026991Y015115D02*
X026991Y014888D01*
X026935Y014831D01*
X026821Y014831D01*
X026765Y014888D01*
X026765Y015115D01*
X026821Y015172D01*
X026935Y015172D01*
X026991Y015115D01*
X026935Y015831D02*
X026821Y015831D01*
X026765Y015888D01*
X026765Y016115D01*
X026821Y016172D01*
X026935Y016172D01*
X026991Y016115D01*
X026991Y015888D01*
X026935Y015831D01*
X027133Y015831D02*
X027303Y016001D01*
X027360Y015945D02*
X027133Y016172D01*
X027360Y016172D02*
X027360Y015831D01*
X027501Y015888D02*
X027558Y015831D01*
X027671Y015831D01*
X027728Y015888D01*
X027728Y016115D01*
X027671Y016172D01*
X027558Y016172D01*
X027501Y016115D01*
X027615Y016831D02*
X027501Y016945D01*
X027501Y017172D01*
X027360Y017115D02*
X027360Y016888D01*
X027303Y016831D01*
X027190Y016831D01*
X027133Y016888D01*
X026991Y016888D02*
X026991Y017115D01*
X026935Y017172D01*
X026821Y017172D01*
X026765Y017115D01*
X026765Y016888D02*
X026821Y016831D01*
X026935Y016831D01*
X026991Y016888D01*
X027133Y017115D02*
X027190Y017172D01*
X027303Y017172D01*
X027360Y017115D01*
X027728Y017172D02*
X027728Y016945D01*
X027615Y016831D01*
X027501Y009172D02*
X027501Y008945D01*
X027615Y008831D01*
X027728Y008945D01*
X027728Y009172D01*
X027360Y009115D02*
X027360Y008888D01*
X027303Y008831D01*
X027190Y008831D01*
X027133Y008888D01*
X026991Y008888D02*
X026935Y008831D01*
X026821Y008831D01*
X026765Y008888D01*
X026991Y008888D02*
X026991Y009115D01*
X026935Y009172D01*
X026821Y009172D01*
X026765Y009115D01*
X027133Y009115D02*
X027190Y009172D01*
X027303Y009172D01*
X027360Y009115D01*
X027360Y008172D02*
X027360Y007831D01*
X027360Y007945D02*
X027133Y008172D01*
X026991Y008115D02*
X026991Y007888D01*
X026935Y007831D01*
X026821Y007831D01*
X026765Y007888D01*
X026765Y008115D01*
X026821Y008172D01*
X026935Y008172D01*
X026991Y008115D01*
X027133Y007831D02*
X027303Y008001D01*
X027501Y007888D02*
X027558Y007831D01*
X027671Y007831D01*
X027728Y007888D01*
X027728Y008115D01*
X027671Y008172D01*
X027558Y008172D01*
X027501Y008115D01*
X027558Y007172D02*
X027671Y007172D01*
X027728Y007115D01*
X027728Y007058D01*
X027671Y007001D01*
X027558Y007001D01*
X027501Y006945D01*
X027501Y006888D01*
X027558Y006831D01*
X027671Y006831D01*
X027728Y006888D01*
X027501Y007115D02*
X027558Y007172D01*
X027360Y007172D02*
X027190Y007172D01*
X027133Y007115D01*
X027133Y006888D01*
X027190Y006831D01*
X027360Y006831D01*
X027360Y007172D01*
X026991Y007115D02*
X026991Y006888D01*
X026935Y006831D01*
X026821Y006831D01*
X026765Y006888D01*
X026765Y007115D01*
X026821Y007172D01*
X026935Y007172D01*
X026991Y007115D01*
X026991Y006172D02*
X026821Y006172D01*
X026765Y006115D01*
X026765Y005888D01*
X026821Y005831D01*
X026991Y005831D01*
X026991Y006172D01*
X027133Y006172D02*
X027133Y005831D01*
X027360Y006172D01*
X027360Y005831D01*
X027501Y005888D02*
X027501Y006001D01*
X027615Y006001D01*
X027728Y005888D02*
X027728Y006115D01*
X027671Y006172D01*
X027558Y006172D01*
X027501Y006115D01*
X027501Y005888D02*
X027558Y005831D01*
X027671Y005831D01*
X027728Y005888D01*
X023933Y005888D02*
X023876Y005831D01*
X023763Y005831D01*
X023706Y005888D01*
X023706Y006001D01*
X023820Y006001D01*
X023933Y005888D02*
X023933Y006115D01*
X023876Y006172D01*
X023763Y006172D01*
X023706Y006115D01*
X023565Y006172D02*
X023338Y005831D01*
X023338Y006172D01*
X023196Y006172D02*
X023196Y005831D01*
X023026Y005831D01*
X022970Y005888D01*
X022970Y006115D01*
X023026Y006172D01*
X023196Y006172D01*
X023565Y006172D02*
X023565Y005831D01*
X023640Y006831D02*
X023754Y006831D01*
X023810Y006888D01*
X023754Y007001D02*
X023640Y007001D01*
X023583Y006945D01*
X023583Y006888D01*
X023640Y006831D01*
X023442Y006831D02*
X023272Y006831D01*
X023215Y006888D01*
X023215Y007115D01*
X023272Y007172D01*
X023442Y007172D01*
X023442Y006831D01*
X023583Y007115D02*
X023640Y007172D01*
X023754Y007172D01*
X023810Y007115D01*
X023810Y007058D01*
X023754Y007001D01*
X023074Y006831D02*
X022960Y006831D01*
X023017Y006831D02*
X023017Y007172D01*
X023074Y007172D02*
X022960Y007172D01*
X022960Y007831D02*
X023074Y007831D01*
X023017Y007831D02*
X023017Y008172D01*
X023074Y008172D02*
X022960Y008172D01*
X023215Y008172D02*
X023442Y007945D01*
X023385Y008001D02*
X023215Y007831D01*
X023442Y007831D02*
X023442Y008172D01*
X023583Y008115D02*
X023640Y008172D01*
X023754Y008172D01*
X023810Y008115D01*
X023810Y007888D01*
X023754Y007831D01*
X023640Y007831D01*
X023583Y007888D01*
X023508Y008831D02*
X023395Y008831D01*
X023338Y008888D01*
X023196Y008888D02*
X023140Y008831D01*
X023026Y008831D01*
X022970Y008888D01*
X023196Y008888D02*
X023196Y009115D01*
X023140Y009172D01*
X023026Y009172D01*
X022970Y009115D01*
X023338Y009115D02*
X023395Y009172D01*
X023508Y009172D01*
X023565Y009115D01*
X023565Y008888D01*
X023508Y008831D01*
X023706Y008945D02*
X023706Y009172D01*
X023933Y009172D02*
X023933Y008945D01*
X023820Y008831D01*
X023706Y008945D01*
X019728Y008945D02*
X019615Y008831D01*
X019501Y008945D01*
X019501Y009172D01*
X019360Y009115D02*
X019360Y008888D01*
X019303Y008831D01*
X019190Y008831D01*
X019133Y008888D01*
X018991Y008888D02*
X018935Y008831D01*
X018821Y008831D01*
X018765Y008888D01*
X018991Y008888D02*
X018991Y009115D01*
X018935Y009172D01*
X018821Y009172D01*
X018765Y009115D01*
X019133Y009115D02*
X019190Y009172D01*
X019303Y009172D01*
X019360Y009115D01*
X019728Y009172D02*
X019728Y008945D01*
X019671Y008172D02*
X019728Y008115D01*
X019728Y007888D01*
X019671Y007831D01*
X019558Y007831D01*
X019501Y007888D01*
X019360Y007831D02*
X019360Y008172D01*
X019501Y008115D02*
X019558Y008172D01*
X019671Y008172D01*
X019360Y007945D02*
X019133Y008172D01*
X018991Y008115D02*
X018991Y007888D01*
X018935Y007831D01*
X018821Y007831D01*
X018765Y007888D01*
X018765Y008115D01*
X018821Y008172D01*
X018935Y008172D01*
X018991Y008115D01*
X019133Y007831D02*
X019303Y008001D01*
X019360Y007172D02*
X019190Y007172D01*
X019133Y007115D01*
X019133Y006888D01*
X019190Y006831D01*
X019360Y006831D01*
X019360Y007172D01*
X019501Y007115D02*
X019558Y007172D01*
X019671Y007172D01*
X019728Y007115D01*
X019728Y007058D01*
X019671Y007001D01*
X019558Y007001D01*
X019501Y006945D01*
X019501Y006888D01*
X019558Y006831D01*
X019671Y006831D01*
X019728Y006888D01*
X018991Y006888D02*
X018991Y007115D01*
X018935Y007172D01*
X018821Y007172D01*
X018765Y007115D01*
X018765Y006888D01*
X018821Y006831D01*
X018935Y006831D01*
X018991Y006888D01*
X018991Y006172D02*
X018821Y006172D01*
X018765Y006115D01*
X018765Y005888D01*
X018821Y005831D01*
X018991Y005831D01*
X018991Y006172D01*
X019133Y006172D02*
X019133Y005831D01*
X019360Y006172D01*
X019360Y005831D01*
X019501Y005888D02*
X019501Y006001D01*
X019615Y006001D01*
X019728Y005888D02*
X019728Y006115D01*
X019671Y006172D01*
X019558Y006172D01*
X019501Y006115D01*
X019501Y005888D02*
X019558Y005831D01*
X019671Y005831D01*
X019728Y005888D01*
X015933Y005888D02*
X015876Y005831D01*
X015763Y005831D01*
X015706Y005888D01*
X015706Y006001D01*
X015820Y006001D01*
X015933Y005888D02*
X015933Y006115D01*
X015876Y006172D01*
X015763Y006172D01*
X015706Y006115D01*
X015565Y006172D02*
X015338Y005831D01*
X015338Y006172D01*
X015196Y006172D02*
X015026Y006172D01*
X014970Y006115D01*
X014970Y005888D01*
X015026Y005831D01*
X015196Y005831D01*
X015196Y006172D01*
X015565Y006172D02*
X015565Y005831D01*
X015640Y006831D02*
X015754Y006831D01*
X015810Y006888D01*
X015754Y007001D02*
X015640Y007001D01*
X015583Y006945D01*
X015583Y006888D01*
X015640Y006831D01*
X015442Y006831D02*
X015272Y006831D01*
X015215Y006888D01*
X015215Y007115D01*
X015272Y007172D01*
X015442Y007172D01*
X015442Y006831D01*
X015583Y007115D02*
X015640Y007172D01*
X015754Y007172D01*
X015810Y007115D01*
X015810Y007058D01*
X015754Y007001D01*
X015074Y006831D02*
X014960Y006831D01*
X015017Y006831D02*
X015017Y007172D01*
X015074Y007172D02*
X014960Y007172D01*
X014960Y007831D02*
X015074Y007831D01*
X015017Y007831D02*
X015017Y008172D01*
X015074Y008172D02*
X014960Y008172D01*
X015215Y008172D02*
X015442Y007945D01*
X015385Y008001D02*
X015215Y007831D01*
X015442Y007831D02*
X015442Y008172D01*
X015583Y008115D02*
X015640Y008172D01*
X015754Y008172D01*
X015810Y008115D01*
X015810Y007888D01*
X015754Y007831D01*
X015640Y007831D01*
X015583Y007888D01*
X015508Y008831D02*
X015395Y008831D01*
X015338Y008888D01*
X015196Y008888D02*
X015140Y008831D01*
X015026Y008831D01*
X014970Y008888D01*
X015196Y008888D02*
X015196Y009115D01*
X015140Y009172D01*
X015026Y009172D01*
X014970Y009115D01*
X015338Y009115D02*
X015395Y009172D01*
X015508Y009172D01*
X015565Y009115D01*
X015565Y008888D01*
X015508Y008831D01*
X015706Y008945D02*
X015820Y008831D01*
X015933Y008945D01*
X015933Y009172D01*
X015706Y009172D02*
X015706Y008945D01*
D12*
X016984Y008486D02*
X017063Y008486D01*
X017614Y008486D02*
X017692Y008486D01*
X018322Y007895D02*
X018322Y007108D01*
X018038Y007226D02*
X018040Y007244D01*
X018046Y007262D01*
X018055Y007278D01*
X018067Y007291D01*
X018082Y007302D01*
X018099Y007310D01*
X018117Y007314D01*
X018135Y007314D01*
X018153Y007310D01*
X018170Y007302D01*
X018185Y007291D01*
X018197Y007278D01*
X018206Y007262D01*
X018212Y007244D01*
X018214Y007226D01*
X018212Y007208D01*
X018206Y007190D01*
X018197Y007174D01*
X018185Y007161D01*
X018170Y007150D01*
X018153Y007142D01*
X018135Y007138D01*
X018117Y007138D01*
X018099Y007142D01*
X018082Y007150D01*
X018067Y007161D01*
X018055Y007174D01*
X018046Y007190D01*
X018040Y007208D01*
X018038Y007226D01*
X016354Y007108D02*
X016354Y007895D01*
X016984Y006517D02*
X017063Y006517D01*
X017614Y006517D02*
X017692Y006517D01*
X017770Y005377D02*
X017711Y005318D01*
X017711Y005201D01*
X017770Y005143D01*
X017945Y005143D01*
X017945Y005026D02*
X017945Y005377D01*
X017770Y005377D01*
X017576Y005377D02*
X017576Y005026D01*
X017401Y005026D01*
X017343Y005085D01*
X017343Y005318D01*
X017401Y005377D01*
X017576Y005377D01*
X017828Y005143D02*
X017711Y005026D01*
X017711Y004877D02*
X017945Y004877D01*
X017945Y004701D01*
X017828Y004760D01*
X017770Y004760D01*
X017711Y004701D01*
X017711Y004585D01*
X017770Y004526D01*
X017886Y004526D01*
X017945Y004585D01*
X018080Y004701D02*
X018313Y004701D01*
X018138Y004877D01*
X018138Y004526D01*
X017576Y004585D02*
X017518Y004526D01*
X017401Y004526D01*
X017343Y004585D01*
X017343Y004643D01*
X017401Y004701D01*
X017460Y004701D01*
X017401Y004701D02*
X017343Y004760D01*
X017343Y004818D01*
X017401Y004877D01*
X017518Y004877D01*
X017576Y004818D01*
X017208Y004760D02*
X017091Y004877D01*
X017091Y004526D01*
X016975Y004526D02*
X017208Y004526D01*
X016840Y004526D02*
X016606Y004760D01*
X016606Y004818D01*
X016665Y004877D01*
X016782Y004877D01*
X016840Y004818D01*
X016840Y004526D02*
X016606Y004526D01*
X016606Y005026D02*
X016723Y005143D01*
X016665Y005143D02*
X016840Y005143D01*
X016840Y005026D02*
X016840Y005377D01*
X016665Y005377D01*
X016606Y005318D01*
X016606Y005201D01*
X016665Y005143D01*
X016975Y005026D02*
X017208Y005026D01*
X017208Y005377D01*
X016975Y005377D01*
X017091Y005201D02*
X017208Y005201D01*
X018080Y005085D02*
X018080Y005318D01*
X018138Y005377D01*
X018255Y005377D01*
X018313Y005318D01*
X018313Y005085D01*
X018255Y005026D01*
X018138Y005026D01*
X018080Y005085D01*
X024354Y007108D02*
X024354Y007895D01*
X024984Y008486D02*
X025063Y008486D01*
X025614Y008486D02*
X025692Y008486D01*
X026322Y007895D02*
X026322Y007108D01*
X026038Y007226D02*
X026040Y007244D01*
X026046Y007262D01*
X026055Y007278D01*
X026067Y007291D01*
X026082Y007302D01*
X026099Y007310D01*
X026117Y007314D01*
X026135Y007314D01*
X026153Y007310D01*
X026170Y007302D01*
X026185Y007291D01*
X026197Y007278D01*
X026206Y007262D01*
X026212Y007244D01*
X026214Y007226D01*
X026212Y007208D01*
X026206Y007190D01*
X026197Y007174D01*
X026185Y007161D01*
X026170Y007150D01*
X026153Y007142D01*
X026135Y007138D01*
X026117Y007138D01*
X026099Y007142D01*
X026082Y007150D01*
X026067Y007161D01*
X026055Y007174D01*
X026046Y007190D01*
X026040Y007208D01*
X026038Y007226D01*
X025692Y006517D02*
X025614Y006517D01*
X025063Y006517D02*
X024984Y006517D01*
X024975Y005377D02*
X025208Y005377D01*
X025208Y005026D01*
X024975Y005026D01*
X024840Y005026D02*
X024840Y005377D01*
X024665Y005377D01*
X024606Y005318D01*
X024606Y005201D01*
X024665Y005143D01*
X024840Y005143D01*
X024723Y005143D02*
X024606Y005026D01*
X024665Y004877D02*
X024782Y004877D01*
X024840Y004818D01*
X024665Y004877D02*
X024606Y004818D01*
X024606Y004760D01*
X024840Y004526D01*
X024606Y004526D01*
X024975Y004526D02*
X025208Y004526D01*
X025091Y004526D02*
X025091Y004877D01*
X025208Y004760D01*
X025343Y004760D02*
X025401Y004701D01*
X025343Y004643D01*
X025343Y004585D01*
X025401Y004526D01*
X025518Y004526D01*
X025576Y004585D01*
X025711Y004585D02*
X025770Y004526D01*
X025886Y004526D01*
X025945Y004585D01*
X025945Y004701D02*
X025828Y004760D01*
X025770Y004760D01*
X025711Y004701D01*
X025711Y004585D01*
X025945Y004701D02*
X025945Y004877D01*
X025711Y004877D01*
X025576Y004818D02*
X025518Y004877D01*
X025401Y004877D01*
X025343Y004818D01*
X025343Y004760D01*
X025401Y004701D02*
X025460Y004701D01*
X026080Y004701D02*
X026313Y004701D01*
X026138Y004877D01*
X026138Y004526D01*
X026138Y005026D02*
X026080Y005085D01*
X026080Y005318D01*
X026138Y005377D01*
X026255Y005377D01*
X026313Y005318D01*
X026313Y005085D01*
X026255Y005026D01*
X026138Y005026D01*
X025945Y005026D02*
X025945Y005377D01*
X025770Y005377D01*
X025711Y005318D01*
X025711Y005201D01*
X025770Y005143D01*
X025945Y005143D01*
X025828Y005143D02*
X025711Y005026D01*
X025576Y005026D02*
X025401Y005026D01*
X025343Y005085D01*
X025343Y005318D01*
X025401Y005377D01*
X025576Y005377D01*
X025576Y005026D01*
X025208Y005201D02*
X025091Y005201D01*
X025078Y010026D02*
X025228Y010126D01*
X025078Y010226D01*
X024959Y010176D02*
X024959Y010076D01*
X024909Y010026D01*
X024809Y010026D01*
X024759Y010076D01*
X024759Y010176D01*
X024809Y010226D01*
X024909Y010226D01*
X024959Y010176D01*
X025228Y010026D02*
X025228Y010326D01*
X025246Y010476D02*
X025296Y010526D01*
X025296Y010576D01*
X025246Y010626D01*
X025146Y010626D01*
X025096Y010576D01*
X025096Y010526D01*
X025146Y010476D01*
X025246Y010476D01*
X025246Y010626D02*
X025296Y010676D01*
X025296Y010726D01*
X025246Y010776D01*
X025146Y010776D01*
X025096Y010726D01*
X025096Y010676D01*
X025146Y010626D01*
X024974Y010526D02*
X024974Y010726D01*
X024924Y010776D01*
X024824Y010776D01*
X024774Y010726D01*
X024974Y010526D01*
X024924Y010476D01*
X024824Y010476D01*
X024774Y010526D01*
X024774Y010726D01*
X024652Y010676D02*
X024552Y010776D01*
X024552Y010476D01*
X024652Y010476D02*
X024452Y010476D01*
X024265Y010276D02*
X024265Y010076D01*
X024215Y010026D01*
X024215Y010226D02*
X024315Y010226D01*
X024437Y010226D02*
X024437Y010026D01*
X024587Y010026D01*
X024637Y010076D01*
X024637Y010226D01*
X025350Y010176D02*
X025350Y010026D01*
X025500Y010026D01*
X025550Y010076D01*
X025500Y010126D01*
X025350Y010126D01*
X025350Y010176D02*
X025400Y010226D01*
X025500Y010226D01*
X025672Y010176D02*
X025672Y010126D01*
X025872Y010126D01*
X025872Y010076D02*
X025872Y010176D01*
X025822Y010226D01*
X025722Y010226D01*
X025672Y010176D01*
X025722Y010026D02*
X025822Y010026D01*
X025872Y010076D01*
X025991Y010226D02*
X026041Y010226D01*
X026141Y010126D01*
X026141Y010026D02*
X026141Y010226D01*
X026263Y010226D02*
X026263Y010276D01*
X026313Y010326D01*
X026463Y010326D01*
X026463Y010026D01*
X026313Y010026D01*
X026263Y010076D01*
X026263Y010126D01*
X026313Y010176D01*
X026463Y010176D01*
X026313Y010176D02*
X026263Y010226D01*
X026263Y010476D02*
X026163Y010576D01*
X026063Y010476D01*
X026063Y010776D01*
X025941Y010726D02*
X025941Y010676D01*
X025891Y010626D01*
X025791Y010626D01*
X025741Y010576D01*
X025741Y010526D01*
X025791Y010476D01*
X025891Y010476D01*
X025941Y010526D01*
X025941Y010726D02*
X025891Y010776D01*
X025791Y010776D01*
X025741Y010726D01*
X025619Y010726D02*
X025569Y010776D01*
X025469Y010776D01*
X025418Y010726D01*
X025418Y010676D01*
X025619Y010476D01*
X025418Y010476D01*
X026263Y010476D02*
X026263Y010776D01*
X026138Y012526D02*
X026138Y012877D01*
X026313Y012701D01*
X026080Y012701D01*
X025945Y012701D02*
X025828Y012760D01*
X025770Y012760D01*
X025711Y012701D01*
X025711Y012585D01*
X025770Y012526D01*
X025886Y012526D01*
X025945Y012585D01*
X025945Y012701D02*
X025945Y012877D01*
X025711Y012877D01*
X025576Y012818D02*
X025518Y012877D01*
X025401Y012877D01*
X025343Y012818D01*
X025343Y012760D01*
X025401Y012701D01*
X025343Y012643D01*
X025343Y012585D01*
X025401Y012526D01*
X025518Y012526D01*
X025576Y012585D01*
X025460Y012701D02*
X025401Y012701D01*
X025208Y012760D02*
X025091Y012877D01*
X025091Y012526D01*
X024975Y012526D02*
X025208Y012526D01*
X024840Y012526D02*
X024606Y012760D01*
X024606Y012818D01*
X024665Y012877D01*
X024782Y012877D01*
X024840Y012818D01*
X024840Y013026D02*
X024840Y013377D01*
X024665Y013377D01*
X024606Y013318D01*
X024606Y013201D01*
X024665Y013143D01*
X024840Y013143D01*
X024723Y013143D02*
X024606Y013026D01*
X024975Y013026D02*
X025208Y013026D01*
X025208Y013377D01*
X024975Y013377D01*
X025091Y013201D02*
X025208Y013201D01*
X025343Y013085D02*
X025343Y013318D01*
X025401Y013377D01*
X025576Y013377D01*
X025576Y013026D01*
X025401Y013026D01*
X025343Y013085D01*
X025711Y013026D02*
X025828Y013143D01*
X025770Y013143D02*
X025945Y013143D01*
X025945Y013026D02*
X025945Y013377D01*
X025770Y013377D01*
X025711Y013318D01*
X025711Y013201D01*
X025770Y013143D01*
X026080Y013085D02*
X026080Y013318D01*
X026138Y013377D01*
X026255Y013377D01*
X026313Y013318D01*
X026313Y013085D01*
X026255Y013026D01*
X026138Y013026D01*
X026080Y013085D01*
X024840Y012526D02*
X024606Y012526D01*
X024984Y014517D02*
X025063Y014517D01*
X025614Y014517D02*
X025692Y014517D01*
X026038Y015226D02*
X026040Y015244D01*
X026046Y015262D01*
X026055Y015278D01*
X026067Y015291D01*
X026082Y015302D01*
X026099Y015310D01*
X026117Y015314D01*
X026135Y015314D01*
X026153Y015310D01*
X026170Y015302D01*
X026185Y015291D01*
X026197Y015278D01*
X026206Y015262D01*
X026212Y015244D01*
X026214Y015226D01*
X026212Y015208D01*
X026206Y015190D01*
X026197Y015174D01*
X026185Y015161D01*
X026170Y015150D01*
X026153Y015142D01*
X026135Y015138D01*
X026117Y015138D01*
X026099Y015142D01*
X026082Y015150D01*
X026067Y015161D01*
X026055Y015174D01*
X026046Y015190D01*
X026040Y015208D01*
X026038Y015226D01*
X026322Y015108D02*
X026322Y015895D01*
X025692Y016486D02*
X025614Y016486D01*
X025063Y016486D02*
X024984Y016486D01*
X024354Y015895D02*
X024354Y015108D01*
X018322Y015108D02*
X018322Y015895D01*
X017692Y016486D02*
X017614Y016486D01*
X017063Y016486D02*
X016984Y016486D01*
X016354Y015895D02*
X016354Y015108D01*
X016984Y014517D02*
X017063Y014517D01*
X017614Y014517D02*
X017692Y014517D01*
X018038Y015226D02*
X018040Y015244D01*
X018046Y015262D01*
X018055Y015278D01*
X018067Y015291D01*
X018082Y015302D01*
X018099Y015310D01*
X018117Y015314D01*
X018135Y015314D01*
X018153Y015310D01*
X018170Y015302D01*
X018185Y015291D01*
X018197Y015278D01*
X018206Y015262D01*
X018212Y015244D01*
X018214Y015226D01*
X018212Y015208D01*
X018206Y015190D01*
X018197Y015174D01*
X018185Y015161D01*
X018170Y015150D01*
X018153Y015142D01*
X018135Y015138D01*
X018117Y015138D01*
X018099Y015142D01*
X018082Y015150D01*
X018067Y015161D01*
X018055Y015174D01*
X018046Y015190D01*
X018040Y015208D01*
X018038Y015226D01*
X017945Y013377D02*
X017770Y013377D01*
X017711Y013318D01*
X017711Y013201D01*
X017770Y013143D01*
X017945Y013143D01*
X017945Y013026D02*
X017945Y013377D01*
X018080Y013318D02*
X018138Y013377D01*
X018255Y013377D01*
X018313Y013318D01*
X018313Y013085D01*
X018255Y013026D01*
X018138Y013026D01*
X018080Y013085D01*
X018080Y013318D01*
X017828Y013143D02*
X017711Y013026D01*
X017576Y013026D02*
X017401Y013026D01*
X017343Y013085D01*
X017343Y013318D01*
X017401Y013377D01*
X017576Y013377D01*
X017576Y013026D01*
X017518Y012877D02*
X017401Y012877D01*
X017343Y012818D01*
X017343Y012760D01*
X017401Y012701D01*
X017343Y012643D01*
X017343Y012585D01*
X017401Y012526D01*
X017518Y012526D01*
X017576Y012585D01*
X017711Y012585D02*
X017770Y012526D01*
X017886Y012526D01*
X017945Y012585D01*
X017945Y012701D02*
X017828Y012760D01*
X017770Y012760D01*
X017711Y012701D01*
X017711Y012585D01*
X017945Y012701D02*
X017945Y012877D01*
X017711Y012877D01*
X017576Y012818D02*
X017518Y012877D01*
X017460Y012701D02*
X017401Y012701D01*
X017208Y012760D02*
X017091Y012877D01*
X017091Y012526D01*
X016975Y012526D02*
X017208Y012526D01*
X016840Y012526D02*
X016606Y012760D01*
X016606Y012818D01*
X016665Y012877D01*
X016782Y012877D01*
X016840Y012818D01*
X016840Y013026D02*
X016840Y013377D01*
X016665Y013377D01*
X016606Y013318D01*
X016606Y013201D01*
X016665Y013143D01*
X016840Y013143D01*
X016723Y013143D02*
X016606Y013026D01*
X016975Y013026D02*
X017208Y013026D01*
X017208Y013377D01*
X016975Y013377D01*
X017091Y013201D02*
X017208Y013201D01*
X018138Y012877D02*
X018313Y012701D01*
X018080Y012701D01*
X018138Y012526D02*
X018138Y012877D01*
X016840Y012526D02*
X016606Y012526D01*
X016552Y010776D02*
X016552Y010476D01*
X016652Y010476D02*
X016452Y010476D01*
X016265Y010276D02*
X016265Y010076D01*
X016215Y010026D01*
X016215Y010226D02*
X016315Y010226D01*
X016437Y010226D02*
X016437Y010026D01*
X016587Y010026D01*
X016637Y010076D01*
X016637Y010226D01*
X016759Y010176D02*
X016809Y010226D01*
X016909Y010226D01*
X016959Y010176D01*
X016959Y010076D01*
X016909Y010026D01*
X016809Y010026D01*
X016759Y010076D01*
X016759Y010176D01*
X017078Y010226D02*
X017228Y010126D01*
X017078Y010026D01*
X017228Y010026D02*
X017228Y010326D01*
X017246Y010476D02*
X017146Y010476D01*
X017096Y010526D01*
X017096Y010576D01*
X017146Y010626D01*
X017246Y010626D01*
X017296Y010676D01*
X017296Y010726D01*
X017246Y010776D01*
X017146Y010776D01*
X017096Y010726D01*
X017096Y010676D01*
X017146Y010626D01*
X017246Y010626D02*
X017296Y010576D01*
X017296Y010526D01*
X017246Y010476D01*
X017418Y010476D02*
X017619Y010476D01*
X017418Y010676D01*
X017418Y010726D01*
X017469Y010776D01*
X017569Y010776D01*
X017619Y010726D01*
X017741Y010726D02*
X017791Y010776D01*
X017891Y010776D01*
X017941Y010726D01*
X017941Y010676D01*
X017891Y010626D01*
X017791Y010626D01*
X017741Y010576D01*
X017741Y010526D01*
X017791Y010476D01*
X017891Y010476D01*
X017941Y010526D01*
X018063Y010476D02*
X018063Y010776D01*
X018263Y010776D02*
X018263Y010476D01*
X018163Y010576D01*
X018063Y010476D01*
X018263Y010276D02*
X018263Y010226D01*
X018313Y010176D01*
X018463Y010176D01*
X018463Y010026D02*
X018313Y010026D01*
X018263Y010076D01*
X018263Y010126D01*
X018313Y010176D01*
X018263Y010276D02*
X018313Y010326D01*
X018463Y010326D01*
X018463Y010026D01*
X018141Y010026D02*
X018141Y010226D01*
X018141Y010126D02*
X018041Y010226D01*
X017991Y010226D01*
X017872Y010176D02*
X017822Y010226D01*
X017722Y010226D01*
X017672Y010176D01*
X017672Y010126D01*
X017872Y010126D01*
X017872Y010076D02*
X017872Y010176D01*
X017872Y010076D02*
X017822Y010026D01*
X017722Y010026D01*
X017550Y010076D02*
X017500Y010126D01*
X017350Y010126D01*
X017350Y010176D02*
X017350Y010026D01*
X017500Y010026D01*
X017550Y010076D01*
X017500Y010226D02*
X017400Y010226D01*
X017350Y010176D01*
X016974Y010526D02*
X016774Y010726D01*
X016774Y010526D01*
X016824Y010476D01*
X016924Y010476D01*
X016974Y010526D01*
X016974Y010726D01*
X016924Y010776D01*
X016824Y010776D01*
X016774Y010726D01*
X016652Y010676D02*
X016552Y010776D01*
X016587Y018026D02*
X016437Y018026D01*
X016437Y018226D01*
X016315Y018226D02*
X016215Y018226D01*
X016265Y018276D02*
X016265Y018076D01*
X016215Y018026D01*
X016587Y018026D02*
X016637Y018076D01*
X016637Y018226D01*
X016759Y018176D02*
X016809Y018226D01*
X016909Y018226D01*
X016959Y018176D01*
X016959Y018076D01*
X016909Y018026D01*
X016809Y018026D01*
X016759Y018076D01*
X016759Y018176D01*
X016824Y018476D02*
X016924Y018476D01*
X016974Y018526D01*
X016774Y018726D01*
X016774Y018526D01*
X016824Y018476D01*
X016974Y018526D02*
X016974Y018726D01*
X016924Y018776D01*
X016824Y018776D01*
X016774Y018726D01*
X016652Y018676D02*
X016552Y018776D01*
X016552Y018476D01*
X016652Y018476D02*
X016452Y018476D01*
X017096Y018526D02*
X017096Y018576D01*
X017146Y018626D01*
X017246Y018626D01*
X017296Y018676D01*
X017296Y018726D01*
X017246Y018776D01*
X017146Y018776D01*
X017096Y018726D01*
X017096Y018676D01*
X017146Y018626D01*
X017246Y018626D02*
X017296Y018576D01*
X017296Y018526D01*
X017246Y018476D01*
X017146Y018476D01*
X017096Y018526D01*
X017228Y018326D02*
X017228Y018026D01*
X017228Y018126D02*
X017078Y018226D01*
X017228Y018126D02*
X017078Y018026D01*
X017350Y018026D02*
X017350Y018176D01*
X017400Y018226D01*
X017500Y018226D01*
X017500Y018126D02*
X017350Y018126D01*
X017350Y018026D02*
X017500Y018026D01*
X017550Y018076D01*
X017500Y018126D01*
X017672Y018126D02*
X017672Y018176D01*
X017722Y018226D01*
X017822Y018226D01*
X017872Y018176D01*
X017872Y018076D01*
X017822Y018026D01*
X017722Y018026D01*
X017672Y018126D02*
X017872Y018126D01*
X017991Y018226D02*
X018041Y018226D01*
X018141Y018126D01*
X018141Y018026D02*
X018141Y018226D01*
X018263Y018226D02*
X018313Y018176D01*
X018463Y018176D01*
X018463Y018026D02*
X018463Y018326D01*
X018313Y018326D01*
X018263Y018276D01*
X018263Y018226D01*
X018313Y018176D02*
X018263Y018126D01*
X018263Y018076D01*
X018313Y018026D01*
X018463Y018026D01*
X018263Y018476D02*
X018163Y018576D01*
X018063Y018476D01*
X018063Y018776D01*
X017941Y018726D02*
X017941Y018676D01*
X017891Y018626D01*
X017791Y018626D01*
X017741Y018576D01*
X017741Y018526D01*
X017791Y018476D01*
X017891Y018476D01*
X017941Y018526D01*
X017941Y018726D02*
X017891Y018776D01*
X017791Y018776D01*
X017741Y018726D01*
X017619Y018726D02*
X017569Y018776D01*
X017469Y018776D01*
X017418Y018726D01*
X017418Y018676D01*
X017619Y018476D01*
X017418Y018476D01*
X018263Y018476D02*
X018263Y018776D01*
X024215Y018226D02*
X024315Y018226D01*
X024265Y018276D02*
X024265Y018076D01*
X024215Y018026D01*
X024437Y018026D02*
X024437Y018226D01*
X024437Y018026D02*
X024587Y018026D01*
X024637Y018076D01*
X024637Y018226D01*
X024759Y018176D02*
X024809Y018226D01*
X024909Y018226D01*
X024959Y018176D01*
X024959Y018076D01*
X024909Y018026D01*
X024809Y018026D01*
X024759Y018076D01*
X024759Y018176D01*
X024824Y018476D02*
X024924Y018476D01*
X024974Y018526D01*
X024774Y018726D01*
X024774Y018526D01*
X024824Y018476D01*
X024974Y018526D02*
X024974Y018726D01*
X024924Y018776D01*
X024824Y018776D01*
X024774Y018726D01*
X024652Y018676D02*
X024552Y018776D01*
X024552Y018476D01*
X024652Y018476D02*
X024452Y018476D01*
X025096Y018526D02*
X025146Y018476D01*
X025246Y018476D01*
X025296Y018526D01*
X025296Y018576D01*
X025246Y018626D01*
X025146Y018626D01*
X025096Y018576D01*
X025096Y018526D01*
X025146Y018626D02*
X025096Y018676D01*
X025096Y018726D01*
X025146Y018776D01*
X025246Y018776D01*
X025296Y018726D01*
X025296Y018676D01*
X025246Y018626D01*
X025418Y018676D02*
X025619Y018476D01*
X025418Y018476D01*
X025418Y018676D02*
X025418Y018726D01*
X025469Y018776D01*
X025569Y018776D01*
X025619Y018726D01*
X025741Y018726D02*
X025791Y018776D01*
X025891Y018776D01*
X025941Y018726D01*
X025941Y018676D01*
X025891Y018626D01*
X025791Y018626D01*
X025741Y018576D01*
X025741Y018526D01*
X025791Y018476D01*
X025891Y018476D01*
X025941Y018526D01*
X026063Y018476D02*
X026063Y018776D01*
X026263Y018776D02*
X026263Y018476D01*
X026163Y018576D01*
X026063Y018476D01*
X026041Y018226D02*
X025991Y018226D01*
X026041Y018226D02*
X026141Y018126D01*
X026141Y018026D02*
X026141Y018226D01*
X026263Y018226D02*
X026313Y018176D01*
X026463Y018176D01*
X026463Y018026D02*
X026463Y018326D01*
X026313Y018326D01*
X026263Y018276D01*
X026263Y018226D01*
X026313Y018176D02*
X026263Y018126D01*
X026263Y018076D01*
X026313Y018026D01*
X026463Y018026D01*
X025872Y018076D02*
X025872Y018176D01*
X025822Y018226D01*
X025722Y018226D01*
X025672Y018176D01*
X025672Y018126D01*
X025872Y018126D01*
X025872Y018076D02*
X025822Y018026D01*
X025722Y018026D01*
X025550Y018076D02*
X025500Y018126D01*
X025350Y018126D01*
X025350Y018176D02*
X025350Y018026D01*
X025500Y018026D01*
X025550Y018076D01*
X025500Y018226D02*
X025400Y018226D01*
X025350Y018176D01*
X025228Y018126D02*
X025078Y018226D01*
X025228Y018126D02*
X025078Y018026D01*
X025228Y018026D02*
X025228Y018326D01*
M02*
