G75*
G70*
%OFA0B0*%
%FSLAX24Y24*%
%IPPOS*%
%LPD*%
%AMOC8*
5,1,8,0,0,1.08239X$1,22.5*
%
%ADD10C,0.0000*%
%ADD11R,0.0551X0.0787*%
%ADD12R,0.0394X0.0787*%
%ADD13R,0.0740X0.0740*%
%ADD14C,0.0740*%
%ADD15C,0.0394*%
%ADD16C,0.0400*%
%ADD17C,0.0200*%
%ADD18C,0.0100*%
D10*
X013838Y004001D02*
X020838Y004001D01*
X021338Y004001D01*
X021838Y004001D01*
X028838Y004001D01*
X028838Y011001D01*
X028838Y011501D01*
X028838Y012001D01*
X028838Y019001D01*
X021838Y019001D01*
X021338Y019001D01*
X020838Y019001D01*
X013838Y019001D01*
X013838Y012001D01*
X013838Y011501D01*
X013838Y011001D01*
X013838Y004001D01*
X014688Y005001D02*
X014690Y005051D01*
X014696Y005101D01*
X014706Y005151D01*
X014719Y005199D01*
X014736Y005247D01*
X014757Y005293D01*
X014781Y005337D01*
X014809Y005379D01*
X014840Y005419D01*
X014874Y005456D01*
X014911Y005491D01*
X014950Y005522D01*
X014991Y005551D01*
X015035Y005576D01*
X015081Y005598D01*
X015128Y005616D01*
X015176Y005630D01*
X015225Y005641D01*
X015275Y005648D01*
X015325Y005651D01*
X015376Y005650D01*
X015426Y005645D01*
X015476Y005636D01*
X015524Y005624D01*
X015572Y005607D01*
X015618Y005587D01*
X015663Y005564D01*
X015706Y005537D01*
X015746Y005507D01*
X015784Y005474D01*
X015819Y005438D01*
X015852Y005399D01*
X015881Y005358D01*
X015907Y005315D01*
X015930Y005270D01*
X015949Y005223D01*
X015964Y005175D01*
X015976Y005126D01*
X015984Y005076D01*
X015988Y005026D01*
X015988Y004976D01*
X015984Y004926D01*
X015976Y004876D01*
X015964Y004827D01*
X015949Y004779D01*
X015930Y004732D01*
X015907Y004687D01*
X015881Y004644D01*
X015852Y004603D01*
X015819Y004564D01*
X015784Y004528D01*
X015746Y004495D01*
X015706Y004465D01*
X015663Y004438D01*
X015618Y004415D01*
X015572Y004395D01*
X015524Y004378D01*
X015476Y004366D01*
X015426Y004357D01*
X015376Y004352D01*
X015325Y004351D01*
X015275Y004354D01*
X015225Y004361D01*
X015176Y004372D01*
X015128Y004386D01*
X015081Y004404D01*
X015035Y004426D01*
X014991Y004451D01*
X014950Y004480D01*
X014911Y004511D01*
X014874Y004546D01*
X014840Y004583D01*
X014809Y004623D01*
X014781Y004665D01*
X014757Y004709D01*
X014736Y004755D01*
X014719Y004803D01*
X014706Y004851D01*
X014696Y004901D01*
X014690Y004951D01*
X014688Y005001D01*
X018688Y005001D02*
X018690Y005051D01*
X018696Y005101D01*
X018706Y005151D01*
X018719Y005199D01*
X018736Y005247D01*
X018757Y005293D01*
X018781Y005337D01*
X018809Y005379D01*
X018840Y005419D01*
X018874Y005456D01*
X018911Y005491D01*
X018950Y005522D01*
X018991Y005551D01*
X019035Y005576D01*
X019081Y005598D01*
X019128Y005616D01*
X019176Y005630D01*
X019225Y005641D01*
X019275Y005648D01*
X019325Y005651D01*
X019376Y005650D01*
X019426Y005645D01*
X019476Y005636D01*
X019524Y005624D01*
X019572Y005607D01*
X019618Y005587D01*
X019663Y005564D01*
X019706Y005537D01*
X019746Y005507D01*
X019784Y005474D01*
X019819Y005438D01*
X019852Y005399D01*
X019881Y005358D01*
X019907Y005315D01*
X019930Y005270D01*
X019949Y005223D01*
X019964Y005175D01*
X019976Y005126D01*
X019984Y005076D01*
X019988Y005026D01*
X019988Y004976D01*
X019984Y004926D01*
X019976Y004876D01*
X019964Y004827D01*
X019949Y004779D01*
X019930Y004732D01*
X019907Y004687D01*
X019881Y004644D01*
X019852Y004603D01*
X019819Y004564D01*
X019784Y004528D01*
X019746Y004495D01*
X019706Y004465D01*
X019663Y004438D01*
X019618Y004415D01*
X019572Y004395D01*
X019524Y004378D01*
X019476Y004366D01*
X019426Y004357D01*
X019376Y004352D01*
X019325Y004351D01*
X019275Y004354D01*
X019225Y004361D01*
X019176Y004372D01*
X019128Y004386D01*
X019081Y004404D01*
X019035Y004426D01*
X018991Y004451D01*
X018950Y004480D01*
X018911Y004511D01*
X018874Y004546D01*
X018840Y004583D01*
X018809Y004623D01*
X018781Y004665D01*
X018757Y004709D01*
X018736Y004755D01*
X018719Y004803D01*
X018706Y004851D01*
X018696Y004901D01*
X018690Y004951D01*
X018688Y005001D01*
X022688Y005001D02*
X022690Y005051D01*
X022696Y005101D01*
X022706Y005151D01*
X022719Y005199D01*
X022736Y005247D01*
X022757Y005293D01*
X022781Y005337D01*
X022809Y005379D01*
X022840Y005419D01*
X022874Y005456D01*
X022911Y005491D01*
X022950Y005522D01*
X022991Y005551D01*
X023035Y005576D01*
X023081Y005598D01*
X023128Y005616D01*
X023176Y005630D01*
X023225Y005641D01*
X023275Y005648D01*
X023325Y005651D01*
X023376Y005650D01*
X023426Y005645D01*
X023476Y005636D01*
X023524Y005624D01*
X023572Y005607D01*
X023618Y005587D01*
X023663Y005564D01*
X023706Y005537D01*
X023746Y005507D01*
X023784Y005474D01*
X023819Y005438D01*
X023852Y005399D01*
X023881Y005358D01*
X023907Y005315D01*
X023930Y005270D01*
X023949Y005223D01*
X023964Y005175D01*
X023976Y005126D01*
X023984Y005076D01*
X023988Y005026D01*
X023988Y004976D01*
X023984Y004926D01*
X023976Y004876D01*
X023964Y004827D01*
X023949Y004779D01*
X023930Y004732D01*
X023907Y004687D01*
X023881Y004644D01*
X023852Y004603D01*
X023819Y004564D01*
X023784Y004528D01*
X023746Y004495D01*
X023706Y004465D01*
X023663Y004438D01*
X023618Y004415D01*
X023572Y004395D01*
X023524Y004378D01*
X023476Y004366D01*
X023426Y004357D01*
X023376Y004352D01*
X023325Y004351D01*
X023275Y004354D01*
X023225Y004361D01*
X023176Y004372D01*
X023128Y004386D01*
X023081Y004404D01*
X023035Y004426D01*
X022991Y004451D01*
X022950Y004480D01*
X022911Y004511D01*
X022874Y004546D01*
X022840Y004583D01*
X022809Y004623D01*
X022781Y004665D01*
X022757Y004709D01*
X022736Y004755D01*
X022719Y004803D01*
X022706Y004851D01*
X022696Y004901D01*
X022690Y004951D01*
X022688Y005001D01*
X026688Y005001D02*
X026690Y005051D01*
X026696Y005101D01*
X026706Y005151D01*
X026719Y005199D01*
X026736Y005247D01*
X026757Y005293D01*
X026781Y005337D01*
X026809Y005379D01*
X026840Y005419D01*
X026874Y005456D01*
X026911Y005491D01*
X026950Y005522D01*
X026991Y005551D01*
X027035Y005576D01*
X027081Y005598D01*
X027128Y005616D01*
X027176Y005630D01*
X027225Y005641D01*
X027275Y005648D01*
X027325Y005651D01*
X027376Y005650D01*
X027426Y005645D01*
X027476Y005636D01*
X027524Y005624D01*
X027572Y005607D01*
X027618Y005587D01*
X027663Y005564D01*
X027706Y005537D01*
X027746Y005507D01*
X027784Y005474D01*
X027819Y005438D01*
X027852Y005399D01*
X027881Y005358D01*
X027907Y005315D01*
X027930Y005270D01*
X027949Y005223D01*
X027964Y005175D01*
X027976Y005126D01*
X027984Y005076D01*
X027988Y005026D01*
X027988Y004976D01*
X027984Y004926D01*
X027976Y004876D01*
X027964Y004827D01*
X027949Y004779D01*
X027930Y004732D01*
X027907Y004687D01*
X027881Y004644D01*
X027852Y004603D01*
X027819Y004564D01*
X027784Y004528D01*
X027746Y004495D01*
X027706Y004465D01*
X027663Y004438D01*
X027618Y004415D01*
X027572Y004395D01*
X027524Y004378D01*
X027476Y004366D01*
X027426Y004357D01*
X027376Y004352D01*
X027325Y004351D01*
X027275Y004354D01*
X027225Y004361D01*
X027176Y004372D01*
X027128Y004386D01*
X027081Y004404D01*
X027035Y004426D01*
X026991Y004451D01*
X026950Y004480D01*
X026911Y004511D01*
X026874Y004546D01*
X026840Y004583D01*
X026809Y004623D01*
X026781Y004665D01*
X026757Y004709D01*
X026736Y004755D01*
X026719Y004803D01*
X026706Y004851D01*
X026696Y004901D01*
X026690Y004951D01*
X026688Y005001D01*
X026688Y010001D02*
X026690Y010051D01*
X026696Y010101D01*
X026706Y010151D01*
X026719Y010199D01*
X026736Y010247D01*
X026757Y010293D01*
X026781Y010337D01*
X026809Y010379D01*
X026840Y010419D01*
X026874Y010456D01*
X026911Y010491D01*
X026950Y010522D01*
X026991Y010551D01*
X027035Y010576D01*
X027081Y010598D01*
X027128Y010616D01*
X027176Y010630D01*
X027225Y010641D01*
X027275Y010648D01*
X027325Y010651D01*
X027376Y010650D01*
X027426Y010645D01*
X027476Y010636D01*
X027524Y010624D01*
X027572Y010607D01*
X027618Y010587D01*
X027663Y010564D01*
X027706Y010537D01*
X027746Y010507D01*
X027784Y010474D01*
X027819Y010438D01*
X027852Y010399D01*
X027881Y010358D01*
X027907Y010315D01*
X027930Y010270D01*
X027949Y010223D01*
X027964Y010175D01*
X027976Y010126D01*
X027984Y010076D01*
X027988Y010026D01*
X027988Y009976D01*
X027984Y009926D01*
X027976Y009876D01*
X027964Y009827D01*
X027949Y009779D01*
X027930Y009732D01*
X027907Y009687D01*
X027881Y009644D01*
X027852Y009603D01*
X027819Y009564D01*
X027784Y009528D01*
X027746Y009495D01*
X027706Y009465D01*
X027663Y009438D01*
X027618Y009415D01*
X027572Y009395D01*
X027524Y009378D01*
X027476Y009366D01*
X027426Y009357D01*
X027376Y009352D01*
X027325Y009351D01*
X027275Y009354D01*
X027225Y009361D01*
X027176Y009372D01*
X027128Y009386D01*
X027081Y009404D01*
X027035Y009426D01*
X026991Y009451D01*
X026950Y009480D01*
X026911Y009511D01*
X026874Y009546D01*
X026840Y009583D01*
X026809Y009623D01*
X026781Y009665D01*
X026757Y009709D01*
X026736Y009755D01*
X026719Y009803D01*
X026706Y009851D01*
X026696Y009901D01*
X026690Y009951D01*
X026688Y010001D01*
X022688Y010001D02*
X022690Y010051D01*
X022696Y010101D01*
X022706Y010151D01*
X022719Y010199D01*
X022736Y010247D01*
X022757Y010293D01*
X022781Y010337D01*
X022809Y010379D01*
X022840Y010419D01*
X022874Y010456D01*
X022911Y010491D01*
X022950Y010522D01*
X022991Y010551D01*
X023035Y010576D01*
X023081Y010598D01*
X023128Y010616D01*
X023176Y010630D01*
X023225Y010641D01*
X023275Y010648D01*
X023325Y010651D01*
X023376Y010650D01*
X023426Y010645D01*
X023476Y010636D01*
X023524Y010624D01*
X023572Y010607D01*
X023618Y010587D01*
X023663Y010564D01*
X023706Y010537D01*
X023746Y010507D01*
X023784Y010474D01*
X023819Y010438D01*
X023852Y010399D01*
X023881Y010358D01*
X023907Y010315D01*
X023930Y010270D01*
X023949Y010223D01*
X023964Y010175D01*
X023976Y010126D01*
X023984Y010076D01*
X023988Y010026D01*
X023988Y009976D01*
X023984Y009926D01*
X023976Y009876D01*
X023964Y009827D01*
X023949Y009779D01*
X023930Y009732D01*
X023907Y009687D01*
X023881Y009644D01*
X023852Y009603D01*
X023819Y009564D01*
X023784Y009528D01*
X023746Y009495D01*
X023706Y009465D01*
X023663Y009438D01*
X023618Y009415D01*
X023572Y009395D01*
X023524Y009378D01*
X023476Y009366D01*
X023426Y009357D01*
X023376Y009352D01*
X023325Y009351D01*
X023275Y009354D01*
X023225Y009361D01*
X023176Y009372D01*
X023128Y009386D01*
X023081Y009404D01*
X023035Y009426D01*
X022991Y009451D01*
X022950Y009480D01*
X022911Y009511D01*
X022874Y009546D01*
X022840Y009583D01*
X022809Y009623D01*
X022781Y009665D01*
X022757Y009709D01*
X022736Y009755D01*
X022719Y009803D01*
X022706Y009851D01*
X022696Y009901D01*
X022690Y009951D01*
X022688Y010001D01*
X018688Y010001D02*
X018690Y010051D01*
X018696Y010101D01*
X018706Y010151D01*
X018719Y010199D01*
X018736Y010247D01*
X018757Y010293D01*
X018781Y010337D01*
X018809Y010379D01*
X018840Y010419D01*
X018874Y010456D01*
X018911Y010491D01*
X018950Y010522D01*
X018991Y010551D01*
X019035Y010576D01*
X019081Y010598D01*
X019128Y010616D01*
X019176Y010630D01*
X019225Y010641D01*
X019275Y010648D01*
X019325Y010651D01*
X019376Y010650D01*
X019426Y010645D01*
X019476Y010636D01*
X019524Y010624D01*
X019572Y010607D01*
X019618Y010587D01*
X019663Y010564D01*
X019706Y010537D01*
X019746Y010507D01*
X019784Y010474D01*
X019819Y010438D01*
X019852Y010399D01*
X019881Y010358D01*
X019907Y010315D01*
X019930Y010270D01*
X019949Y010223D01*
X019964Y010175D01*
X019976Y010126D01*
X019984Y010076D01*
X019988Y010026D01*
X019988Y009976D01*
X019984Y009926D01*
X019976Y009876D01*
X019964Y009827D01*
X019949Y009779D01*
X019930Y009732D01*
X019907Y009687D01*
X019881Y009644D01*
X019852Y009603D01*
X019819Y009564D01*
X019784Y009528D01*
X019746Y009495D01*
X019706Y009465D01*
X019663Y009438D01*
X019618Y009415D01*
X019572Y009395D01*
X019524Y009378D01*
X019476Y009366D01*
X019426Y009357D01*
X019376Y009352D01*
X019325Y009351D01*
X019275Y009354D01*
X019225Y009361D01*
X019176Y009372D01*
X019128Y009386D01*
X019081Y009404D01*
X019035Y009426D01*
X018991Y009451D01*
X018950Y009480D01*
X018911Y009511D01*
X018874Y009546D01*
X018840Y009583D01*
X018809Y009623D01*
X018781Y009665D01*
X018757Y009709D01*
X018736Y009755D01*
X018719Y009803D01*
X018706Y009851D01*
X018696Y009901D01*
X018690Y009951D01*
X018688Y010001D01*
X014688Y010001D02*
X014690Y010051D01*
X014696Y010101D01*
X014706Y010151D01*
X014719Y010199D01*
X014736Y010247D01*
X014757Y010293D01*
X014781Y010337D01*
X014809Y010379D01*
X014840Y010419D01*
X014874Y010456D01*
X014911Y010491D01*
X014950Y010522D01*
X014991Y010551D01*
X015035Y010576D01*
X015081Y010598D01*
X015128Y010616D01*
X015176Y010630D01*
X015225Y010641D01*
X015275Y010648D01*
X015325Y010651D01*
X015376Y010650D01*
X015426Y010645D01*
X015476Y010636D01*
X015524Y010624D01*
X015572Y010607D01*
X015618Y010587D01*
X015663Y010564D01*
X015706Y010537D01*
X015746Y010507D01*
X015784Y010474D01*
X015819Y010438D01*
X015852Y010399D01*
X015881Y010358D01*
X015907Y010315D01*
X015930Y010270D01*
X015949Y010223D01*
X015964Y010175D01*
X015976Y010126D01*
X015984Y010076D01*
X015988Y010026D01*
X015988Y009976D01*
X015984Y009926D01*
X015976Y009876D01*
X015964Y009827D01*
X015949Y009779D01*
X015930Y009732D01*
X015907Y009687D01*
X015881Y009644D01*
X015852Y009603D01*
X015819Y009564D01*
X015784Y009528D01*
X015746Y009495D01*
X015706Y009465D01*
X015663Y009438D01*
X015618Y009415D01*
X015572Y009395D01*
X015524Y009378D01*
X015476Y009366D01*
X015426Y009357D01*
X015376Y009352D01*
X015325Y009351D01*
X015275Y009354D01*
X015225Y009361D01*
X015176Y009372D01*
X015128Y009386D01*
X015081Y009404D01*
X015035Y009426D01*
X014991Y009451D01*
X014950Y009480D01*
X014911Y009511D01*
X014874Y009546D01*
X014840Y009583D01*
X014809Y009623D01*
X014781Y009665D01*
X014757Y009709D01*
X014736Y009755D01*
X014719Y009803D01*
X014706Y009851D01*
X014696Y009901D01*
X014690Y009951D01*
X014688Y010001D01*
X014688Y013001D02*
X014690Y013051D01*
X014696Y013101D01*
X014706Y013151D01*
X014719Y013199D01*
X014736Y013247D01*
X014757Y013293D01*
X014781Y013337D01*
X014809Y013379D01*
X014840Y013419D01*
X014874Y013456D01*
X014911Y013491D01*
X014950Y013522D01*
X014991Y013551D01*
X015035Y013576D01*
X015081Y013598D01*
X015128Y013616D01*
X015176Y013630D01*
X015225Y013641D01*
X015275Y013648D01*
X015325Y013651D01*
X015376Y013650D01*
X015426Y013645D01*
X015476Y013636D01*
X015524Y013624D01*
X015572Y013607D01*
X015618Y013587D01*
X015663Y013564D01*
X015706Y013537D01*
X015746Y013507D01*
X015784Y013474D01*
X015819Y013438D01*
X015852Y013399D01*
X015881Y013358D01*
X015907Y013315D01*
X015930Y013270D01*
X015949Y013223D01*
X015964Y013175D01*
X015976Y013126D01*
X015984Y013076D01*
X015988Y013026D01*
X015988Y012976D01*
X015984Y012926D01*
X015976Y012876D01*
X015964Y012827D01*
X015949Y012779D01*
X015930Y012732D01*
X015907Y012687D01*
X015881Y012644D01*
X015852Y012603D01*
X015819Y012564D01*
X015784Y012528D01*
X015746Y012495D01*
X015706Y012465D01*
X015663Y012438D01*
X015618Y012415D01*
X015572Y012395D01*
X015524Y012378D01*
X015476Y012366D01*
X015426Y012357D01*
X015376Y012352D01*
X015325Y012351D01*
X015275Y012354D01*
X015225Y012361D01*
X015176Y012372D01*
X015128Y012386D01*
X015081Y012404D01*
X015035Y012426D01*
X014991Y012451D01*
X014950Y012480D01*
X014911Y012511D01*
X014874Y012546D01*
X014840Y012583D01*
X014809Y012623D01*
X014781Y012665D01*
X014757Y012709D01*
X014736Y012755D01*
X014719Y012803D01*
X014706Y012851D01*
X014696Y012901D01*
X014690Y012951D01*
X014688Y013001D01*
X018688Y013001D02*
X018690Y013051D01*
X018696Y013101D01*
X018706Y013151D01*
X018719Y013199D01*
X018736Y013247D01*
X018757Y013293D01*
X018781Y013337D01*
X018809Y013379D01*
X018840Y013419D01*
X018874Y013456D01*
X018911Y013491D01*
X018950Y013522D01*
X018991Y013551D01*
X019035Y013576D01*
X019081Y013598D01*
X019128Y013616D01*
X019176Y013630D01*
X019225Y013641D01*
X019275Y013648D01*
X019325Y013651D01*
X019376Y013650D01*
X019426Y013645D01*
X019476Y013636D01*
X019524Y013624D01*
X019572Y013607D01*
X019618Y013587D01*
X019663Y013564D01*
X019706Y013537D01*
X019746Y013507D01*
X019784Y013474D01*
X019819Y013438D01*
X019852Y013399D01*
X019881Y013358D01*
X019907Y013315D01*
X019930Y013270D01*
X019949Y013223D01*
X019964Y013175D01*
X019976Y013126D01*
X019984Y013076D01*
X019988Y013026D01*
X019988Y012976D01*
X019984Y012926D01*
X019976Y012876D01*
X019964Y012827D01*
X019949Y012779D01*
X019930Y012732D01*
X019907Y012687D01*
X019881Y012644D01*
X019852Y012603D01*
X019819Y012564D01*
X019784Y012528D01*
X019746Y012495D01*
X019706Y012465D01*
X019663Y012438D01*
X019618Y012415D01*
X019572Y012395D01*
X019524Y012378D01*
X019476Y012366D01*
X019426Y012357D01*
X019376Y012352D01*
X019325Y012351D01*
X019275Y012354D01*
X019225Y012361D01*
X019176Y012372D01*
X019128Y012386D01*
X019081Y012404D01*
X019035Y012426D01*
X018991Y012451D01*
X018950Y012480D01*
X018911Y012511D01*
X018874Y012546D01*
X018840Y012583D01*
X018809Y012623D01*
X018781Y012665D01*
X018757Y012709D01*
X018736Y012755D01*
X018719Y012803D01*
X018706Y012851D01*
X018696Y012901D01*
X018690Y012951D01*
X018688Y013001D01*
X022688Y013001D02*
X022690Y013051D01*
X022696Y013101D01*
X022706Y013151D01*
X022719Y013199D01*
X022736Y013247D01*
X022757Y013293D01*
X022781Y013337D01*
X022809Y013379D01*
X022840Y013419D01*
X022874Y013456D01*
X022911Y013491D01*
X022950Y013522D01*
X022991Y013551D01*
X023035Y013576D01*
X023081Y013598D01*
X023128Y013616D01*
X023176Y013630D01*
X023225Y013641D01*
X023275Y013648D01*
X023325Y013651D01*
X023376Y013650D01*
X023426Y013645D01*
X023476Y013636D01*
X023524Y013624D01*
X023572Y013607D01*
X023618Y013587D01*
X023663Y013564D01*
X023706Y013537D01*
X023746Y013507D01*
X023784Y013474D01*
X023819Y013438D01*
X023852Y013399D01*
X023881Y013358D01*
X023907Y013315D01*
X023930Y013270D01*
X023949Y013223D01*
X023964Y013175D01*
X023976Y013126D01*
X023984Y013076D01*
X023988Y013026D01*
X023988Y012976D01*
X023984Y012926D01*
X023976Y012876D01*
X023964Y012827D01*
X023949Y012779D01*
X023930Y012732D01*
X023907Y012687D01*
X023881Y012644D01*
X023852Y012603D01*
X023819Y012564D01*
X023784Y012528D01*
X023746Y012495D01*
X023706Y012465D01*
X023663Y012438D01*
X023618Y012415D01*
X023572Y012395D01*
X023524Y012378D01*
X023476Y012366D01*
X023426Y012357D01*
X023376Y012352D01*
X023325Y012351D01*
X023275Y012354D01*
X023225Y012361D01*
X023176Y012372D01*
X023128Y012386D01*
X023081Y012404D01*
X023035Y012426D01*
X022991Y012451D01*
X022950Y012480D01*
X022911Y012511D01*
X022874Y012546D01*
X022840Y012583D01*
X022809Y012623D01*
X022781Y012665D01*
X022757Y012709D01*
X022736Y012755D01*
X022719Y012803D01*
X022706Y012851D01*
X022696Y012901D01*
X022690Y012951D01*
X022688Y013001D01*
X026688Y013001D02*
X026690Y013051D01*
X026696Y013101D01*
X026706Y013151D01*
X026719Y013199D01*
X026736Y013247D01*
X026757Y013293D01*
X026781Y013337D01*
X026809Y013379D01*
X026840Y013419D01*
X026874Y013456D01*
X026911Y013491D01*
X026950Y013522D01*
X026991Y013551D01*
X027035Y013576D01*
X027081Y013598D01*
X027128Y013616D01*
X027176Y013630D01*
X027225Y013641D01*
X027275Y013648D01*
X027325Y013651D01*
X027376Y013650D01*
X027426Y013645D01*
X027476Y013636D01*
X027524Y013624D01*
X027572Y013607D01*
X027618Y013587D01*
X027663Y013564D01*
X027706Y013537D01*
X027746Y013507D01*
X027784Y013474D01*
X027819Y013438D01*
X027852Y013399D01*
X027881Y013358D01*
X027907Y013315D01*
X027930Y013270D01*
X027949Y013223D01*
X027964Y013175D01*
X027976Y013126D01*
X027984Y013076D01*
X027988Y013026D01*
X027988Y012976D01*
X027984Y012926D01*
X027976Y012876D01*
X027964Y012827D01*
X027949Y012779D01*
X027930Y012732D01*
X027907Y012687D01*
X027881Y012644D01*
X027852Y012603D01*
X027819Y012564D01*
X027784Y012528D01*
X027746Y012495D01*
X027706Y012465D01*
X027663Y012438D01*
X027618Y012415D01*
X027572Y012395D01*
X027524Y012378D01*
X027476Y012366D01*
X027426Y012357D01*
X027376Y012352D01*
X027325Y012351D01*
X027275Y012354D01*
X027225Y012361D01*
X027176Y012372D01*
X027128Y012386D01*
X027081Y012404D01*
X027035Y012426D01*
X026991Y012451D01*
X026950Y012480D01*
X026911Y012511D01*
X026874Y012546D01*
X026840Y012583D01*
X026809Y012623D01*
X026781Y012665D01*
X026757Y012709D01*
X026736Y012755D01*
X026719Y012803D01*
X026706Y012851D01*
X026696Y012901D01*
X026690Y012951D01*
X026688Y013001D01*
X026688Y018001D02*
X026690Y018051D01*
X026696Y018101D01*
X026706Y018151D01*
X026719Y018199D01*
X026736Y018247D01*
X026757Y018293D01*
X026781Y018337D01*
X026809Y018379D01*
X026840Y018419D01*
X026874Y018456D01*
X026911Y018491D01*
X026950Y018522D01*
X026991Y018551D01*
X027035Y018576D01*
X027081Y018598D01*
X027128Y018616D01*
X027176Y018630D01*
X027225Y018641D01*
X027275Y018648D01*
X027325Y018651D01*
X027376Y018650D01*
X027426Y018645D01*
X027476Y018636D01*
X027524Y018624D01*
X027572Y018607D01*
X027618Y018587D01*
X027663Y018564D01*
X027706Y018537D01*
X027746Y018507D01*
X027784Y018474D01*
X027819Y018438D01*
X027852Y018399D01*
X027881Y018358D01*
X027907Y018315D01*
X027930Y018270D01*
X027949Y018223D01*
X027964Y018175D01*
X027976Y018126D01*
X027984Y018076D01*
X027988Y018026D01*
X027988Y017976D01*
X027984Y017926D01*
X027976Y017876D01*
X027964Y017827D01*
X027949Y017779D01*
X027930Y017732D01*
X027907Y017687D01*
X027881Y017644D01*
X027852Y017603D01*
X027819Y017564D01*
X027784Y017528D01*
X027746Y017495D01*
X027706Y017465D01*
X027663Y017438D01*
X027618Y017415D01*
X027572Y017395D01*
X027524Y017378D01*
X027476Y017366D01*
X027426Y017357D01*
X027376Y017352D01*
X027325Y017351D01*
X027275Y017354D01*
X027225Y017361D01*
X027176Y017372D01*
X027128Y017386D01*
X027081Y017404D01*
X027035Y017426D01*
X026991Y017451D01*
X026950Y017480D01*
X026911Y017511D01*
X026874Y017546D01*
X026840Y017583D01*
X026809Y017623D01*
X026781Y017665D01*
X026757Y017709D01*
X026736Y017755D01*
X026719Y017803D01*
X026706Y017851D01*
X026696Y017901D01*
X026690Y017951D01*
X026688Y018001D01*
X022688Y018001D02*
X022690Y018051D01*
X022696Y018101D01*
X022706Y018151D01*
X022719Y018199D01*
X022736Y018247D01*
X022757Y018293D01*
X022781Y018337D01*
X022809Y018379D01*
X022840Y018419D01*
X022874Y018456D01*
X022911Y018491D01*
X022950Y018522D01*
X022991Y018551D01*
X023035Y018576D01*
X023081Y018598D01*
X023128Y018616D01*
X023176Y018630D01*
X023225Y018641D01*
X023275Y018648D01*
X023325Y018651D01*
X023376Y018650D01*
X023426Y018645D01*
X023476Y018636D01*
X023524Y018624D01*
X023572Y018607D01*
X023618Y018587D01*
X023663Y018564D01*
X023706Y018537D01*
X023746Y018507D01*
X023784Y018474D01*
X023819Y018438D01*
X023852Y018399D01*
X023881Y018358D01*
X023907Y018315D01*
X023930Y018270D01*
X023949Y018223D01*
X023964Y018175D01*
X023976Y018126D01*
X023984Y018076D01*
X023988Y018026D01*
X023988Y017976D01*
X023984Y017926D01*
X023976Y017876D01*
X023964Y017827D01*
X023949Y017779D01*
X023930Y017732D01*
X023907Y017687D01*
X023881Y017644D01*
X023852Y017603D01*
X023819Y017564D01*
X023784Y017528D01*
X023746Y017495D01*
X023706Y017465D01*
X023663Y017438D01*
X023618Y017415D01*
X023572Y017395D01*
X023524Y017378D01*
X023476Y017366D01*
X023426Y017357D01*
X023376Y017352D01*
X023325Y017351D01*
X023275Y017354D01*
X023225Y017361D01*
X023176Y017372D01*
X023128Y017386D01*
X023081Y017404D01*
X023035Y017426D01*
X022991Y017451D01*
X022950Y017480D01*
X022911Y017511D01*
X022874Y017546D01*
X022840Y017583D01*
X022809Y017623D01*
X022781Y017665D01*
X022757Y017709D01*
X022736Y017755D01*
X022719Y017803D01*
X022706Y017851D01*
X022696Y017901D01*
X022690Y017951D01*
X022688Y018001D01*
X018688Y018001D02*
X018690Y018051D01*
X018696Y018101D01*
X018706Y018151D01*
X018719Y018199D01*
X018736Y018247D01*
X018757Y018293D01*
X018781Y018337D01*
X018809Y018379D01*
X018840Y018419D01*
X018874Y018456D01*
X018911Y018491D01*
X018950Y018522D01*
X018991Y018551D01*
X019035Y018576D01*
X019081Y018598D01*
X019128Y018616D01*
X019176Y018630D01*
X019225Y018641D01*
X019275Y018648D01*
X019325Y018651D01*
X019376Y018650D01*
X019426Y018645D01*
X019476Y018636D01*
X019524Y018624D01*
X019572Y018607D01*
X019618Y018587D01*
X019663Y018564D01*
X019706Y018537D01*
X019746Y018507D01*
X019784Y018474D01*
X019819Y018438D01*
X019852Y018399D01*
X019881Y018358D01*
X019907Y018315D01*
X019930Y018270D01*
X019949Y018223D01*
X019964Y018175D01*
X019976Y018126D01*
X019984Y018076D01*
X019988Y018026D01*
X019988Y017976D01*
X019984Y017926D01*
X019976Y017876D01*
X019964Y017827D01*
X019949Y017779D01*
X019930Y017732D01*
X019907Y017687D01*
X019881Y017644D01*
X019852Y017603D01*
X019819Y017564D01*
X019784Y017528D01*
X019746Y017495D01*
X019706Y017465D01*
X019663Y017438D01*
X019618Y017415D01*
X019572Y017395D01*
X019524Y017378D01*
X019476Y017366D01*
X019426Y017357D01*
X019376Y017352D01*
X019325Y017351D01*
X019275Y017354D01*
X019225Y017361D01*
X019176Y017372D01*
X019128Y017386D01*
X019081Y017404D01*
X019035Y017426D01*
X018991Y017451D01*
X018950Y017480D01*
X018911Y017511D01*
X018874Y017546D01*
X018840Y017583D01*
X018809Y017623D01*
X018781Y017665D01*
X018757Y017709D01*
X018736Y017755D01*
X018719Y017803D01*
X018706Y017851D01*
X018696Y017901D01*
X018690Y017951D01*
X018688Y018001D01*
X014688Y018001D02*
X014690Y018051D01*
X014696Y018101D01*
X014706Y018151D01*
X014719Y018199D01*
X014736Y018247D01*
X014757Y018293D01*
X014781Y018337D01*
X014809Y018379D01*
X014840Y018419D01*
X014874Y018456D01*
X014911Y018491D01*
X014950Y018522D01*
X014991Y018551D01*
X015035Y018576D01*
X015081Y018598D01*
X015128Y018616D01*
X015176Y018630D01*
X015225Y018641D01*
X015275Y018648D01*
X015325Y018651D01*
X015376Y018650D01*
X015426Y018645D01*
X015476Y018636D01*
X015524Y018624D01*
X015572Y018607D01*
X015618Y018587D01*
X015663Y018564D01*
X015706Y018537D01*
X015746Y018507D01*
X015784Y018474D01*
X015819Y018438D01*
X015852Y018399D01*
X015881Y018358D01*
X015907Y018315D01*
X015930Y018270D01*
X015949Y018223D01*
X015964Y018175D01*
X015976Y018126D01*
X015984Y018076D01*
X015988Y018026D01*
X015988Y017976D01*
X015984Y017926D01*
X015976Y017876D01*
X015964Y017827D01*
X015949Y017779D01*
X015930Y017732D01*
X015907Y017687D01*
X015881Y017644D01*
X015852Y017603D01*
X015819Y017564D01*
X015784Y017528D01*
X015746Y017495D01*
X015706Y017465D01*
X015663Y017438D01*
X015618Y017415D01*
X015572Y017395D01*
X015524Y017378D01*
X015476Y017366D01*
X015426Y017357D01*
X015376Y017352D01*
X015325Y017351D01*
X015275Y017354D01*
X015225Y017361D01*
X015176Y017372D01*
X015128Y017386D01*
X015081Y017404D01*
X015035Y017426D01*
X014991Y017451D01*
X014950Y017480D01*
X014911Y017511D01*
X014874Y017546D01*
X014840Y017583D01*
X014809Y017623D01*
X014781Y017665D01*
X014757Y017709D01*
X014736Y017755D01*
X014719Y017803D01*
X014706Y017851D01*
X014696Y017901D01*
X014690Y017951D01*
X014688Y018001D01*
D11*
X016629Y016367D03*
X018047Y016367D03*
X018047Y014635D03*
X016629Y014635D03*
X024629Y014635D03*
X026047Y014635D03*
X026047Y016367D03*
X024629Y016367D03*
X024629Y008367D03*
X026047Y008367D03*
X026047Y006635D03*
X024629Y006635D03*
X018047Y006635D03*
X016629Y006635D03*
X016629Y008367D03*
X018047Y008367D03*
D12*
X017338Y008367D03*
X017338Y006635D03*
X025338Y006635D03*
X025338Y008367D03*
X025338Y014635D03*
X025338Y016367D03*
X017338Y016367D03*
X017338Y014635D03*
D13*
X014338Y017001D03*
X020338Y017001D03*
X022338Y017001D03*
X028338Y017001D03*
X028338Y009001D03*
X022338Y009001D03*
X020338Y009001D03*
X014338Y009001D03*
D14*
X014338Y008001D03*
X014338Y007001D03*
X014338Y006001D03*
X020338Y006001D03*
X022338Y006001D03*
X022338Y007001D03*
X020338Y007001D03*
X020338Y008001D03*
X022338Y008001D03*
X028338Y008001D03*
X028338Y007001D03*
X028338Y006001D03*
X028338Y014001D03*
X028338Y015001D03*
X028338Y016001D03*
X022338Y016001D03*
X020338Y016001D03*
X020338Y015001D03*
X022338Y015001D03*
X022338Y014001D03*
X020338Y014001D03*
X014338Y014001D03*
X014338Y015001D03*
X014338Y016001D03*
D15*
X020338Y018501D03*
X028338Y018501D03*
X022338Y012501D03*
X020338Y010501D03*
X014338Y012501D03*
X028338Y010501D03*
X022338Y004501D03*
X014338Y004501D03*
D16*
X016738Y005701D03*
X016838Y007501D03*
X017838Y007601D03*
X019038Y007501D03*
X017338Y009301D03*
X016538Y009751D03*
X024538Y009751D03*
X025338Y009301D03*
X025838Y007601D03*
X027038Y007501D03*
X024838Y007501D03*
X024738Y005701D03*
X024738Y013701D03*
X024838Y015501D03*
X025838Y015601D03*
X027038Y015501D03*
X025338Y017301D03*
X024538Y017751D03*
X019038Y015501D03*
X017838Y015601D03*
X016838Y015501D03*
X017338Y017301D03*
X016538Y017751D03*
X016738Y013701D03*
D17*
X016629Y014635D02*
X016404Y014635D01*
X015838Y015201D01*
X015838Y017001D01*
X014338Y017001D01*
X015838Y017001D02*
X016138Y017301D01*
X017338Y017301D01*
X022338Y017001D02*
X023838Y017001D01*
X023838Y015201D01*
X024404Y014635D01*
X024629Y014635D01*
X025338Y014635D01*
X026047Y014635D01*
X025338Y014635D01*
X023838Y017001D02*
X024138Y017301D01*
X025338Y017301D01*
X018047Y014635D02*
X017338Y014635D01*
X016629Y014635D01*
X017338Y014635D02*
X018047Y014635D01*
X017338Y009301D02*
X016138Y009301D01*
X015838Y009001D01*
X015838Y007201D01*
X016404Y006635D01*
X016629Y006635D01*
X017338Y006635D01*
X018047Y006635D01*
X017338Y006635D01*
X015838Y009001D02*
X014338Y009001D01*
X022338Y009001D02*
X023838Y009001D01*
X023838Y007201D01*
X024404Y006635D01*
X024629Y006635D01*
X025338Y006635D01*
X026047Y006635D01*
X025338Y006635D01*
X023838Y009001D02*
X024138Y009301D01*
X025338Y009301D01*
D18*
X025085Y009571D02*
X024192Y009571D01*
X024175Y009571D01*
X024235Y009675D01*
X024293Y010001D01*
X024293Y010001D01*
X024235Y010328D01*
X024069Y010615D01*
X023815Y010828D01*
X023806Y010831D01*
X026870Y010831D01*
X026861Y010828D01*
X026607Y010615D01*
X026607Y010615D01*
X026607Y010615D01*
X026441Y010328D01*
X026441Y010328D01*
X026384Y010001D01*
X026441Y009675D01*
X026607Y009388D01*
X026607Y009388D01*
X026861Y009175D01*
X027172Y009061D01*
X027172Y009061D01*
X027338Y009061D01*
X027425Y009061D01*
X027504Y009061D01*
X027798Y009168D01*
X027798Y008561D01*
X027898Y008461D01*
X028038Y008461D01*
X028032Y008459D01*
X027880Y008307D01*
X027798Y008109D01*
X027798Y007894D01*
X027880Y007695D01*
X028032Y007543D01*
X028134Y007501D01*
X028032Y007459D01*
X027880Y007307D01*
X027798Y007109D01*
X027798Y006894D01*
X027880Y006695D01*
X028032Y006543D01*
X028161Y006490D01*
X028138Y006483D01*
X028066Y006446D01*
X027999Y006398D01*
X027941Y006340D01*
X027893Y006274D01*
X027856Y006201D01*
X027831Y006123D01*
X027820Y006051D01*
X028288Y006051D01*
X028288Y005951D01*
X028388Y005951D01*
X028388Y005483D01*
X028460Y005494D01*
X028538Y005519D01*
X028611Y005556D01*
X028668Y005598D01*
X028668Y004171D01*
X027806Y004171D01*
X027815Y004175D01*
X028069Y004388D01*
X028235Y004675D01*
X028293Y005001D01*
X028293Y005001D01*
X028235Y005328D01*
X028118Y005530D01*
X028138Y005519D01*
X028216Y005494D01*
X028288Y005483D01*
X028288Y005951D01*
X027820Y005951D01*
X027831Y005879D01*
X027856Y005802D01*
X027863Y005787D01*
X027815Y005828D01*
X027504Y005941D01*
X027425Y005941D01*
X027338Y005941D01*
X027321Y005941D01*
X027251Y005941D01*
X027172Y005941D01*
X026861Y005828D01*
X026607Y005615D01*
X026607Y005615D01*
X026607Y005615D01*
X026441Y005328D01*
X026441Y005328D01*
X026384Y005001D01*
X026441Y004675D01*
X026607Y004388D01*
X026607Y004388D01*
X026861Y004175D01*
X026870Y004171D01*
X023806Y004171D01*
X023815Y004175D01*
X024069Y004388D01*
X024235Y004675D01*
X024293Y005001D01*
X024293Y005001D01*
X024235Y005328D01*
X024069Y005615D01*
X023815Y005828D01*
X023504Y005941D01*
X023425Y005941D01*
X023338Y005941D01*
X023172Y005941D01*
X022861Y005828D01*
X022813Y005787D01*
X022820Y005802D01*
X022845Y005879D01*
X022857Y005951D01*
X022388Y005951D01*
X022388Y005483D01*
X022460Y005494D01*
X022538Y005519D01*
X022558Y005530D01*
X022441Y005328D01*
X022441Y005328D01*
X022384Y005001D01*
X022407Y004868D01*
X022265Y004868D01*
X022130Y004812D01*
X022027Y004709D01*
X022008Y004663D01*
X022008Y005598D01*
X022066Y005556D01*
X022138Y005519D01*
X022216Y005494D01*
X022288Y005483D01*
X022288Y005951D01*
X022388Y005951D01*
X022388Y006051D01*
X022857Y006051D01*
X022845Y006123D01*
X022820Y006201D01*
X022783Y006274D01*
X022735Y006340D01*
X022677Y006398D01*
X022611Y006446D01*
X022538Y006483D01*
X022516Y006490D01*
X022644Y006543D01*
X022796Y006695D01*
X022878Y006894D01*
X022878Y007109D01*
X022796Y007307D01*
X022644Y007459D01*
X022542Y007501D01*
X022644Y007543D01*
X022796Y007695D01*
X022878Y007894D01*
X022878Y008109D01*
X022796Y008307D01*
X022644Y008459D01*
X022638Y008461D01*
X022779Y008461D01*
X022878Y008561D01*
X022878Y008731D01*
X023568Y008731D01*
X023568Y007255D01*
X023568Y007148D01*
X023609Y007048D01*
X024184Y006474D01*
X024184Y006171D01*
X024283Y006071D01*
X024975Y006071D01*
X025023Y006119D01*
X025071Y006071D01*
X025605Y006071D01*
X025653Y006119D01*
X025701Y006071D01*
X026393Y006071D01*
X026492Y006171D01*
X026492Y006981D01*
X026647Y006981D01*
X026829Y006981D01*
X026979Y007131D01*
X027112Y007131D01*
X027248Y007188D01*
X027352Y007292D01*
X027408Y007428D01*
X027408Y007575D01*
X027352Y007711D01*
X027248Y007815D01*
X027112Y007871D01*
X026964Y007871D01*
X026829Y007815D01*
X026724Y007711D01*
X026668Y007575D01*
X026668Y007442D01*
X026647Y007421D01*
X026164Y007421D01*
X026208Y007528D01*
X026208Y007660D01*
X026267Y007719D01*
X026267Y007804D01*
X026393Y007804D01*
X026492Y007903D01*
X026492Y008831D01*
X026393Y008931D01*
X025701Y008931D01*
X025653Y008883D01*
X025605Y008931D01*
X025071Y008931D01*
X025023Y008883D01*
X024975Y008931D01*
X024283Y008931D01*
X024184Y008831D01*
X024184Y007903D01*
X024283Y007804D01*
X024409Y007804D01*
X024409Y007801D01*
X024409Y007619D01*
X024468Y007560D01*
X024468Y007428D01*
X024524Y007292D01*
X024617Y007199D01*
X024283Y007199D01*
X024253Y007168D01*
X024108Y007313D01*
X024108Y008889D01*
X024250Y009031D01*
X025085Y009031D01*
X025129Y008988D01*
X025264Y008931D01*
X025412Y008931D01*
X025548Y008988D01*
X025652Y009092D01*
X025708Y009228D01*
X025708Y009375D01*
X025652Y009511D01*
X025548Y009615D01*
X025412Y009671D01*
X025264Y009671D01*
X025129Y009615D01*
X025085Y009571D01*
X025137Y009618D02*
X024202Y009618D01*
X024235Y009675D02*
X024235Y009675D01*
X024242Y009717D02*
X026434Y009717D01*
X026441Y009675D02*
X026441Y009675D01*
X026474Y009618D02*
X025540Y009618D01*
X025643Y009520D02*
X026531Y009520D01*
X026588Y009421D02*
X025689Y009421D01*
X025708Y009323D02*
X026685Y009323D01*
X026802Y009224D02*
X025707Y009224D01*
X025666Y009126D02*
X026996Y009126D01*
X026861Y009175D02*
X026861Y009175D01*
X026395Y008928D02*
X027798Y008928D01*
X027798Y008830D02*
X026492Y008830D01*
X026492Y008731D02*
X027798Y008731D01*
X027798Y008633D02*
X026492Y008633D01*
X026492Y008534D02*
X027825Y008534D01*
X028009Y008436D02*
X026492Y008436D01*
X026492Y008337D02*
X027910Y008337D01*
X027852Y008239D02*
X026492Y008239D01*
X026492Y008140D02*
X027811Y008140D01*
X027798Y008042D02*
X026492Y008042D01*
X026492Y007943D02*
X027798Y007943D01*
X027819Y007844D02*
X027176Y007844D01*
X027317Y007746D02*
X027859Y007746D01*
X027928Y007647D02*
X027378Y007647D01*
X027408Y007549D02*
X028027Y007549D01*
X028023Y007450D02*
X027408Y007450D01*
X027377Y007352D02*
X027925Y007352D01*
X027858Y007253D02*
X027313Y007253D01*
X027168Y007155D02*
X027817Y007155D01*
X027798Y007056D02*
X026904Y007056D01*
X026738Y007201D02*
X027038Y007501D01*
X026698Y007647D02*
X026208Y007647D01*
X026208Y007549D02*
X026668Y007549D01*
X026668Y007450D02*
X026176Y007450D01*
X025838Y007601D02*
X026047Y007810D01*
X026047Y008367D01*
X025338Y008367D02*
X025338Y007551D01*
X025688Y007201D01*
X026738Y007201D01*
X026492Y006958D02*
X027798Y006958D01*
X027813Y006859D02*
X026492Y006859D01*
X026492Y006760D02*
X027853Y006760D01*
X027914Y006662D02*
X026492Y006662D01*
X026492Y006563D02*
X028012Y006563D01*
X028103Y006465D02*
X026492Y006465D01*
X026492Y006366D02*
X027968Y006366D01*
X027890Y006268D02*
X026492Y006268D01*
X026491Y006169D02*
X027846Y006169D01*
X027823Y006071D02*
X022854Y006071D01*
X022830Y006169D02*
X024186Y006169D01*
X024184Y006268D02*
X022786Y006268D01*
X022708Y006366D02*
X024184Y006366D01*
X024184Y006465D02*
X022574Y006465D01*
X022664Y006563D02*
X024094Y006563D01*
X023996Y006662D02*
X022762Y006662D01*
X022823Y006760D02*
X023897Y006760D01*
X023799Y006859D02*
X022864Y006859D01*
X022878Y006958D02*
X023700Y006958D01*
X023606Y007056D02*
X022878Y007056D01*
X022859Y007155D02*
X023568Y007155D01*
X023568Y007253D02*
X022818Y007253D01*
X022751Y007352D02*
X023568Y007352D01*
X023568Y007450D02*
X022653Y007450D01*
X022649Y007549D02*
X023568Y007549D01*
X023568Y007647D02*
X022748Y007647D01*
X022817Y007746D02*
X023568Y007746D01*
X023568Y007844D02*
X022858Y007844D01*
X022878Y007943D02*
X023568Y007943D01*
X023568Y008042D02*
X022878Y008042D01*
X022865Y008140D02*
X023568Y008140D01*
X023568Y008239D02*
X022824Y008239D01*
X022766Y008337D02*
X023568Y008337D01*
X023568Y008436D02*
X022667Y008436D01*
X022851Y008534D02*
X023568Y008534D01*
X023568Y008633D02*
X022878Y008633D01*
X024108Y008633D02*
X024184Y008633D01*
X024184Y008731D02*
X024108Y008731D01*
X024108Y008830D02*
X024184Y008830D01*
X024147Y008928D02*
X024281Y008928D01*
X024246Y009027D02*
X025089Y009027D01*
X025068Y008928D02*
X024978Y008928D01*
X025587Y009027D02*
X027798Y009027D01*
X027798Y009126D02*
X027680Y009126D01*
X027504Y009061D02*
X027504Y009061D01*
X026416Y009815D02*
X024260Y009815D01*
X024277Y009914D02*
X026399Y009914D01*
X026384Y010001D02*
X026384Y010001D01*
X026386Y010012D02*
X024291Y010012D01*
X024273Y010111D02*
X026403Y010111D01*
X026420Y010209D02*
X024256Y010209D01*
X024238Y010308D02*
X026438Y010308D01*
X026487Y010407D02*
X024189Y010407D01*
X024235Y010328D02*
X024235Y010328D01*
X024133Y010505D02*
X026544Y010505D01*
X026601Y010604D02*
X024076Y010604D01*
X024069Y010615D02*
X024069Y010615D01*
X023965Y010702D02*
X026711Y010702D01*
X026829Y010801D02*
X023848Y010801D01*
X023815Y010828D02*
X023815Y010828D01*
X023806Y012171D02*
X023815Y012175D01*
X024069Y012388D01*
X024235Y012675D01*
X024293Y013001D01*
X024293Y013001D01*
X024235Y013328D01*
X024069Y013615D01*
X023815Y013828D01*
X023504Y013941D01*
X023425Y013941D01*
X023338Y013941D01*
X023324Y013941D01*
X023251Y013941D01*
X023172Y013941D01*
X022861Y013828D01*
X022813Y013787D01*
X022820Y013802D01*
X022845Y013879D01*
X022857Y013951D01*
X022388Y013951D01*
X022388Y013483D01*
X022460Y013494D01*
X022538Y013519D01*
X022558Y013530D01*
X022441Y013328D01*
X022441Y013328D01*
X022384Y013001D01*
X022407Y012868D01*
X022265Y012868D01*
X022130Y012812D01*
X022027Y012709D01*
X022008Y012663D01*
X022008Y013598D01*
X022066Y013556D01*
X022138Y013519D01*
X022216Y013494D01*
X022288Y013483D01*
X022288Y013951D01*
X022388Y013951D01*
X022388Y014051D01*
X022857Y014051D01*
X022845Y014123D01*
X022820Y014201D01*
X022783Y014274D01*
X022735Y014340D01*
X022677Y014398D01*
X022611Y014446D01*
X022538Y014483D01*
X022516Y014490D01*
X022644Y014543D01*
X022796Y014695D01*
X022878Y014894D01*
X022878Y015109D01*
X022796Y015307D01*
X022644Y015459D01*
X022542Y015501D01*
X022644Y015543D01*
X022796Y015695D01*
X022878Y015894D01*
X022878Y016109D01*
X022796Y016307D01*
X022644Y016459D01*
X022638Y016461D01*
X022779Y016461D01*
X022878Y016561D01*
X022878Y016731D01*
X023568Y016731D01*
X023568Y015255D01*
X023568Y015148D01*
X023609Y015048D01*
X024184Y014474D01*
X024184Y014171D01*
X024283Y014071D01*
X024975Y014071D01*
X025023Y014119D01*
X025071Y014071D01*
X025605Y014071D01*
X025653Y014119D01*
X025701Y014071D01*
X026393Y014071D01*
X026492Y014171D01*
X026492Y014981D01*
X026647Y014981D01*
X026829Y014981D01*
X026979Y015131D01*
X027112Y015131D01*
X027248Y015188D01*
X027352Y015292D01*
X027408Y015428D01*
X027408Y015575D01*
X027352Y015711D01*
X027248Y015815D01*
X027112Y015871D01*
X026964Y015871D01*
X026829Y015815D01*
X026724Y015711D01*
X026668Y015575D01*
X026668Y015442D01*
X026647Y015421D01*
X026164Y015421D01*
X026208Y015528D01*
X026208Y015660D01*
X026267Y015719D01*
X026267Y015804D01*
X026393Y015804D01*
X026492Y015903D01*
X026492Y016831D01*
X026393Y016931D01*
X025701Y016931D01*
X025653Y016883D01*
X025605Y016931D01*
X025071Y016931D01*
X025023Y016883D01*
X024975Y016931D01*
X024283Y016931D01*
X024184Y016831D01*
X024184Y015903D01*
X024283Y015804D01*
X024409Y015804D01*
X024409Y015801D01*
X024409Y015619D01*
X024468Y015560D01*
X024468Y015428D01*
X024524Y015292D01*
X024617Y015199D01*
X024283Y015199D01*
X024253Y015168D01*
X024108Y015313D01*
X024108Y016889D01*
X024250Y017031D01*
X025085Y017031D01*
X025129Y016988D01*
X025264Y016931D01*
X025412Y016931D01*
X025548Y016988D01*
X025652Y017092D01*
X025708Y017228D01*
X025708Y017375D01*
X025652Y017511D01*
X025548Y017615D01*
X025412Y017671D01*
X025264Y017671D01*
X025129Y017615D01*
X025085Y017571D01*
X024192Y017571D01*
X024175Y017571D01*
X024235Y017675D01*
X024293Y018001D01*
X024235Y018328D01*
X024069Y018615D01*
X023815Y018828D01*
X023806Y018831D01*
X026870Y018831D01*
X026861Y018828D01*
X026607Y018615D01*
X026607Y018615D01*
X026607Y018615D01*
X026441Y018328D01*
X026441Y018328D01*
X026384Y018001D01*
X026441Y017675D01*
X026607Y017388D01*
X026607Y017388D01*
X026861Y017175D01*
X027172Y017061D01*
X027172Y017061D01*
X027251Y017061D01*
X027338Y017061D01*
X027504Y017061D01*
X027798Y017168D01*
X027798Y016561D01*
X027898Y016461D01*
X028038Y016461D01*
X028032Y016459D01*
X027880Y016307D01*
X027798Y016109D01*
X027798Y015894D01*
X027880Y015695D01*
X028032Y015543D01*
X028134Y015501D01*
X028032Y015459D01*
X027880Y015307D01*
X027798Y015109D01*
X027798Y014894D01*
X027880Y014695D01*
X028032Y014543D01*
X028161Y014490D01*
X028138Y014483D01*
X028066Y014446D01*
X027999Y014398D01*
X027941Y014340D01*
X027893Y014274D01*
X027856Y014201D01*
X027831Y014123D01*
X027820Y014051D01*
X028288Y014051D01*
X028288Y013951D01*
X028388Y013951D01*
X028388Y013483D01*
X028460Y013494D01*
X028538Y013519D01*
X028611Y013556D01*
X028668Y013598D01*
X028668Y012171D01*
X027806Y012171D01*
X027815Y012175D01*
X028069Y012388D01*
X028235Y012675D01*
X028293Y013001D01*
X028293Y013001D01*
X028235Y013328D01*
X028118Y013530D01*
X028138Y013519D01*
X028216Y013494D01*
X028288Y013483D01*
X028288Y013951D01*
X027820Y013951D01*
X027831Y013879D01*
X027856Y013802D01*
X027864Y013787D01*
X027815Y013828D01*
X027504Y013941D01*
X027425Y013941D01*
X027338Y013941D01*
X027337Y013941D01*
X027251Y013941D01*
X027172Y013941D01*
X026861Y013828D01*
X026861Y013828D01*
X026607Y013615D01*
X026441Y013328D01*
X026384Y013001D01*
X026441Y012675D01*
X026607Y012388D01*
X026607Y012388D01*
X026861Y012175D01*
X026870Y012171D01*
X023806Y012171D01*
X023815Y012175D02*
X023815Y012175D01*
X023822Y012180D02*
X026854Y012180D01*
X026861Y012175D02*
X026861Y012175D01*
X026737Y012279D02*
X023940Y012279D01*
X024057Y012377D02*
X026619Y012377D01*
X026556Y012476D02*
X024120Y012476D01*
X024069Y012388D02*
X024069Y012388D01*
X024069Y012388D01*
X024177Y012575D02*
X026499Y012575D01*
X026442Y012673D02*
X024234Y012673D01*
X024235Y012675D02*
X024235Y012675D01*
X024252Y012772D02*
X026424Y012772D01*
X026441Y012675D02*
X026441Y012675D01*
X026407Y012870D02*
X024269Y012870D01*
X024287Y012969D02*
X026389Y012969D01*
X026384Y013001D02*
X026384Y013001D01*
X026395Y013067D02*
X024281Y013067D01*
X024264Y013166D02*
X026413Y013166D01*
X026430Y013264D02*
X024246Y013264D01*
X024235Y013328D02*
X024235Y013328D01*
X024215Y013363D02*
X026461Y013363D01*
X026518Y013461D02*
X024158Y013461D01*
X024101Y013560D02*
X026575Y013560D01*
X026607Y013615D02*
X026607Y013615D01*
X026659Y013659D02*
X024017Y013659D01*
X024069Y013615D02*
X024069Y013615D01*
X023900Y013757D02*
X026777Y013757D01*
X026937Y013856D02*
X023739Y013856D01*
X023815Y013828D02*
X023815Y013828D01*
X023504Y013941D02*
X023504Y013941D01*
X023172Y013941D02*
X023172Y013941D01*
X022937Y013856D02*
X022837Y013856D01*
X022861Y013828D02*
X022861Y013828D01*
X022856Y014053D02*
X027820Y014053D01*
X027840Y014151D02*
X026473Y014151D01*
X026492Y014250D02*
X027881Y014250D01*
X027950Y014348D02*
X026492Y014348D01*
X026492Y014447D02*
X028067Y014447D01*
X028030Y014545D02*
X026492Y014545D01*
X026492Y014644D02*
X027932Y014644D01*
X027861Y014742D02*
X026492Y014742D01*
X026492Y014841D02*
X027820Y014841D01*
X027798Y014940D02*
X026492Y014940D01*
X026738Y015201D02*
X027038Y015501D01*
X026691Y015629D02*
X026208Y015629D01*
X026208Y015531D02*
X026668Y015531D01*
X026658Y015432D02*
X026169Y015432D01*
X025838Y015601D02*
X026047Y015810D01*
X026047Y016367D01*
X026492Y016319D02*
X027892Y016319D01*
X027844Y016221D02*
X026492Y016221D01*
X026492Y016122D02*
X027804Y016122D01*
X027798Y016024D02*
X026492Y016024D01*
X026492Y015925D02*
X027798Y015925D01*
X027826Y015826D02*
X027220Y015826D01*
X027335Y015728D02*
X027867Y015728D01*
X027946Y015629D02*
X027386Y015629D01*
X027408Y015531D02*
X028063Y015531D01*
X028005Y015432D02*
X027408Y015432D01*
X027369Y015334D02*
X027907Y015334D01*
X027851Y015235D02*
X027295Y015235D01*
X027125Y015137D02*
X027810Y015137D01*
X027798Y015038D02*
X026886Y015038D01*
X026738Y015201D02*
X025688Y015201D01*
X025338Y015551D01*
X025338Y016367D01*
X024629Y016367D02*
X024629Y015710D01*
X024838Y015501D01*
X024507Y015334D02*
X024108Y015334D01*
X024108Y015432D02*
X024468Y015432D01*
X024468Y015531D02*
X024108Y015531D01*
X024108Y015629D02*
X024409Y015629D01*
X024409Y015728D02*
X024108Y015728D01*
X024108Y015826D02*
X024261Y015826D01*
X024184Y015925D02*
X024108Y015925D01*
X024108Y016024D02*
X024184Y016024D01*
X024184Y016122D02*
X024108Y016122D01*
X024108Y016221D02*
X024184Y016221D01*
X024184Y016319D02*
X024108Y016319D01*
X024108Y016418D02*
X024184Y016418D01*
X024184Y016516D02*
X024108Y016516D01*
X024108Y016615D02*
X024184Y016615D01*
X024184Y016713D02*
X024108Y016713D01*
X024108Y016812D02*
X024184Y016812D01*
X024129Y016910D02*
X024263Y016910D01*
X024228Y017009D02*
X025107Y017009D01*
X025050Y016910D02*
X024996Y016910D01*
X025569Y017009D02*
X027798Y017009D01*
X027798Y017108D02*
X027631Y017108D01*
X027504Y017061D02*
X027504Y017061D01*
X027798Y016910D02*
X026413Y016910D01*
X026492Y016812D02*
X027798Y016812D01*
X027798Y016713D02*
X026492Y016713D01*
X026492Y016615D02*
X027798Y016615D01*
X027843Y016516D02*
X026492Y016516D01*
X026492Y016418D02*
X027991Y016418D01*
X026856Y015826D02*
X026416Y015826D01*
X026267Y015728D02*
X026742Y015728D01*
X024581Y015235D02*
X024186Y015235D01*
X023718Y014940D02*
X022878Y014940D01*
X022878Y015038D02*
X023619Y015038D01*
X023573Y015137D02*
X022866Y015137D01*
X022826Y015235D02*
X023568Y015235D01*
X023568Y015334D02*
X022769Y015334D01*
X022671Y015432D02*
X023568Y015432D01*
X023568Y015531D02*
X022613Y015531D01*
X022730Y015629D02*
X023568Y015629D01*
X023568Y015728D02*
X022809Y015728D01*
X022850Y015826D02*
X023568Y015826D01*
X023568Y015925D02*
X022878Y015925D01*
X022878Y016024D02*
X023568Y016024D01*
X023568Y016122D02*
X022873Y016122D01*
X022832Y016221D02*
X023568Y016221D01*
X023568Y016319D02*
X022784Y016319D01*
X022685Y016418D02*
X023568Y016418D01*
X023568Y016516D02*
X022834Y016516D01*
X022878Y016615D02*
X023568Y016615D01*
X023568Y016713D02*
X022878Y016713D01*
X024192Y017600D02*
X025114Y017600D01*
X025562Y017600D02*
X026484Y017600D01*
X026437Y017699D02*
X024239Y017699D01*
X024235Y017675D02*
X024235Y017675D01*
X024257Y017797D02*
X026420Y017797D01*
X026402Y017896D02*
X024274Y017896D01*
X024291Y017994D02*
X026385Y017994D01*
X026384Y018001D02*
X026384Y018001D01*
X026400Y018093D02*
X024276Y018093D01*
X024259Y018191D02*
X026417Y018191D01*
X026435Y018290D02*
X024242Y018290D01*
X024235Y018328D02*
X024235Y018328D01*
X024200Y018389D02*
X026476Y018389D01*
X026533Y018487D02*
X024143Y018487D01*
X024086Y018586D02*
X026590Y018586D01*
X026690Y018684D02*
X023986Y018684D01*
X024069Y018615D02*
X024069Y018615D01*
X023869Y018783D02*
X026807Y018783D01*
X026861Y018828D02*
X026861Y018828D01*
X026541Y017502D02*
X025656Y017502D01*
X025696Y017403D02*
X026598Y017403D01*
X026706Y017305D02*
X025708Y017305D01*
X025699Y017206D02*
X026823Y017206D01*
X026861Y017175D02*
X026861Y017175D01*
X027045Y017108D02*
X025658Y017108D01*
X025680Y016910D02*
X025626Y016910D01*
X023815Y018828D02*
X023815Y018828D01*
X019798Y017168D02*
X019798Y016561D01*
X019898Y016461D01*
X020038Y016461D01*
X020032Y016459D01*
X019880Y016307D01*
X019798Y016109D01*
X019798Y015894D01*
X019880Y015695D01*
X020032Y015543D01*
X020134Y015501D01*
X020032Y015459D01*
X019880Y015307D01*
X019798Y015109D01*
X019798Y014894D01*
X019880Y014695D01*
X020032Y014543D01*
X020161Y014490D01*
X020138Y014483D01*
X020066Y014446D01*
X019999Y014398D01*
X019941Y014340D01*
X019893Y014274D01*
X019856Y014201D01*
X019831Y014123D01*
X019820Y014051D01*
X020288Y014051D01*
X020288Y013951D01*
X020388Y013951D01*
X020388Y013483D01*
X020460Y013494D01*
X020538Y013519D01*
X020611Y013556D01*
X020668Y013598D01*
X020668Y012171D01*
X019806Y012171D01*
X019815Y012175D01*
X020069Y012388D01*
X020235Y012675D01*
X020293Y013001D01*
X020293Y013001D01*
X020235Y013328D01*
X020118Y013530D01*
X020138Y013519D01*
X020216Y013494D01*
X020288Y013483D01*
X020288Y013951D01*
X019820Y013951D01*
X019831Y013879D01*
X019856Y013802D01*
X019864Y013787D01*
X019815Y013828D01*
X019504Y013941D01*
X019425Y013941D01*
X019338Y013941D01*
X019331Y013941D01*
X019251Y013941D01*
X019172Y013941D01*
X018861Y013828D01*
X018607Y013615D01*
X018607Y013615D01*
X018607Y013615D01*
X018441Y013328D01*
X018441Y013328D01*
X018384Y013001D01*
X018441Y012675D01*
X018607Y012388D01*
X018607Y012388D01*
X018861Y012175D01*
X018870Y012171D01*
X015806Y012171D01*
X015815Y012175D01*
X016069Y012388D01*
X016235Y012675D01*
X016293Y013001D01*
X016293Y013001D01*
X016235Y013328D01*
X016069Y013615D01*
X015815Y013828D01*
X015504Y013941D01*
X015425Y013941D01*
X015338Y013941D01*
X015303Y013941D01*
X015251Y013941D01*
X015172Y013941D01*
X014861Y013828D01*
X014813Y013787D01*
X014820Y013802D01*
X014845Y013879D01*
X014857Y013951D01*
X014388Y013951D01*
X014388Y013483D01*
X014460Y013494D01*
X014538Y013519D01*
X014558Y013530D01*
X014441Y013328D01*
X014441Y013328D01*
X014384Y013001D01*
X014407Y012868D01*
X014265Y012868D01*
X014130Y012812D01*
X014027Y012709D01*
X014008Y012663D01*
X014008Y013598D01*
X014066Y013556D01*
X014138Y013519D01*
X014216Y013494D01*
X014288Y013483D01*
X014288Y013951D01*
X014388Y013951D01*
X014388Y014051D01*
X014857Y014051D01*
X014845Y014123D01*
X014820Y014201D01*
X014783Y014274D01*
X014735Y014340D01*
X014677Y014398D01*
X014611Y014446D01*
X014538Y014483D01*
X014516Y014490D01*
X014644Y014543D01*
X014796Y014695D01*
X014878Y014894D01*
X014878Y015109D01*
X014796Y015307D01*
X014644Y015459D01*
X014542Y015501D01*
X014644Y015543D01*
X014796Y015695D01*
X014878Y015894D01*
X014878Y016109D01*
X014796Y016307D01*
X014644Y016459D01*
X014638Y016461D01*
X014779Y016461D01*
X014878Y016561D01*
X014878Y016731D01*
X015568Y016731D01*
X015568Y015255D01*
X015568Y015148D01*
X015609Y015048D01*
X016184Y014474D01*
X016184Y014171D01*
X016283Y014071D01*
X016975Y014071D01*
X017023Y014119D01*
X017071Y014071D01*
X017605Y014071D01*
X017653Y014119D01*
X017701Y014071D01*
X018393Y014071D01*
X018492Y014171D01*
X018492Y014981D01*
X018647Y014981D01*
X018829Y014981D01*
X018979Y015131D01*
X019112Y015131D01*
X019248Y015188D01*
X019352Y015292D01*
X019408Y015428D01*
X019408Y015575D01*
X019352Y015711D01*
X019248Y015815D01*
X019112Y015871D01*
X018964Y015871D01*
X018829Y015815D01*
X018724Y015711D01*
X018668Y015575D01*
X018668Y015442D01*
X018647Y015421D01*
X018164Y015421D01*
X018208Y015528D01*
X018208Y015660D01*
X018267Y015719D01*
X018267Y015804D01*
X018393Y015804D01*
X018492Y015903D01*
X018492Y016831D01*
X018393Y016931D01*
X017701Y016931D01*
X017653Y016883D01*
X017605Y016931D01*
X017071Y016931D01*
X017023Y016883D01*
X016975Y016931D01*
X016283Y016931D01*
X016184Y016831D01*
X016184Y015903D01*
X016283Y015804D01*
X016409Y015804D01*
X016409Y015801D01*
X016409Y015619D01*
X016468Y015560D01*
X016468Y015428D01*
X016524Y015292D01*
X016617Y015199D01*
X016283Y015199D01*
X016253Y015168D01*
X016108Y015313D01*
X016108Y016889D01*
X016250Y017031D01*
X017085Y017031D01*
X017129Y016988D01*
X017264Y016931D01*
X017412Y016931D01*
X017548Y016988D01*
X017652Y017092D01*
X017708Y017228D01*
X017708Y017375D01*
X017652Y017511D01*
X017548Y017615D01*
X017412Y017671D01*
X017264Y017671D01*
X017129Y017615D01*
X017085Y017571D01*
X016192Y017571D01*
X016175Y017571D01*
X016235Y017675D01*
X016293Y018001D01*
X016293Y018001D01*
X016235Y018328D01*
X016069Y018615D01*
X015815Y018828D01*
X015806Y018831D01*
X018870Y018831D01*
X018861Y018828D01*
X018607Y018615D01*
X018607Y018615D01*
X018607Y018615D01*
X018441Y018328D01*
X018441Y018328D01*
X018384Y018001D01*
X018441Y017675D01*
X018607Y017388D01*
X018607Y017388D01*
X018861Y017175D01*
X019172Y017061D01*
X019172Y017061D01*
X019338Y017061D01*
X019425Y017061D01*
X019504Y017061D01*
X019798Y017168D01*
X019798Y017108D02*
X019631Y017108D01*
X019504Y017061D02*
X019504Y017061D01*
X019798Y017009D02*
X017569Y017009D01*
X017626Y016910D02*
X017680Y016910D01*
X017658Y017108D02*
X019045Y017108D01*
X018861Y017175D02*
X018861Y017175D01*
X018823Y017206D02*
X017699Y017206D01*
X017708Y017305D02*
X018706Y017305D01*
X018598Y017403D02*
X017696Y017403D01*
X017656Y017502D02*
X018541Y017502D01*
X018484Y017600D02*
X017562Y017600D01*
X017114Y017600D02*
X016192Y017600D01*
X016235Y017675D02*
X016235Y017675D01*
X016239Y017699D02*
X018437Y017699D01*
X018441Y017675D02*
X018441Y017675D01*
X018420Y017797D02*
X016257Y017797D01*
X016274Y017896D02*
X018402Y017896D01*
X018385Y017994D02*
X016291Y017994D01*
X016276Y018093D02*
X018400Y018093D01*
X018384Y018001D02*
X018384Y018001D01*
X018417Y018191D02*
X016259Y018191D01*
X016242Y018290D02*
X018435Y018290D01*
X018476Y018389D02*
X016200Y018389D01*
X016235Y018328D02*
X016235Y018328D01*
X016143Y018487D02*
X018533Y018487D01*
X018590Y018586D02*
X016086Y018586D01*
X016069Y018615D02*
X016069Y018615D01*
X015986Y018684D02*
X018690Y018684D01*
X018807Y018783D02*
X015869Y018783D01*
X015815Y018828D02*
X015815Y018828D01*
X018861Y018828D02*
X018861Y018828D01*
X017107Y017009D02*
X016228Y017009D01*
X016263Y016910D02*
X016129Y016910D01*
X016108Y016812D02*
X016184Y016812D01*
X016184Y016713D02*
X016108Y016713D01*
X016108Y016615D02*
X016184Y016615D01*
X016184Y016516D02*
X016108Y016516D01*
X016108Y016418D02*
X016184Y016418D01*
X016184Y016319D02*
X016108Y016319D01*
X016108Y016221D02*
X016184Y016221D01*
X016184Y016122D02*
X016108Y016122D01*
X016108Y016024D02*
X016184Y016024D01*
X016184Y015925D02*
X016108Y015925D01*
X016108Y015826D02*
X016261Y015826D01*
X016409Y015728D02*
X016108Y015728D01*
X016108Y015629D02*
X016409Y015629D01*
X016468Y015531D02*
X016108Y015531D01*
X016108Y015432D02*
X016468Y015432D01*
X016507Y015334D02*
X016108Y015334D01*
X016186Y015235D02*
X016581Y015235D01*
X016838Y015501D02*
X016629Y015710D01*
X016629Y016367D01*
X017338Y016367D02*
X017338Y015551D01*
X017688Y015201D01*
X018738Y015201D01*
X019038Y015501D01*
X018691Y015629D02*
X018208Y015629D01*
X018208Y015531D02*
X018668Y015531D01*
X018658Y015432D02*
X018169Y015432D01*
X017838Y015601D02*
X018047Y015810D01*
X018047Y016367D01*
X018492Y016319D02*
X019892Y016319D01*
X019844Y016221D02*
X018492Y016221D01*
X018492Y016122D02*
X019804Y016122D01*
X019798Y016024D02*
X018492Y016024D01*
X018492Y015925D02*
X019798Y015925D01*
X019826Y015826D02*
X019220Y015826D01*
X019335Y015728D02*
X019867Y015728D01*
X019946Y015629D02*
X019386Y015629D01*
X019408Y015531D02*
X020063Y015531D01*
X020005Y015432D02*
X019408Y015432D01*
X019369Y015334D02*
X019907Y015334D01*
X019851Y015235D02*
X019295Y015235D01*
X019125Y015137D02*
X019810Y015137D01*
X019798Y015038D02*
X018886Y015038D01*
X018492Y014940D02*
X019798Y014940D01*
X019820Y014841D02*
X018492Y014841D01*
X018492Y014742D02*
X019861Y014742D01*
X019932Y014644D02*
X018492Y014644D01*
X018492Y014545D02*
X020030Y014545D01*
X020067Y014447D02*
X018492Y014447D01*
X018492Y014348D02*
X019950Y014348D01*
X019881Y014250D02*
X018492Y014250D01*
X018473Y014151D02*
X019840Y014151D01*
X019820Y014053D02*
X014856Y014053D01*
X014836Y014151D02*
X016204Y014151D01*
X016184Y014250D02*
X014795Y014250D01*
X014726Y014348D02*
X016184Y014348D01*
X016184Y014447D02*
X014609Y014447D01*
X014646Y014545D02*
X016112Y014545D01*
X016014Y014644D02*
X014744Y014644D01*
X014815Y014742D02*
X015915Y014742D01*
X015816Y014841D02*
X014856Y014841D01*
X014878Y014940D02*
X015718Y014940D01*
X015619Y015038D02*
X014878Y015038D01*
X014866Y015137D02*
X015573Y015137D01*
X015568Y015235D02*
X014826Y015235D01*
X014769Y015334D02*
X015568Y015334D01*
X015568Y015432D02*
X014671Y015432D01*
X014613Y015531D02*
X015568Y015531D01*
X015568Y015629D02*
X014730Y015629D01*
X014809Y015728D02*
X015568Y015728D01*
X015568Y015826D02*
X014850Y015826D01*
X014878Y015925D02*
X015568Y015925D01*
X015568Y016024D02*
X014878Y016024D01*
X014873Y016122D02*
X015568Y016122D01*
X015568Y016221D02*
X014832Y016221D01*
X014784Y016319D02*
X015568Y016319D01*
X015568Y016418D02*
X014685Y016418D01*
X014834Y016516D02*
X015568Y016516D01*
X015568Y016615D02*
X014878Y016615D01*
X014878Y016713D02*
X015568Y016713D01*
X016996Y016910D02*
X017050Y016910D01*
X018413Y016910D02*
X019798Y016910D01*
X019798Y016812D02*
X018492Y016812D01*
X018492Y016713D02*
X019798Y016713D01*
X019798Y016615D02*
X018492Y016615D01*
X018492Y016516D02*
X019843Y016516D01*
X019991Y016418D02*
X018492Y016418D01*
X018416Y015826D02*
X018856Y015826D01*
X018742Y015728D02*
X018267Y015728D01*
X019172Y013941D02*
X019172Y013941D01*
X018937Y013856D02*
X015739Y013856D01*
X015815Y013828D02*
X015815Y013828D01*
X015900Y013757D02*
X018776Y013757D01*
X018861Y013828D02*
X018861Y013828D01*
X018659Y013659D02*
X016017Y013659D01*
X016069Y013615D02*
X016069Y013615D01*
X016101Y013560D02*
X018575Y013560D01*
X018518Y013461D02*
X016158Y013461D01*
X016215Y013363D02*
X018461Y013363D01*
X018430Y013264D02*
X016246Y013264D01*
X016235Y013328D02*
X016235Y013328D01*
X016264Y013166D02*
X018413Y013166D01*
X018395Y013067D02*
X016281Y013067D01*
X016287Y012969D02*
X018389Y012969D01*
X018384Y013001D02*
X018384Y013001D01*
X018407Y012870D02*
X016269Y012870D01*
X016252Y012772D02*
X018424Y012772D01*
X018441Y012675D02*
X018441Y012675D01*
X018442Y012673D02*
X016234Y012673D01*
X016235Y012675D02*
X016235Y012675D01*
X016177Y012575D02*
X018499Y012575D01*
X018556Y012476D02*
X016120Y012476D01*
X016069Y012388D02*
X016069Y012388D01*
X016069Y012388D01*
X016057Y012377D02*
X018619Y012377D01*
X018737Y012279D02*
X015940Y012279D01*
X015822Y012180D02*
X018854Y012180D01*
X018861Y012175D02*
X018861Y012175D01*
X019815Y012175D02*
X019815Y012175D01*
X019822Y012180D02*
X020668Y012180D01*
X020668Y012279D02*
X019940Y012279D01*
X020057Y012377D02*
X020668Y012377D01*
X020668Y012476D02*
X020120Y012476D01*
X020069Y012388D02*
X020069Y012388D01*
X020069Y012388D01*
X020177Y012575D02*
X020668Y012575D01*
X020668Y012673D02*
X020234Y012673D01*
X020235Y012675D02*
X020235Y012675D01*
X020252Y012772D02*
X020668Y012772D01*
X020668Y012870D02*
X020269Y012870D01*
X020287Y012969D02*
X020668Y012969D01*
X020668Y013067D02*
X020281Y013067D01*
X020264Y013166D02*
X020668Y013166D01*
X020668Y013264D02*
X020246Y013264D01*
X020235Y013328D02*
X020235Y013328D01*
X020215Y013363D02*
X020668Y013363D01*
X020668Y013461D02*
X020158Y013461D01*
X020288Y013560D02*
X020388Y013560D01*
X020388Y013659D02*
X020288Y013659D01*
X020288Y013757D02*
X020388Y013757D01*
X020388Y013856D02*
X020288Y013856D01*
X020288Y013954D02*
X014388Y013954D01*
X014388Y013856D02*
X014288Y013856D01*
X014288Y013757D02*
X014388Y013757D01*
X014388Y013659D02*
X014288Y013659D01*
X014288Y013560D02*
X014388Y013560D01*
X014518Y013461D02*
X014008Y013461D01*
X014008Y013363D02*
X014461Y013363D01*
X014430Y013264D02*
X014008Y013264D01*
X014008Y013166D02*
X014413Y013166D01*
X014395Y013067D02*
X014008Y013067D01*
X014008Y012969D02*
X014389Y012969D01*
X014384Y013001D02*
X014384Y013001D01*
X014407Y012870D02*
X014008Y012870D01*
X014008Y012772D02*
X014090Y012772D01*
X014012Y012673D02*
X014008Y012673D01*
X014008Y013560D02*
X014061Y013560D01*
X014837Y013856D02*
X014937Y013856D01*
X014861Y013828D02*
X014861Y013828D01*
X015172Y013941D02*
X015172Y013941D01*
X015504Y013941D02*
X015504Y013941D01*
X019504Y013941D02*
X019504Y013941D01*
X019739Y013856D02*
X019839Y013856D01*
X019815Y013828D02*
X019815Y013828D01*
X020615Y013560D02*
X020668Y013560D01*
X022008Y013560D02*
X022061Y013560D01*
X022008Y013461D02*
X022518Y013461D01*
X022461Y013363D02*
X022008Y013363D01*
X022008Y013264D02*
X022430Y013264D01*
X022413Y013166D02*
X022008Y013166D01*
X022008Y013067D02*
X022395Y013067D01*
X022384Y013001D02*
X022384Y013001D01*
X022389Y012969D02*
X022008Y012969D01*
X022008Y012870D02*
X022407Y012870D01*
X022090Y012772D02*
X022008Y012772D01*
X022008Y012673D02*
X022012Y012673D01*
X022288Y013560D02*
X022388Y013560D01*
X022388Y013659D02*
X022288Y013659D01*
X022288Y013757D02*
X022388Y013757D01*
X022388Y013856D02*
X022288Y013856D01*
X022388Y013954D02*
X028288Y013954D01*
X028288Y013856D02*
X028388Y013856D01*
X028388Y013757D02*
X028288Y013757D01*
X028288Y013659D02*
X028388Y013659D01*
X028388Y013560D02*
X028288Y013560D01*
X028158Y013461D02*
X028668Y013461D01*
X028668Y013363D02*
X028215Y013363D01*
X028235Y013328D02*
X028235Y013328D01*
X028246Y013264D02*
X028668Y013264D01*
X028668Y013166D02*
X028264Y013166D01*
X028281Y013067D02*
X028668Y013067D01*
X028668Y012969D02*
X028287Y012969D01*
X028269Y012870D02*
X028668Y012870D01*
X028668Y012772D02*
X028252Y012772D01*
X028235Y012675D02*
X028235Y012675D01*
X028234Y012673D02*
X028668Y012673D01*
X028668Y012575D02*
X028177Y012575D01*
X028120Y012476D02*
X028668Y012476D01*
X028668Y012377D02*
X028057Y012377D01*
X028069Y012388D02*
X028069Y012388D01*
X028069Y012388D01*
X027940Y012279D02*
X028668Y012279D01*
X028668Y012180D02*
X027822Y012180D01*
X027815Y012175D02*
X027815Y012175D01*
X028615Y013560D02*
X028668Y013560D01*
X027839Y013856D02*
X027739Y013856D01*
X027815Y013828D02*
X027815Y013828D01*
X027504Y013941D02*
X027504Y013941D01*
X027172Y013941D02*
X027172Y013941D01*
X024204Y014151D02*
X022836Y014151D01*
X022795Y014250D02*
X024184Y014250D01*
X024184Y014348D02*
X022726Y014348D01*
X022609Y014447D02*
X024184Y014447D01*
X024112Y014545D02*
X022646Y014545D01*
X022744Y014644D02*
X024014Y014644D01*
X023915Y014742D02*
X022815Y014742D01*
X022856Y014841D02*
X023816Y014841D01*
X026861Y010828D02*
X026861Y010828D01*
X025698Y008928D02*
X025608Y008928D01*
X024629Y008367D02*
X024629Y007710D01*
X024838Y007501D01*
X024500Y007352D02*
X024108Y007352D01*
X024108Y007450D02*
X024468Y007450D01*
X024468Y007549D02*
X024108Y007549D01*
X024108Y007647D02*
X024409Y007647D01*
X024409Y007746D02*
X024108Y007746D01*
X024108Y007844D02*
X024243Y007844D01*
X024184Y007943D02*
X024108Y007943D01*
X024108Y008042D02*
X024184Y008042D01*
X024184Y008140D02*
X024108Y008140D01*
X024108Y008239D02*
X024184Y008239D01*
X024184Y008337D02*
X024108Y008337D01*
X024108Y008436D02*
X024184Y008436D01*
X024184Y008534D02*
X024108Y008534D01*
X026267Y007746D02*
X026760Y007746D01*
X026900Y007844D02*
X026434Y007844D01*
X024563Y007253D02*
X024168Y007253D01*
X023690Y005874D02*
X026987Y005874D01*
X026861Y005828D02*
X026861Y005828D01*
X026798Y005775D02*
X023878Y005775D01*
X023996Y005676D02*
X026681Y005676D01*
X026586Y005578D02*
X024091Y005578D01*
X024069Y005615D02*
X024069Y005615D01*
X024147Y005479D02*
X026529Y005479D01*
X026472Y005381D02*
X024204Y005381D01*
X024235Y005328D02*
X024235Y005328D01*
X024243Y005282D02*
X026433Y005282D01*
X026416Y005184D02*
X024260Y005184D01*
X024278Y005085D02*
X026398Y005085D01*
X026384Y005001D02*
X026384Y005001D01*
X026386Y004987D02*
X024290Y004987D01*
X024273Y004888D02*
X026404Y004888D01*
X026421Y004790D02*
X024255Y004790D01*
X024238Y004691D02*
X026438Y004691D01*
X026441Y004675D02*
X026441Y004675D01*
X026489Y004593D02*
X024187Y004593D01*
X024235Y004675D02*
X024235Y004675D01*
X024131Y004494D02*
X026546Y004494D01*
X026602Y004395D02*
X024074Y004395D01*
X024069Y004388D02*
X024069Y004388D01*
X024069Y004388D01*
X023961Y004297D02*
X026715Y004297D01*
X026833Y004198D02*
X023844Y004198D01*
X023815Y004175D02*
X023815Y004175D01*
X022404Y004888D02*
X022008Y004888D01*
X022008Y004790D02*
X022108Y004790D01*
X022020Y004691D02*
X022008Y004691D01*
X022008Y004987D02*
X022386Y004987D01*
X022384Y005001D02*
X022384Y005001D01*
X022398Y005085D02*
X022008Y005085D01*
X022008Y005184D02*
X022416Y005184D01*
X022433Y005282D02*
X022008Y005282D01*
X022008Y005381D02*
X022472Y005381D01*
X022529Y005479D02*
X022008Y005479D01*
X022008Y005578D02*
X022036Y005578D01*
X022288Y005578D02*
X022388Y005578D01*
X022388Y005676D02*
X022288Y005676D01*
X022288Y005775D02*
X022388Y005775D01*
X022388Y005874D02*
X022288Y005874D01*
X022388Y005972D02*
X028288Y005972D01*
X028288Y005874D02*
X028388Y005874D01*
X028388Y005775D02*
X028288Y005775D01*
X028288Y005676D02*
X028388Y005676D01*
X028388Y005578D02*
X028288Y005578D01*
X028147Y005479D02*
X028668Y005479D01*
X028668Y005381D02*
X028204Y005381D01*
X028235Y005328D02*
X028235Y005328D01*
X028243Y005282D02*
X028668Y005282D01*
X028668Y005184D02*
X028260Y005184D01*
X028278Y005085D02*
X028668Y005085D01*
X028668Y004987D02*
X028290Y004987D01*
X028273Y004888D02*
X028668Y004888D01*
X028668Y004790D02*
X028255Y004790D01*
X028238Y004691D02*
X028668Y004691D01*
X028668Y004593D02*
X028187Y004593D01*
X028235Y004675D02*
X028235Y004675D01*
X028131Y004494D02*
X028668Y004494D01*
X028668Y004395D02*
X028074Y004395D01*
X028069Y004388D02*
X028069Y004388D01*
X028069Y004388D01*
X027961Y004297D02*
X028668Y004297D01*
X028668Y004198D02*
X027844Y004198D01*
X027815Y004175D02*
X027815Y004175D01*
X026861Y004175D02*
X026861Y004175D01*
X028640Y005578D02*
X028668Y005578D01*
X027833Y005874D02*
X027690Y005874D01*
X027815Y005828D02*
X027815Y005828D01*
X027504Y005941D02*
X027504Y005941D01*
X027172Y005941D02*
X027172Y005941D01*
X023172Y005941D02*
X023172Y005941D01*
X022987Y005874D02*
X022843Y005874D01*
X022861Y005828D02*
X022861Y005828D01*
X020668Y005598D02*
X020668Y004171D01*
X019806Y004171D01*
X019815Y004175D01*
X020069Y004388D01*
X020069Y004388D01*
X020235Y004675D01*
X020293Y005001D01*
X020293Y005001D01*
X020235Y005328D01*
X020118Y005530D01*
X020138Y005519D01*
X020216Y005494D01*
X020288Y005483D01*
X020288Y005951D01*
X020388Y005951D01*
X020388Y005483D01*
X020460Y005494D01*
X020538Y005519D01*
X020611Y005556D01*
X020668Y005598D01*
X020668Y005578D02*
X020640Y005578D01*
X020668Y005479D02*
X020147Y005479D01*
X020204Y005381D02*
X020668Y005381D01*
X020668Y005282D02*
X020243Y005282D01*
X020235Y005328D02*
X020235Y005328D01*
X020260Y005184D02*
X020668Y005184D01*
X020668Y005085D02*
X020278Y005085D01*
X020290Y004987D02*
X020668Y004987D01*
X020668Y004888D02*
X020273Y004888D01*
X020255Y004790D02*
X020668Y004790D01*
X020668Y004691D02*
X020238Y004691D01*
X020187Y004593D02*
X020668Y004593D01*
X020668Y004494D02*
X020131Y004494D01*
X020074Y004395D02*
X020668Y004395D01*
X020668Y004297D02*
X019961Y004297D01*
X019844Y004198D02*
X020668Y004198D01*
X019815Y004175D02*
X019815Y004175D01*
X018870Y004171D02*
X015806Y004171D01*
X015815Y004175D01*
X016069Y004388D01*
X016235Y004675D01*
X016293Y005001D01*
X016293Y005001D01*
X016235Y005328D01*
X016069Y005615D01*
X015815Y005828D01*
X015504Y005941D01*
X015425Y005941D01*
X015338Y005941D01*
X015336Y005941D01*
X015251Y005941D01*
X015172Y005941D01*
X014861Y005828D01*
X014813Y005787D01*
X014820Y005802D01*
X014845Y005879D01*
X014857Y005951D01*
X014388Y005951D01*
X014388Y005483D01*
X014460Y005494D01*
X014538Y005519D01*
X014558Y005530D01*
X014441Y005328D01*
X014384Y005001D01*
X014407Y004868D01*
X014265Y004868D01*
X014130Y004812D01*
X014027Y004709D01*
X014008Y004663D01*
X014008Y005598D01*
X014066Y005556D01*
X014138Y005519D01*
X014216Y005494D01*
X014288Y005483D01*
X014288Y005951D01*
X014388Y005951D01*
X014388Y006051D01*
X014857Y006051D01*
X014845Y006123D01*
X014820Y006201D01*
X014783Y006274D01*
X014735Y006340D01*
X014677Y006398D01*
X014611Y006446D01*
X014538Y006483D01*
X014516Y006490D01*
X014644Y006543D01*
X014796Y006695D01*
X014878Y006894D01*
X014878Y007109D01*
X014796Y007307D01*
X014644Y007459D01*
X014542Y007501D01*
X014644Y007543D01*
X014796Y007695D01*
X014878Y007894D01*
X014878Y008109D01*
X014796Y008307D01*
X014644Y008459D01*
X014639Y008461D01*
X014779Y008461D01*
X014878Y008561D01*
X014878Y008731D01*
X015568Y008731D01*
X015568Y007148D01*
X015609Y007048D01*
X015685Y006972D01*
X015685Y006972D01*
X016175Y006482D01*
X016184Y006474D01*
X016184Y006171D01*
X016283Y006071D01*
X016975Y006071D01*
X017023Y006119D01*
X017071Y006071D01*
X017605Y006071D01*
X017653Y006119D01*
X017701Y006071D01*
X018393Y006071D01*
X018492Y006171D01*
X018492Y006981D01*
X018647Y006981D01*
X018829Y006981D01*
X018979Y007131D01*
X019112Y007131D01*
X019248Y007188D01*
X019352Y007292D01*
X019408Y007428D01*
X019408Y007575D01*
X019352Y007711D01*
X019248Y007815D01*
X019112Y007871D01*
X018964Y007871D01*
X018829Y007815D01*
X018724Y007711D01*
X018668Y007575D01*
X018668Y007442D01*
X018647Y007421D01*
X018164Y007421D01*
X018208Y007528D01*
X018208Y007660D01*
X018267Y007719D01*
X018267Y007804D01*
X018393Y007804D01*
X018492Y007903D01*
X018492Y008831D01*
X018393Y008931D01*
X017701Y008931D01*
X017653Y008883D01*
X017605Y008931D01*
X017071Y008931D01*
X017023Y008883D01*
X016975Y008931D01*
X016283Y008931D01*
X016184Y008831D01*
X016184Y007903D01*
X016283Y007804D01*
X016409Y007804D01*
X016409Y007801D01*
X016409Y007619D01*
X016468Y007560D01*
X016468Y007428D01*
X016524Y007292D01*
X016617Y007199D01*
X016283Y007199D01*
X016253Y007168D01*
X016108Y007313D01*
X016108Y008889D01*
X016250Y009031D01*
X017085Y009031D01*
X017129Y008988D01*
X017264Y008931D01*
X017412Y008931D01*
X017548Y008988D01*
X017652Y009092D01*
X017708Y009228D01*
X017708Y009375D01*
X017652Y009511D01*
X017548Y009615D01*
X017412Y009671D01*
X017264Y009671D01*
X017129Y009615D01*
X017085Y009571D01*
X016192Y009571D01*
X016175Y009571D01*
X016235Y009675D01*
X016293Y010001D01*
X016293Y010001D01*
X016235Y010328D01*
X016069Y010615D01*
X015815Y010828D01*
X015806Y010831D01*
X018870Y010831D01*
X018861Y010828D01*
X018607Y010615D01*
X018607Y010615D01*
X018607Y010615D01*
X018441Y010328D01*
X018441Y010328D01*
X018384Y010001D01*
X018441Y009675D01*
X018607Y009388D01*
X018607Y009388D01*
X018861Y009175D01*
X019172Y009061D01*
X019172Y009061D01*
X019251Y009061D01*
X019338Y009061D01*
X019504Y009061D01*
X019798Y009168D01*
X019798Y008561D01*
X019898Y008461D01*
X020038Y008461D01*
X020032Y008459D01*
X019880Y008307D01*
X019798Y008109D01*
X019798Y007894D01*
X019880Y007695D01*
X020032Y007543D01*
X020134Y007501D01*
X020032Y007459D01*
X019880Y007307D01*
X019798Y007109D01*
X019798Y006894D01*
X019880Y006695D01*
X020032Y006543D01*
X020161Y006490D01*
X020138Y006483D01*
X020066Y006446D01*
X019999Y006398D01*
X019941Y006340D01*
X019893Y006274D01*
X019856Y006201D01*
X019831Y006123D01*
X019820Y006051D01*
X020288Y006051D01*
X020288Y005951D01*
X019820Y005951D01*
X019831Y005879D01*
X019856Y005802D01*
X019863Y005787D01*
X019815Y005828D01*
X019504Y005941D01*
X019425Y005941D01*
X019338Y005941D01*
X019291Y005941D01*
X019251Y005941D01*
X019172Y005941D01*
X018861Y005828D01*
X018607Y005615D01*
X018607Y005615D01*
X018607Y005615D01*
X018441Y005328D01*
X018441Y005328D01*
X018384Y005001D01*
X018441Y004675D01*
X018607Y004388D01*
X018607Y004388D01*
X018861Y004175D01*
X018870Y004171D01*
X018861Y004175D02*
X018861Y004175D01*
X018833Y004198D02*
X015844Y004198D01*
X015815Y004175D02*
X015815Y004175D01*
X015961Y004297D02*
X018715Y004297D01*
X018602Y004395D02*
X016074Y004395D01*
X016069Y004388D02*
X016069Y004388D01*
X016069Y004388D01*
X016131Y004494D02*
X018546Y004494D01*
X018489Y004593D02*
X016187Y004593D01*
X016235Y004675D02*
X016235Y004675D01*
X016238Y004691D02*
X018438Y004691D01*
X018441Y004675D02*
X018441Y004675D01*
X018421Y004790D02*
X016255Y004790D01*
X016273Y004888D02*
X018404Y004888D01*
X018386Y004987D02*
X016290Y004987D01*
X016278Y005085D02*
X018398Y005085D01*
X018384Y005001D02*
X018384Y005001D01*
X018416Y005184D02*
X016260Y005184D01*
X016243Y005282D02*
X018433Y005282D01*
X018472Y005381D02*
X016204Y005381D01*
X016235Y005328D02*
X016235Y005328D01*
X016147Y005479D02*
X018529Y005479D01*
X018586Y005578D02*
X016091Y005578D01*
X016069Y005615D02*
X016069Y005615D01*
X015996Y005676D02*
X018681Y005676D01*
X018798Y005775D02*
X015878Y005775D01*
X015815Y005828D02*
X015815Y005828D01*
X015690Y005874D02*
X018987Y005874D01*
X018861Y005828D02*
X018861Y005828D01*
X019172Y005941D02*
X019172Y005941D01*
X019504Y005941D02*
X019504Y005941D01*
X019690Y005874D02*
X019833Y005874D01*
X019815Y005828D02*
X019815Y005828D01*
X019823Y006071D02*
X014854Y006071D01*
X014830Y006169D02*
X016186Y006169D01*
X016184Y006268D02*
X014786Y006268D01*
X014708Y006366D02*
X016184Y006366D01*
X016184Y006465D02*
X014574Y006465D01*
X014664Y006563D02*
X016094Y006563D01*
X016175Y006482D02*
X016175Y006482D01*
X015996Y006662D02*
X014762Y006662D01*
X014823Y006760D02*
X015897Y006760D01*
X015799Y006859D02*
X014864Y006859D01*
X014878Y006958D02*
X015700Y006958D01*
X015606Y007056D02*
X014878Y007056D01*
X014859Y007155D02*
X015568Y007155D01*
X015568Y007253D02*
X014818Y007253D01*
X014751Y007352D02*
X015568Y007352D01*
X015568Y007450D02*
X014653Y007450D01*
X014649Y007549D02*
X015568Y007549D01*
X015568Y007647D02*
X014748Y007647D01*
X014817Y007746D02*
X015568Y007746D01*
X015568Y007844D02*
X014858Y007844D01*
X014878Y007943D02*
X015568Y007943D01*
X015568Y008042D02*
X014878Y008042D01*
X014865Y008140D02*
X015568Y008140D01*
X015568Y008239D02*
X014824Y008239D01*
X014766Y008337D02*
X015568Y008337D01*
X015568Y008436D02*
X014667Y008436D01*
X014851Y008534D02*
X015568Y008534D01*
X015568Y008633D02*
X014878Y008633D01*
X016108Y008633D02*
X016184Y008633D01*
X016184Y008731D02*
X016108Y008731D01*
X016108Y008830D02*
X016184Y008830D01*
X016147Y008928D02*
X016281Y008928D01*
X016246Y009027D02*
X017089Y009027D01*
X017068Y008928D02*
X016978Y008928D01*
X017587Y009027D02*
X019798Y009027D01*
X019798Y009126D02*
X019680Y009126D01*
X019504Y009061D02*
X019504Y009061D01*
X019798Y008928D02*
X018395Y008928D01*
X018492Y008830D02*
X019798Y008830D01*
X019798Y008731D02*
X018492Y008731D01*
X018492Y008633D02*
X019798Y008633D01*
X019825Y008534D02*
X018492Y008534D01*
X018492Y008436D02*
X020009Y008436D01*
X019910Y008337D02*
X018492Y008337D01*
X018492Y008239D02*
X019852Y008239D01*
X019811Y008140D02*
X018492Y008140D01*
X018492Y008042D02*
X019798Y008042D01*
X019798Y007943D02*
X018492Y007943D01*
X018434Y007844D02*
X018900Y007844D01*
X018760Y007746D02*
X018267Y007746D01*
X018208Y007647D02*
X018698Y007647D01*
X018668Y007549D02*
X018208Y007549D01*
X018176Y007450D02*
X018668Y007450D01*
X018738Y007201D02*
X019038Y007501D01*
X019168Y007155D02*
X019817Y007155D01*
X019798Y007056D02*
X018904Y007056D01*
X018738Y007201D02*
X017688Y007201D01*
X017338Y007551D01*
X017338Y008367D01*
X018047Y008367D02*
X018047Y007810D01*
X017838Y007601D01*
X016838Y007501D02*
X016629Y007710D01*
X016629Y008367D01*
X016184Y008337D02*
X016108Y008337D01*
X016108Y008239D02*
X016184Y008239D01*
X016184Y008140D02*
X016108Y008140D01*
X016108Y008042D02*
X016184Y008042D01*
X016184Y007943D02*
X016108Y007943D01*
X016108Y007844D02*
X016243Y007844D01*
X016108Y007746D02*
X016409Y007746D01*
X016409Y007647D02*
X016108Y007647D01*
X016108Y007549D02*
X016468Y007549D01*
X016468Y007450D02*
X016108Y007450D01*
X016108Y007352D02*
X016500Y007352D01*
X016563Y007253D02*
X016168Y007253D01*
X016184Y008436D02*
X016108Y008436D01*
X016108Y008534D02*
X016184Y008534D01*
X017608Y008928D02*
X017698Y008928D01*
X017666Y009126D02*
X018996Y009126D01*
X018861Y009175D02*
X018861Y009175D01*
X018802Y009224D02*
X017707Y009224D01*
X017708Y009323D02*
X018685Y009323D01*
X018588Y009421D02*
X017689Y009421D01*
X017643Y009520D02*
X018531Y009520D01*
X018474Y009618D02*
X017540Y009618D01*
X017137Y009618D02*
X016202Y009618D01*
X016235Y009675D02*
X016235Y009675D01*
X016242Y009717D02*
X018434Y009717D01*
X018441Y009675D02*
X018441Y009675D01*
X018416Y009815D02*
X016260Y009815D01*
X016277Y009914D02*
X018399Y009914D01*
X018384Y010001D02*
X018384Y010001D01*
X018386Y010012D02*
X016291Y010012D01*
X016273Y010111D02*
X018403Y010111D01*
X018420Y010209D02*
X016256Y010209D01*
X016238Y010308D02*
X018438Y010308D01*
X018487Y010407D02*
X016189Y010407D01*
X016235Y010328D02*
X016235Y010328D01*
X016133Y010505D02*
X018544Y010505D01*
X018601Y010604D02*
X016076Y010604D01*
X016069Y010615D02*
X016069Y010615D01*
X015965Y010702D02*
X018711Y010702D01*
X018829Y010801D02*
X015848Y010801D01*
X015815Y010828D02*
X015815Y010828D01*
X018861Y010828D02*
X018861Y010828D01*
X019176Y007844D02*
X019819Y007844D01*
X019859Y007746D02*
X019317Y007746D01*
X019378Y007647D02*
X019928Y007647D01*
X020027Y007549D02*
X019408Y007549D01*
X019408Y007450D02*
X020023Y007450D01*
X019925Y007352D02*
X019377Y007352D01*
X019313Y007253D02*
X019858Y007253D01*
X019798Y006958D02*
X018492Y006958D01*
X018492Y006859D02*
X019813Y006859D01*
X019853Y006760D02*
X018492Y006760D01*
X018492Y006662D02*
X019914Y006662D01*
X020012Y006563D02*
X018492Y006563D01*
X018492Y006465D02*
X020103Y006465D01*
X019968Y006366D02*
X018492Y006366D01*
X018492Y006268D02*
X019890Y006268D01*
X019846Y006169D02*
X018491Y006169D01*
X020288Y005972D02*
X014388Y005972D01*
X014388Y005874D02*
X014288Y005874D01*
X014288Y005775D02*
X014388Y005775D01*
X014388Y005676D02*
X014288Y005676D01*
X014288Y005578D02*
X014388Y005578D01*
X014529Y005479D02*
X014008Y005479D01*
X014008Y005381D02*
X014472Y005381D01*
X014433Y005282D02*
X014008Y005282D01*
X014008Y005184D02*
X014416Y005184D01*
X014398Y005085D02*
X014008Y005085D01*
X014008Y004987D02*
X014386Y004987D01*
X014404Y004888D02*
X014008Y004888D01*
X014008Y004790D02*
X014108Y004790D01*
X014020Y004691D02*
X014008Y004691D01*
X014008Y005578D02*
X014036Y005578D01*
X014843Y005874D02*
X014987Y005874D01*
X014861Y005828D02*
X014861Y005828D01*
X015172Y005941D02*
X015172Y005941D01*
X015504Y005941D02*
X015504Y005941D01*
X020288Y005874D02*
X020388Y005874D01*
X020388Y005775D02*
X020288Y005775D01*
X020288Y005676D02*
X020388Y005676D01*
X020388Y005578D02*
X020288Y005578D01*
M02*
